<svg xmlns="http://www.w3.org/2000/svg" viewBox="0 0 450.26 293.79"><defs><style>.cls-1{fill:#fff;}.cls-2{fill:#f9f9f9;}.cls-3{fill:#5b5b5b;}.cls-4{fill:#4c4c4c;}.cls-5{fill:#aeaeae;}.cls-6{fill:#203c3b;}.cls-7{fill:#e0922b;}.cls-8{fill:#e08500;}.cls-9{fill:#727272;}.cls-10{fill:#6b9492;}.cls-11{fill:#447271;}.cls-12{fill:#53706e;}.cls-13{fill:#38514e;}.cls-14{fill:#132d2b;}.cls-15{fill:#1d1d1d;}.cls-16{fill:#9b5800;}.cls-17{fill:#2a4948;}.cls-18{fill:#4b7f7d;}</style></defs><g id="Layer_2" data-name="Layer 2"><g id="Layer_1-2" data-name="Layer 1"><path d="M16.92,114.33c-1.26-8-2.43-15.74-3.76-23.5-.3-1.73.13-2.47,1.78-3,4-1.3,7.9-2.79,12-4.26-.65-4.49-1.17-8.89-2-13.23-.42-2.26,0-3.42,2.37-4.22q50.27-16.76,100.48-33.7a6.06,6.06,0,0,1,4.83.09c2.83,1.3,5.81,2.27,9,3.49a29.89,29.89,0,0,0-.05-4.85c-.4-2.35.7-3.15,2.74-3.82,9.8-3.2,19.54-6.53,29.29-9.86A9.46,9.46,0,0,0,176.17,16c4.93-3.72,9.76-7.58,14.79-11.17,2.41-1.72,5.19-2.92,7.77-4.42a2,2,0,0,1,2.83.37c1.17,1.2,2.67,2.11,3.74,3.39,1.55,1.87,3.18,2.14,5.19,1,4.34-1.36,8.73-3.76,13.1-3.83,4.16,0,8.36,2.19,12.53,3.47q33.79,10.36,67.58,20.76c4.11,1.26,4.11,1.25,3.86,5.52,0,.53,0,1.06,0,1.95,2.09-.89,4.07-1.63,5.94-2.56a7.65,7.65,0,0,1,6.15-.48q20.49,6.42,41.07,12.54c1.8.53,2.32,1.31,2,3.08s-.37,3.49-.57,5.63c2.93-1.45,5.51-2.9,8.23-4a6.72,6.72,0,0,1,4.11-.39c16.05,4.81,32.06,9.78,48.1,14.62,1.6.48,2.06,1.17,1.8,2.76-.85,5.05-1.58,10.12-2.39,15.4,4.43,1.44,8.73,3,13.13,4.19,2.38.66,2.95,1.74,2.51,4.1-1.29,6.84-2.32,13.73-3.58,20.58-.31,1.69.05,2.44,1.75,3,4.23,1.33,8.37,3,12.59,4.32,1.66.54,2.1,1.33,1.75,3-1,4.86-1.74,9.79-2.8,14.64a6.14,6.14,0,0,1-2.07,3.3C376.11,189,306.66,240.78,237.53,293c-1.44,1.09-2.42.93-3.82,0Q143,232.7,52.19,172.48,28.57,156.79,4.88,141.2a4.83,4.83,0,0,1-2.29-3.68c-.7-4.84-1.59-9.66-2.5-14.47-.29-1.54.1-2.37,1.63-2.93C6.74,118.28,11.71,116.33,16.92,114.33Zm335.85-39c-3.32,1.06-2.27,4.12-2.81,6.78q-3.27,32.06-6.4,64.13c-1,10.27-2.08,20.54-3.06,30.82a5.43,5.43,0,0,0,.61,1.95,7.83,7.83,0,0,1-1.43,1.68c-4.65,3.11-9.34,6.17-14,9.24.51-.55.91-1.33,1.53-1.59,2.58-1.12,3-3.23,3.23-5.73,2.8-32.68,6.09-65.33,9.05-98a5.9,5.9,0,0,0-.48-1.84,14.91,14.91,0,0,0-2.75-1.68C296.6,67.19,256.91,51.27,223.1,25.86a67.11,67.11,0,0,0,8.23,7.43c28.46,21.9,61,37.18,93.64,51.67,2.19,1,4.41,2.62,7.1,1.4a3.35,3.35,0,0,0-2.2,3.32c-2.6,34.21-6.25,68.25-8.63,102.49l3.3-1.67L309.1,201.42a8.1,8.1,0,0,0,2.42-5.34c2.17-29.37,4.58-58.73,6.81-88.11.33-4.19.71-8.38.95-12.58,0-.53.86-2.12-1-1.59-.25-.52-.36-1.33-.76-1.52-2.21-1.06-4.46-2-6.73-2.91-36.21-15-75.59-33.31-101-64.05a4.55,4.55,0,0,0,.89,2c4.88,5.68,9.43,11.71,14.77,16.92,9.47,9.23,20.15,17,31.23,24.25,16.64,10.82,34.22,20,52.09,28.54a8.54,8.54,0,0,0,2.63.34c-.44.8-1.21,1.57-1.27,2.39-.79,9.76-1.49,19.53-2.17,29.29q-2.54,37.08-5.12,74.16a6.28,6.28,0,0,0,.56,2l-12.2,8.61a9.85,9.85,0,0,0,1-2.66q1-13.84,1.81-27.71,2.37-38.49,4.77-77c0-.75.64-2.28-1.28-1.65l.61-1.21C265,90.27,204.75,63.89,195,26.55c-1.67-6.05-.15-12.71.61-18.6C183.84,27,196,48.61,210.83,62c1.14,1,2.12,2.29,3.17,3.45-.21,0-.5,0-.64-.13-6-5.4-11.55-11.18-15.89-18-1.57-2.47-2.94-5.06-4.4-7.6a3.19,3.19,0,0,0-.65,2.11c.25,10.16.5,20.33.82,30.49a3.62,3.62,0,0,0,.92,2.34c10.29,9.5,22.27,16.94,34.64,23.35A330.75,330.75,0,0,0,271,115.92c2.48.88,3,2.1,2.91,4.47-1.53,36-3.36,71.84-4.59,107.8,4.38-3,8.39-5.71,12.27-8.56a4.21,4.21,0,0,0,1.58-2.74c1.6-24.59,2.83-49.22,4.14-73.83.58-10.7,1.15-21.4,1.78-32.1a2.46,2.46,0,0,0-1.69-2.79c-25.91-11.5-52.53-23.14-73.43-42.8a4.58,4.58,0,0,1,1.16.54,167.88,167.88,0,0,0,33.25,23c11.87,6.4,24.25,11.87,36.45,17.66a45.53,45.53,0,0,0,5.93,1.9c-.4.76-1.11,1.49-1.15,2.27-.54,8.54-1,17.09-1.44,25.64-1.29,25-2.71,49.92-4.12,74.88-.12,2.24,0,4.49,0,6.81l1.41-.36L267.2,230.4a34,34,0,0,0,1-5.22c1-20.55,1.83-41.11,2.73-61.67.56-15,1.68-30,1.42-45.09l-2.51,1.16,1.57-2.28c-32.6-12.15-80.1-31.58-96.09-64.5-7.34-14.94-1.5-31.71,10.46-42.21,1.17-1.08,2.34-2.16,3.48-3.27C166.07,21.59,155,44.56,173.49,68.08c1.45,1.83,2.79,3.75,4.18,5.63-2.78-3.37-5.76-6.6-8.26-10.17-1.77-2.53-2.87-5.52-4.27-8.31.08,10.44.56,20.74,1.06,31.05.12,2.45-.27,5.12.59,7.29,2.27,5.71,5,11.27,7.75,16.76a71.93,71.93,0,0,0,5,7.41,5.34,5.34,0,0,1-1.27-.93c-3.32-4.74-7.16-9.14-9-14.81a74.6,74.6,0,0,0-3-6.85l-47,20.23C155,134.16,190.6,152.29,226.37,170.9c2.55,1.35,4.85,2.8,7.68,1-2.42,1-3.12,2.73-3.05,5.35.28,7.59-.22,15.17.1,22.77l2.3-.82c-1.4,1.72-2.83,2.43-5,.87-36.23-20-72.48-40.07-108.72-60-.26-2.61-.51-5.16-.78-7.85l-2.22.6L119,131c-.38-4.38-.67-8.81-1.18-13.22-.23-2.06.31-3.32,2.36-4,1.59-.52,3.09-1.3,4.63-2q19.78-8.5,39.54-17.07A2.5,2.5,0,0,0,165.56,93a18.59,18.59,0,0,0-.25-4.34c-.06-.35-.91-.57-1.39-.85.38-.91,1.14-1.85,1.1-2.74-.54-10.34-1.38-20.14-1.71-30.61L69.16,90c13.25,6.86,26,13.46,38.73,20a7.59,7.59,0,0,0,2.37.34c-1.77.63-1.2,2.13-1.1,3.31q.81,9.9,1.81,19.78c0,.52.62,1,1,1.46-.77.08-1.68.49-2.27.2-11.82-6.37-23.4-13.25-35.34-19.43-3.15-1.64-4.83-3.51-4.6-7.08,0-.45-.85-1-1.31-1.45.31-.93,1-1.89.88-2.78-.42-4.34-1-8.65-1.58-13a2.06,2.06,0,0,1,1.62-2.56c31.26-11.62,62.63-23.62,93.79-35.4v-5.1l-2,.43c2.7-2.41,2.67-2.78-.79-4.15-9.38-3.71-18.77-7.39-28.2-10.95a6.22,6.22,0,0,0-3.84,0c-34,11.43-68,22.46-102,34.2,11,5.69,21.61,11.17,32.22,16.58a13.9,13.9,0,0,0,3.22.77c-.32,1.14-1,2.33-.88,3.43.61,5.91,1.39,11.79,2.19,17.68a10.13,10.13,0,0,0,1,2.37c-.7,0-1.54.3-2.07,0C51.81,103.08,41.67,97.47,31.5,91.92c-2.3-1.26-4.57-2.41-4.13-5.65.06-.45-.29-1-.48-1.5L14.48,89.2c72.7,41.09,145.07,81.9,217.64,123.12,2.18,1.25,4.09,2.24,6.22.07.27-.28.86-.25,1.3-.36a5.5,5.5,0,0,1-1.24,1c-2.47,1-2.78,2.9-2.78,5.33,0,11.21-.43,22.17-.41,33.41l3.74-1.9L235.18,253Q129,188.29,23.31,123.21c-2.74-1.69-6.51-2.71-6.16-7.16,0-.1-.19-.21-.42-.46l-15,5.76C77.85,170.94,155.65,219,232.29,268.18c2.16,1.38,4,2.63,6.43.9-2.39,1.49-2.72,3.75-2.63,6.33.16,5.87-.05,11.24,0,17.21,69.55-51.89,138.69-104.28,208.12-156.32.77-.58,1.78-1.31,1.95-2.12,1.1-5.29,2-10.62,3-16.3l-2.14,1.24,1.5-2.11-15.09-5.29c.29,3.44-1.48,5.3-4.27,6.41,1.69-1.7,3.09-3.4,3.33-6.07.36-4,1.26-8,1.93-12,.77-4.55,1.53-9.11,2.36-14l-1.7.8.95-1.59-14-4.47c-1,1.72.15,4.27-2.58,4.59,2.12-7.2,2.6-14.34,3.92-22l-2.13.9c.4-.51.79-1,1.24-1.62-15.95-5.2-32.1-9.87-48.15-14.77a5.79,5.79,0,0,0-3.85.29C358.87,54.16,347.1,59.66,335.64,66c6.74,2.24,13.3,4.08,20.07,6.1,1.26.37,1.73.93,1.57,2.27-1.09,9.35-1.93,18.5-2.9,27.93l2.14-.29c-1.93.79-2.59,2.27-2.67,4.3-.58,6.83-1.45,13.4-2.07,20.33l1.76-.52c-.65.92-1.71,1.77-1.87,2.76-.57,3.51-.84,7.06-1.17,10.6,0,.4.33.84.5,1.27-.41.68-1.1,1.34-1.18,2.06q-1.69,15-3.21,30a6.78,6.78,0,0,0,.48,2l-3.48,2.63c.81-1.12,2.19-2.17,2.32-3.37,3.29-33.5,6.86-66.81,10.29-100.33l-1.63.69c1-1.59-.26-1.67-1.25-2C307.66,58.8,261.81,43.2,221.28,17.57a27.44,27.44,0,0,0,5.27,4.4c35.9,23.21,76.09,38.66,116.56,51.82C346.21,74.78,349.24,76.81,352.77,75.32ZM325.3,61.92c.12.31.17.83.37.9,2.46.84,4.93,1.66,7.43,2.35a3,3,0,0,0,1.92-.32c8.17-4,16.32-8.11,24.44-12.26a3.35,3.35,0,0,0,1.6-1.93,30,30,0,0,0,.57-5c0-.34-.42-.71-.64-1.07a10.86,10.86,0,0,0-2.3-1.44q-20.15-6.23-40.33-12.31a4.88,4.88,0,0,0-3,.14c-11.91,4.92-23.12,9.85-35.09,15.07,13.86,5.78,28.12,10.38,42.18,15.69A10.4,10.4,0,0,0,325.3,61.92ZM304.85,28.47l.58-1.27c-27-8.21-53.86-16.5-80.83-24.72a3.51,3.51,0,0,0-2-.18c-4.56,1.43-9.08,3-14.07,4.61,2.32,1.78,4.21,3.39,6.25,4.79,14.81,10.18,29.94,19.81,47.12,25.57,4.65,1.56,9.09,4.58,14.43,3.09a6.39,6.39,0,0,0-2,1,2.45,2.45,0,0,0-.63,2c.32.93,5,2.14,6,1.72C287.88,41.58,296,38,304.13,34.6c1.9-.78,2.65-1.72,2.41-3.65a7.09,7.09,0,0,1,.08-1.37C306.73,28.1,306.1,27.79,304.85,28.47Zm-70.5,223.4c.21-.37.34-.49.34-.62.17-11.79.36-23.59.47-35.39a2.45,2.45,0,0,0-1-1.73c-28.73-16.51-57.75-32.53-86.5-49-44.51-25-88.71-50.34-133.22-75.32a3.21,3.21,0,0,0-.15.84c1.46,9.36,2.92,18.72,4.46,28.08A2.88,2.88,0,0,0,20,120.45c26.55,16.41,53.24,32.61,79.82,49C144.74,196.86,189.37,224.47,234.35,251.87ZM1,122c.94,5.37,1.88,10.08,2.54,14.83a5.15,5.15,0,0,0,2.54,4c76.74,50.34,152.69,101.93,229.61,152,0-6.92,0-13.35.05-19.79a2.88,2.88,0,0,0-1.56-2.94c-26.5-16.8-52.95-33.7-79.51-50.4C103.33,186.93,52.33,154.68,1,122Zm117.88-6c.17,7.24,1.28,14.29,1.61,21.51a4.06,4.06,0,0,0,2.49,3.84c9.38,5,18.71,10.17,28,15.32,26.65,14.63,52.75,29.64,79.62,43.93,0-9,0-17.4-.07-25.82,0-.58-.79-1.36-1.4-1.7-2.93-1.64-5.9-3.18-8.88-4.72C186.39,150.89,152.79,133.23,118.86,115.93Zm84.07-99.71q.09,11.6.48,23.19a8,8,0,0,0,1.39,4.16c21.64,28,60.18,45.54,92.47,58.43,2.11.82,3.05,1.91,2.65,4.23-2.25,35.18-4.56,70-6.64,105.29a60,60,0,0,1,6.35-4.36c2.23-1.15,2.56-2.89,2.69-5,2.18-34,4.8-68,7.14-101.94a2.54,2.54,0,0,0-1.68-3C270.83,78.91,222.39,54.26,202.93,16.22Zm-1.6-12.78c7.83,41.75,79,72.12,114.7,87,4.54,2,4.54,1.93,4.15,6.92-2.53,33.74-5.47,67.12-7.82,100.92,2.56-1.76,4.71-3.08,6.63-4.66a4.85,4.85,0,0,0,1.66-2.91c3.05-33.61,5.78-67.26,8.78-100.88a2.73,2.73,0,0,0-2-3.26C284.42,67.81,229.06,42.51,201.33,3.44Zm3.9,3c28.06,35.36,90.32,59.12,132.52,73.91,2.35.79,3.07,1.83,2.79,4.27-3.39,33.58-6.43,67-9.35,100.61,2.79-1.91,5.16-3.44,7.4-5.15a3.58,3.58,0,0,0,1.19-2.25q2-19.06,4-38.14c2-20.39,3.94-40.81,6.09-61.2C350,77,349.44,76.46,348,76,297.85,59.23,246.06,41.34,205.23,6.47ZM68.68,90.4c.9,7.59,1.7,14.64,2.65,21.66A3.48,3.48,0,0,0,73,114.13c12.47,6.94,24.61,13.88,37.27,20.54a10.52,10.52,0,0,0,.1-1.44c-.6-7.08-1.19-14.16-1.9-21.22-.06-.62-.87-1.36-1.51-1.7C94.15,103.33,82,97.18,68.68,90.4ZM25.77,68.09c1,7.12,1.92,13.85,3,20.57a3.41,3.41,0,0,0,1.69,1.9c10.73,6.08,21.18,11.88,32.12,17.73a21.47,21.47,0,0,0,0-2.3c-.71-5.75-1.62-11.49-2.08-17.26-.19-2.4-1.28-3.37-3.21-4.31C46.6,79,36.59,73.6,25.77,68.09Zm164.71,4c0-15.26-.18-29.33-.61-44.41-.42-10.91,2.09-15.91,7.39-25a61.65,61.65,0,0,0-19.12,18.27,7,7,0,0,0-1,3.84c.23,9.1.79,18.2.81,27.3a11,11,0,0,0,2.36,7.13c.43.54.79,1.13,1.22,1.67C184.4,64.47,187.28,68.07,190.48,72.09ZM172.84,19l-29.5,9.87,20.49,7.73A45.81,45.81,0,0,1,172.84,19ZM162.74,44.3c.32-2,.51-3.76.92-5.52.29-1.25-.07-1.7-1.26-2.13-6.74-2.41-13-4.94-19.8-7.41.14,2.45.2,4.43.41,6.39a1.89,1.89,0,0,0,.93,1.33C150.15,39.43,156.39,41.84,162.74,44.3Zm110.14-1.07c-.49-1.95-5.95-4.16-8.33-3.71ZM200,14.63l-.23.1V29.89H200ZM201,9h-.13V21.13H201Z"/><path class="cls-1" d="M234.35,251.87c-45-27.4-89.61-55-134.55-82.44-26.58-16.37-53.27-32.57-79.82-49a2.88,2.88,0,0,1-1.27-1.73c-1.54-9.36-3-18.72-4.46-28.08a3.21,3.21,0,0,1,.15-.84c44.51,25,88.71,50.36,133.22,75.32,28.75,16.48,57.77,32.5,86.5,49a2.45,2.45,0,0,1,1,1.73c-.11,11.8-.3,23.6-.47,35.39C234.69,251.38,234.56,251.5,234.35,251.87Z"/><path class="cls-2" d="M236.08,269.91a8.85,8.85,0,0,1-3.79-1.73C155.65,219,77.85,170.93,1.73,121.35l15-5.76c.23.25.43.36.42.46-.35,4.45,3.42,5.47,6.16,7.16Q129.26,188.27,235.18,253"/><path class="cls-3" d="M235.18,253l3.77-3.16c6.49-4.21,12.78-8.72,19.2-13.05l3.36-2.58,5.69-3.84,18.2-12.74,5.75-3.81,12.2-8.61,5.75-3.82,15.44-10.92,1.12-.58c4.68-3.07,9.37-6.13,14-9.24a7.83,7.83,0,0,0,1.43-1.68l2.5-1.51,3.48-2.63c15-10.17,29.84-20.59,44.67-31q18.78-12.76,37.44-25.72c2.79-1.11,4.56-3,4.27-6.41L448.56,117l-1.5,2.11q-94.85,68.08-189.53,136.43l-18.81,13.53a3.85,3.85,0,0,1-2.64.83"/><path class="cls-1" d="M1,122c51.35,32.73,102.35,65,153.67,97.64,26.56,16.7,53,33.6,79.51,50.4a2.88,2.88,0,0,1,1.56,2.94c-.1,6.44-.05,12.87-.05,19.79-76.92-50-152.87-101.61-229.61-152a5.15,5.15,0,0,1-2.54-4C2.86,132,1.92,127.32,1,122Z"/><path class="cls-4" d="M238.72,269.08q104.22-74.92,208.34-150l2.14-1.24c-1,5.68-1.93,11-3,16.3-.17.81-1.18,1.54-1.95,2.12-69.43,52-138.57,104.43-208.12,156.32-.06-6,.15-11.34,0-17.21C236,272.83,236.33,270.57,238.72,269.08Z"/><path class="cls-1" d="M179.5,117.74a71.93,71.93,0,0,1-5-7.41c-2.79-5.49-5.48-11-7.75-16.76-.86-2.17-.47-4.84-.59-7.29-.5-10.31-1-20.61-1.06-31.05,1.4,2.79,2.5,5.78,4.27,8.31,2.5,3.57,5.48,6.8,8.26,10.17l-.06-.09c.85,1.22,1.48,2.71,2.59,3.61,7.27,5.92,14.25,12.15,22.35,17.07C217,103.44,232.42,110,248,117q-.54,23-1.08,46.55a6.71,6.71,0,0,1-1.17-.23c-7.28-3.64-14.58-7.25-21.83-11a163.84,163.84,0,0,1-30.89-21,5.08,5.08,0,0,0-1.39-.57l-.18-.19a14.25,14.25,0,0,0-1.48-2.14c-3.17-3.18-6.4-6.29-9.6-9.43Z"/><path class="cls-5" d="M213.93,65.37c20.91,19.66,47.51,31.3,73.43,42.8a2.46,2.46,0,0,1,1.69,2.79c-.63,10.7-1.2,21.4-1.78,32.1-1.31,24.61-2.54,49.24-4.14,73.83a4.21,4.21,0,0,1-1.58,2.74c-3.88,2.85-7.89,5.53-12.27,8.56,1.23-36,3.06-71.85,4.59-107.8.11-2.37-.43-3.59-2.91-4.47A330.75,330.75,0,0,1,228.8,98c-12.37-6.41-24.35-13.85-34.64-23.35a3.62,3.62,0,0,1-.92-2.34c-.32-10.16-.57-20.33-.82-30.49a3.19,3.19,0,0,1,.65-2.11c1.46,2.54,2.83,5.13,4.4,7.6,4.34,6.84,9.91,12.62,15.89,18,.14.13.43.09.64.13Z"/><path class="cls-6" d="M61.8,85.12a13.9,13.9,0,0,1-3.22-.77C48,78.94,37.41,73.46,26.36,67.77c33.91-11.74,68-22.77,102-34.2a6.22,6.22,0,0,1,3.84,0c9.43,3.56,18.82,7.24,28.2,10.95,3.46,1.37,3.49,1.74.8,4.15C146.48,54.23,131.71,59.52,117,64.83,98.55,71.56,80.29,78.65,61.8,85.12Z"/><path class="cls-7" d="M118.86,115.93c33.93,17.3,67.53,35,101.39,52.36,3,1.54,5.95,3.08,8.88,4.72.61.34,1.4,1.12,1.4,1.7.1,8.42.07,16.84.07,25.82-26.87-14.29-53-29.31-79.62-43.93-9.31-5.15-18.64-10.29-28-15.32a4.06,4.06,0,0,1-2.49-3.84C120.14,130.22,119,123.18,118.86,115.93Z"/><path class="cls-8" d="M191.46,130.52l.18.19a12.47,12.47,0,0,0,1.69,1.85c6.75,4.94,13.23,10.35,20.39,14.64,10.41,6.24,21.32,11.65,32,17.41l-.47.89-11.19,6.44c-2.85,1.76-5.15.31-7.7-1C190.6,152.29,155,134.16,119.28,115.38l47-20.23a74.6,74.6,0,0,1,3,6.85c1.83,5.67,5.67,10.07,9,14.81a5.34,5.34,0,0,0,1.27.93l.88,1.21c.25.62.34,1.41.78,1.83C184.55,124.07,188,127.28,191.46,130.52Z"/><path class="cls-6" d="M110.28,110.28a7.35,7.35,0,0,1-2.39-.33c-12.76-6.54-25.48-13.14-38.73-20l94.15-35.49c.33,10.46,1.17,20.27,1.71,30.61,0,.89-.72,1.83-1.1,2.74Q137.12,99.11,110.28,110.28Z"/><path class="cls-9" d="M429.2,118.13q-18.65,13-37.44,25.72c-14.83,10.42-29.66,20.84-44.67,31a6.78,6.78,0,0,1-.48-2q1.53-15,3.21-30c.08-.72.77-1.38,1.18-2.06,27.85-18.25,56.12-35.81,84.12-53.81l1.7-.8c-.83,4.9-1.59,9.46-2.36,14-.67,4-1.57,7.94-1.93,12C432.29,114.73,430.89,116.43,429.2,118.13Z"/><path class="cls-5" d="M202.93,16.22c19.46,38,67.89,62.68,104.85,81a2.54,2.54,0,0,1,1.68,3c-2.34,34-5,68-7.14,101.94-.13,2.16-.46,3.9-2.69,5a60,60,0,0,0-6.35,4.36c2.08-35.26,4.39-70.12,6.64-105.29.4-2.32-.54-3.41-2.65-4.23C265,89.1,226.46,71.61,204.8,43.57a8,8,0,0,1-1.39-4.16Q203,27.83,202.93,16.22Z"/><path class="cls-1" d="M68.41,107.08c.46.48,1.34,1,1.31,1.45-.23,3.57,1.45,5.44,4.6,7.08,11.94,6.18,23.52,13.06,35.34,19.43.59.29,1.5-.12,2.27-.2l4.79-2,2.22-.6c.27,2.69.52,5.24.78,7.85,36.24,20,72.49,40.07,108.72,60,2.13,1.56,3.56.85,5-.87l11.86-7.06c.84-.06,1.83-.43,2.52-.12,3.86,1.69,7.67,3.51,11.45,5.39.42.21.51,1.07.75,1.63L239.64,212c-.44.11-1,.08-1.3.36-2.13,2.17-4,1.18-6.22-.07C159.55,171.1,87.19,130.29,14.48,89.2l12.41-4.43c.19.55.54,1,.48,1.5-.44,3.24,1.83,4.39,4.13,5.65C41.67,97.47,51.81,103.08,62,108.61c.53.29,1.37,0,2.07,0Z"/><path class="cls-10" d="M356.52,102l-2.14.29c1-9.43,1.81-18.58,2.9-27.93.16-1.34-.31-1.9-1.57-2.27-6.78-2-13.32-3.86-20.07-6.1,11.45-6.3,23.23-11.8,34.89-17.71a5.79,5.79,0,0,1,3.85-.29c16.05,4.9,32.2,9.57,48.15,14.77-.45.59-.84,1.11-1.24,1.62C399.52,76.58,378.14,89.47,356.52,102Z"/><path class="cls-5" d="M201.33,3.44c27.76,39.09,83,64.35,126.14,83.15a2.73,2.73,0,0,1,2,3.26c-3,33.62-5.73,67.27-8.78,100.88a4.85,4.85,0,0,1-1.66,2.91c-1.92,1.58-4.07,2.9-6.63,4.66,2.35-33.8,5.29-67.18,7.82-100.92.39-5,.39-5-4.15-6.92C280.36,75.58,209.16,45.2,201.33,3.44Z"/><path class="cls-5" d="M205.23,6.47C246.06,41.34,297.85,59.23,348,76c1.41.45,2,.94,1.79,2.51-2.15,20.39-4,40.81-6.09,61.2q-1.92,19.08-4,38.14a3.58,3.58,0,0,1-1.19,2.25c-2.24,1.71-4.61,3.24-7.4,5.15,2.92-33.64,6-67,9.35-100.61.28-2.44-.44-3.48-2.79-4.27C295.58,65.6,233.31,41.85,205.23,6.47Z"/><path class="cls-11" d="M276.37,40.36c-5.34,1.49-9.78-1.53-14.43-3.09-17.18-5.76-32.31-15.39-47.12-25.57-2-1.4-3.93-3-6.25-4.79,5-1.65,9.51-3.18,14.07-4.61a3.51,3.51,0,0,1,2,.18c27,8.22,53.85,16.51,80.83,24.72l-.58,1.27Z"/><path class="cls-12" d="M356.52,102c21.62-12.5,43-25.39,64.77-37.62l2.13-.9c-1.32,7.64-1.8,14.78-3.92,22-22.06,13.39-43.85,27.32-66,40.65l-1.76.52c.62-6.93,1.49-13.5,2.07-20.33C353.93,104.24,354.59,102.76,356.52,102Z"/><path class="cls-10" d="M325.3,61.92a10.4,10.4,0,0,1-2.87-.2c-14.06-5.31-28.32-9.91-42.18-15.69,12-5.22,23.18-10.15,35.09-15.07a4.88,4.88,0,0,1,3-.14q20.19,6.07,40.33,12.31a10.86,10.86,0,0,1,2.3,1.44c-3.29,1.37-6.58,2.72-9.83,4.16A6.52,6.52,0,0,0,349.72,50l-8.92,4.33c-2.7,1.12-5.43,2.2-8.1,3.4a8.85,8.85,0,0,0-1.85,1.48Z"/><path class="cls-1" d="M177.67,73.71c-1.39-1.88-2.73-3.8-4.18-5.63C155,44.55,166.1,21.57,189.3,7.32c-1.14,1.11-2.31,2.19-3.48,3.27C173.86,21.1,168,37.86,175.36,52.8c16,32.92,63.44,52.33,96.09,64.5l-1.57,2.28-2.25,1c-.44.07-1,0-1.29.25-1.68,1.45-3.32.92-5.1.2-4.32-1.74-8.68-3.38-13.05-5-25.91-9.59-50.54-23.23-70.58-42.42Z"/><path class="cls-5" d="M353.54,126.08c22.11-13.33,43.9-27.26,66-40.65,2.73-.32,1.57-2.87,2.58-4.59l14,4.47c-.36.61-.65,1.1-.95,1.59-28,18-56.27,35.56-84.12,53.81-.17-.43-.54-.87-.5-1.27.33-3.54.6-7.09,1.17-10.6C351.83,127.85,352.89,127,353.54,126.08Z"/><path class="cls-1" d="M290.72,108.42a45.53,45.53,0,0,1-5.93-1.9c-12.2-5.79-24.58-11.26-36.45-17.66a167.88,167.88,0,0,1-33.25-23,4.58,4.58,0,0,0-1.16-.54l.07.08c-1.05-1.16-2-2.4-3.17-3.45-14.88-13.39-27-35-15.27-54-.76,5.89-2.28,12.55-.61,18.6,9.77,37.31,70,63.71,103.15,77.1-.22.44-.42.82-.61,1.21Z"/><path class="cls-9" d="M290.72,108.42l6.77-3.56c1.92-.63,1.32.9,1.28,1.65q-2.37,38.47-4.77,77-.86,13.86-1.81,27.71a9.85,9.85,0,0,1-1,2.66l-5.75,3.81L284,218c0-2.32-.1-4.57,0-6.81,1.41-25,2.83-49.92,4.12-74.88.46-8.55.9-17.1,1.44-25.64C289.61,109.91,290.32,109.18,290.72,108.42Z"/><path class="cls-9" d="M239.64,212,260,199.09c1.87-.05.94,1.4.92,2-.25,9.38-.61,18.75-.91,28.12-.09,2.67.38,5.44-1.84,7.57-6.42,4.33-12.71,8.84-19.2,13.05l-3.74,1.9c0-11.24.42-22.21.41-33.41,0-2.43.31-4.33,2.78-5.33A5.5,5.5,0,0,0,239.64,212Z"/><path class="cls-9" d="M309.1,201.42l-5.75,3.82a6.28,6.28,0,0,1-.56-2q2.54-37.08,5.12-74.16c.68-9.76,1.38-19.53,2.17-29.29.06-.82.83-1.59,1.26-2.38l6.9-3.62c1.9-.53,1.07,1.06,1,1.59-.24,4.2-.62,8.39-.95,12.58-2.23,29.38-4.64,58.74-6.81,88.11A8.1,8.1,0,0,1,309.1,201.42Z"/><path class="cls-9" d="M325.66,189.92c-1.52.8-2.65,1.35-4.42,2.25,2.38-34.24,6-68.28,8.63-102.49a3.35,3.35,0,0,1,2.19-3.32L339,82.75a5.9,5.9,0,0,1,.48,1.84c-3,32.68-6.25,65.33-9.05,98-.2,2.5-.65,4.61-3.23,5.73C326.57,188.59,326.17,189.37,325.66,189.92Z"/><path class="cls-9" d="M267.63,120.59c1.53-.68,3.33-1.5,4.76-2.17.26,15.07-.86,30-1.42,45.09-.9,20.56-1.77,41.12-2.73,61.67a34,34,0,0,1-1,5.22l-5.69,3.84c-2.05-.17-1-1.77-1-2.61.58-19.19,1.31-38.37,1.88-57.55.59-16.43,1.23-32.86,1.77-49.29a3.12,3.12,0,0,1,1.78-3.11C266.52,121.38,267.06,121,267.63,120.59Z"/><path class="cls-13" d="M68.68,90.4C82,97.18,94.15,103.33,107,110.31c.64.34,1.45,1.08,1.51,1.7.71,7.06,1.3,14.14,1.9,21.22a10.52,10.52,0,0,1-.1,1.44C97.65,128,85.51,121.07,73,114.13a3.48,3.48,0,0,1-1.71-2.07C70.38,105,69.58,98,68.68,90.4Z"/><path class="cls-14" d="M68.41,107.08l-4.35,1.52a10.13,10.13,0,0,1-1-2.37c-.8-5.89-1.58-11.77-2.19-17.68-.12-1.1.56-2.29.88-3.43C80.29,78.65,98.55,71.56,117,64.83c14.76-5.31,29.53-10.6,44.21-16.13l2-.43v5.1C132,65.15,100.59,77.15,69.33,88.77a2.06,2.06,0,0,0-1.62,2.56c.56,4.32,1.16,8.63,1.58,13C69.37,105.19,68.72,106.15,68.41,107.08Z"/><path class="cls-13" d="M25.77,68.09C36.59,73.6,46.6,79,57.27,84.42c1.93.94,3,1.91,3.21,4.31.46,5.77,1.37,11.51,2.08,17.26a21.47,21.47,0,0,1,0,2.3c-10.94-5.85-21.39-11.65-32.12-17.73a3.41,3.41,0,0,1-1.69-1.9C27.69,81.94,26.78,75.21,25.77,68.09Z"/><path class="cls-15" d="M190.48,72.09c-3.2-4-6.08-7.62-8.95-11.24-.43-.54-.79-1.13-1.22-1.67A11,11,0,0,1,178,52.05c0-9.1-.58-18.2-.81-27.3a7,7,0,0,1,1-3.84A61.65,61.65,0,0,1,197.26,2.64c-5.3,9.13-7.82,14.15-7.39,25C190.3,42.77,190.5,56.82,190.48,72.09Z"/><path class="cls-14" d="M116.72,132.84l-4.79,2c-.34-.49-.91-.94-1-1.46q-1-9.87-1.81-19.78c-.1-1.18-.67-2.68,1.11-3.32Q137.1,99,163.92,87.81c.48.28,1.33.5,1.39.85a18.59,18.59,0,0,1,.25,4.34,2.5,2.5,0,0,1-1.21,1.77q-19.74,8.61-39.54,17.07c-1.54.67-3,1.45-4.63,2-2.05.67-2.59,1.93-2.36,4,.51,4.41.8,8.84,1.18,13.22Z"/><path class="cls-1" d="M318.24,93.8l-6.9,3.62a8.83,8.83,0,0,1-2.62-.35c-17.87-8.59-35.45-17.72-52.09-28.54-11.08-7.21-21.76-15-31.23-24.25-5.34-5.21-9.89-11.24-14.77-16.92a4.55,4.55,0,0,1-.89-2c25.41,30.74,64.81,49,101,64.05,2.27.9,4.52,1.85,6.73,2.91C317.88,92.47,318,93.28,318.24,93.8Z"/><path class="cls-9" d="M343.61,177.49l-2.5,1.51a5.43,5.43,0,0,1-.61-1.95c1-10.28,2-20.55,3.06-30.82q3.17-32.07,6.4-64.13a19.57,19.57,0,0,0,.25-2.51c0-2,.45-3.6,2.55-4.26l1.83-.85,1.63-.69c-3.43,33.52-7,66.83-10.29,100.33C345.8,175.32,344.42,176.37,343.61,177.49Z"/><path class="cls-1" d="M339,82.75l-6.93,3.61c-2.68,1.22-4.9-.4-7.09-1.4-32.65-14.49-65.18-29.77-93.64-51.67a67.11,67.11,0,0,1-8.23-7.43c33.81,25.41,73.5,41.32,113.14,55.21A14.91,14.91,0,0,1,339,82.75Z"/><path class="cls-16" d="M245.26,192.19l-11.86,7.06-2.3.82c-.32-7.6.18-15.18-.1-22.77-.07-2.62.63-4.37,3.06-5.36l11.2-6.44,1-.26c0,7.79,0,15.46-.05,23.13A16.12,16.12,0,0,1,245.26,192.19Z"/><path class="cls-1" d="M354.59,74.48l-1.83.85c-3.52,1.48-6.55-.55-9.65-1.54C302.64,60.63,262.45,45.18,226.55,22a27.44,27.44,0,0,1-5.27-4.4C261.81,43.2,307.66,58.8,353.34,72.51,354.33,72.81,355.63,72.89,354.59,74.48Z"/><path class="cls-12" d="M325.3,61.92c11.44-5.63,22.92-11.19,34.37-16.8l1.32-.55c.22.36.66.73.64,1.07a30,30,0,0,1-.57,5,3.35,3.35,0,0,1-1.6,1.93c-8.12,4.15-16.27,8.21-24.44,12.26a3,3,0,0,1-1.92.32c-2.5-.69-5-1.51-7.43-2.35C325.47,62.75,325.42,62.23,325.3,61.92Z"/><path class="cls-11" d="M172.84,19a45.81,45.81,0,0,0-9,17.6l-20.49-7.73Z"/><path class="cls-17" d="M276.37,40.36l28.48-11.89c1.25-.68,1.88-.37,1.77,1.11a7.09,7.09,0,0,0-.08,1.37c.24,1.93-.51,2.87-2.41,3.65-8.18,3.37-16.25,7-24.37,10.49-1,.42-5.7-.79-6-1.72a2.45,2.45,0,0,1,.63-2A6.39,6.39,0,0,1,276.37,40.36Z"/><path class="cls-18" d="M162.74,44.3c-6.35-2.46-12.59-4.87-18.8-7.34a1.89,1.89,0,0,1-.93-1.33c-.21-2-.27-3.94-.41-6.39,6.8,2.47,13.06,5,19.8,7.41,1.19.43,1.55.88,1.26,2.13C163.25,40.54,163.06,42.34,162.74,44.3Z"/><path class="cls-1" d="M272.88,43.23l-8.33-3.71C266.93,39.07,272.39,41.28,272.88,43.23Z"/><path class="cls-1" d="M200,14.63V29.88h-.23V14.73Z"/><path class="cls-1" d="M201,9V21.13h-.13V9Z"/><path d="M245.26,192.19a16.12,16.12,0,0,0,1-3.82c.09-7.67.05-15.34.05-23.13l-1,.26.47-.89c-10.69-5.76-21.6-11.17-32-17.41-7.16-4.29-13.64-9.7-20.39-14.64a12.47,12.47,0,0,1-1.69-1.85,5.08,5.08,0,0,1,1.39.57,163.84,163.84,0,0,0,30.89,21c7.25,3.71,14.55,7.32,21.83,11a6.71,6.71,0,0,0,1.17.23Q247.46,140,248,117c-15.58-7-31-13.52-45.45-22.66-8.1-4.92-15.08-11.15-22.35-17.07-1.11-.9-1.74-2.39-2.59-3.61,20,19.19,44.67,32.83,70.58,42.42,4.37,1.62,8.73,3.26,13.05,5,1.78.72,3.42,1.25,5.1-.2.29-.25.85-.18,1.29-.25-.57.36-1.11.79-1.71,1.09a3.12,3.12,0,0,0-1.78,3.11c-.54,16.43-1.18,32.86-1.77,49.29-.57,19.18-1.3,38.36-1.88,57.55,0,.84-1,2.44,1,2.61l-3.36,2.58c2.22-2.13,1.75-4.9,1.84-7.57.3-9.37.66-18.74.91-28.12,0-.64,1-2.09-.92-2-.24-.56-.33-1.42-.75-1.63-3.78-1.88-7.59-3.7-11.45-5.39C247.09,191.76,246.1,192.13,245.26,192.19Zm15.87,5.44c.9-25.32,1.78-50.15,2.66-75l-15.13-5.79c-1.14,24.05-1.33,48.2-1.9,72.29a3.2,3.2,0,0,0,1.39,2.42C252.29,193.61,256.52,195.49,261.13,197.63Z"/><path d="M191.46,130.52c-3.44-3.24-6.91-6.45-10.3-9.74-.44-.42-.53-1.21-.78-1.83,3.2,3.14,6.43,6.25,9.6,9.43A14.25,14.25,0,0,1,191.46,130.52Z"/><path d="M340.8,54.32l-9.95,4.88a8.85,8.85,0,0,1,1.85-1.48C335.37,56.52,338.1,55.44,340.8,54.32Z"/><path d="M359.67,45.12,349.72,50a6.52,6.52,0,0,1,1.44-1.26C354,47.48,356.83,46.31,359.67,45.12Z"/><path class="cls-1" d="M261.13,197.63c-4.61-2.14-8.84-4-13-6.11a3.2,3.2,0,0,1-1.39-2.42c.57-24.09.76-48.24,1.9-72.29l15.13,5.79C262.91,147.48,262,172.31,261.13,197.63Z"/><polygon class="cls-1" points="245.73 115.94 250.08 117.35 248.98 165.24 241.59 160.26 245.73 115.94"/></g></g></svg>