<svg xmlns="http://www.w3.org/2000/svg" viewBox="0 0 448 448"><defs><style>.cls-1{fill:#fff;}.cls-2,.cls-4{fill:none;stroke:#515151;stroke-miterlimit:10;stroke-width:12px;}.cls-3{fill:#f7bb72;}.cls-4{stroke-linecap:round;}</style></defs><g id="Layer_2" data-name="Layer 2"><g id="Layer_1-2" data-name="Layer 1"><rect class="cls-1" width="448" height="448"/><rect class="cls-2" x="97.94" y="64" width="217" height="292" rx="39.88"/><circle class="cls-3" cx="293.7" cy="327.63" r="56.37"/><line class="cls-4" x1="129.69" y1="116" x2="224.69" y2="116"/><line class="cls-4" x1="130.19" y1="147.5" x2="269.19" y2="147.5"/><line class="cls-4" x1="130.19" y1="175.5" x2="269.19" y2="175.5"/><path class="cls-1" d="M276.53,350.7c-.18-3.15-.42-5.88-.69-8.17a39.47,39.47,0,0,0,13.36,2.61,15.21,15.21,0,0,0,5.53-1,9,9,0,0,0,3.92-2.8,6.69,6.69,0,0,0,1.44-4.28,5.9,5.9,0,0,0-1.19-3.66,7.17,7.17,0,0,0-3.75-2.35,23,23,0,0,0-6.57-.78,46.56,46.56,0,0,0-5.31.31c.23-2.68.42-5.21.56-7.61a24.3,24.3,0,0,0,4,.35,27.34,27.34,0,0,0,5.82-.6,7.37,7.37,0,0,0,4.29-2.41,6.07,6.07,0,0,0,1.53-4,5.38,5.38,0,0,0-.26-1.69,5.3,5.3,0,0,0-.73-1.49,5,5,0,0,0-1.18-1.2,6.47,6.47,0,0,0-1.58-.85,11.4,11.4,0,0,0-2.36-.54,23.14,23.14,0,0,0-3.2-.21,38.93,38.93,0,0,0-4.74.3q-2.46.29-6.24,1.13l.66-2.89.83-4.55c2.67-.37,4.91-.63,6.74-.77s3.81-.2,5.95-.2a40.88,40.88,0,0,1,7.07.59,17,17,0,0,1,5.86,2.05,9.13,9.13,0,0,1,3.59,3.79,11.22,11.22,0,0,1,1.17,5.11,12.74,12.74,0,0,1-.52,3.57,11.72,11.72,0,0,1-1.55,3.25,10.7,10.7,0,0,1-2.29,2.47,15.2,15.2,0,0,1-2.49,1.57,36.08,36.08,0,0,1-3.54,1.39,22,22,0,0,1,3.82.85,10.44,10.44,0,0,1,4.79,3.64,9,9,0,0,1,1.36,2.92,13.08,13.08,0,0,1,.45,3.46,12.91,12.91,0,0,1-1.54,6.16,13.06,13.06,0,0,1-4.49,4.81,19.47,19.47,0,0,1-6.69,2.69,38.34,38.34,0,0,1-7.82.78,51,51,0,0,1-6.18-.38C282.25,351.87,279.64,351.39,276.53,350.7Z"/></g></g></svg>