<svg xmlns="http://www.w3.org/2000/svg" viewBox="0 0 348 350.01"><defs><style>.cls-1{fill:#447271;}.cls-2{fill:#f7bb72;}.cls-3{fill:#203c3b;}.cls-4{fill:#fff;}</style></defs><g id="Layer_2" data-name="Layer 2"><g id="Layer_1-2" data-name="Layer 1"><circle class="cls-1" cx="174" cy="174" r="174"/><path class="cls-2" d="M294.21,22.64a1.5,1.5,0,0,0,0-3,1.5,1.5,0,0,0,0,3Z"/><path class="cls-3" d="M183.88,350c-18,.06-32.91-.57-43.51-1.87-23.45-2.86-47.59-3.7-68.83-16-7.37-4.26-14.82-9.63-15.61-18.79a42,42,0,0,1,3.23-18.91c8.15-19.68,20-37.11,36.44-50.76C108.52,233,122,221.94,140,222.21c6.42.1,12.87,3.24,19.16,5.43,18.58,6.44,36.45,4,54-3.67,13-5.64,24.06.35,34.71,6.58,17.34,10.14,32.18,23.51,42.29,40.81C297,283,302,296.05,306,309c3,9.71-4.88,16.12-12,20.5-14.45,8.9-30.65,13.32-47.55,15.18-12.41,1.36-24.8,3-37.19,4.55C202.82,349.61,194.14,350,183.88,350Z"/><path class="cls-3" d="M180.71,218.46c-40.25-.93-72.29-32.57-71.55-72,.84-44.7,32.89-72.38,72.05-71.91,41.23.5,71.12,29,71.52,71.53C253.11,187.17,222.25,217,180.71,218.46Z"/><path class="cls-4" d="M181.66,17.58C126,49.17,59,92.85,64.14,122c8.69,49.72,225.75,52.09,235.05,2.86C304.55,96.5,240.63,52.38,181.66,17.58Z"/><path class="cls-3" d="M181.66,17.58C126,47.85,59,89.69,64.14,117.63c8.69,47.64,225.75,49.91,235.05,2.75C304.55,93.19,240.63,50.92,181.66,17.58Z"/></g></g></svg>