<svg xmlns="http://www.w3.org/2000/svg" viewBox="0 0 324.41 206.21"><defs><style>.cls-1{fill:#f9f9f9;}.cls-2{font-size:41.29px;fill:#1a1a1a;font-family:LLKARATULA, LL KARATULA;letter-spacing:0.12em;}.cls-3{letter-spacing:0.02em;}.cls-4{letter-spacing:0.12em;}.cls-5{letter-spacing:0.08em;}.cls-6{letter-spacing:0.02em;}</style></defs><g id="Layer_2" data-name="Layer 2"><g id="Layer_1-2" data-name="Layer 1"><path class="cls-1" d="M239.07,135.69,49.42,129.18c-23.16,0-42.11-20.66-42.11-45.9V54c0-25.25,19-45.9,42.11-45.9h176.2c23.17,0,42.12,20.65,42.12,45.9V83.28a126.63,126.63,0,0,0,2.39,39.39c11.21,49.77,51.39,77.81,50.17,79.42C319.48,203.17,301.81,189.56,239.07,135.69Z"/><path d="M238.9,136.11q-40.07.27-79.5.12c-13.16-.08-26.3-.07-39.39-.22l-39.21-.42c-6.52-.08-13-.11-19.55-.25l-9.77-.17-2.47,0L46.22,135a40.55,40.55,0,0,1-5.63-.67,45.89,45.89,0,0,1-20.46-9.49A51.28,51.28,0,0,1,6.07,107.4,54.75,54.75,0,0,1,.42,85.76c0-.92-.11-1.91-.13-2.77l0-2.47L.21,75.59.12,65.72,0,55.84V54l0-.7.11-2.83A46.65,46.65,0,0,1,.7,44.82,54.35,54.35,0,0,1,8.62,23.59,52.46,52.46,0,0,1,24.88,7.33a46.93,46.93,0,0,1,22.34-7L48.7.29l.74,0h8l9.87,0L87.07.13,126.56,0l39.49.13,39.49.13,19.74.06c.37,0,.94,0,1.41.06l1.48.08c1,.08,2,.1,3,.24l2.92.51a18.86,18.86,0,0,1,2.89.64,40.39,40.39,0,0,1,5.6,1.86c.9.37,1.81.74,2.71,1.13l2.59,1.38a43.93,43.93,0,0,1,4.93,3.1,23.49,23.49,0,0,1,2.3,1.78L257.29,13c.69.66,1.36,1.35,2,2a27.83,27.83,0,0,1,2,2.09l1.82,2.22.9,1.12.81,1.18a55.44,55.44,0,0,1,8.88,20.79,26.63,26.63,0,0,1,.47,2.79l.37,2.8c.19,1.87.19,3.76.27,5.64l-.08,9.91c-.06,6.59-.13,13.17-.25,19.75v.43l0,.19a122.49,122.49,0,0,0,.14,28.45,115.21,115.21,0,0,0,7,27.58,137.73,137.73,0,0,0,13.26,25.55,167.12,167.12,0,0,0,18.18,22.8c1.68,1.79,3.4,3.54,5.15,5.3l2.66,2.69c.45.47.9.94,1.39,1.48.25.27.5.55.82.95l.24.32.33.48c0,.08.17.29.24.44l.12.24c0,.09.06.13.15.39a5.11,5.11,0,0,1,.24,1.37,4.55,4.55,0,0,1-.33,1.67,4,4,0,0,1-1,1.43,4.19,4.19,0,0,1-1.43.9,4.25,4.25,0,0,1-1.11.25,4.32,4.32,0,0,1-.6,0l-.51-.05-.58-.13-.36-.12a7.35,7.35,0,0,1-.91-.4c-.44-.24-.77-.44-1.1-.65-.63-.41-1.18-.8-1.73-1.2-1.08-.79-2.09-1.58-3.1-2.37-2-1.6-3.95-3.21-5.88-4.83-7.71-6.5-15.25-13.1-22.73-19.78s-14.88-13.43-22.28-20.18l-11-10.22-5.49-5.12-2.75-2.56Zm.33-.84,23,19.56q11.44,9.72,22.95,19.35c7.69,6.41,15.39,12.79,23.23,19,2,1.55,3.93,3.08,5.93,4.58,1,.74,2,1.48,3,2.18.51.35,1,.7,1.54,1,.26.16.52.31.78.44l.36.16.13,0h0c-.06,0-.1,0-.23.11a.36.36,0,0,0-.13.3s0,0,0,.06l0-.09a2,2,0,0,0-.24-.32c-.18-.22-.39-.44-.6-.67-.42-.44-.86-.87-1.31-1.3l-2.71-2.6c-1.81-1.73-3.6-3.48-5.37-5.27-14.11-14.22-26.14-30.8-33.79-49.45a120.81,120.81,0,0,1-7.95-29,129.54,129.54,0,0,1-.71-30.1v.06l0-19.75,0-9.86c-.11-1.62-.1-3.25-.29-4.85l-.34-2.41a19.3,19.3,0,0,0-.43-2.39,47.38,47.38,0,0,0-7.74-17.67l-.68-1-.78-.93-1.55-1.87c-.5-.64-1.13-1.15-1.69-1.74s-1.14-1.14-1.73-1.7l-1.88-1.53A18.43,18.43,0,0,0,248,16.12a36.16,36.16,0,0,0-4.12-2.54c-11.45-6.76-25.27-4.16-38.3-4.66L166.05,9h-79l-19.74,0H52.52c-1.64,0-3.3,0-4.89.1a38.21,38.21,0,0,0-18.28,5.62A44.45,44.45,0,0,0,15.64,28.13a46.26,46.26,0,0,0-6.9,18A39.21,39.21,0,0,0,8.2,51c-.07,1.62-.18,3.23-.15,4.88V83c0,.82.06,1.62.09,2.44a48.41,48.41,0,0,0,4.64,18.75,44.12,44.12,0,0,0,11.86,15.2,39.08,39.08,0,0,0,17.3,8.36,57.83,57.83,0,0,0,9.7.87l9.88.35,19.76.7Z"/><text class="cls-2" transform="translate(27.44 66.32)">H<tspan class="cls-3" x="28.16" y="0">ire </tspan><tspan class="cls-4" x="92.74" y="0">F</tspan><tspan class="cls-3" x="119.59" y="0">ilipino</tspan><tspan class="cls-5"><tspan x="37.49" y="37">A</tspan><tspan class="cls-6" x="68.78" y="37">rtists!</tspan></tspan></text></g></g></svg>