<svg xmlns="http://www.w3.org/2000/svg" xmlns:xlink="http://www.w3.org/1999/xlink" viewBox="0 0 1366 681"><defs><style>.cls-1{fill:#f7f7f7;}.cls-2{fill:#606060;}.cls-28,.cls-3{fill:#fff;}.cls-10,.cls-11,.cls-12,.cls-13,.cls-14,.cls-15,.cls-16,.cls-17,.cls-18,.cls-19,.cls-20,.cls-21,.cls-22,.cls-25,.cls-26,.cls-27,.cls-3,.cls-4,.cls-5,.cls-6,.cls-7,.cls-8,.cls-9{stroke:#000;stroke-miterlimit:10;}.cls-11,.cls-12,.cls-13,.cls-14,.cls-15,.cls-16,.cls-18,.cls-19,.cls-20,.cls-21,.cls-22,.cls-25,.cls-26,.cls-27,.cls-3,.cls-4,.cls-5,.cls-6,.cls-7,.cls-8,.cls-9{stroke-width:1.19px;}.cls-4{fill:url(#linear-gradient);}.cls-5{fill:url(#linear-gradient-2);}.cls-6{fill:url(#linear-gradient-3);}.cls-7{fill:url(#linear-gradient-4);}.cls-8{fill:url(#linear-gradient-5);}.cls-9{fill:url(#linear-gradient-6);}.cls-10{fill:#f69312;stroke-width:1.79px;}.cls-11{fill:url(#linear-gradient-7);}.cls-12{fill:url(#linear-gradient-8);}.cls-13{fill:url(#linear-gradient-9);}.cls-14{fill:url(#linear-gradient-10);}.cls-15{fill:url(#linear-gradient-11);}.cls-16{fill:url(#linear-gradient-12);}.cls-17{stroke-width:0.6px;fill:url(#linear-gradient-13);}.cls-18,.cls-23{fill:#a5a5a5;}.cls-19{fill:url(#linear-gradient-14);}.cls-20{fill:url(#linear-gradient-15);}.cls-21{fill:url(#linear-gradient-16);}.cls-22{fill:url(#linear-gradient-17);}.cls-24{fill:url(#linear-gradient-18);}.cls-25{fill:url(#linear-gradient-19);}.cls-26{fill:url(#linear-gradient-20);}.cls-27{fill:url(#linear-gradient-21);}.cls-29{fill:#404040;}</style><linearGradient id="linear-gradient" x1="132.85" y1="546.98" x2="185.5" y2="546.98" gradientUnits="userSpaceOnUse"><stop offset="0" stop-color="#fcfcfc"/><stop offset="0.26" stop-color="#f7f7f7"/><stop offset="0.6" stop-color="#e7e7e7"/><stop offset="0.97" stop-color="#cdcdcd"/><stop offset="1" stop-color="#cbcbcb"/></linearGradient><linearGradient id="linear-gradient-2" x1="405.5" y1="482.25" x2="445.62" y2="482.25" xlink:href="#linear-gradient"/><linearGradient id="linear-gradient-3" x1="87.53" y1="570.28" x2="134" y2="570.28" xlink:href="#linear-gradient"/><linearGradient id="linear-gradient-4" x1="508.92" y1="454.68" x2="547.59" y2="454.68" xlink:href="#linear-gradient"/><linearGradient id="linear-gradient-5" x1="277.29" y1="524.66" x2="314.16" y2="524.66" xlink:href="#linear-gradient"/><linearGradient id="linear-gradient-6" x1="463.35" y1="476.41" x2="497.77" y2="476.41" xlink:href="#linear-gradient"/><linearGradient id="linear-gradient-7" x1="188.87" y1="551.93" x2="211.74" y2="551.93" xlink:href="#linear-gradient"/><linearGradient id="linear-gradient-8" x1="223.16" y1="543.57" x2="244.73" y2="543.57" xlink:href="#linear-gradient"/><linearGradient id="linear-gradient-9" x1="257.34" y1="535.54" x2="277.48" y2="535.54" xlink:href="#linear-gradient"/><linearGradient id="linear-gradient-10" x1="338.51" y1="516.13" x2="356.03" y2="516.13" xlink:href="#linear-gradient"/><linearGradient id="linear-gradient-11" x1="371.51" y1="508.24" x2="389.9" y2="508.24" xlink:href="#linear-gradient"/><linearGradient id="linear-gradient-12" x1="393.12" y1="502.63" x2="411.94" y2="502.63" xlink:href="#linear-gradient"/><linearGradient id="linear-gradient-13" x1="567.84" y1="455.41" x2="588.38" y2="455.41" gradientUnits="userSpaceOnUse"><stop offset="0" stop-color="#606060"/><stop offset="1" stop-color="#f69312"/></linearGradient><linearGradient id="linear-gradient-14" x1="319.33" y1="521.37" x2="332.53" y2="521.37" xlink:href="#linear-gradient"/><linearGradient id="linear-gradient-15" x1="450.69" y1="488.88" x2="466.56" y2="488.88" xlink:href="#linear-gradient"/><linearGradient id="linear-gradient-16" x1="552.43" y1="464.1" x2="571.31" y2="464.1" xlink:href="#linear-gradient"/><linearGradient id="linear-gradient-17" x1="502.47" y1="476.42" x2="519.01" y2="476.42" xlink:href="#linear-gradient"/><linearGradient id="linear-gradient-18" x1="374.58" y1="447.48" x2="393.07" y2="447.48" gradientUnits="userSpaceOnUse"><stop offset="0" stop-color="#fff"/><stop offset="1" stop-color="#a5a5a5"/></linearGradient><linearGradient id="linear-gradient-19" x1="547.17" y1="462.91" x2="558.52" y2="462.91" xlink:href="#linear-gradient"/><linearGradient id="linear-gradient-20" x1="497.18" y1="475.22" x2="506.66" y2="475.22" xlink:href="#linear-gradient"/><linearGradient id="linear-gradient-21" x1="445.02" y1="488.14" x2="453.45" y2="488.14" xlink:href="#linear-gradient"/></defs><g id="Layer_2" data-name="Layer 2"><g id="Layer_1-2" data-name="Layer 1"><rect class="cls-1" width="1366" height="681"/><path class="cls-2" d="M570.85,409.59c.24-1.34.45-2.68.72-4,.92-4.52,3.39-6.69,7.89-7,5.4-.35,8.85,1.39,10,5.93.65,2.66.28,5.67-.09,8.46-.94,7.17-2.19,14.29-3.16,21.45a3.52,3.52,0,0,0,1.11,2.68c4.82,4.06,5.68,8.57,2.48,14.06-2.09,3.57-4.23,7.12-6.26,10.73-2.93,5.19-8.8,7.19-16.63,4.64-1.35,5.37-6.47,4.06-10,5.68-4.7,2.12-7.89-.2-10.81-3.48-6.61,11.25-14.18,12.85-28,6.06a7.42,7.42,0,0,0-1.1,2c-1.07,5.08-4.62,7-9.33,7.48a8.35,8.35,0,0,0-2,.47c-2.56,1-4.75.8-6.52-1.63a16.18,16.18,0,0,0-2.6-2.33c-9.29,11.82-17.73,14-30.62,7.54.07,6.18-4.29,7.16-9,8.5-5,1.43-9,1.16-12.43-3.77-2.81,6.86-7.68,10-14.3,10.7s-11.88-2.06-16.78-7a67.07,67.07,0,0,0-1.51,7.85c-.19,2.63-1.6,3.54-3.86,4.05-4.05.91-8.12,1.81-12.09,3-2.86.85-4.32.1-4.66-2.85a2.59,2.59,0,0,0-.34-.81c0-.07-.15-.11-.25-.19-.1.11-.27.2-.29.32-.69,4.89-.69,4.89-5.44,6.07-3.84,1-7.69,1.85-11.52,2.87-1.9.51-2.92,0-3.48-2-1.71-6.08-3.55-12.14-5.35-18.2A6.23,6.23,0,0,0,363,494c-.67,2.38-1.45,4.74-2,7.16-1.41,6.17-2.68,12.37-4.15,18.52a3.09,3.09,0,0,1-2,1.72c-5,1.37-9.93,2.68-15,3.74-.78.17-2.24-.81-2.7-1.64-.78-1.42-1-3.15-2.12-4.84a35,35,0,0,0-.9,5.32c-.05,2.08-.9,3-2.91,3.35a80,80,0,0,0-8.63,2.15c-2.36.73-4,.29-5.11-2a21.45,21.45,0,0,0-2.14-2.94c-3.32,6.9-9.08,10-15.91,11.41-7,1.46-13.34.06-18.78-6-.74,3.15-1.23,5.74-2,8.24a3.75,3.75,0,0,1-1.86,2.32c-5,1.44-10.14,2.62-15.2,4-2,.53-2.65-.63-3.05-2.24q-2.07-8.5-4.18-17c-.24-.95-.51-1.9-1-3.67-1.65,5.11-3.18,9.46-4.47,13.87-1.12,3.87-1.92,7.82-3,11.69a3,3,0,0,1-1.95,1.53c-5.07,1.31-10.18,2.46-15.26,3.75-1.8.45-2.69-.07-3.27-1.85-1.84-5.67-3.81-11.29-5.78-17.06a14,14,0,0,0-1,1.94c-2,6.52-3.89,13.07-6,19.56a3.66,3.66,0,0,1-2.28,1.91c-4.87,1.3-9.8,2.37-14.69,3.61-1.89.48-3-.1-3.77-1.84-1.44-3.1-3-6.12-4.75-9.49-6,20.31-36.54,27.68-49.83,13.1-.78,2.52-1.45,4.72-2.16,6.91A7.61,7.61,0,0,1,134,572c-7.51,7.69-26.89,13.13-37.59,6.85a15.16,15.16,0,0,1-3.51-2.69C87.34,570,80.81,564.53,77.87,556.5,72.16,540.86,76,523.93,93.3,516.87c5.16-2.12,8.31-5,10-10.33,2-6.23,4.89-12.13,7.18-18.26,4.42-11.83,13.87-16.76,25.44-18.73,4.77-.81,9.62-1.3,14.55.25-1.62,12.54-7.51,23.67-11.5,35.88,3.59-1.14,6.32-1.8,7.56-5.73,2.41-7.64,5.74-15,8.44-22.53A24.56,24.56,0,0,1,170,462c8.17-3.08,16.52-4.33,24.82-.31a60.63,60.63,0,0,1,5.46,3.44c1.05-2.84,2.1-5.37,2.93-8,.62-2,1.57-3.19,3.83-3.44a32.51,32.51,0,0,0,6.94-1.6c2.42-.83,3.81-.14,5.09,2,1.8,3,2.28,2.83,4.13-.1,2.84-4.49,7.31-6.65,12.26-7.66,5.28-1.08,10.59-1.48,15.52,1.79.6.4,2.78-.4,3.31-1.23,4.78-7.51,17.14-9.93,23.42-7.67,2.43.87,4.56,2.58,7.1,4.06.7-2,1.31-4.15,2.24-6.17a4.36,4.36,0,0,1,2.27-2.28c4.85-1.32,9.77-2.39,15.07-3.64,1.06,3.92,2.05,7.6,3.06,11.28s2,7.41,3.25,11.8a20,20,0,0,0,1.08-2.22c2.16-7.11,4.37-14.21,6.38-21.36.58-2.05,1.45-3.19,3.65-3.58,3.9-.7,7.76-1.61,11.59-2.61,1.9-.49,2.77,0,3.12,1.91a9,9,0,0,0,1.89,4,42.93,42.93,0,0,0,1.54-4.87,3.76,3.76,0,0,1,3.57-3.35c.29,0,.57-.19.86-.23,4.65-.63,10-4.65,12.61,3.21.92-.7,1.42-.9,1.64-1.27,5-8.58,13-10,21.84-9.1,2.36.25,3.16-.22,3.65-2.4.95-4.15,2.36-8.2,3.17-12.37,1.15-6,3.33-8.15,11.18-8.58,5.38-.3,8.5,3.67,7.29,8.9-.38,1.64-.86,3.25-1.24,4.89-.17.75-.22,1.53-.31,2.23.31.2.51.42.62.38,3.46-1.23,4.63.59,5.46,3.63a74.82,74.82,0,0,0,5.06,13.22c.59-2.24,1.17-4.48,1.76-6.72.74-2.77,1.18-5.67,2.28-8.29,1.94-4.63,5.74-7.24,10.64-8.13a3.6,3.6,0,0,0,3.4-3.36c.72-4,1.9-7.89,2.75-11.86.42-1.94,1.2-3.13,3.36-3.49a76,76,0,0,0,10.12-2.31c2.76-.86,3.88,0,4.76,2.62,2.71,8,5.63,15.86,8.49,23.78a6.61,6.61,0,0,0,2,3,82.44,82.44,0,0,0,2-9,8,8,0,0,1,4.31-6.57c6.9-3.92,14.26-6.59,22.18-7,8.34-.42,14.84,2.88,18.39,10.87a14.73,14.73,0,0,0,.86,1.56c.1.15.3.23.86.63a76.1,76.1,0,0,0,1.67-7.81c.83-7.68,4.78-12.31,12.47-13.79.78-.15,1.68-1.52,1.9-2.47.94-4.15,1.56-8.37,2.51-12.52a3.66,3.66,0,0,1,1.95-2.46c4.56-1.26,9.2-2.24,14.07-3.38,7.36,17.35,14.65,34.54,22,51.73ZM245.26,498.21c-1.08-3.11-2.75-3.27-6.65-.61l3.53,11.57,4.94-1.7c-.63-3.17-1.25-6.25-1.85-9.31l4,10.4.87-.33-.43-6.15c.81,2.37,1.79,4.69,2.38,7.1,1.8,7.32,3.44,14.68,5.16,22.14l9.71-1.82-9.54,2.75,3,11L277.48,539c-.64-3.34-1.13-6.35-1.84-9.31-.18-.73-1.07-1.3-1.63-2,.21-.95.77-2,.57-2.82-2.74-11.43-5.33-22.9-8.5-34.21-1.52-5.42-5.28-9.52-11.31-10-9-.75-17.15,1.13-22.65,9.16-1.11,1.62-2.54,2.29-4,1.23-5.2-3.81-10.88-3.18-16.53-2-5.13,1.11-9.74,3.44-12.66,8.08-2.22,3.55-2.91,3.66-5.06-.07-1.18-2-2.38-2.73-4.76-1.88a58.58,58.58,0,0,1-8.35,2c-1.67.32-2,1-1.62,2.66,1.37,6.58,2.52,13.21,3.79,19.81,1.79,9.4,3.62,18.79,5.45,28.26h2.25l-1.78,1.11c1.68,3.48,3.33,6.91,5,10.43l17.85-4.41-4.56-10.74-11.78,2.49,11.45-3.32c-.1-.8-.13-1.39-.24-2-1.61-8.74-3.43-17.44-4.77-26.22-.57-3.7-.61-7.7,3.17-10.29,1.51,4,3,7.94,4.49,11.81l5.06-1.58c-.81-3-1.63-6-2.44-9l3.16,6.46.35-.08-1.72-7c.75,1.14,1.84,2.17,2.2,3.42,1,3.6,1.81,7.28,2.6,10.94,1.42,6.54,2.78,13.09,4.15,19.6l4.72-.61-4.42,1.59c1.1,3,2.28,5.8,3.17,8.71.51,1.68,1.42,1.94,2.86,1.58l15.54-3.85c-.24-1.1-.39-2.07-.68-3-.82-2.63-1.7-5.24-2.6-8l-4.36.62,4.23-1.6c-1.55-6.94-3.26-13.64-4.48-20.43a72,72,0,0,1-1.11-13.19,6.16,6.16,0,0,1,5.06-5.85c2.36-.58,4.94-1.08,6.54,1.71l-1.58-.73ZM376,439c-2.67,5.25-1.47,15.41,2.06,17,.07-.8.17-1.59.19-2.38.06-3.27,1.31-5.17,4.94-5.57,3.28-.37,6.48-1.5,9.85-2.33v-5.4c3.3-5.5-.72-11.79-6.51-11.34a24,24,0,0,0-5.19,1C376.2,431.55,375,433.63,376,439Zm209.46,13.1c1.59-1.57,3.87-2.87,4.62-4.77,1.5-3.85-1.51-8.72-5.55-10.07-4.62-1.53-11.4.61-12.76,4.15a11.06,11.06,0,0,0-.22,3.12c-1.78-.26-2,.86-1.72,2.14a12.24,12.24,0,0,0,1.16,2.72c1.82,3.64,2.3,7.17-.36,10.72a41.83,41.83,0,0,0-2.82,5c4.95,2.06,10.79,1.5,12.81-1.36,2.64-3.74,4.93-7.73,7.73-12.18ZM383.3,461.15l-3.47-6.89c0,3.4-.59,6.21.11,8.63,2.14,7.39,5.1,14.55,7.11,22,1.63,6,5.05,11.67,3.9,18.35-.24,1.41.81,3,1.26,4.56l.73-.06c.46-3.28.93-6.56,1.39-9.84l10.12-1.73c-2.61.73-5.22,1.43-7.81,2.22-.69.21-1.76.63-1.84,1.09-.66,3.7-1.12,7.44-1.68,11.39L410,506.7c.68-3.46,1.37-6.84,2-10.23a6.37,6.37,0,0,0-.35-2.06,10.8,10.8,0,0,0-.05-3c-2.14-7-4.35-13.95-6.58-20.91-2.55-8-5.15-15.93-7.83-24.2l-17.07,4C381.21,454.18,382.25,457.66,383.3,461.15Zm-260,101.25c1-1.28,2.85-2.6,2.77-3.81a121.34,121.34,0,0,0-1.92-12.43,19.25,19.25,0,0,1-2.2,1.56c-4.49,2.2-8.86,4.75-13.55,6.39-3.71,1.29-7.39.53-9.65-3.52a20,20,0,0,1-2.2-14.79,8.9,8.9,0,0,1,4.75-6.3c-5.66,5.21-5,11.57-3.23,18.11a6.79,6.79,0,0,0,5.57,5.09c1-3,1.42-6,2.85-8.43,2.95-5,8.18-5.31,13.32-5.38h4.3c-1.95-3.18-3.45-6-5.31-8.51a5.17,5.17,0,0,0-3.44-2c-4.29,0-8.59.39-12.88.64,4.73-2.81,9.89-1.37,15.06-1.27,1.12-4.5,2.2-8.86,3.31-13.35-11.23-1.66-21.43-.08-30.81,5.38a25.43,25.43,0,0,0-11.62,13.74c-2.45,6.93-2.08,13.89-.1,20.73,3.13,10.79,10,15.66,21.3,15.47,3,0,5.89-.55,8.83-.85-7,2.21-13.85,1.89-20.94-.34,2.91,3.33,5.69,6.83,9.26,9.08,6.26,3.94,13.32,3.15,20.19,1.6,6.3-1.43,12.15-3.87,17-8.62l-7.33-10.41Zm381.25-94.13-2.89-1.91c-1.51,3.87-3,7.52-4.35,11.23a3.1,3.1,0,0,0,.26,2.56,46.65,46.65,0,0,0,4.22,3.93c1.42-3.33,2.61-6.33,4-9.25,1.08-2.31,1.47-4.38-.83-6.16l4.88,1.85c-.78.49-2,.8-2.29,1.5-1.75,3.8-3.28,7.7-5.09,12,3.65-.86,6.8-1.57,9.92-2.37a2.24,2.24,0,0,0,1.3-1.08c1.78-3.83,3.47-7.69,5.32-11.82l-4.41.61,4.32-1.65a6.34,6.34,0,0,0-.2-1.45q-5.57-14.51-11.16-29c-2.95-7.64-8.47-12.24-16.67-12.58-10.5-.43-20,3.13-28.6,9-.51.35-.41,1.58-.6,2.4-.56.38-1.46.66-1.61,1.17-.62,2.07-.94,4.24-1.52,6.33-1.58,5.73.1,9.46,5.91,12.43,1.32-3.64,2.7-7.22,3.86-10.88a3.23,3.23,0,0,0-.77-2.48c-1.73-2.14-3.63-4.13-5.46-6.18,1.71,1.72,3.53,3.36,5.11,5.19,1.22,1.4,2.39,1.9,4,.81l-3.77,7.37c7-4.56,14.67-6.21,22-8.49-.94-3.85-2-4.41-7.62-4.15,3.68-1.46,6.64-.37,8.38,2.92.95,1.78.67,2.41-1.4,3A113.41,113.41,0,0,0,473,448.81c-5.77,2.75-10.67,8.37-7,16.77a11,11,0,0,1,.5,2q-1.32-2.68-2.63-5.37a5.6,5.6,0,0,0-.32,3.73c1.15,3.67,2.47,7.29,3.79,10.9.88,2.41,1.28,4.78,0,7.17s-.26,3.8,2,4.86c10.38,4.81,26.08-.15,28.4-16.46l-1.64.51,5.58-7.8ZM352,469.92c-3,3-3.3,8.88-.77,12.94l5.56-1.65c.26-4,.51-8.09.8-12.6l-4.42.78c3.42-2.31,6.83-1.2,9.05,2.95l-4.17-3.77c0,4.83,0,8.73,0,12.63,0,.45.6.88.92,1.33,1.44,2,3.45,3.86,4.21,6.12,2.7,8.07,5,16.29,7.41,24.45l.54-.07.51-10.33,2.95.59c-.78.6-2.15,1.13-2.24,1.83-.48,3.49-.63,7-.92,11,5.55-1.36,10.62-2.57,15.67-3.87a2.12,2.12,0,0,0,1.34-1.27c.53-3.48.92-7,1.38-10.59h-2.74l2.48-1.21a5.41,5.41,0,0,0-.09-1.27c-3.14-10.29-6.23-20.6-9.49-30.85-2.28-7.17-6.8-12.3-14.67-12.76-8.55-.51-16.36,1.43-21.17,9.58-1.13,1.93-2.24,1.83-3.61.09-1-1.3-2.53-3.43-3.61-3.31-4.07.47-8.05,1.71-12.19,2.69,1.38,5,2.68,9.61,3.94,14.26q4.28,15.84,8.51,31.69a5.48,5.48,0,0,1-.7-1.18q-3.1-10.78-6.17-21.57-2.07-7.27-4.11-14.54l-1,.27c2.77,16,8.57,31.17,12.48,46.9v-7.59l7.73-1.13-7,2.12v11.57c5.32-1.26,10.42-2.41,15.47-3.74a2.79,2.79,0,0,0,1.59-1.95c.31-3,.41-5.92.46-8.89,0-.47-.67-.95-1-1.43a9,9,0,0,0,.29-3c-1.26-4.76-2.75-9.45-4-14.2-1.39-5.21-3.33-10.34-2.48-15.92C349.12,472.78,349.58,470.74,352,469.92Zm-43.52,48.39c1.24-1.58,2.46-3.17,3.71-4.73.68-.85,1.42-1.65,2.13-2.47l2.16,2.52c-1.4-.87-1.43,0-1.35,1a43.41,43.41,0,0,0,.68,7.06c.47,1.86,1.71,3.53,2.6,5.29l.9-.39c-1-4.35.35-9.18-2.92-13.09,1.8,2.74,4.13,3.31,7.08,1.89a7.05,7.05,0,0,1,2.33-.24,41.72,41.72,0,0,0-4.71,1.37c-.74.3-1.81,1.16-1.8,1.76,0,3.4.35,6.79.58,10.32,2.7-.62,5-1.13,7.31-1.69,5.38-1.3,5.38-1.31,5.29-7a25.15,25.15,0,0,0-.18-4.44c-.11-.58-1.14-1-1.75-1.44,1.37-.72,1.66-1.59,1.19-3.23-2.69-9.36-5.2-18.77-7.78-28.17l-4.93-18-17.43,4.16c1.07,4.21,2.07,8.12,3.06,12l-1.85-1.58c1,4.17,1.89,7.77,2.77,11.37l.57-.11-.63-5.34c1,5.15,2.37,10.28,2.83,15.48.32,3.64-2.39,5.87-6.77,7-3,.78-5.22-.07-7.12-3.32a25,25,0,0,1-2.47-6.27c-2.22-8.37-4.29-16.77-6.49-25.46l-17.65,4.13c1.7,7,3.27,13.87,5,20.64,1.9,7.4,2.63,15.23,7.76,21.46l-3.36-3a65.94,65.94,0,0,0,3.14,10.7c1.58,4.38,5,6.72,9.24,8,4.44,1.3,8.82.65,13.08-.84,10.8-3.78,13-9.1,10.42-19.48ZM173.45,548.47a44.38,44.38,0,0,0,3.91-5.14c4.37-7.8,4.42-15.88,1.65-24.28a23.13,23.13,0,0,0-19-15.72A38.55,38.55,0,0,0,142,506a26.5,26.5,0,0,0-13,10c-5.74,8.48-5.39,17.61-2.28,26.74,4.17,12.22,14.47,15.93,24.95,14.93,2.06-.19,4.11-.47,6.17-.71-8.54,2.62-16.69,1.74-25.05-3.45,3.39,5.32,6.2,9.8,11.17,12.44,8.1,4.31,16.27,3.23,24.43.43,9.15-3.14,16.24-9,17-18.94.5-6.78-1.82-13.78-2.93-20.67a5.21,5.21,0,0,0-.76-1.55,84.11,84.11,0,0,1-.49,9.64C180.36,540.27,178.15,545.12,173.45,548.47ZM533.7,407.38l5.8,11.27c-2.85-.61-5-1.83-7.29-2.6a15.88,15.88,0,0,0-16.1,3.17c-4.3,3.75-5.88,9-4.61,14.83.4,1.83.61,3.7.9,5.56-.8-2.63-1.61-5.26-2.4-7.85a7.4,7.4,0,0,0-.43,6.85c3.26,7.84,6.26,15.8,9.15,23.78,1.09,3,2.89,6.18.28,9.5-.29.36.56,2.35,1.29,2.67,2.78,1.23,5.66,2.69,8.61,2.95,5,.43,10.08-.58,13.31-4.93,2.21-3,3.62-6.56,5.31-9.92.2-.41-.1-1.07-.17-1.61a57.6,57.6,0,0,0,3.44-5.38c1-2,1.51-3.42,3.88-1.07s5,4.52,8.79,2.82c.16-.08.39,0,.59,0-1.67.67-4,.86-4.86,2.09-2.48,3.74-4.35,7.87-6.76,12.42,3.85-1,7-1.7,10.09-2.53a3.36,3.36,0,0,0,1.93-1.11c2.31-3.89,4.51-7.85,6.86-12h-2.52l2.91-1.4c-3.74-9-7.45-17.95-11.14-26.87-4.58-11-9.13-22.08-13.78-33.09-.32-.77-1.5-1.88-2.07-1.76-5,1-10,2.25-14.93,3.42l1,3.66-1.68-2.46c-1.69,4.48-3.42,8.76-4.85,13.14-.24.75.61,2.62,1.22,2.75,3.83.85,7.73,1.35,11.42,1.93C536,413.19,534.84,410.28,533.7,407.38ZM433.61,437q1.36,3,2.72,5.91l-.72.58c-1-.53-1.95-1-2.89-1.61-6.59-4.07-16.05-2.88-21.13,2.9-4.84,5.52-5.33,12-3.71,18.9l-2.38-1.8c.47,3.55.54,6.78,1.38,9.8,1.78,6.46,4,12.81,6,19.22.46,1.49.32,3.37,1.2,4.51a17.69,17.69,0,0,0,23.31,4.69c6.1-3.46,6.4-9.91,8.27-16l-3.7,2.66,6.12-8.18a41.92,41.92,0,0,1,4.24,3.55,3.49,3.49,0,0,0,4.12,1.1c3.18-.95,6.49-1.47,9.72-2.16-3.18.88-6.37,1.72-9.53,2.68-.88.26-2.16.7-2.39,1.36-1.27,3.67-2.27,7.43-3.51,11.65,4.1-1,7.7-1.8,11.26-2.75a2.38,2.38,0,0,0,1.31-1.38q1.74-5,3.28-10.13c.11-.37-.32-.92-.49-1.38,0-1.1.4-2.32.07-3.29-4.9-14.15-9.91-28.27-14.88-42.4-2.21-6.3-4.41-12.6-6.64-19L428,420.33c.16,1,.28,1.8.4,2.56-.4.18-1.1.31-1.15.56-.65,3.77-1.34,7.55-1.74,11.35-.11,1,.43,2.77,1.17,3.13a58.67,58.67,0,0,0,7.31,2.48C433.84,439.12,433.72,438.07,433.61,437Zm118.15,34.84c2.27-4.19,4.51-8.29,6.69-12.43a1.41,1.41,0,0,0-.24-1.3c-1.6-1.39-3.28-2.68-5.13-4.16-1.48,3-2.76,5.66-4.08,8.3-2.69,5.42-2.7,5.41,2,9.3A4.94,4.94,0,0,0,551.76,471.85ZM208.58,546.74l1-.15c-.51-2.48-1.07-5-1.52-7.45-1-5.7-2.91-11.35-1.46-17.24.39-1.58,1.93-3.25,1.62-4.56A94.59,94.59,0,0,0,204.54,507l-1.31.3C201.11,521,206.56,533.61,208.58,546.74Zm241.49-49.91c1.21-4.13,2.32-7.8,3.33-11.5a2.21,2.21,0,0,0-.42-1.81c-1.38-1.35-2.92-2.53-4.73-4.06-1.16,4.16-2.25,7.92-3.21,11.71a2.28,2.28,0,0,0,.72,1.73C447,494.16,448.36,495.29,450.07,496.83Zm-328.45,19.1c-3.85,10.83-3.59,13.82,1.42,18.55.28-3.4-.06-7.11,1-10.35C125.28,520.44,123.4,518.48,121.62,515.93ZM126,549.46c-.15,6.85,1.69,12.5,6.71,17.09A22.12,22.12,0,0,0,126,549.46ZM237.9,515.94c5.07-5.64,1.71-11.15-.08-17.44C234.59,505,237,510.55,237.9,515.94Z"/><path class="cls-3" d="M227.58,539l-4.72.61c-1.37-6.51-2.73-13.06-4.15-19.6-.79-3.66-1.57-7.34-2.6-10.94-.36-1.25-1.45-2.28-2.2-3.42l-1.8-1.16-7.1.53c-3.78,2.59-3.74,6.59-3.17,10.29,1.34,8.78,3.16,17.48,4.77,26.22.11.58.14,1.17.24,2l-11.45,3.32L190.65,548H188.4c-1.83-9.47-3.66-18.86-5.45-28.26-1.27-6.6-2.42-13.23-3.79-19.81-.35-1.68,0-2.34,1.62-2.66a58.58,58.58,0,0,0,8.35-2c2.38-.85,3.58-.16,4.76,1.88,2.15,3.73,2.84,3.62,5.06.07,2.92-4.64,7.53-7,12.66-8.08,5.65-1.22,11.33-1.85,16.53,2,1.44,1.06,2.87.39,4-1.23,5.5-8,13.67-9.91,22.65-9.16,6,.51,9.79,4.61,11.31,10,3.17,11.31,5.76,22.78,8.5,34.21.2.84-.36,1.87-.57,2.82l-7.13,1.72-9.71,1.82c-1.72-7.46-3.36-14.82-5.16-22.14-.59-2.41-1.57-4.73-2.38-7.1-.77-1.57-1.54-3.15-2.3-4.72-1.6-2.79-4.18-2.29-6.54-1.71a6.16,6.16,0,0,0-5.06,5.85,72,72,0,0,0,1.11,13.19c1.22,6.79,2.93,13.49,4.48,20.43l-4.23,1.6Z"/><path class="cls-3" d="M466.14,481c-3.25.7-6.56,1.22-9.74,2.17a3.49,3.49,0,0,1-4.12-1.1,41.92,41.92,0,0,0-4.24-3.55l-6.12,8.18L437.2,489c-5.44.92-10.82,1.2-15.55-2.32-2.26-1.69-4.32-3.64-6.47-5.48-3.4-5.43-6.32-11.06-7.3-17.5-1.62-6.86-1.13-13.38,3.71-18.9,5.08-5.78,14.54-7,21.13-2.9.94.58,1.93,1.08,2.89,1.61l.72-.58q-1.35-3-2.72-5.91-2.61-7.06-5.23-14.12c-.12-.76-.24-1.52-.4-2.56l16.62-3.92c2.23,6.39,4.43,12.69,6.64,19,5,14.13,10,28.25,14.88,42.4.33,1,0,2.19-.07,3.29Zm-25.26-24.79c-1.92-4.68-6.13-6.76-10.72-5.3-3.49,1.1-5.44,4.95-4.47,9.49a40,40,0,0,0,2.6,8.14c2.5,5.57,7.69,7.81,12.55,5.33,1.46-.74,3.18-2.55,3.31-4,.25-2.71-.59-5.53-1-8.3C442.41,459.81,441.65,458,440.88,456.24Z"/><path class="cls-3" d="M512.4,439.61c-.29-1.86-.5-3.73-.9-5.56-1.27-5.84.31-11.08,4.61-14.83a15.88,15.88,0,0,1,16.1-3.17c2.29.77,4.44,2,7.29,2.6l-5.8-11.27c-1-2.38-1.93-4.75-2.9-7.13l-1-3.66c5-1.17,9.92-2.42,14.93-3.42.57-.12,1.75,1,2.07,1.76,4.65,11,9.2,22.06,13.78,33.09,3.69,8.92,7.4,17.84,11.14,26.87l-2.91,1.4-4.74,1.12c-.2,0-.43-.07-.59,0-3.77,1.7-6.48-.52-8.79-2.82s-2.89-.9-3.88,1.07a57.6,57.6,0,0,1-3.44,5.38l-4.74,2.32c-2.85.09-5.85.79-8.5.12-3.5-.88-6.74-2.84-10.09-4.33-1.38-1.53-3.09-2.87-4.06-4.62C517.28,449.65,514.9,444.6,512.4,439.61Zm20.67-12.51-1.18.52c-.79,1.57-2.22,3.13-2.25,4.72a19.79,19.79,0,0,0,6.23,14.83,8.69,8.69,0,0,0,5.2,2.38c6.48.33,9.87-3.66,6.33-11.8l-2.9-6.53C540.91,425.93,537.32,424.64,533.07,427.1Z"/><path class="cls-3" d="M157.9,556.91c-2.06.24-4.11.52-6.17.71-10.48,1-20.78-2.71-24.95-14.93-3.11-9.13-3.46-18.26,2.28-26.74a26.5,26.5,0,0,1,13-10,38.55,38.55,0,0,1,18-2.63,23.13,23.13,0,0,1,19,15.72c2.77,8.4,2.72,16.48-1.65,24.28a44.38,44.38,0,0,1-3.91,5.14C169.35,553.28,163.78,555.37,157.9,556.91Zm-.44-37.08c-.07-.56.06-1.29-.24-1.64-2.26-2.61-6.17-2.81-9.4-.56-1.23,1.49-3.13,2.81-3.55,4.5-1.73,7-.14,13.54,3.61,19.51A6.48,6.48,0,0,0,152,544c4.92.75,9.27-2.34,9.6-7.31a50.32,50.32,0,0,0-1.08-12.27C160.25,522.74,158.54,521.34,157.46,519.83Z"/><path class="cls-3" d="M325.84,515.2a7.05,7.05,0,0,0-2.33.24c-2.95,1.42-5.28.85-7.08-1.89l.09.09-2.16-2.53c-.71.82-1.45,1.62-2.13,2.47-1.25,1.56-2.47,3.15-3.71,4.73l-8.89,4c-6.85,1.34-13.4,1.11-19.09-3.63l.11.11c-5.13-6.23-5.86-14.06-7.76-21.46-1.74-6.77-3.31-13.59-5-20.64l17.65-4.13c2.2,8.69,4.27,17.09,6.49,25.46a25,25,0,0,0,2.47,6.27c1.9,3.25,4.09,4.1,7.12,3.32,4.38-1.13,7.09-3.36,6.77-7-.46-5.2-1.84-10.33-2.83-15.48-.28-1.45-.57-2.89-.86-4.34l-3.06-12,17.43-4.16,4.93,18c2.58,9.4,5.09,18.81,7.78,28.17.47,1.64.18,2.51-1.19,3.23Z"/><path class="cls-3" d="M374.67,503.29l-2.95-.59C369.81,495.88,368,489,366,482.25c-1-3.37-2.45-6.61-3.7-9.91-2.22-4.15-5.63-5.26-9.05-2.95l-1.17.53c-2.46.82-2.92,2.86-3.26,5.08-.85,5.58,1.09,10.71,2.48,15.92,1.28,4.75,2.77,9.44,4,14.2a9,9,0,0,1-.29,3l-9.51,2.32-7.73,1.13c-.17-.76-.33-1.52-.5-2.29q-4.25-15.84-8.51-31.69c-1.26-4.65-2.56-9.29-3.94-14.26,4.14-1,8.12-2.22,12.19-2.69,1.08-.12,2.58,2,3.61,3.31,1.37,1.74,2.48,1.84,3.61-.09,4.81-8.15,12.62-10.09,21.17-9.58,7.87.46,12.39,5.59,14.67,12.76,3.26,10.25,6.35,20.56,9.49,30.85a5.41,5.41,0,0,1,.09,1.27l-2.48,1.21Z"/><path class="cls-3" d="M466.49,467.58a11,11,0,0,0-.5-2c-3.68-8.4,1.22-14,7-16.77a113.41,113.41,0,0,1,15.85-5.63c2.07-.63,2.35-1.26,1.4-3-1.74-3.29-4.7-4.38-8.38-2.92l-10.64,5.27c-1.61,1.09-2.78.59-4-.81-1.58-1.83-3.4-3.47-5.11-5.19a3,3,0,0,1-.41-.39c.19-.82.09-2.05.6-2.4,8.62-5.84,18.1-9.4,28.6-9,8.2.34,13.72,4.94,16.67,12.58q5.59,14.49,11.16,29a6.34,6.34,0,0,1,.2,1.45l-4.32,1.65-4.75,1.12L505,468.67a3.78,3.78,0,0,1-.4-.4l-2.86-3.15-5.58,7.8-9.5,4.15c-7.29,1.06-13.66-.48-18.43-6.54Zm19.61-13.76a4.81,4.81,0,0,0-3.29,4.95c.1,2.35,1.24,4.57,3.74,5.11a7.73,7.73,0,0,0,8.19-2.77c1.81-2.39,2.22-5.18.25-7.87-.27-1.76-1.45-1.92-2.82-1.49C490.13,452.38,488.12,453.12,486.1,453.82Z"/><path class="cls-3" d="M101.32,529.5a8.9,8.9,0,0,0-4.75,6.3,20,20,0,0,0,2.2,14.79c2.26,4,5.94,4.81,9.65,3.52,4.69-1.64,9.06-4.19,13.55-6.39a19.25,19.25,0,0,0,2.2-1.56,121.34,121.34,0,0,1,1.92,12.43c.08,1.21-1.79,2.53-2.77,3.81-4.54,3.09-9.31,5.64-14.85,6.42-2.94.3-5.88.81-8.83.85-11.33.19-18.17-4.68-21.3-15.47-2-6.84-2.35-13.8.1-20.73a25.43,25.43,0,0,1,11.62-13.74c9.38-5.46,19.58-7,30.81-5.38-1.11,4.49-2.19,8.85-3.31,13.35-5.17-.1-10.33-1.54-15.06,1.27Z"/><path class="cls-3" d="M404.45,496.14l-10.12,1.73c-1.29-4.54-2.53-9.09-3.9-13.6-2.33-7.72-4.75-15.42-7.13-23.12-1.05-3.49-2.09-7-3.26-10.85l17.07-4c2.68,8.27,5.28,16.23,7.83,24.2,2.23,7,4.44,13.92,6.58,20.91a10.8,10.8,0,0,1,.05,3Z"/><path class="cls-4" d="M157.9,556.91c5.88-1.54,11.45-3.63,15.55-8.44,4.7-3.35,6.91-8.2,7.8-13.66a84.11,84.11,0,0,0,.49-9.64,5.21,5.21,0,0,1,.76,1.55c1.11,6.89,3.43,13.89,2.93,20.67-.74,9.92-7.83,15.8-17,18.94-8.16,2.8-16.33,3.88-24.43-.43-5-2.64-7.78-7.12-11.17-12.44C141.21,558.65,149.36,559.53,157.9,556.91Z"/><path class="cls-5" d="M437.2,489l4.72-2.26,3.7-2.66c-1.87,6.13-2.17,12.58-8.27,16A17.69,17.69,0,0,1,414,495.42c-.88-1.14-.74-3-1.2-4.51-2-6.41-4.18-12.76-6-19.22-.84-3-.91-6.25-1.38-9.8l2.38,1.8c1,6.44,3.9,12.07,7.3,17.5C419.5,488.27,429.29,492.26,437.2,489Z"/><path class="cls-6" d="M108.47,568.82c5.54-.78,10.31-3.33,14.85-6.42l3.35-2.27L134,570.54c-4.87,4.75-10.72,7.19-17,8.62-6.87,1.55-13.93,2.34-20.19-1.6-3.57-2.25-6.35-5.75-9.26-9.08C94.62,570.71,101.52,571,108.47,568.82Z"/><path class="cls-7" d="M512.4,439.61c2.5,5,4.88,10,7.56,14.93,1,1.75,2.68,3.09,4.06,4.62,3.5,4.12,12.55,7,18.59,4.21l4.74-2.32c.07.54.37,1.2.17,1.61-1.69,3.36-3.1,6.94-5.31,9.92-3.23,4.35-8.29,5.36-13.31,4.93-2.95-.26-5.83-1.72-8.61-2.95-.73-.32-1.58-2.31-1.29-2.67,2.61-3.32.81-6.48-.28-9.5-2.89-8-5.89-15.94-9.15-23.78a7.4,7.4,0,0,1,.43-6.85C510.79,434.35,511.6,437,512.4,439.61Z"/><path class="cls-8" d="M299.63,522.35l8.89-4,4.65-4.16c2.6,10.38.38,15.7-10.42,19.48-4.26,1.49-8.64,2.14-13.08.84-4.26-1.25-7.66-3.59-9.24-8a65.94,65.94,0,0,1-3.14-10.7l3.36,3-.11-.11C285.31,523.65,292.77,525.08,299.63,522.35Z"/><path class="cls-9" d="M486.63,477.07l9.5-4.15,1.64-.51c-2.32,16.31-18,21.27-28.4,16.46-2.28-1.06-3.3-2.42-2-4.86s.86-4.76,0-7.17c-1.32-3.61-2.64-7.23-3.79-10.9a5.6,5.6,0,0,1,.32-3.73q1.31,2.69,2.63,5.37l1.71,2.95C471.22,476.19,479.48,479.57,486.63,477.07Z"/><path class="cls-3" d="M101.32,529.5l1.18-.53c4.29-.25,8.59-.66,12.88-.64a5.17,5.17,0,0,1,3.44,2c1.86,2.54,3.36,5.33,5.31,8.51h-4.3c-5.14.07-10.37.36-13.32,5.38-1.43,2.44-1.88,5.45-2.85,8.43a6.79,6.79,0,0,1-5.57-5.09C96.27,541.07,95.66,534.71,101.32,529.5Z"/><path class="cls-10" d="M571.58,444.52a11.06,11.06,0,0,1,.22-3.12c1.36-3.54,8.14-5.68,12.76-4.15,4,1.35,7.05,6.22,5.55,10.07-.75,1.9-3,3.2-4.62,4.77l.08-.08c-4.3.82-8.38.52-12-2.33Z"/><path class="cls-11" d="M190.65,548l4.75-1.12,11.78-2.49,4.56,10.74-17.85,4.41c-1.69-3.52-3.34-7-5-10.43Z"/><path class="cls-12" d="M227.58,539l9.51-2.31,4.36-.62c.9,2.72,1.78,5.33,2.6,8,.29.93.44,1.9.68,3l-15.54,3.85c-1.44.36-2.35.1-2.86-1.58-.89-2.91-2.07-5.74-3.17-8.71Z"/><path class="cls-3" d="M376,439c-1-5.36.17-7.44,5.34-9.06a24,24,0,0,1,5.19-1c5.79-.45,9.81,5.84,6.51,11.34L389,442.52c-.76.13-1.52.31-2.29.4-3.77.48-7.46.62-10.18-2.77Z"/><path class="cls-13" d="M266.88,529.5l7.13-1.72c.56.65,1.45,1.22,1.63,2,.71,3,1.2,6,1.84,9.31L260.3,543.3l-3-11Z"/><path class="cls-14" d="M345.49,510.44l9.51-2.32c.36.48,1,1,1,1.43,0,3-.15,5.94-.46,8.89a2.79,2.79,0,0,1-1.59,1.95c-5.05,1.33-10.15,2.48-15.47,3.74V512.56Z"/><path class="cls-15" d="M374.67,503.29l12.49-2.92h2.74c-.46,3.62-.85,7.11-1.38,10.59a2.12,2.12,0,0,1-1.34,1.27c-5.05,1.3-10.12,2.51-15.67,3.87.29-4,.44-7.49.92-11C372.52,504.42,373.89,503.89,374.67,503.29Z"/><path class="cls-16" d="M404.45,496.14l7.12-1.73a6.37,6.37,0,0,1,.35,2.06c-.59,3.39-1.28,6.77-2,10.23l-16.84,4.14c.56-3.95,1-7.69,1.68-11.39.08-.46,1.15-.88,1.84-1.09C399.23,497.57,401.84,496.87,404.45,496.14Z"/><path class="cls-3" d="M362.26,472.34c1.25,3.3,2.68,6.54,3.7,9.91,2,6.78,3.85,13.63,5.76,20.45L371.21,513l-.54.07c-2.44-8.16-4.71-16.38-7.41-24.45-.76-2.26-2.77-4.09-4.21-6.12-.32-.45-.91-.88-.92-1.33-.07-3.9,0-7.8,0-12.63Z"/><path class="cls-17" d="M571.58,444.52l2,5.16c3.38,3.85,7.5,4,12,2.33l-.08.08,2.89-.52c-2.8,4.45-5.09,8.44-7.73,12.18-2,2.86-7.86,3.42-12.81,1.36a41.83,41.83,0,0,1,2.82-5c2.66-3.55,2.18-7.08.36-10.72a12.24,12.24,0,0,1-1.16-2.72C569.57,445.38,569.8,444.26,571.58,444.52Z"/><path class="cls-18" d="M383.3,461.15c2.38,7.7,4.8,15.4,7.13,23.12,1.37,4.51,2.61,9.06,3.9,13.6-.46,3.28-.93,6.56-1.39,9.84l-.73.06c-.45-1.53-1.5-3.15-1.26-4.56,1.15-6.68-2.27-12.34-3.9-18.35-2-7.42-5-14.58-7.11-22-.7-2.42-.11-5.23-.11-8.63Z"/><path class="cls-19" d="M325.84,515.2l4.74-1.12c.61.47,1.64.86,1.75,1.44a25.15,25.15,0,0,1,.18,4.44c.09,5.69.09,5.7-5.29,7-2.3.56-4.61,1.07-7.31,1.69-.23-3.53-.54-6.92-.58-10.32,0-.6,1.06-1.46,1.8-1.76A41.72,41.72,0,0,1,325.84,515.2Z"/><path class="cls-20" d="M466.05,481.09c.17.46.6,1,.49,1.38q-1.55,5.1-3.28,10.13A2.38,2.38,0,0,1,462,494c-3.56.95-7.16,1.77-11.26,2.75,1.24-4.22,2.24-8,3.51-11.65.23-.66,1.51-1.1,2.39-1.36,3.16-1,6.35-1.8,9.54-2.69Z"/><path class="cls-3" d="M461.69,436.1a3,3,0,0,0,.41.39c1.83,2.05,3.73,4,5.46,6.18a3.23,3.23,0,0,1,.77,2.48c-1.16,3.66-2.54,7.24-3.86,10.88-5.81-3-7.49-6.7-5.91-12.43.58-2.09.9-4.26,1.52-6.33C460.23,436.76,461.13,436.48,461.69,436.1Z"/><path class="cls-21" d="M564.05,457.41l4.74-1.12h2.52c-2.35,4.14-4.55,8.1-6.86,12a3.36,3.36,0,0,1-1.93,1.11c-3.11.83-6.24,1.57-10.09,2.53,2.41-4.55,4.28-8.68,6.76-12.42C560,458.27,562.38,458.08,564.05,457.41Z"/><path class="cls-22" d="M509.85,470.52l4.75-1.12,4.41-.61c-1.85,4.13-3.54,8-5.32,11.82a2.24,2.24,0,0,1-1.3,1.08c-3.12.8-6.27,1.51-9.92,2.37,1.81-4.34,3.34-8.24,5.09-12C507.89,471.32,509.07,471,509.85,470.52Z"/><path class="cls-23" d="M530.8,400.25c1,2.38,1.94,4.75,2.9,7.13l3.21,8.23c-3.69-.58-7.59-1.08-11.42-1.93-.61-.13-1.46-2-1.22-2.75,1.43-4.38,3.16-8.66,4.85-13.14Z"/><path class="cls-24" d="M376,439l.46,1.16c3.06,4.05,6.85,4.77,12.47,2.37l4.11-2.24v5.4c-3.37.83-6.57,2-9.85,2.33-3.63.4-4.88,2.3-4.94,5.57,0,.79-.12,1.58-.19,2.38C374.56,454.4,373.36,444.24,376,439Z"/><path class="cls-23" d="M471.21,442.49l10.64-5.27c5.59-.26,6.68.3,7.62,4.15-7.36,2.28-15.05,3.93-22,8.49Z"/><path class="cls-25" d="M551.76,471.85a4.94,4.94,0,0,1-.79-.29c-4.67-3.89-4.66-3.88-2-9.3,1.32-2.64,2.6-5.28,4.08-8.3,1.85,1.48,3.53,2.77,5.13,4.16a1.41,1.41,0,0,1,.24,1.3C556.27,463.56,554,467.66,551.76,471.85Z"/><path class="cls-18" d="M208.58,546.74c-2-13.13-7.47-25.79-5.35-39.48l1.31-.3a94.59,94.59,0,0,1,3.73,10.38c.31,1.31-1.23,3-1.62,4.56-1.45,5.89.42,11.54,1.46,17.24.45,2.49,1,5,1.52,7.45Z"/><path class="cls-26" d="M504.57,468.27a3.78,3.78,0,0,0,.4.4c2.3,1.78,1.91,3.85.83,6.16-1.38,2.92-2.57,5.92-4,9.25a46.65,46.65,0,0,1-4.22-3.93,3.1,3.1,0,0,1-.26-2.56c1.33-3.71,2.84-7.36,4.35-11.23Z"/><path class="cls-3" d="M352,469.92l1.17-.53,4.42-.78c-.29,4.51-.54,8.59-.8,12.6l-5.56,1.65C348.74,478.8,349.09,472.92,352,469.92Z"/><path class="cls-3" d="M337.26,509.28l.5,2.29v7.59c-3.91-15.73-9.71-30.94-12.48-46.9l1-.27q2.06,7.26,4.11,14.54,3.06,10.79,6.17,21.57A5.48,5.48,0,0,0,337.26,509.28Z"/><path class="cls-23" d="M428.38,422.89Q431,430,433.61,437c.11,1.06.23,2.11.36,3.4a58.67,58.67,0,0,1-7.31-2.48c-.74-.36-1.28-2.1-1.17-3.13.4-3.8,1.09-7.58,1.74-11.35C427.28,423.2,428,423.07,428.38,422.89Z"/><path class="cls-27" d="M450.07,496.83c-1.71-1.54-3.07-2.67-4.31-3.93a2.28,2.28,0,0,1-.72-1.73c1-3.79,2-7.55,3.21-11.71,1.81,1.53,3.35,2.71,4.73,4.06a2.21,2.21,0,0,1,.42,1.81C452.39,489,451.28,492.7,450.07,496.83Z"/><path class="cls-18" d="M205,505.05l7.1-.53c0,.58,0,1.17,0,1.76.81,3,1.63,6,2.44,9l-5.06,1.58C208,513,206.52,509,205,505.05Z"/><path class="cls-18" d="M245.22,498.14c.61,3.08,1.23,6.16,1.86,9.33l-4.94,1.7-3.53-11.57c3.9-2.66,5.57-2.5,6.66.62Z"/><path class="cls-28" d="M121.62,515.93c1.78,2.55,3.66,4.51,2.44,8.2-1.08,3.24-.74,7-1,10.35C118,529.75,117.77,526.76,121.62,515.93Z"/><path class="cls-29" d="M126,549.46a22.12,22.12,0,0,1,6.71,17.09C127.65,562,125.81,556.31,126,549.46Z"/><path class="cls-18" d="M237.9,515.94c-.91-5.39-3.31-11-.08-17.44C239.61,504.79,243,510.3,237.9,515.94Z"/><path class="cls-28" d="M316.43,513.55c3.27,3.91,1.91,8.74,2.92,13.09l-.9.39c-.89-1.76-2.13-3.43-2.6-5.29a43.41,43.41,0,0,1-.68-7.06c-.08-1-.05-1.92,1.35-1Z"/><path class="cls-18" d="M247.33,497.36c.76,1.57,1.53,3.15,2.3,4.72q.23,3.07.43,6.15l-.87.33-4-10.41,0,.07c.15-.51.3-1,.48-1.59Z"/><path class="cls-18" d="M304.69,480.83c.29,1.45.58,2.89.86,4.34l.63,5.34-.57.11c-.88-3.6-1.76-7.2-2.77-11.37Z"/><path class="cls-18" d="M212.12,506.28v-1.76l1.8,1.16,1.72,7-.35.08Z"/><path class="cls-23" d="M440.88,456.24c.77,1.78,1.53,3.57,2.3,5.35.14,1.17.26,2.34.43,3.51.62,4.23-.58,6.45-4.09,7.54-3.9-7-4.14-7.21-11.54-8.59a36.67,36.67,0,0,1-.85-3.69c-.9-7.27,3.43-11.19,9.43-8.35C438.28,452.83,439.45,454.8,440.88,456.24Z"/><path d="M440.88,456.24c-1.43-1.44-2.6-3.41-4.32-4.23-6-2.84-10.33,1.08-9.43,8.35a36.67,36.67,0,0,0,.85,3.69c7.4,1.38,7.64,1.56,11.54,8.59,3.51-1.09,4.71-3.31,4.09-7.54-.17-1.17-.29-2.34-.43-3.51.38,2.77,1.22,5.59,1,8.3-.13,1.46-1.85,3.27-3.31,4-4.86,2.48-10,.24-12.55-5.33a40,40,0,0,1-2.6-8.14c-1-4.54,1-8.39,4.47-9.49C434.75,449.48,439,451.56,440.88,456.24Z"/><path d="M437.2,489c-7.91,3.27-17.7-.72-22-7.8,2.15,1.84,4.21,3.79,6.47,5.48C426.38,490.19,431.76,489.91,437.2,489Z"/><path class="cls-23" d="M531.89,427.62l1.18-.52c2.36.11,4.86-.24,7,.46,1.69.54,2.95,2.39,4.4,3.66,1,2.17,1.93,4.35,2.9,6.53.16,1.84.43,3.69.45,5.54,0,3.08-2.32,4.16-4.71,4.86-2.17.64-3.92.13-5-2.32a11.94,11.94,0,0,0-3-3.61A12.59,12.59,0,0,1,531.89,427.62Z"/><path d="M531.89,427.62a12.59,12.59,0,0,0,3.28,14.6,11.94,11.94,0,0,1,3,3.61c1.05,2.45,2.8,3,5,2.32,2.39-.7,4.74-1.78,4.71-4.86,0-1.85-.29-3.7-.45-5.54,3.54,8.14.15,12.13-6.33,11.8a8.69,8.69,0,0,1-5.2-2.38,19.79,19.79,0,0,1-6.23-14.83C529.67,430.75,531.1,429.19,531.89,427.62Z"/><path d="M542.61,463.37c-6,2.82-15.09-.09-18.59-4.21,3.35,1.49,6.59,3.45,10.09,4.33C536.76,464.16,539.76,463.46,542.61,463.37Z"/><path d="M544.5,431.22c-1.45-1.27-2.71-3.12-4.4-3.66-2.17-.7-4.67-.35-7-.46C537.32,424.64,540.91,425.93,544.5,431.22Z"/><path class="cls-2" d="M157.46,519.83c1.08,1.51,2.79,2.91,3.1,4.57a50.32,50.32,0,0,1,1.08,12.27c-.33,5-4.68,8.06-9.6,7.31a6.48,6.48,0,0,1-4.16-2.34c-3.75-6-5.34-12.56-3.61-19.51.42-1.69,2.32-3,3.55-4.5l0-.09c-.17.35-.58.83-.47,1,1.9,3.35,3.82,6.69,5.88,9.94a2.28,2.28,0,0,0,1.95.59,42.62,42.62,0,0,0,4.42-1.42l-4-8.89Zm-10.79-.53c-4.22,5.83-1.81,20.23,2.94,21.81l2.67-11.81C150.88,526.79,148.86,523.2,146.67,519.3Z"/><path d="M157.46,519.83l-2-1.05c-1-2.19-2.81-2.44-4.89-1.93l-2.85.69,0,.09c3.23-2.25,7.14-2,9.4.56C157.52,518.54,157.39,519.27,157.46,519.83Z"/><path d="M299.63,522.35c-6.86,2.73-14.32,1.3-19.09-3.63C286.23,523.46,292.78,523.69,299.63,522.35Z"/><path class="cls-23" d="M486.1,453.82c2-.7,4-1.44,6.07-2.07,1.37-.43,2.55-.27,2.82,1.49a32,32,0,0,1,.4,3.21c.09,2.57-2.17,5.26-5.22,6-2,.49-4,.49-5.31-1.52C483.39,458.64,483.85,456.21,486.1,453.82Z"/><path d="M486.1,453.82c-2.25,2.39-2.71,4.82-1.24,7.11,1.3,2,3.34,2,5.31,1.52,3.05-.74,5.31-3.43,5.22-6a32,32,0,0,0-.4-3.21c2,2.69,1.56,5.48-.25,7.87a7.73,7.73,0,0,1-8.19,2.77c-2.5-.54-3.64-2.76-3.74-5.11A4.81,4.81,0,0,1,486.1,453.82Z"/><path d="M486.63,477.07c-7.15,2.5-15.41-.88-18.43-6.54C473,476.59,479.34,478.13,486.63,477.07Z"/><path d="M585.57,452c-4.46,1.63-8.58,1.52-12-2.33C577.19,452.53,581.27,452.83,585.57,452Z"/><path d="M389,442.52c-5.62,2.4-9.41,1.68-12.47-2.37,2.72,3.39,6.41,3.25,10.18,2.77C387.44,442.83,388.2,442.65,389,442.52Z"/><path class="cls-18" d="M146.67,519.3c2.19,3.9,4.21,7.49,5.61,10l-2.67,11.81C144.86,539.53,142.45,525.13,146.67,519.3Z"/><path class="cls-18" d="M147.77,517.54l2.85-.69c2.08-.51,3.87-.26,4.89,1.93l4,8.89a42.62,42.62,0,0,1-4.42,1.42,2.28,2.28,0,0,1-1.95-.59c-2.06-3.25-4-6.59-5.88-9.94C147.19,518.37,147.6,517.89,147.77,517.54Z"/></g></g></svg>