<svg xmlns="http://www.w3.org/2000/svg" viewBox="0 0 314 317.43"><defs><style>.cls-1{fill:#447271;}.cls-2{fill:#203c3b;}</style></defs><g id="Layer_2" data-name="Layer 2"><g id="Layer_1-2" data-name="Layer 1"><circle class="cls-1" cx="157" cy="157" r="157"/><path class="cls-2" d="M159.65,317.43c-18,.06-32.9-.57-43.5-1.87-23.46-2.86-47.59-3.7-68.84-16-7.36-4.26-14.82-9.64-15.61-18.79a41.82,41.82,0,0,1,3.24-18.91c8.14-19.68,20-37.11,36.43-50.76,12.93-10.73,26.36-21.74,44.42-21.46,6.42.1,12.88,3.24,19.17,5.42,18.58,6.45,36.44,4,54-3.66,13-5.64,24.06.35,34.7,6.57,17.35,10.15,32.18,23.52,42.29,40.82,6.82,11.66,11.72,24.68,15.77,37.63,3,9.72-4.87,16.13-12,20.51-14.46,8.9-30.65,13.32-47.55,15.18-12.42,1.36-24.8,3-37.2,4.55C178.59,317,169.91,317.39,159.65,317.43Z"/><path class="cls-2" d="M156.48,185.88c-40.25-.94-72.28-32.57-71.55-72,.84-44.7,32.89-72.39,72-71.91,41.24.49,71.12,29,71.52,71.52C228.89,154.59,198,184.4,156.48,185.88Z"/></g></g></svg>