<svg xmlns="http://www.w3.org/2000/svg" viewBox="0 0 448 448"><defs><style>.cls-1{fill:#fff;}.cls-2{fill:#f7bb72;}.cls-3{fill:#515151;}</style></defs><g id="Layer_2" data-name="Layer 2"><g id="Layer_1-2" data-name="Layer 1"><rect class="cls-1" width="448" height="448"/><rect class="cls-2" x="226.74" y="128.2" width="149" height="86" rx="12"/><path class="cls-3" d="M380.74,205.06a50.84,50.84,0,0,1-2.86,6.68A18.53,18.53,0,0,1,363,221.12c-1.12.1-2.25.13-3.37.13q-57.12,0-114.23,0c-10.5,0-18.07-5.35-20.46-14.52a27.52,27.52,0,0,1-.72-6.66q-.07-30,0-60c0-13.29,8.12-21.32,21.42-21.32,37.06,0,74.11.21,111.17-.13,11.8-.11,20.81,4.22,24,16.62Zm-78,7q28.64,0,57.26,0c7.88,0,11.84-4,11.85-11.88q0-29.87,0-59.71c0-8.71-3.81-12.56-12.44-12.56H246.15c-8.62,0-12.48,3.86-12.48,12.54q0,29.53,0,59.09c0,8.72,3.78,12.52,12.46,12.53Z"/><path class="cls-3" d="M208.73,329.41c-37.68-.34-71.82-12.73-102.63-34.94A220.77,220.77,0,0,1,73,265c-7.39-8-7.76-19.29-.5-27.2,23.51-25.62,51.11-45.23,84.29-56.41a166.78,166.78,0,0,1,51.09-8.6c3.67,0,5.62,1.24,6,3.9.45,3.1-1.52,5-5.15,5.29-9.14.8-18.37,1.12-27.38,2.69-27.68,4.84-52.41,16.64-74.35,34-9.41,7.45-18,16-26.68,24.29-5.35,5.14-5.07,11,0,16.45,21.09,22.52,45.38,40.54,74.62,51,51,18.19,99.15,11,144.45-17.83a202.5,202.5,0,0,0,39.16-33.16c5.07-5.44,5.05-11,0-16.52a49,49,0,0,1-3.3-3.62c-1.55-2.06-1.52-4.26.36-6.08a4.24,4.24,0,0,1,6.1-.22c12.89,10.85,12.15,24,2.75,33.72-24.2,25.13-52,44.57-85.48,55.15A169.2,169.2,0,0,1,208.73,329.41Z"/><path class="cls-3" d="M268.55,251.09c-.65,31.14-24.64,56.61-55.56,58.51a58.63,58.63,0,1,1-4.92-117.14c3.65-.09,5.73,1.44,5.86,4.33s-1.7,4.72-5.38,4.81a49.83,49.83,0,0,0-47.16,37.69c-6.61,26.63,10.43,54.22,37.23,60,27.4,6,54.41-11.81,59.36-39a49.46,49.46,0,0,0-.55-20.94c-.13-.49-.21-1-.31-1.5-.61-3.06.63-5.34,3.26-5.92s4.92.7,5.56,3.82C267,240.83,267.7,246,268.55,251.09Z"/><path class="cls-3" d="M209.93,221.85c1.81.26,4.26.48,6.64,1,3.46.75,5.12,3,4.52,5.73s-3.09,4-6.55,3.21c-7.19-1.62-13.57-.14-19,5A19.94,19.94,0,1,0,228.7,246c-.19-.69-.44-1.36-.62-2.05-.76-2.94.41-5.37,2.95-6.17,2.35-.74,4.76.54,5.73,3.27a28.54,28.54,0,0,1-.67,21.76,29.15,29.15,0,0,1-32.68,16.84c-13.58-3-23.43-15.25-23.16-28.9a29.35,29.35,0,0,1,23.87-28.31C205.82,222.09,207.57,222.07,209.93,221.85Z"/><path class="cls-1" d="M288.76,191.43l-.15-2.24c0-.61-.08-1.21-.14-1.81s-.15-1.41-.28-2.41a33.52,33.52,0,0,0,9.06,1.53,12.52,12.52,0,0,0,4.86-.91,7.63,7.63,0,0,0,3.42-2.65,6.31,6.31,0,0,0,1.24-3.75,5.08,5.08,0,0,0-.95-3.06,5.87,5.87,0,0,0-2.92-2,15.64,15.64,0,0,0-5.17-.7c-1.22,0-2.43.05-3.62.16s-2.79.3-4.79.61q1.19-12.84,1.72-20.9,7.59,0,12.47.05,6.45,0,12.23-.05c-.13,1.51-.2,2.64-.22,3.39l-.09,2.72q-2.52-.19-7.84-.22l-5-.06-3.45,0-.9,9.8a35.75,35.75,0,0,1,4.08-.29,22.16,22.16,0,0,1,7.51,1.21,9.23,9.23,0,0,1,4.94,3.72,10.19,10.19,0,0,1,1.59,5.55,12.31,12.31,0,0,1-5.5,10.18,18,18,0,0,1-5.94,2.51,30,30,0,0,1-6.91.79c-.84,0-1.86,0-3.08-.17s-2.23-.23-3-.37S290,191.75,288.76,191.43Z"/></g></g></svg>