<svg xmlns="http://www.w3.org/2000/svg" viewBox="0 0 201.6 34.35"><defs><style>.cls-1{fill:#f69312;}.cls-2{fill:#844807;}.cls-3{fill:#010101;}.cls-4{fill:#593109;}.cls-5{fill:#030303;}.cls-6{fill:#020202;}.cls-7{fill:#050505;}.cls-8{fill:#0b0b0b;}.cls-9{fill:#080808;}.cls-10{fill:#070707;}.cls-11{fill:#060606;}.cls-12{fill:#101010;}.cls-13{fill:#151515;}.cls-14{fill:#0c0c0c;}.cls-15{fill:#131313;}.cls-16{fill:#1f1f1f;}.cls-17{fill:#0f0f0f;}.cls-18{fill:#161616;}.cls-19{fill:#181818;}.cls-20{fill:#1d1d1d;}.cls-21{fill:#383838;}.cls-22{fill:#191919;}.cls-23{fill:#252525;}.cls-24{fill:#1a1a1a;}.cls-25{fill:#1c1c1c;}.cls-26{fill:#ad5c0c;}.cls-27{fill:#292929;}.cls-28{fill:#454545;}.cls-29{fill:#282828;}.cls-30{fill:#202020;}.cls-31{fill:#272727;}.cls-32{fill:#303030;}.cls-33{fill:#3a3a3a;}.cls-34{fill:#464646;}.cls-35{fill:#5a5a5a;}.cls-36{fill:#2a2a2a;}.cls-37{fill:#262626;}.cls-38{fill:#484848;}.cls-39{fill:#373737;}.cls-40{fill:#353535;}.cls-41{fill:#363636;}.cls-42{fill:#232323;}.cls-43{fill:#3c3c3c;}.cls-44{fill:#1b1b1b;}.cls-45{fill:#393939;}.cls-46{fill:#212121;}.cls-47{fill:#f49d34;}.cls-48{fill:#242424;}.cls-49{fill:#111;}.cls-50{fill:#414141;}.cls-51{fill:#404040;}.cls-52{fill:#0d0d0d;}.cls-53{fill:#323232;}.cls-54{fill:#1e1e1e;}.cls-55{fill:#3d3d3d;}.cls-56{fill:#2d2d2d;}.cls-57{fill:#343434;}.cls-58{fill:#3b3b3b;}</style></defs><g id="Layer_2" data-name="Layer 2"><g id="Layer_1-2" data-name="Layer 1"><path class="cls-1" d="M99.9,14.32a2.3,2.3,0,0,1,1-.93A16.89,16.89,0,0,1,105.28,10,3.71,3.71,0,0,1,107,9.58c1.11.18,1.26,1.15,1.46,2a6.26,6.26,0,0,1,.25,2.29.91.91,0,0,0,.51,1c.95-.17,1.51-.95,2.25-1.43a36.51,36.51,0,0,1,5.24-2.87,3.9,3.9,0,0,1,2-.12,2.46,2.46,0,0,1,1.91,2.23c.63,3.89.17,7.8.29,11.71,0,1,.22,1.94.22,2.93a1.75,1.75,0,0,1-.56,1.36,13.49,13.49,0,0,1-4.07,3.17,9,9,0,0,1-2.13,1.11c-.27.12-.57.28-.77-.12-.18-2.89,0-5.78-.08-8.67a10.13,10.13,0,0,0-.2-2.64,15,15,0,0,1-.61-3.31,3.68,3.68,0,0,0-.58-1.6c-.32-.55-.72-.21-1.1-.1-1.21.38-1.19,1.48-1.37,2.42a31.11,31.11,0,0,0-.25,5.63v.34a4.33,4.33,0,0,1-1.92,4.5c-1.46,1.14-3,2.21-4.49,3.22-.69.45-1,.3-1-.56,0-1.91,0-3.83,0-5.74,0-2.1-.17-4.19-.36-6.27,0-.51.12-1,.06-1.51s-.53-1.17-.62-1.81c0-.19,0-.38,0-.57a1.27,1.27,0,0,0-.31-.42c-.25-.25-.58-.23-.89-.3a.84.84,0,0,1-.27-.13C99.34,14.86,99.62,14.59,99.9,14.32Z"/><path class="cls-2" d="M42.57,33.08c-1.89.09-3.75.39-5.64.5-1.47.09-2.94.34-4.43.38-.24,0-.49,0-.73,0-.76-.39-.25-.66.09-.91,1-.69,2.08-1.26,3.07-2a17.65,17.65,0,0,0,1.61-1.24,3.58,3.58,0,0,0,1.29-1.49,15,15,0,0,0,1.24-2.21,3.37,3.37,0,0,0,1.06-3,4,4,0,0,1,.06-.91c.09-.91.23-1.82.24-2.74a1.24,1.24,0,0,1,.3-.94A1.37,1.37,0,0,0,41,17.18a10.63,10.63,0,0,1-.27-1.78,2.56,2.56,0,0,0-1.18-2.76c-.39-.43-1.11-.57-1.13-1.31s.49-.75,1-.67a3.88,3.88,0,0,1,1.14.36c1.44.26,2.87.55,4.31.77a2.15,2.15,0,0,1,1.06.35c0,.94-1,1-1.36,1.64-.14.22-.44.31-.65.49-.89.78-.86,1.17.19,1.73a1.22,1.22,0,0,1,.62.88,11.19,11.19,0,0,1,.23,1.92c0,2.32,0,4.64,0,7,0,2.08-.33,4.14-.21,6.23,0,.51-.15.79-.74.85A2.77,2.77,0,0,0,42.57,33.08Z"/><path class="cls-2" d="M133.77,12.6a.39.39,0,0,1,.42-.18,7.35,7.35,0,0,0,2.64-.67,25.51,25.51,0,0,1,4.78-1.34c.33-.06.61-.05.79.28.19.53-.14.81-.52,1.08s-1.08.56-1.56.94a6.44,6.44,0,0,0-2.78,2.83,8.49,8.49,0,0,1-.85,1.21,7,7,0,0,0-1.52,1.94,3.36,3.36,0,0,0-.48,2.14c-.1.23-.18.47-.26.71a18,18,0,0,0-.64,1.92c.08.92-.44,1.88.23,2.75a9.28,9.28,0,0,0,2.36,5.62.64.64,0,0,1,.1.92,6.73,6.73,0,0,1-2.89-.3c-1.64-.25-3.28-.57-4.92-.83-1-.61-1.13-.87-.23-1.54,1.76-1.34,2.11-3,2-5.13-.13-3.11,0-6.23,0-9.35a1.43,1.43,0,0,1,.84-1.46C132.12,13.68,132.94,13.14,133.77,12.6Z"/><path class="cls-2" d="M157.9,33.16l-6.8-.76a9.77,9.77,0,0,1-1.07-.25c-.48-.38-.11-.57.17-.76.82-.56,1.59-1.17,2.36-1.8a4.23,4.23,0,0,0,1.69-3.44c0-4.17,0-8.34,0-12.51,0-1.46-.06-1.3,1.32-1.56,3.26-.62,6.53-1.2,9.79-1.86a1.88,1.88,0,0,1,.71,0c.36.15.31.38.13.64A3.77,3.77,0,0,1,165.08,12a22.75,22.75,0,0,1-2.53,1.35c-2.48,1.28-3.81,3.45-4.8,5.9a10.59,10.59,0,0,0-.49,1.57,12,12,0,0,0-.83,3.43,4.67,4.67,0,0,0,.11,1.62c.3,1.17.24,2.44,1,3.45a5.52,5.52,0,0,0,2,2.7c.37.26.85.52.58,1.13C159.44,33.63,158.67,33,157.9,33.16Z"/><path class="cls-3" d="M44.5,25.71a5.8,5.8,0,0,0,0-.94c0-2.18,0-4.36,0-6.55,0-1.23-.27-2.26-1.68-2.69-.75-.22-.85-.91-.3-1.55A7,7,0,0,1,45,12a.85.85,0,0,1,.3-.15c.51.07.81-.3,1.13-.58a13,13,0,0,1,2.28-1.5,3.41,3.41,0,0,1,3.56.07c.09.4-.14.61-.44.78-1.87-.79-3.28.22-4.67,1.23-.66.49-1.29,1-1.91,1.55-.37.32-.59.69-.21,1.15a5.54,5.54,0,0,1,1,3.59c.11,4.17-.11,8.34-.19,12.51,0,.49-.13,1.06.49,1.33.27.06.49.29.79.27,2.62-.57,5.31-.9,7.71-2.21.62-.34,1.29-.68,1.2-1.58,0-.11,0-.22,0-.33a23.68,23.68,0,0,1,0-5,14.49,14.49,0,0,0-.18-4.36,4.43,4.43,0,0,0-1.17-2,1,1,0,0,1,0-.86c.49-.44.86-.13,1.25.19,1.39,1.14,1.57,2.78,1.58,4.37,0,3.17-.21,6.34-.22,9.51,0,.47-.18,1,.44,1.2.33.07.62.31,1,.22,3.18-.49,5.83-2.16,8.46-3.85a3.35,3.35,0,0,0,.58-1.22,19.52,19.52,0,0,0-.5-7,3.37,3.37,0,0,0-.94-1.77c-.22-.57-1-.82-.86-1.59a1.07,1.07,0,0,1,1.55.11,4.34,4.34,0,0,1,1.38,2,20.67,20.67,0,0,1,.9,4.7,64.65,64.65,0,0,1,0,6.53c-.08,1.91.11,2,1.88,1.2.56,0,1.12,0,1.69,0a.34.34,0,0,1,.2.37c-1.29.51-2.6,1-3.89,1.54-.72.29-.91.05-.89-.66,0-1.29,0-2.59,0-3.94a3.57,3.57,0,0,0-1.34.9C64,31,60.5,31.9,57,32.62c-.59.13-.84,0-.75-.64a12.38,12.38,0,0,0,0-1.49.38.38,0,0,0-.51,0c-3.12,1.95-6.77,2-10.19,2.82-.64.15-.73-.23-.72-.76,0-1,0-1.25-.55-1.23"/><path class="cls-4" d="M25.32,33.15a8,8,0,0,1-2.8.27,77.23,77.23,0,0,1-7.89.53c-.16.11-.32,0-.49,0s-.52,0-.6-.26.19-.48.41-.63a5.18,5.18,0,0,1,.9-.48,5.46,5.46,0,0,0,2.07-1.71c1.48-1.41,3.34-2.43,4.49-4.2a2.83,2.83,0,0,1,1.28-.75c.45-.22,1-.13,1,.55a11.13,11.13,0,0,0,1.62,6A.69.69,0,0,1,25.32,33.15Z"/><path class="cls-5" d="M133.77,12.6a5.36,5.36,0,0,1-2.18,1.55,1.55,1.55,0,0,0-.9,1.55c0,3.69,0,7.39.07,11.08a2.72,2.72,0,0,1-1.16,2.54c-.31.22-.53.55-.84.76-.72.49-.68,1-.12,1.56l0,.05c-.51.08-.74-.47-1.19-.52-.21.07-.32-.05-.4-.21a.68.68,0,0,1,.19-.75,5.72,5.72,0,0,1,.46-.4A5,5,0,0,0,129.85,25a62,62,0,0,1,0-6.54c.06-1.78-.26-3.53-.23-5.3,0-.75-.35-1.07-1.09-.92a1.86,1.86,0,0,0-1.79.2,13.31,13.31,0,0,1-2.58,1,8.62,8.62,0,0,0-1.65.79A1.18,1.18,0,0,0,122,16a10.88,10.88,0,0,0-.27,4.75,58.32,58.32,0,0,1,0,6.87c0,1.21-1.13,1.81-1.8,2.65-.21.26-.64.4-.52.8s.54.38.86.46c1.06.28,2.12.53,3.17.86a3.59,3.59,0,0,0,.73,0,.73.73,0,0,1,.28.1.33.33,0,0,1,.11.39,1.26,1.26,0,0,1-1.4.37c-1.88-.5-3.77-1-5.62-1.53-.43-.13-.62.21-1,.17s-.25,0-.24-.2a23,23,0,0,0,3.91-3.1,1.75,1.75,0,0,0,.58-1.34c-.08-4.36-.12-8.73-.19-13.09a8.29,8.29,0,0,0-.14-1.22c-.36-2.13-1.74-2.79-3.31-2.27a3,3,0,0,1-.61.07c-.25.07-.32-.05-.27-.27-.79-1-1-1,.22-2.25.34.16.23.52.34.79.15.53.55.62,1,.59a3.13,3.13,0,0,1,2.71,1.14,1,1,0,0,0,1.28.33c1-.38,2-.7,2.92-1.16s1.69-1.17,2.55-1.73c.35-.23.72-.57,1.21-.3.13.12.21.24.12.42a18.11,18.11,0,0,1-6.82,3.78c-1,.3-1.18.82-.69,1.73,2.58-1.62,5.57-2.15,8.35-3.24.74-.28,1.08-.18,1,.7s0,1.84,0,2.85C131.85,13.85,132.58,12.77,133.77,12.6Z"/><path class="cls-6" d="M166.33,10.31c-3.6.66-7.19,1.34-10.79,2-.76.14-1,.5-1,1.25,0,4.2-.06,8.41,0,12.61A4.17,4.17,0,0,1,153,29.61a17.64,17.64,0,0,1-2.51,2c-.22.13-.53.2-.47.58a2.14,2.14,0,0,0-1.38.59,2.57,2.57,0,0,1-2.46.53c-.53-.13-1.07-.19-1.61-.27-1.66-.27-3.32-.64-4.94.23a2.81,2.81,0,0,1-.89.14.45.45,0,0,1-.13-.45.78.78,0,0,1,.61-.49c2.46-.61,4.34-2.19,6.28-3.68.55-.42,1-1.21,1.94-.7.39.44.21,1,.2,1.47s-.28.51-.64.48c-1.23-.08-1.76,1-2.62,1.57-.3.19,0,.42.25.46a8.11,8.11,0,0,0,3.14.22c1.56-1.21,3.38-2.07,4.75-3.56a3.8,3.8,0,0,0,1.13-2.75c0-7.56,0-15.12,0-22.69,0-.6.27-1.5-.9-1.42a3.28,3.28,0,0,0-2.41.49c-1.68.77-3.42,1.38-5.16,2a14.63,14.63,0,0,0-3.85,1.88c-.38.27-.78.59-1.31.35a.41.41,0,0,1-.22-.41c2.44-2,5.45-2.76,8.28-3.89C149.9,1.53,151.77.9,153.6.17c.76-.3,1-.11,1,.67,0,3.45,0,6.9,0,10.35,0,.74.13.88.9.72,4-.81,8-1.54,12.05-2.29a5.42,5.42,0,0,1,.81,0c.26-.16.43-.1.52.19-.31.86-1.06.93-1.81,1A3.19,3.19,0,0,1,166.33,10.31Z"/><path class="cls-7" d="M10.69,34.3c-3.8.4-6.52-1.53-8.36-4.49-3.2-5.15-3-10.55-.1-15.77,2.41-4.38,6.29-7.3,10.6-9.66,1.78-1,3.66-.59,5.51-.2l18,3.68a3.08,3.08,0,0,1,.47.19.42.42,0,0,1-.17.47,1.71,1.71,0,0,1-1.38.09c-4.33-.9-8.68-1.75-13-2.63-.74-.15-1.4-.53-2.14-.64a2.93,2.93,0,0,0-1.25.08,7.66,7.66,0,0,0-8.08,1.22C7.94,8.8,5.1,11,3.27,14.11A14.7,14.7,0,0,0,2.13,27.5a9.07,9.07,0,0,0,7.7,6,1.76,1.76,0,0,1,.5.13C10.53,33.79,10.77,34,10.69,34.3Z"/><path class="cls-5" d="M25.32,33.15c0-.19-.55.16-.27-.26s-.06-.45-.18-.62a9.2,9.2,0,0,1-1.42-4.84c0-.42.16-1-.32-1.21s-.62.3-.91.48a3.71,3.71,0,0,1-.65.27,7.76,7.76,0,0,1-5.35,2.21c-.62,0-1.18,0-1.31-.76.25-.63.84-.67,1.36-.71a12.73,12.73,0,0,0,6-2.43,1.68,1.68,0,0,0,.63-1.63,14.36,14.36,0,0,1,1.12-5.6,7.66,7.66,0,0,1,1.25-2c.49-.58.4-.82-.35-.9-2.48-.25-5-.6-7.44-.83a4.76,4.76,0,0,1-4-1.93,4.32,4.32,0,0,0-3.23-1.58c-.63-.09-1.34-.05-1.65-.8,0-.65.46-.81,1-.77,1.7.12,3.38.32,4.62,1.74a3.7,3.7,0,0,0,1.83,1.4,4.29,4.29,0,0,0,.55.31c1.63.29,3.28.35,4.92.57s3.26.35,4.89.55a2.91,2.91,0,0,0,2.11-.56A19.3,19.3,0,0,1,35,10l.66-.2a.74.74,0,0,1,.64.25.69.69,0,0,1,.12.5c-.13.47-.53.58-.93.71a23.59,23.59,0,0,0-8.34,5.1,8,8,0,0,0-2.44,5,22.93,22.93,0,0,0,0,8.26,4.73,4.73,0,0,0,3.16,3.61c.37.15.81.19,1,.63a.4.4,0,0,1-.29.51,4.24,4.24,0,0,1-2.41-.94A1.15,1.15,0,0,0,25.32,33.15Z"/><path class="cls-8" d="M178.4,6.09C180.27,4.34,182.67,4,185,3.45c5.14-1.1,10.27-2.21,15.39-3.38,1-.22,1.17.08,1.17,1q0,12.89,0,25.76a2.06,2.06,0,0,1-.8,1.87c-.24,0-.34-.12-.42-.31a26.67,26.67,0,0,0,.31-6.12q0-9.45,0-18.89a2.87,2.87,0,0,0-.36-1.88.91.91,0,0,0-.79-.34c-2.29.52-4.55,1.14-6.85,1.62-3.25.66-6.49,1.4-9.73,2.1A7.89,7.89,0,0,0,180,6.06a1.64,1.64,0,0,1-1.42.45C178.47,6.41,178.34,6.3,178.4,6.09Z"/><path class="cls-5" d="M168.74,9.73l-.43-.16c2.58-1,4.65.17,6.82,1.77-.17-1.6,0-2.91,1.4-3.63a.3.3,0,0,1,.38.11A1.91,1.91,0,0,1,177.09,9a.77.77,0,0,1-.31.4c-.43.29-.73.66-.54,1.2s.78.6,1.3.55c1.26-.11,2.51-.33,3.76-.51l10.45-1.49a5.67,5.67,0,0,1,1.54,0c.46.14.91.29,1.08.82-.08.72-.63.73-1.14.68a8.61,8.61,0,0,0-3.38.43c-.46,0-.89-.22-1.35-.14-3.48.82-7.05,1.1-10.57,1.69-1.1.18-1.4.58-1.49,1.73-.27,3.24-.34,6.49-.71,9.71-.15.2-.27.42-.54.47-.8-.05-.75-.67-.77-1.2a50.58,50.58,0,0,1,.28-5.51c.1-1.39.06-2.79.27-4.18a1.65,1.65,0,0,0-.66-1.64,7,7,0,0,0-4.57-1.78C169.34,10.22,168.9,10.26,168.74,9.73Z"/><path class="cls-7" d="M199.35,30.1c-1.33,1.38-3.07,2.15-4.63,3.18a1.79,1.79,0,0,1-1.21.09c-1.29-.11-2.58-.24-3.88-.34a6.68,6.68,0,0,0-2.63.14c-1.62.55-3.26.07-4.88,0a30.16,30.16,0,0,1-3.68-.36,8.93,8.93,0,0,0-4.47.48,3,3,0,0,1-1.52.09c0-.47.23-.69.63-.82,3.08-.49,5.3-2.48,7.56-4.39.39-.23.78-.45,1.17,0,.24.58-.12.94-.47,1.3-.17.13-.35.22-.52.34-.53.87-1.52,1.24-2.35,2.06,1.83,0,3.45.64,5.15.37A6.78,6.78,0,0,0,189.33,31a34.73,34.73,0,0,0,3.22-2.34,5,5,0,0,1,.74-.53c.92-.52,1.54-.2,1.59.83a1.37,1.37,0,0,1-.28,1.15.54.54,0,0,1-.3.1,1.18,1.18,0,0,0-1.54.18,12.71,12.71,0,0,1-2.46,1.7c1.3.24,2.55.07,3.75.37a1.66,1.66,0,0,0,.65-.18c1.1-.87,2.34-1.53,3.46-2.38a.91.91,0,0,1,1-.23A.33.33,0,0,1,199.35,30.1Z"/><path class="cls-6" d="M102.34,26.43v6.4c1.34-.89,2.51-1.67,3.67-2.46.17-.11.3-.28.47-.4,1.8-1.26,3.17-2.75,2.7-5.19.48,0,.47.43.47.76,0,1.74,0,3.47,0,5.21,0,.33,0,.71-.45.79V28.13c-.85.75-1.49,1.25-2.06,1.81a29.47,29.47,0,0,1-4.25,3,1,1,0,0,1-1.29,0l-.09,0a3.06,3.06,0,0,1-1.86-3.32,76.43,76.43,0,0,0-.16-10.15,9.52,9.52,0,0,0-.17-1.32c-.25-1.13-.53-1.29-1.63-1-.18.06-.37.24-.53,0a.28.28,0,0,1,0-.27c1-.82,1.53-2,2.73-2.55.17.28-.47.54,0,.82.18.41-.18.5-.41.64s-.44.18-.29.49a3.58,3.58,0,0,0,.26.29,1.63,1.63,0,0,1,.38.45c.84,1.43.69,3,.76,4.59.11,2.59,0,5.19,0,7.78a4.62,4.62,0,0,0,.1,1.23c.09.29.2.66.56.64s.36-.44.37-.73c0-1,0-1.91,0-2.87,0-.43,0-.9.35-1.23A.27.27,0,0,1,102.34,26.43Z"/><path class="cls-9" d="M77.27,14.48a52.54,52.54,0,0,1,5.93-5c.54-.4.86-.3,1.07.3A11.25,11.25,0,0,1,85,14.05,84.17,84.17,0,0,0,84.9,24a11.55,11.55,0,0,0,.22,1.31c.12.65.28,1.29,1,1.5s1.12-.46,1.49-1c.3,0,.39.21.48.43A2.22,2.22,0,0,1,85.27,28a4.29,4.29,0,0,1-.47-1.25C83.88,24.2,84,21.61,84,19c0-2.19.26-4.38.15-6.58,0-.52,0-1.08-.57-1.38s-.95,0-1.37.36c-1.33.95-2.47,2.12-3.75,3.12-.29.23-.56.51-1,.33A.43.43,0,0,1,77.27,14.48Z"/><path class="cls-10" d="M89.41,13.43c0-.33.29-.44.5-.59,1.57-1.1,3.13-2.2,4.71-3.26.34-.23.68-.78,1.14-.49s.15.77.13,1.16c-.15,3.55-.34,7.09-.47,10.64a11.06,11.06,0,0,0,.78,5.71,2,2,0,0,0,1,1c1.17.51,1.17.54.3,1.48a5.86,5.86,0,0,1-.44.42.38.38,0,0,1-.42-.19,3.38,3.38,0,0,0-.76-1.51,6.74,6.74,0,0,1-1.36-4.21c-.1-3.44.12-6.88.36-10.31a11.31,11.31,0,0,0,0-1.54c-.05-.78-.28-.9-1-.48-1.08.66-2,1.48-3.13,2.13-.37.22-.71.56-1.21.44C89.41,13.73,89.31,13.62,89.41,13.43Z"/><path class="cls-11" d="M77.27,14.48l.24.22a2.34,2.34,0,0,1,.3,1.57c0,3.22,0,6.43,0,9.64a17.13,17.13,0,0,0,.38,3.36,3.16,3.16,0,0,0,2.16,2.64.82.82,0,0,1,.58.52.52.52,0,0,1-.13.52c-2.34-.13-3.17-1.82-3.69-3.92-.06-.25,0-.55-.19-.75a.34.34,0,0,1-.41-.11,2.67,2.67,0,0,1-.3-1.21,4.87,4.87,0,0,0,.18-1.31c0-3,0-6.07,0-9.1a4.5,4.5,0,0,0-2.26-3.74A1.33,1.33,0,0,1,73,11.3c.09-.17.19-.31.41-.27a16.22,16.22,0,0,1,3.56,3.31C77,14.42,77.15,14.44,77.27,14.48Z"/><path class="cls-12" d="M80.8,33v-.32c.06-.37.35-.48.65-.57a18.14,18.14,0,0,0,5.84-3.51c.18-.14.35-.31.55-.45,1.09-.74,1.79-.48,2,.81a16.22,16.22,0,0,0,.52,2.19c.4,1.17,1.13,1.48,2.23.92a14.46,14.46,0,0,0,3-2.3c.34-.3.64-.8,1.22-.42l.2.2a11.28,11.28,0,0,1-5,3.76,1.68,1.68,0,0,1-2.14-.9,11.49,11.49,0,0,1-1.08-3.79l-1.41,1.09a17.14,17.14,0,0,1-5.52,3.23A2.62,2.62,0,0,1,80.8,33Z"/><path class="cls-13" d="M116.36,9.19l.18-.88a19.85,19.85,0,0,1,5.07-3.75c1.93-1.15,3.87-2.29,5.78-3.48a.9.9,0,0,1,1.38.24c.76.92,1.56,1.8,2.33,2.72,1.14,1.36,1.13,1.38-.36,2.46-.17.07-.28,0-.38-.14.43-1.52-.56-2.43-1.47-3.38s-1.2-1.07-2.44-.33a11,11,0,0,0-2.14,1.59,1.57,1.57,0,0,1-.93.59,1.67,1.67,0,0,0-1.33.28c-1.26.86-2.52,1.73-3.8,2.56a1.37,1.37,0,0,0-.62,1.19C117.31,9.38,116.92,9.62,116.36,9.19Z"/><path class="cls-14" d="M139.78,6.14l.2.15c.38.79-.28,1.08-.75,1.38s-.77.49-.68,1.05c-.07.33-.39.45-.58.69a.86.86,0,0,0-.2,1c.22.37.6.27.93.19,1.32-.34,2.64-.7,4-1.05a11.55,11.55,0,0,1,2.91-.52A1,1,0,0,0,146.65,8a7.86,7.86,0,0,0-.18-2.32c.38-.48.78-.54,1.19,0a12,12,0,0,1,.13,4.14.79.79,0,0,1-.87.81,12.09,12.09,0,0,0-4.23.48c-.16.05-.33-.07-.46-.18-.38-.34-.78-.1-1.15,0-1.92.49-3.82,1-5.74,1.51-.37.1-.77.39-1.15,0l.18-.09c.72-.21,1.62-.23,2.09-.69s.12-1.43.19-2.17a1,1,0,0,1,.29-.84A28,28,0,0,1,139.78,6.14Z"/><path class="cls-8" d="M89.41,13.43l.19.25c.5.17.5.62.51,1A33.39,33.39,0,0,1,88.93,25c-.16.55-.26,1.28-1.15,1.16l-.14-.38c1.26-3.35,1.43-6.87,1.58-10.38A4.89,4.89,0,0,1,89.41,13.43Z"/><path class="cls-14" d="M51.81,10.44l.42-.63h.1a4.35,4.35,0,0,0,4,.2,6.29,6.29,0,0,1,3.7-.19c.37.08.75.13.92.54a.67.67,0,0,1-.19.3,1.21,1.21,0,0,1-.89.11,8.18,8.18,0,0,0-5.49,1.06c-.33.18-.67.34-1,.49s-.94.51-1.43.11A1.2,1.2,0,0,1,51.74,11a1.71,1.71,0,0,1,.2-.18c.07-.06.19,0,.23-.14l-.28,0A.18.18,0,0,1,51.81,10.44Z"/><path class="cls-12" d="M73.36,11l-.18.23c-.4.37-.76.12-1.13-.06a5.53,5.53,0,0,0-7.55,2.09c-.26.4-.54.74-1.06.61a.77.77,0,0,1-.63-.91.76.76,0,0,1,.13-.29c.43-.25.57-.8,1-1,1-.29,1.56-1.29,2.59-1.58C69,9.44,71.33,9,73.36,11Z"/><path class="cls-15" d="M109.2,31.54a27.3,27.3,0,0,0,0-6.76v-.22c.26-.22-.24-.91.51-.82.44.35.36.86.37,1.32,0,1.5,0,3,0,4.51,0,1.28.25,1.61,1.44,2a4.85,4.85,0,0,1,1.73.86c.27.11.44.35.69.48l2.41-1.17.24.2a9.77,9.77,0,0,1-2.6,1.36.69.69,0,0,1-.49,0c-1.37-.48-2.75-1-4.11-1.48C109.3,31.85,109.26,31.66,109.2,31.54Z"/><path class="cls-14" d="M109.34,15.5c-.46.5-.64.31-.69-.26a20.9,20.9,0,0,0-.33-3.54c-.19-.78-.31-1.62-1.22-2-.15-.21-.63.17-.61-.34a1.56,1.56,0,0,1,1.9,1.13,9.47,9.47,0,0,1,.62,3.68L111.37,13c.52-.06.28.23.21.45-.47.43-1.12.6-1.59,1C109.7,14.81,109.37,15.05,109.34,15.5Z"/><path class="cls-16" d="M138.75,33v.34a17.21,17.21,0,0,1-4-.58c-2-.32-4-.73-6-1.1l0-.05c1.28-.2,2.49.3,3.74.43s2.7.73,4.12.49A1.75,1.75,0,0,1,138.75,33Z"/><path class="cls-17" d="M167.48,32.81a3,3,0,0,0-1.65.34,6.38,6.38,0,0,1-3,.64.52.52,0,0,1,.09-.62,4.24,4.24,0,0,1,1.54-.51,10.65,10.65,0,0,0,3.32-1.78c.61-.41,1.2-.58,1.55.32,0,.51-.42.69-.77.85a1.24,1.24,0,0,0-.68.69C167.73,32.82,167.62,32.91,167.48,32.81Z"/><path class="cls-18" d="M36.18,10.47v-.33c.25-.65.76-.39,1.19-.33s.87.07.9-.56c.09-.13.2-.23.37-.16a4.61,4.61,0,0,1,1.48,1.33c.21.28.4.53.78.54,0,.38-.24.27-.44.21-.6.17-1.3-.68-1.82.19A2.15,2.15,0,0,1,36.18,10.47Z"/><path class="cls-19" d="M111.41,13.46l0-.42a50.81,50.81,0,0,1,4.95-2.48l.27.27a26.65,26.65,0,0,0-5,2.85C111.42,13.73,111.35,13.66,111.41,13.46Z"/><path class="cls-20" d="M105.25,10.17c-1.59.87-2.79,2.28-4.33,3.22.38-1.15,1.5-1.59,2.29-2.34A4.21,4.21,0,0,1,105,10C105.24,9.84,105.27,10,105.25,10.17Z"/><path class="cls-21" d="M17.47,31.2a11.11,11.11,0,0,1-3.6,2.31c.17.34.54.27.76.44a1.93,1.93,0,0,1-1.27.16c-.29-.19-.81.14-.95-.4,0-.36.22-.54.52-.67a21.63,21.63,0,0,0,3.37-1.85C16.69,30.94,17.09,30.75,17.47,31.2Z"/><path class="cls-22" d="M163,33.44l-.2.35a22.36,22.36,0,0,1-4.89-.63c.72-.42,1.52.27,2.23-.19A2.68,2.68,0,0,1,163,33.44Z"/><path class="cls-23" d="M40.45,11.17l.44-.21c1.87.23,3.68.78,5.56.85l-.63.37Z"/><path class="cls-24" d="M76.7,28.08l.22.2a11.58,11.58,0,0,1-4,2.59l-.2-.16c-.15-.38.13-.58.38-.7a10.23,10.23,0,0,0,2.37-1.64C75.82,28.11,76.2,27.76,76.7,28.08Z"/><path class="cls-25" d="M127.24,31l.24.22a16.86,16.86,0,0,1-2.92,1.8l-.25-.21a.56.56,0,0,1,.12-.66,8,8,0,0,1,2.26-1.34A.6.6,0,0,1,127.24,31Z"/><path class="cls-19" d="M28.58,34.31l.2-.33c.36-.75,1.12-.51,1.71-.68.5,0,.79.69,1.38.45a.78.78,0,0,1,.63.21A11.77,11.77,0,0,1,28.58,34.31Z"/><path class="cls-26" d="M64,11.67c0,.5-.1,1-.67,1.23C62.74,12.41,62,12,62.5,11Z"/><path class="cls-27" d="M130.52,6.27l.22.23a11.42,11.42,0,0,1-2,1.89l-.22-.25A2,2,0,0,1,130.52,6.27Z"/><path class="cls-28" d="M167.48,32.81l.21-.21a.82.82,0,0,1,1-.42,4.46,4.46,0,0,1,1.88.56c.12.22,0,.34-.19.43A14.3,14.3,0,0,1,167.48,32.81Z"/><path class="cls-10" d="M12.54,33.68l.82.43-2.67.19-.62-.17A1.77,1.77,0,0,1,12.54,33.68Z"/><path class="cls-29" d="M176.75,7.92l-.22-.21a6.46,6.46,0,0,1,1.87-1.62l.22.22A1.75,1.75,0,0,1,176.75,7.92Z"/><path class="cls-12" d="M170.39,33.17l.2-.21a1.22,1.22,0,0,1,.5-.53c.8,0,1.62-.18,2.17.63l-.81.3Z"/><path class="cls-30" d="M38.63,9.09l-.19.2a1.32,1.32,0,0,1-1.88-1l.24-.24A4.41,4.41,0,0,1,38.63,9.09Z"/><path class="cls-27" d="M199.35,30.1l-.25-.22a1.27,1.27,0,0,1,1.48-1.44l.22.24A4.19,4.19,0,0,1,199.35,30.1Z"/><path class="cls-31" d="M105.25,10.17,105,10a2.63,2.63,0,0,1,1.49-.56l.61.34Z"/><path class="cls-32" d="M61,10.38h0a1.25,1.25,0,0,1,1.37.63.54.54,0,0,1-.31.39C61,11.24,60.85,11.1,61,10.38Z"/><path class="cls-33" d="M62.06,11.3l.28-.3a.42.42,0,0,1,.16,0c.07.7.64,1.19.8,1.86l-.22,0A1.15,1.15,0,0,1,62.06,11.3Z"/><path class="cls-2" d="M113.26,32.78c-1-.33-1.91-.69-2.89-1a1.05,1.05,0,0,1-.82-1.2c0-2.28,0-4.56,0-6.83a1.49,1.49,0,0,1-.17-1,25.09,25.09,0,0,1,.42-4.74,1.69,1.69,0,0,1,1-1.42,1.82,1.82,0,0,1,1.66-.27,1.73,1.73,0,0,1,.8,1.36,34.38,34.38,0,0,1,.4,4.86c0,3.08,0,6.15,0,9.23C113.66,32.14,113.89,32.66,113.26,32.78Z"/><path class="cls-2" d="M102.18,26.42c0,1.81,0,3.63,0,5.44,0,.69-.13.84-.79.47a2.28,2.28,0,0,1-1.3-2.29c0-3.51.14-7-.15-10.56-.07-.86-.35-1.66-.42-2.51.49-1.13,1.32-1.52,2.14-1l.09.43c.18,1,.17,1.93.32,2.89C102,21.64,102.22,24,102.18,26.42Z"/><path class="cls-34" d="M113.26,32.78a2.38,2.38,0,0,0,.21-1.39c0-3,0-5.94,0-8.91.23-.39-.1-.87.21-1.25a7.23,7.23,0,0,1,.18,2.22c0,3.17,0,6.33.06,9.5Z"/><path class="cls-6" d="M111.19,16.77c-1.22.45-1.37,1.5-1.43,2.58-.09,1.47-.16,2.94-.23,4.41-.12.26-.24.53-.35.8a28.56,28.56,0,0,1,.41-6.66c.19-.86.47-1.8,1.58-2C111.45,16.05,111.45,16.05,111.19,16.77Z"/><path class="cls-34" d="M102.18,26.42a3.88,3.88,0,0,1-.21-2c0-1.8,0-3.59,0-5.38,0-.3-.31-.65.18-.84,0,2.74.32,5.47.22,8.22Z"/><path class="cls-4" d="M111.41,13.46l.21.22a15.43,15.43,0,0,1-2.28,1.82c-.43-.4-.34-.74.12-1.05A9.67,9.67,0,0,1,111.41,13.46Z"/><path class="cls-4" d="M99.08,16.79l-.18-.25c-.09-.4.18-.6.47-.76a1.92,1.92,0,0,0,.74-.64,1.34,1.34,0,0,1,1,.21A2.45,2.45,0,0,1,99.08,16.79Z"/><path class="cls-4" d="M100.11,15.14c-.11.72-.75,1-1.21,1.4h-.73c.32-.85,1.16-.94,1.72-1.4Z"/><path class="cls-35" d="M111.19,16.77c-1.15-.26.41-.6,0-.88.63-.42,1,0,1.3.45Z"/><path class="cls-36" d="M113.7,21.23a3.81,3.81,0,0,1-.21,1.25c-.07-1.59-.15-3.18-.22-4.78A9,9,0,0,1,113.7,21.23Z"/><path class="cls-37" d="M99.08,16.79a4.91,4.91,0,0,0,2.06-1.44c.43,0,.4.34.51.58-1-.18-1.37.81-2.14,1Z"/><path class="cls-38" d="M102.12,18.21l-.18.84a7.38,7.38,0,0,1-.2-2.69C102.16,16.92,102,17.6,102.12,18.21Z"/><path class="cls-1" d="M30.62,33.72a4.59,4.59,0,0,1-1.84.26A5.4,5.4,0,0,1,24,28.8a26,26,0,0,1,.29-8.44,8.61,8.61,0,0,1,3.19-5.08,29.15,29.15,0,0,1,6.73-4.21c.64-.27,1.32-.31,2-.6a5.59,5.59,0,0,1,2.45.89l1.19.86a2.62,2.62,0,0,1,1.13,2c.06.43.18.85.26,1.29a14.62,14.62,0,0,1-.13,3,29,29,0,0,0-.36,3.95,14,14,0,0,1-1.18,4.1l-1.3,2.05c-.2.82-1,1.15-1.46,1.72-1.7,1.18-3.54,2.13-5.31,3.18A3.05,3.05,0,0,1,30.62,33.72Z"/><path class="cls-39" d="M30.62,33.72c2.08-1.08,4.11-2.23,6.08-3.51a.22.22,0,0,1,.32,0,42.73,42.73,0,0,1-4.71,3c-.18.11-.69.06-.44.54A1.24,1.24,0,0,1,30.62,33.72Z"/><path class="cls-40" d="M39.54,26.55l1.18-4.1A6.46,6.46,0,0,1,39.54,26.55Z"/><path class="cls-41" d="M41.07,15.25c-.33-1-.41-2.19-1.25-3,.94.09.93,1,1.18,1.55a6.28,6.28,0,0,1,.26,1.51C41.19,15.36,41.12,15.35,41.07,15.25Z"/><path class="cls-10" d="M41.07,15.25a.63.63,0,0,0,.19,0,29.84,29.84,0,0,1,0,3.9l-.18-.68Z"/><path class="cls-36" d="M37,30.25l-.32,0,1.54-1.61C38.31,29.5,37.45,29.72,37,30.25Z"/><path class="cls-1" d="M138.75,33a4.29,4.29,0,0,1-2.25-.47,8.72,8.72,0,0,1-2.93-6.15c-.4-.77,0-1.56-.06-2.33a21.88,21.88,0,0,1,.44-2.79l.28-.62a7.23,7.23,0,0,1,.7-2.07,6.88,6.88,0,0,1,1.37-2.22l.77-1.07a11.45,11.45,0,0,1,3-3.06,13.11,13.11,0,0,0,2.17-1.35,6,6,0,0,1,4.32-.79c.64.12.85-.1.84-.74,0-1.23,0-2.46,0-3.68a1.84,1.84,0,0,1,.75-1.58c1.37-1.06,2.59-2.36,4.39-2.73l1.56-.94c0,.46.06.78.06,1.1,0,8.45,0,16.9,0,25.35a2.24,2.24,0,0,1-.66,1.62,26,26,0,0,1-5.72,4.28c-.51,0-.62-.35-.66-.74a3.42,3.42,0,0,1,.16-1.9,2.54,2.54,0,0,0,.06-1.86c-.57-.13-.86.34-1.21.62a28.71,28.71,0,0,1-4.88,3.35A11.2,11.2,0,0,1,138.75,33Z"/><path class="cls-42" d="M140.06,12.25l-3,3.06c0-.09-.09-.23-.06-.27C138,14,138.72,12.83,140.06,12.25Z"/><path class="cls-34" d="M133.62,24.06l-.05,2.35c-.51-.32-.36-.82-.34-1.27,0-.6.11-1.2.17-1.8C134,23.43,133.64,23.79,133.62,24.06Z"/><path class="cls-33" d="M136.3,16.38,135,18.61a.11.11,0,0,1-.18,0A3.56,3.56,0,0,1,136.3,16.38Z"/><path class="cls-38" d="M133.62,24.06l-.22-.72c.32-.65-.09-1.49.55-2.05A11.73,11.73,0,0,1,133.62,24.06Z"/><path class="cls-43" d="M134.83,18.61H135l-.78,2.06A2.61,2.61,0,0,1,134.83,18.61Z"/><path class="cls-1" d="M173.26,33.06c-.78.14-1.5-.27-2.26-.27a12.26,12.26,0,0,0-1.22-.36c-.53-.11-.92-.43-.62-1.08-.37-.77-.78-.37-1.18,0a8.66,8.66,0,0,1-5,2.12,6.51,6.51,0,0,1-2.86-.47,6.13,6.13,0,0,1-2.92-3.28c-1-1.35-.94-3-1-4.49a16.41,16.41,0,0,1,.52-4.72,5.81,5.81,0,0,0,.42-1,12.14,12.14,0,0,1,2.8-4.87,4.19,4.19,0,0,1,1.52-1.16c1.09-.51,2.1-1.18,3.14-1.79a5.88,5.88,0,0,1,2.27-1.18l1.84-.71c2.62-.67,4.52.92,6.57,2.06.43.23.25.52.23.77-.17,3.1-.37,6.19-.56,9.29a5.51,5.51,0,0,0,.12,2.52c.51.38.67,1,1,1.5.92,1.3,1.93,2.37,3.75,1.9a1.34,1.34,0,0,1,.9.08.79.79,0,0,1,.35.47A15.58,15.58,0,0,1,173.26,33.06Z"/><path class="cls-40" d="M156.75,20.48c-.1,1.66-.4,3.29-.36,5a12.3,12.3,0,0,0,.82,4.25c-.51-.23-.6-.75-.72-1.18a17.64,17.64,0,0,1,0-7.72C156.51,20.67,156.66,20.58,156.75,20.48Z"/><path class="cls-33" d="M166.9,10.44a13.22,13.22,0,0,1-2.27,1.18c.32-.75,1.26-.71,1.7-1.31A.4.4,0,0,1,166.9,10.44Z"/><path class="cls-1" d="M62.06,11.3l1,1.57c.07.28,0,.68.42.71s.37-.36.51-.57a6.3,6.3,0,0,1,7.51-2.73c.63.22,1,.77,1.66,1,.31.42.43,1,1,1.23.89.8,1.07,2,1.49,3-.08,1.62.42,3.18.41,4.79a8.48,8.48,0,0,0,0,2.25,5.64,5.64,0,0,0-.46,2.66c0,.75,0,1.51,0,2.27a4.25,4.25,0,0,1-1.89,2.28,8.06,8.06,0,0,1-2.32,1.13,11.45,11.45,0,0,1-2.61,1.27c0-1.22-.06-2.4,0-3.58a31.73,31.73,0,0,0-.67-9.62A5.89,5.89,0,0,0,67.19,17a1.59,1.59,0,0,0-1.8-.83c-.27.36-1.17,0-1,.84-.58,1.33.39,2.58.19,3.89a33.51,33.51,0,0,0-.19,3.48,10.57,10.57,0,0,1-.59,3.9c-.5,1-1.62,1.25-2.25,2.07a23.92,23.92,0,0,1-3.76,1.4,2.4,2.4,0,0,0-.46.21c-.54.41-.69.2-.67-.39.07-2.14.15-4.29.18-6.43a28.41,28.41,0,0,0-.07-6.32c-.25-1.24-.62-2.46-2-2.89a1.43,1.43,0,0,1-1.16,0c-.54-.24-.74,0-.89.46a3.27,3.27,0,0,0-.31,1.79c0,2.92,0,5.85,0,8.77A3.53,3.53,0,0,1,51.3,30.1c-1.63.9-3.08,2.2-5,2.45l-.83.27c0-2.69,0-5.38,0-8.06s.13-5.6-.15-8.4a1.88,1.88,0,0,0-1.9-1.9A21.75,21.75,0,0,1,49.12,10c1.28-.61,2-.44,2.69.43a.21.21,0,0,0,0,.15c.07,0,.11.05.11.1s0,.09,0,.09c.24,1.65.29,1.73,1.73.84A9.48,9.48,0,0,1,61,10.38Z"/><path class="cls-2" d="M54.92,16.53a2.71,2.71,0,0,1,1.43,2.33c.49,3.12-.13,6.25,0,9.38a3.38,3.38,0,0,1-4,.45,8.48,8.48,0,0,1-.08-2.25c0-3.45-.07-6.9,0-10.35C53.29,15.48,54.09,16.1,54.92,16.53Z"/><path class="cls-2" d="M63.8,24.39,64,20.85c.26-1.41-.24-2.81-.13-4.22.06-.58.46-.48.81-.35a6.56,6.56,0,0,1,2,.85c.7.46.8,1.24,1,1.95a22.89,22.89,0,0,1,.59,7.51c-.16.25,0,.63-.37.78a6.31,6.31,0,0,1-2.95.95c-.87-.07-1.09-.31-1.09-1.19A22.81,22.81,0,0,0,63.8,24.39Z"/><path class="cls-4" d="M56.32,28.52c.13.93-.26,1.42-1.11,1.9-2.61,1.46-5.51,1.63-8.33,2.2-.11-.29.13-.36.3-.43A20.88,20.88,0,0,0,50.77,30a3.76,3.76,0,0,1,2.46-1.22A19.92,19.92,0,0,1,56.32,28.52Z"/><path class="cls-4" d="M61.28,29.84c.51-.72,1.39-1,2-1.58a12,12,0,0,1,3.89-.7.23.23,0,0,1,.29.29c-1.07.6-2,1.37-3.08,2a18.29,18.29,0,0,1-5.75,1.95c-.12-.32-.13-.34.09-.44C59.6,30.91,60.43,30.36,61.28,29.84Z"/><path class="cls-4" d="M71.34,30.86l1.94-1.37c.81-.34,1.25-1.12,1.89-1.66.29-.25.42-.64.81-.78a.48.48,0,0,1,.52.19c.23.24.66.43.2.84a37.89,37.89,0,0,1-3.93,2.63C72.29,30.76,71.86,31.24,71.34,30.86Z"/><path class="cls-44" d="M67.45,27.85c-1.23-.39-2.39.19-3.58.28a3.22,3.22,0,0,0-.6.13c.63-.69.39-1.54.46-2.34.05-.5.05-1,.07-1.53A6,6,0,0,1,64,26.62c-.06.85.12,1.31,1.12,1.05a10.43,10.43,0,0,1,2-.25,1.21,1.21,0,0,0,1.16-.82C68.35,27.25,67.92,27.56,67.45,27.85Z"/><path class="cls-45" d="M50.81,30.12a35.22,35.22,0,0,1-3.93,2.5c-.23.15-.43.17-.61-.07a35.61,35.61,0,0,0,4.5-2.75A.23.23,0,0,1,50.81,30.12Z"/><path class="cls-41" d="M54.92,16.53,52.48,16c-.19,0-.3,0-.24-.24.86-.45,1.66,0,2.47.18Z"/><path class="cls-46" d="M66.64,17.13c-.93,0-1.71-.81-2.7-.57,0,.14-.11.14-.16,0-.13-.52.18-.6.59-.66s.67.25,1,.26C65.75,16.56,66.48,16.49,66.64,17.13Z"/><path class="cls-45" d="M61.28,29.84a7,7,0,0,1-2,1.36c-.27.15-.67.16-.7.6a.61.61,0,0,1-.84-.06A23.2,23.2,0,0,1,61.28,29.84Z"/><path class="cls-25" d="M56.32,28.52l-3.25.39c-.26,0-.59.27-.63-.24a28.23,28.23,0,0,0,3.89-.43Z"/><path class="cls-1" d="M12.54,33.68l-2.47.45c-1-.38-2.08-.25-3.06-.75A11.2,11.2,0,0,1,.69,24.21a16.82,16.82,0,0,1,.47-6.8A16.54,16.54,0,0,1,6,9.94a28.5,28.5,0,0,1,6.88-5.11A7,7,0,0,1,18.94,5a7.76,7.76,0,0,1,2.41,1,13,13,0,0,1,1,1.37v.92a2.48,2.48,0,0,1-.92,1.17c-1.09,1-2.05,2-3.2,2.92A3.37,3.37,0,0,1,16,12.8c-.44.39-.76.22-1-.21A6.4,6.4,0,0,0,9.58,9.74c-.26,0-.54-.11-.74.15s.11.62,0,.93A7.88,7.88,0,0,0,8,14.57a8.83,8.83,0,0,0,.1,3.24,17.06,17.06,0,0,0,.47,2.74c.37,2.44,1.82,4.28,3.41,6A4.86,4.86,0,0,0,14,27.77c.36.13.84.11,1,.62,1.57.66,3,0,4.45-.48.72-.25,1.41-.62,2.11-.94a11.51,11.51,0,0,1-3.38,3.43,4.27,4.27,0,0,0-.72.8c-1.14.3-1.9,1.27-3,1.65C13.82,33.09,13.19,33.4,12.54,33.68Z"/><path class="cls-1" d="M127.24,31a22.64,22.64,0,0,0-2.93,1.81.2.2,0,0,0-.15.06c-.73-.19-.51-.8-.51-1.26,0-4.1,0-8.2,0-12.3V15.68a1.37,1.37,0,0,1,.6-1.3,12.6,12.6,0,0,1,2.93-2.14,2.11,2.11,0,0,1,1.1-.35l1.79-.91a35.59,35.59,0,0,1,.2,5c.08,3.75,0,7.5.07,11.25a1.7,1.7,0,0,1-.61,1.42C128.87,29.41,128.06,30.19,127.24,31Z"/><path class="cls-1" d="M130.52,6.27a13.4,13.4,0,0,0-2,1.87c-1.22.64-2.12,1.82-3.5,2.21-.6.05-.88-.35-1.22-.75-.73-.87-1.47-1.74-2.17-2.65a1.89,1.89,0,0,1,.12-1.56c.57-.31.92-1,1.64-1a15.31,15.31,0,0,1,4.12-2.82c.49-.22.76-.21,1.11.23.72.91,1.49,1.78,2.29,2.62.58.6.74,1.09-.09,1.57A1.3,1.3,0,0,0,130.52,6.27Z"/><path class="cls-2" d="M123.53,33l-4.87-1.22c-.25-.07-.61-.05-.67-.37s.24-.4.44-.53a5.71,5.71,0,0,0,2.85-6c-.29-2.5-.13-5-.19-7.57a1.33,1.33,0,0,1,.59-1.32.73.73,0,0,1,.5-.3c1.53-.3,1.56-.27,1.56,1.31,0,4.91,0,9.83,0,14.74C123.74,32.12,123.85,32.59,123.53,33Z"/><path class="cls-47" d="M122.11,6.68,125,10.35A16.42,16.42,0,0,1,121.17,12a.51.51,0,0,1-.66-.31,2.71,2.71,0,0,0-3.29-1.35c-.75.15-1.13-.4-.86-1.12a1.68,1.68,0,0,0,1-.64c.79-1.09,2-1.57,3.08-2.3C121.11,6,121.6,6.37,122.11,6.68Z"/><path class="cls-4" d="M122.09,15.94h-.41a1,1,0,0,1-.25-1.66c1.95-1.41,4.27-1.88,6.5-2.58.09,0,.23.12.34.19a15.24,15.24,0,0,1-1.85,1.37c-1,.54-1.52,1.56-2.5,2.07C123.42,15.86,122.6,15.44,122.09,15.94Z"/><path class="cls-34" d="M122.09,15.94c.43-.73,1.21-.43,1.83-.61q0,8.18,0,16.34c0,.39-.17.83.2,1.15-.18.19-.41.15-.63.15q0-7.84,0-15.69C123.54,15.81,123.54,15.81,122.09,15.94Z"/><path class="cls-26" d="M152.53,1.38c-1.28,1-2.59,1.91-3.84,2.91a13.3,13.3,0,0,0-1.3,1.4.76.76,0,0,0-.87.21c-.09,1-1,.83-1.63,1.16a15.12,15.12,0,0,0-2.51.77c-.94.32-1.87.65-2.83.93-.44.12-.87.21-1.21-.22-.48,0-.54-.19-.19-.52L140,6.29c1.55-.67,2.87-1.77,4.52-2.3,2.29-.74,4.52-1.68,6.78-2.52C151.67,1.32,152.09,1.05,152.53,1.38Z"/><path class="cls-26" d="M147.35,28.29A8.51,8.51,0,0,1,147.6,31c.06.59-.2,1.2.19,1.75-1.25.38-2.42-.16-3.62-.29-.46-.06-1.21.15-1.33-.42-.08-.42.66-.59,1-.88.89-.69,1.8-1.36,2.67-2.06.45-.36.72-.4.75.27Z"/><path class="cls-47" d="M21.91,7.45l-.95-1A2.83,2.83,0,0,0,19.7,5.31c-.15-.1-.28-.21-.11-.38A.3.3,0,0,1,20,5L35.55,8.12c.33.07.67.11,1,.17l1.88,1c.26.47.86.64,1.11,1.27a32.5,32.5,0,0,1-3.38-.42l-.6-.06c-1.9.4-3.7-.25-5.53-.54-2.21-.36-4.41-.75-6.62-1.12A2.92,2.92,0,0,1,21.91,7.45Z"/><path class="cls-41" d="M20,5c-.27.47.27.36.39.55s.69.42.61.92L18.94,5A.94.94,0,0,1,20,5Z"/><path class="cls-2" d="M15,28.39a5.14,5.14,0,0,1-4.25-2.34,17.05,17.05,0,0,1-2.07-3A8,8,0,0,1,8,20.87a25.2,25.2,0,0,1-.5-3c0-1-.1-2,0-3,.3-1.44.51-2.91.92-4.33,0-.27.05-.55.4-.63a2.86,2.86,0,0,0,1.56.39,4.92,4.92,0,0,1,3.9,2.15,2.81,2.81,0,0,0,2.21,1.25c3.47.35,6.92.78,10.33,1.18a.31.31,0,0,1,0,.43c-2.4,2-3.19,4.8-3.29,7.78-.05,1.55-.28,2.55-1.9,3.35A17.26,17.26,0,0,1,15,28.39Z"/><path class="cls-26" d="M17.87,11.82A19.84,19.84,0,0,0,21.54,8.4c.1-.13.18-.3.39-.25.17-.47.52-.31.85-.26,3,.52,6.1,1.08,9.15,1.61.94.16,1.86.37,2.81.51.18,0,.44,0,.38.29a22.15,22.15,0,0,0-6.34,3.48,2.84,2.84,0,0,1-2.27.61c-3.41-.42-6.84-.8-10.26-1.2-.11-.49.34-.49.58-.65S17.63,12.21,17.87,11.82Z"/><path class="cls-48" d="M35.12,10.3c-3.26-.76-6.58-1.23-9.87-1.81-1.09-.19-2.16-.7-3.32-.34,0-.23,0-.47,0-.7,2.81.77,5.7,1.07,8.54,1.63l5.12,1Z"/><path class="cls-39" d="M17.87,11.82c-.23.82-1.24.72-1.62,1.37L16,12.8Z"/><path class="cls-1" d="M200.58,28.44l-1.48,1.44c-1.31,1.13-2.87,1.9-4.26,2.91-.43,0-.49-.3-.5-.6a6.93,6.93,0,0,1,.1-2.08c0-.37,0-.75,0-1.12s.16-.58-.2-.7-.49.12-.7.29a26.27,26.27,0,0,1-5.63,3.83,6.26,6.26,0,0,1-4.36.35c-.48-.27-1.12-.21-1.48-.72-.11-.61-.66-1-.82-1.59-.1-.38-.32-.75-.14-1.16,0-.5.34-.73.64-1-.06-.33-.27-.41-.57-.34a.65.65,0,0,1-.79-.4,3.6,3.6,0,0,1,0-.65V24.41c.11-.95-.15-1.9-.09-2.85,0-.23.17-.43.23-.65a3.25,3.25,0,0,0,.88-2.21,22.47,22.47,0,0,1,3.37-5c1.42-.91,2.52-2.28,4.16-2.88.26-.09.53-.12.78-.2a7.07,7.07,0,0,1,3.69-.52c.28,0,.6.21.87-.06a13.41,13.41,0,0,1,.12-4.81,13.06,13.06,0,0,1,2.47-2.62c.83-.17,1.33-.89,2.08-1.2a5,5,0,0,1,1.48-.6c.57-.3.79-.22.79.51q0,12.86,0,25.7A2.5,2.5,0,0,1,200.58,28.44Z"/><path class="cls-26" d="M197.16,3.06c-.95.54-1.47,1.54-2.34,2.17-.52.06-.64.63-1,.83a6,6,0,0,1-2.52.7c-.63.13-1.27.23-1.9.37-2.51.34-5,.87-7.48,1.33-1.26.21-2.51.46-3.77.67-.44.07-.88.1-1.15-.38-.24-.05-.52.1-.77-.16l.57-.67,1.87-1.61c2.4-2,5.39-2.19,8.23-2.83,4.29-1,8.61-1.86,12.91-2.78.52.13.16.28,0,.39-.6.42-1.25.77-1.84,1.21C197.64,2.51,197.27,2.67,197.16,3.06Z"/><path class="cls-33" d="M197.16,3.06c-.18-.52.3-.59.56-.81.65-.56,1.53-.81,2-1.55a.44.44,0,0,1,.63.08Z"/><path class="cls-26" d="M185.19,14.1a22.29,22.29,0,0,0-3.34,4.72,8.65,8.65,0,0,0-.78,2.26l-.22.42c-.09.94-.3,1.88-.31,2.84a9.4,9.4,0,0,0,0,2.7c.09.56.05.89-.73.95a4.4,4.4,0,0,1-4.47-4.07q.31-5.42.62-10.85c0-.47.2-.76.72-.83l12-1.68c.13-.06.31-.11.38,0,.24.33-.11.4-.29.5a12.37,12.37,0,0,0-3.11,2.47A1.71,1.71,0,0,0,185.19,14.1Z"/><path class="cls-47" d="M189.52,6.49a19.66,19.66,0,0,0,4.09-.83c.52,0,.6.36.6.76,0,.79,0,1.57,0,2.35s-.29,1.07-1.05.83c-2.88.07-5.69.72-8.53,1.07-2.51.3-5,.7-7.5,1.09-.85.13-1.43-.09-1.6-1-.23-1.24,0-1.6,1.05-1.87a2,2,0,0,0,.36-.17L181.46,8c2.08-.48,4.19-.78,6.29-1.18Z"/><path class="cls-49" d="M175.33,23.92c.67,2,1.76,3.6,4.06,3.92.63.08,1.1,0,1.06-.81a.11.11,0,0,1,.18,0l0,.6a.34.34,0,0,1,0,.48c-.57-.2-1.11.18-1.7.09a5.14,5.14,0,0,1-3.84-3.84Z"/><path class="cls-50" d="M193.17,9.6c.29-.06.73,0,.75-.41.05-1.18.45-2.41-.31-3.53.4-.16.7-.6,1.21-.43-.41.35-.37.82-.4,1.3-.08,1.16.21,2.34-.18,3.48C194,9.71,193.5,9.81,193.17,9.6Z"/><path class="cls-21" d="M185.19,14.1a6.5,6.5,0,0,1,2.42-2.49c.38-.29,1.12-.28,1-1,.35-.24.69-.09,1,0A25.74,25.74,0,0,0,185.19,14.1Z"/><path class="cls-26" d="M194.2,33l-5.47-.41a41.76,41.76,0,0,0,5-3.55c.31-.26.49-.11.51.27s0,.54,0,.81A4.58,4.58,0,0,1,194.2,33Z"/><path class="cls-26" d="M182.52,31.74l1,1a44.3,44.3,0,0,1-6.39-.63l3.48-2.67c.43-.19.5.12.62.41A5,5,0,0,0,182.52,31.74Z"/><path class="cls-51" d="M194.2,33c0-1,0-1.92.05-2.88l.19,0c.28.54.07,1.12.14,1.68,0,.34-.16.75.26,1A.83.83,0,0,1,194.2,33Z"/><path class="cls-21" d="M182.52,31.74c-.57.08-.57-.46-.81-.73-.42-.48-.47-1.2-1.07-1.55l.47-.17Z"/><path class="cls-51" d="M180.64,28.12l0-.48c.33.21.66,0,1,0s.53-.15.57.18-.2.4-.46.45l-.63,0C180.86,28.47,180.69,28.44,180.64,28.12Z"/><path class="cls-1" d="M87.78,26.2c1.17-1.93,1.34-4.14,1.58-6.29a31.64,31.64,0,0,0,.24-6.23l5.72-4.12c0,1.55,0,2.95,0,4.35-.09,3.14-.41,6.27-.29,9.42a8.23,8.23,0,0,0,.76,3.47c.19.37.4.83.76.93,1.31.34.87.92.29,1.57A20.09,20.09,0,0,1,93,32.44c-1.74,1-2.63.59-3.13-1.34-.19-.76-.36-1.52-.49-2.29s-.46-.92-1.11-.37a23.64,23.64,0,0,1-5.38,3.68,6.42,6.42,0,0,1-2.06.51c-2.59-.51-3.06-2.12-3.29-4.16-.5-4.39-.07-8.79-.16-13.19a2.51,2.51,0,0,1,.16-.58c1.81-1.55,3.58-3.16,5.51-4.57.82-.59.68,0,.71.43A4.52,4.52,0,0,1,84.16,12a12.05,12.05,0,0,1,0,1.9c-.63,1.22,0,2.47-.07,3.7.11,1.62-.42,3.2-.26,4.82a9.49,9.49,0,0,0,1.53,5.15A2.22,2.22,0,0,0,87.78,26.2Z"/><path class="cls-4" d="M83.7,12.05l0-1.49c.93.39.79,1.27.79,2,0,2.33,0,4.65-.15,7a18,18,0,0,0,.8,7.35c-.47.49-.64,0-.81-.28a6.68,6.68,0,0,1-.68-2.81,6.86,6.86,0,0,0-.1-1.2c-.06-1.66.1-3.32-.09-5a16.81,16.81,0,0,1,.14-3.75c.3.22.07.54.16.83A22.71,22.71,0,0,0,83.7,12.05Z"/><path class="cls-33" d="M83.67,22.72c.39,1,.1,2.08.52,3.06.2.47.24,1.1,1,1.08.11.24.31.45.17.74-.9-.06-1.19-.81-1.38-1.46a8.64,8.64,0,0,1-.46-3.43C83.56,22.57,83.62,22.57,83.67,22.72Z"/><path class="cls-2" d="M76.5,27.24l-.43.16c-.43.29-.69.18-.71-.35s0-1.13,0-1.7a16.83,16.83,0,0,0,.09-2.84l0-2.26a20.41,20.41,0,0,0-.53-4.93c-.16-1-.76-1.82-.77-2.83A4,4,0,0,1,76.9,16c0,3.48,0,7,0,10.44C76.88,26.73,77,27.11,76.5,27.24Z"/><path class="cls-26" d="M120.65,6.76l-3.29,1.79c-.41-.19-.15-.38,0-.54a26,26,0,0,1,5.57-3.82c.16-.1.32,0,.41.17a7.1,7.1,0,0,1-1.25,1.32C121.64,6.07,121.14,6.4,120.65,6.76Z"/><path class="cls-47" d="M138.34,8.54A26.53,26.53,0,0,0,142,7.37c.89-.35,1.8-.61,2.71-.88a4.78,4.78,0,0,0,1.8-.59c.16,0,.37,0,.48.14a11,11,0,0,1,.07,3.43.45.45,0,0,1-.45.17c-2.39-.31-4.54.73-6.79,1.23-.67.15-1.32.34-2,.52-.51.14-.72,0-.78-.58C137,9.73,137.12,8.86,138.34,8.54Z"/><path class="cls-26" d="M51.92,10.78l-.08-.19c.42-.27,1.61-.13,1.78.22s-.17.43-.35.48c-.33.09-.64.66-1,.1C52.12,11.2,52,11,51.92,10.78Z"/><path class="cls-26" d="M169.16,31.35c.41.74,1.45.68,1.84,1.44l-.41.17a14.2,14.2,0,0,0-2.9-.36c-.13-.05-.46,0-.24-.26C167.93,31.88,168.39,31.33,169.16,31.35Z"/><path class="cls-2" d="M33.93,28.17c-2.37-.2-3.42-1.12-3.69-3.29.19-2.24,0-4.49.08-6.74a14.77,14.77,0,0,0,0-1.63c0-.7.25-.81.86-.67a5.61,5.61,0,0,1,2.44,1.24,4.82,4.82,0,0,1,1,3.27c.07,2.26-.07,4.53-.09,6.79C34.53,27.62,34.49,28,33.93,28.17Z"/><path class="cls-11" d="M33.93,28.17a1.31,1.31,0,0,0,.42-1.1c0-2.29,0-4.58,0-6.87a5.39,5.39,0,0,0-.91-3.1.24.24,0,0,1,.38,0,4.24,4.24,0,0,1,1,3.12c0,2.35-.05,4.7-.06,7C34.78,27.87,34.66,28.28,33.93,28.17Z"/><path class="cls-52" d="M33.85,17.1h-.38a12.89,12.89,0,0,0-2.13-1c-.67-.16-.92,0-.92.72,0,2.32,0,4.64,0,7,0,.37.1.76-.17,1.08,0-2.86,0-5.72,0-8.58,0-.62.14-.89.83-.7A5,5,0,0,1,33.85,17.1Z"/><path class="cls-4" d="M141.65,15.94c.84-.56,1.66.09,2.21.39A5.07,5.07,0,0,1,146.18,18a5.25,5.25,0,0,1,1,2.6,18.58,18.58,0,0,1,0,5.86h0a3.12,3.12,0,0,1-1.67.39c-1.4.19-2.63-.64-4-.65a8.29,8.29,0,0,1-.91-5c.06-1.41.17-2.83.2-4.25C140.83,16.46,140.74,15.74,141.65,15.94Z"/><path class="cls-8" d="M141.65,15.94c-.55.09-.59.55-.58.94,0,2.3-.45,4.59-.1,6.91a5.93,5.93,0,0,0,.65,2.22c.14.23.14.4-.2.4a5.67,5.67,0,0,1-1-3.58c0-2.12.14-4.24.21-6.35C140.68,15.69,141,15.52,141.65,15.94Z"/><path class="cls-47" d="M145.51,26.41l1.69,0c-.16.55-.69.68-1.08,1-.27-.14-.51,0-.78,0a3.58,3.58,0,0,1-3.05-.41c-.44-.46-.44-.8.28-.83A16.08,16.08,0,0,1,145.51,26.41Z"/><path class="cls-53" d="M147.17,26.44c0-2,0-3.91,0-5.86.64,1.84.25,3.74.28,5.62C147.46,26.27,147.27,26.36,147.17,26.44Z"/><path class="cls-29" d="M145.51,26.41h-2.74c-.46,0-.69.13-.28.57a.25.25,0,0,1-.25.25c-.43-.12-.62-.47-.82-.82l.2-.4A11.59,11.59,0,0,1,145.51,26.41Z"/><path class="cls-54" d="M142.24,27.23l.25-.25c1.16.58,2.42.31,3.63.44C144.81,27.66,143.48,28.28,142.24,27.23Z"/><path class="cls-4" d="M167.72,16.13c1.09.77,1,1.91.78,3-.26,1.3-.13,2.62-.34,3.93-.24,1.6-.2,3.24-.29,4.86-.28.51-.62.28-1,.13A5.36,5.36,0,0,1,163.61,24a12.3,12.3,0,0,1-.21-3.73,19,19,0,0,1,.83-5.07c.73-.36,1.38,0,2,.24A9.43,9.43,0,0,1,167.72,16.13Z"/><path class="cls-17" d="M163.57,20.27a11.68,11.68,0,0,0,.66,4.83A5.22,5.22,0,0,0,167.28,28a.65.65,0,0,0,.59-.06c.08.78-.37.64-.83.47a6,6,0,0,1-3.8-5.31,5.14,5.14,0,0,1-.06-2.21C163.46,20.75,163.08,20.21,163.57,20.27Z"/><path class="cls-8" d="M163.57,20.27c-.21.14,0,.56-.39.57A25.26,25.26,0,0,1,164,15.1c.05-.25.14-.46.47-.36a.22.22,0,0,1,0,.37A34.68,34.68,0,0,0,163.57,20.27Z"/><path class="cls-55" d="M164.41,15.11v-.37a6.61,6.61,0,0,1,3.3,1.39C166.59,15.87,165.63,15.08,164.41,15.11Z"/><path class="cls-34" d="M52.44,28.67l.63.24a6,6,0,0,0-2.26,1.21l0-.32c1.22-.57,1.31-1.59,1.28-2.78-.06-3.37,0-6.74,0-10.12,0-.39-.15-.82.2-1.16l.24.24Q52.47,22.33,52.44,28.67Z"/><path class="cls-56" d="M74.94,15.32c.49.41.39,1,.41,1.52.07,1.14.48,2.26.12,3.41C75.29,18.61,75.11,17,74.94,15.32Z"/><path class="cls-23" d="M63.78,16.56h.16c.08,1.07.16,2.14.22,3.22A1.55,1.55,0,0,1,64,20.85Z"/><path class="cls-57" d="M75.45,22.51a3.67,3.67,0,0,1,0,2.67c0,.13-.09.13-.14,0A10,10,0,0,1,75.45,22.51Z"/><path class="cls-11" d="M75.29,25.19h.14c0,.51,0,1,0,1.53s.09.76.62.69c-.12.44-.57.21-.81.41q-.11,0-.09-.12c0-.06,0-.08.06-.08Z"/><path class="cls-39" d="M75.23,27.61l0,.2c-.56.68-1,1.47-2,1.68Z"/><path class="cls-34" d="M8.44,10.52a20.76,20.76,0,0,1-.78,4.13c-.16,0-.15-.13-.21-.21C7.77,13.13,7.75,11.73,8.44,10.52Z"/><path class="cls-44" d="M7.45,14.44l.21.21c0,1.08,0,2.17,0,3.26-.06.15-.11.15-.16,0A12.22,12.22,0,0,1,7.45,14.44Z"/><path class="cls-36" d="M7.45,17.91h.16a16.48,16.48,0,0,1,.41,3C7.45,20,7.61,18.9,7.45,17.91Z"/><path class="cls-36" d="M120.65,6.76a2.61,2.61,0,0,1,1.45-1.08.6.6,0,0,0,0,1A2.1,2.1,0,0,0,120.65,6.76Z"/><path class="cls-44" d="M144.72,6.49a7.78,7.78,0,0,1-2.71.88A5.38,5.38,0,0,1,144.72,6.49Z"/><path class="cls-4" d="M188.66,15.94h.42a5.43,5.43,0,0,1,4.65,3.29,14.43,14.43,0,0,1,.59,2.35,46,46,0,0,1-.1,4.7,2.07,2.07,0,0,1-1.27.25c-1.09,0-2.19-.05-3.27,0a1.43,1.43,0,0,1-1.62-1.19,15.54,15.54,0,0,1-.4-5.26c0-1.17.23-2.34.2-3.52C187.84,16,188,15.67,188.66,15.94Z"/><path class="cls-10" d="M188.66,15.94a.5.5,0,0,0-.58.56c0,2.58-.5,5.16-.05,7.75.31,1.82.43,1.95,2.27,1.95h3.89c.08-.13.16-.12.23,0s-.19.38-.4.48a9.82,9.82,0,0,1-3.1.18c.37.2,1.09-.06,1,.76-2.13.65-3.89-.65-4.33-3.21a27.06,27.06,0,0,1-.06-5.83c0-.69.08-1.37.09-2.05S187.93,15.48,188.66,15.94Z"/><path class="cls-47" d="M191.94,27.63a21.15,21.15,0,0,1-2.33-.64c-.15-.08-.3-.18-.29-.37s.13-.19.2-.18c1.5.07,3-.32,4.5.25A2.37,2.37,0,0,1,191.94,27.63Z"/><path class="cls-58" d="M194.21,21.28a3.31,3.31,0,0,1-.25-.66c-.36-2.6-2.07-3.85-4.43-4.47a2.08,2.08,0,0,1-.45-.22A5.24,5.24,0,0,1,194,19.51c.16.58.25,1.18.38,1.78C194.33,21.43,194.27,21.43,194.21,21.28Z"/><path class="cls-58" d="M180.63,27h-.18a3.89,3.89,0,0,1,0-2.67c.06-.15.13-.15.19,0Z"/><path class="cls-22" d="M194.21,21.28h.19a44.86,44.86,0,0,1,0,4.92l-.23,0C194.2,24.56,194.21,22.92,194.21,21.28Z"/><path class="cls-43" d="M181.07,21.08a2.61,2.61,0,0,1,.78-2.26A8,8,0,0,1,181.07,21.08Z"/><path class="cls-20" d="M180.63,24.36h-.19a7.72,7.72,0,0,1,.41-2.86A17.14,17.14,0,0,1,180.63,24.36Z"/><path class="cls-24" d="M189.52,6.49a61.94,61.94,0,0,1-6.15,1.23c-.63.13-1.27.18-1.91.26a4.86,4.86,0,0,1,2.24-.56A42.23,42.23,0,0,1,189.52,6.49Z"/><path class="cls-52" d="M83.67,22.72H83.5V17.59c.42,1,.1,2,.17,3C83.7,21.3,83.67,22,83.67,22.72Z"/><path class="cls-29" d="M83.7,12.05c.43,1.12,0,2.27,0,3.41l-.12-1.62Z"/></g></g></svg>