<svg xmlns="http://www.w3.org/2000/svg" viewBox="0 0 1196.83 247.85"><defs><style>.cls-1{fill:none;}.cls-2{font-size:203.16px;font-family:BLMelody-Bold, BL Melody;font-weight:700;letter-spacing:-0.05em;}</style></defs><g id="Layer_2" data-name="Layer 2"><g id="Layer_1-2" data-name="Layer 1"><path class="cls-1" d="M42.06,96.62a75.66,75.66,0,0,0,4.23,17.11h4.42A88.44,88.44,0,0,1,42.06,96.62Z"/><path class="cls-1" d="M41.64,96.77a77.57,77.57,0,0,0,.69,17h3.09A77.38,77.38,0,0,1,41.64,96.77Z"/><path class="cls-1" d="M88.6,148.68v5.47A5.86,5.86,0,0,0,94.46,160H118.8c-4.68-1.21-9.32-2.53-13.88-4.11A130.26,130.26,0,0,1,88.6,148.68Z"/><path class="cls-1" d="M55.17,133a79,79,0,0,1-6.87-12h-.39a5.85,5.85,0,0,0-3.89,1.5A74.75,74.75,0,0,0,50.8,139c7,12.63,17.58,23.14,29.86,31.13V158.05A87.19,87.19,0,0,1,55.17,133Z"/><path class="cls-1" d="M58.64,113.73A124.38,124.38,0,0,1,42.46,96.22,86.52,86.52,0,0,0,52,113.73Z"/><path class="cls-1" d="M140.87,149.27q-6.06-.69-12.05-1.85a197.12,197.12,0,0,1-23.52-6.24,149.69,149.69,0,0,1-14.13-5.66c-.87-.4-1.71-.87-2.57-1.29V144.5c2.17,1.14,4.34,2.29,6.59,3.3,12.6,5.65,26.14,9.35,39.89,11.88.29.06.57.09.86.14a228,228,0,0,0,34,3.55V150.16A180.8,180.8,0,0,1,140.87,149.27Z"/><path class="cls-1" d="M57.81,121c1.21,1.37,2.46,2.73,3.77,4a105,105,0,0,0,19.08,14.86v-10A102.72,102.72,0,0,1,67.79,121Z"/><path class="cls-1" d="M75.05,121H71.72c3,1.9,6,3.71,9.15,5.4A5.85,5.85,0,0,0,75.05,121Z"/><path class="cls-1" d="M60.71,126.38c-1.65-1.74-3.18-3.54-4.66-5.37H49.46a77.36,77.36,0,0,0,6.73,11,93.51,93.51,0,0,0,24.47,22.7v-11A87.62,87.62,0,0,1,60.71,126.38Z"/><path class="cls-1" d="M60.91,113.73H72.25l-.22-.1A205.46,205.46,0,0,1,42.94,95.91,122.69,122.69,0,0,0,60.91,113.73Z"/><path class="cls-1" d="M80.66,158v12.41c1,.64,2,1.29,2.94,1.9,1.64,1,3.31,1.91,5,2.81V169.6a6,6,0,0,1,3.19-5.29c-2.16-1.09-4.33-2.16-6.42-3.38Q83,159.52,80.66,158Z"/><path class="cls-1" d="M88.6,144.71V134.19q-4.08-2-7.94-4.29v10.26Q84.53,142.56,88.6,144.71Z"/><path class="cls-1" d="M48.64,121a79.49,79.49,0,0,1-3.22-7.94H42.24a78.27,78.27,0,0,0,2,9.48,6,6,0,0,1,4-1.54Z"/><path class="cls-1" d="M60.11,113.07c2.1,1.7,4.25,3.36,6.49,4.94,1.49,1,3.07,2,4.61,3h3.43a6,6,0,0,1,6,5.55q3.92,2.1,8,4V127a6,6,0,0,1,3.19-5.29c-6.82-2.58-13.52-5.44-20-8.67Z"/><path class="cls-1" d="M119.62,160H94.46a5.86,5.86,0,0,1-5.86-5.87v-5.78l-.3-.14q-3.92-2.1-7.64-4.51V155c2.86,1.86,5.79,3.62,8.82,5.23,2.61,1.37,5.31,2.58,8,3.77h42.8c-3.63-.43-7.25-1-10.84-1.65C126.15,161.67,122.88,160.85,119.62,160Z"/><path class="cls-1" d="M46.16,113.07A79.85,79.85,0,0,0,49.67,121h6.77a97.93,97.93,0,0,1-5.75-7.94Z"/><path class="cls-1" d="M66.67,119.75c-2.82-2.13-5.49-4.37-8.07-6.68H51.76A91.48,91.48,0,0,0,58,121H68.27C67.74,120.58,67.18,120.18,66.67,119.75Z"/><rect y="121.01" width="38.35" height="81.32" rx="5.86"/><path d="M49.86,139.81a76.14,76.14,0,0,1-6.32-16.28,5.83,5.83,0,0,0-1.23,3.56v69.38a5.86,5.86,0,0,0,5.87,5.86H74.8a5.86,5.86,0,0,0,5.86-5.86V172.74C67.89,164.31,56.88,153.16,49.86,139.81Z"/><path d="M141.91,130.31c9.25,1.61,18.6,2.63,28,3.6v-7a5.86,5.86,0,0,0-5.86-5.86h-65q3.87,1.2,7.78,2.27C118.35,126.43,130.15,128.39,141.91,130.31Z"/><path d="M127.8,191.34a156.09,156.09,0,0,1-23.5-6.61,137.56,137.56,0,0,1-15.7-7.34v19.08a5.86,5.86,0,0,0,5.86,5.86h69.6a5.86,5.86,0,0,0,5.86-5.86v-3.2A157,157,0,0,1,127.8,191.34Z"/><rect x="131.57" y="32.41" width="38.35" height="81.32" rx="5.86"/><rect x="88.6" y="32.41" width="38.35" height="81.32" rx="5.86"/><path d="M41.48,94.69a.11.11,0,0,1,0,0,.31.31,0,0,1,0-.08h0c0-.12,0-.24,0-.36h0a.43.43,0,0,1,0,0h.05s0,0,0-.05h0l0,0h0l0,0a214,214,0,0,0,35.81,19h1a6,6,0,0,0,6-6V80.73a6,6,0,0,0-6-6H6a6,6,0,0,0-6,6v26.34a6,6,0,0,0,6,6H41.65A76.89,76.89,0,0,1,41.48,94.69Z"/><rect y="32.41" width="84.63" height="38.35" rx="6"/><path d="M42.33,113.73h-.7a77.32,77.32,0,0,0,1.91,10,6.05,6.05,0,0,1,.73-.79A78,78,0,0,1,42.33,113.73Z"/><path d="M80.66,170.21v2.45c.6.39,1.18.8,1.78,1.18,2,1.26,4.07,2.44,6.16,3.59v-2.51c-1.69-.9-3.36-1.83-5-2.81C82.61,171.51,81.64,170.85,80.66,170.21Z"/><path d="M50.8,139.17A74.48,74.48,0,0,1,44,122.68a6.13,6.13,0,0,0-.74.79,75.55,75.55,0,0,0,6.36,16.28c7.07,13.35,18.16,24.51,31,32.94v-2.38C68.38,162.32,57.77,151.81,50.8,139.17Z"/><path d="M104.3,184.67a156.16,156.16,0,0,0,23.5,6.63,156.62,156.62,0,0,0,42.12,1.94v-.77a184.8,184.8,0,0,1-41.59-3.63,144.26,144.26,0,0,1-39.73-14v2.44A137.69,137.69,0,0,0,104.3,184.67Z"/><path d="M41.49,94.71h0s0,0,0,0a.09.09,0,0,1,0,0h0l0,0,0-.15h0c0,.11,0,.23,0,.35a.1.1,0,0,0,0,0A.08.08,0,0,1,41.49,94.71Z"/><path d="M41.64,96.77c-.06-.52-.14-1-.18-1.55a78,78,0,0,0,.17,18.51h.7A77.57,77.57,0,0,1,41.64,96.77Z"/><polygon points="41.47 94.8 41.47 94.81 41.47 94.8 41.47 94.8"/><path d="M45.36,113.07A79.49,79.49,0,0,0,48.58,121h1.19a79.85,79.85,0,0,1-3.51-7.94Z"/><path d="M80.66,155.22v3.33c1.5,1,3,1.95,4.59,2.86,2,1.18,4.14,2.22,6.24,3.29a5.84,5.84,0,0,1,2.76-.72H97c-2.63-1.16-5.25-2.34-7.8-3.67C86.3,158.74,83.44,157,80.66,155.22Z"/><path d="M56.19,132a77.36,77.36,0,0,1-6.73-11H48.3a79,79,0,0,0,6.87,12,87.19,87.19,0,0,0,25.49,25.07v-3.32A93.51,93.51,0,0,1,56.19,132Z"/><path d="M91.93,164.7a134.54,134.54,0,0,0,12.89,5.81A167.19,167.19,0,0,0,128.25,177q6,1.11,12.05,1.76a162,162,0,0,0,29.62.42v-1a198.87,198.87,0,0,1-38.11-3.63A160,160,0,0,1,97.48,164h-2.8A5.8,5.8,0,0,0,91.93,164.7Z"/><path d="M41.61,94.4h0s0,0,0,0h.05S41.61,94.41,41.61,94.4Z"/><path d="M41.45,94.88a.13.13,0,0,0,0,.06.57.57,0,0,1,0-.13A.19.19,0,0,0,41.45,94.88Z"/><path d="M46.29,113.73a75.66,75.66,0,0,1-4.23-17.11c-.12-.31-.25-.61-.36-.93,0,.36,0,.72-.06,1.08a77.38,77.38,0,0,0,3.78,17Z"/><path d="M41.51,94.62a.09.09,0,0,0,0,0,.08.08,0,0,1,0,0Z"/><path d="M41.47,94.8h0a.57.57,0,0,0,0,.13c0,.52.12,1,.18,1.55,0-.36,0-.72.06-1.08C41.63,95.21,41.54,95,41.47,94.8Z"/><path d="M41.49,94.71a.08.08,0,0,0,0,0s0,0,0,0Z"/><path d="M41.56,94.52l0-.08h-.05l0,.15Z"/><path d="M50.61,113.07A93.32,93.32,0,0,0,56.36,121h1.8a91.36,91.36,0,0,1-6.24-7.94Z"/><path d="M135.11,160H117.64c3.26.83,6.53,1.65,9.83,2.31,3.59.68,7.21,1.22,10.83,1.65h25.6a6,6,0,0,1,3.39,1.05c.88,0,1.75-.15,2.63-.21v-1.17A235.15,235.15,0,0,1,135.11,160Z"/><path d="M80.66,140v3.95c2.57,1.65,5.21,3.22,7.92,4.66h0v-4Q84.52,142.38,80.66,140Z"/><path d="M61.58,125.06c-1.31-1.32-2.56-2.68-3.77-4H56.05c1.48,1.83,3,3.63,4.66,5.37a87.62,87.62,0,0,0,19.95,17.38v-3.84A105,105,0,0,1,61.58,125.06Z"/><path d="M95.17,148c-2.24-1-4.4-2.16-6.57-3.3v4a130.26,130.26,0,0,0,16.32,7.23c4.56,1.58,9.2,2.9,13.88,4.11h17l-.86-.15A174.16,174.16,0,0,1,95.17,148Z"/><path d="M139,164l1.49.2a174.27,174.27,0,0,0,26.73.83,5.8,5.8,0,0,0-3.31-1Z"/><path d="M41.47,94.79h0v0Z"/><path d="M41.67,94.36h0s0,0,0,.05h0Z"/><path d="M52,113.73a86.52,86.52,0,0,1-9.52-17.51c-.18-.24-.38-.46-.55-.7,0,.37.1.74.15,1.1a88.44,88.44,0,0,0,8.65,17.11Z"/><path d="M41.48,94.75a.1.1,0,0,1,0,0v0h0Z"/><path d="M41.62,94.44l0,0h0s0,0,0,0Z"/><path d="M41.73,95c0,.13,0,.27,0,.4.11.31.24.62.36.93-.05-.37-.11-.73-.15-1.1C41.85,95.16,41.78,95.09,41.73,95Z"/><path d="M41.62,94.44h0l0,.08,0-.06Z"/><path d="M41.49,94.72s0,0,0,0v0c.07.21.16.41.23.61,0-.13,0-.27,0-.4Z"/><path d="M80.66,126.94v3.14q3.87,2.28,7.94,4.29v-3.91c-2.72-1.26-5.38-2.58-8-4A3.75,3.75,0,0,1,80.66,126.94Z"/><path d="M66.53,119.75c.51.43,1.07.83,1.6,1.26H71.9c-1.55-1-3.13-2-4.62-3-2.24-1.58-4.38-3.24-6.48-4.94H58.46C61,115.38,63.71,117.62,66.53,119.75Z"/><path d="M80.66,129.92v-3c0-.16,0-.31,0-.46-3.15-1.69-6.19-3.5-9.16-5.4H67.79A102.72,102.72,0,0,0,80.66,129.92Z"/><path d="M91.17,135.55a147,147,0,0,0,14.13,5.65,197.12,197.12,0,0,0,23.52,6.24c4,.77,8,1.4,12.05,1.85a179.65,179.65,0,0,0,29,.89v-1.42a276.92,276.92,0,0,1-31.46-3.68c-12.78-2.23-25.46-5.07-37.53-9.47-4.21-1.53-8.31-3.3-12.33-5.18v3.82C89.46,134.68,90.3,135.14,91.17,135.55Z"/><path d="M42.46,96.22a124.38,124.38,0,0,0,16.18,17.51h2.27a122.69,122.69,0,0,1-18-17.82c-.28-.2-.57-.39-.85-.6C42.21,95.62,42.34,95.92,42.46,96.22Z"/><path d="M41.72,94.32h0a.12.12,0,0,0,0,0h0Z"/><path d="M41.48,94.7h0a.06.06,0,0,1,0,0S41.48,94.7,41.48,94.7Z"/><path d="M41.52,94.63h0a.08.08,0,0,0,0,0,.06.06,0,0,0,0,0h0Z"/><path d="M41.91,95.24c.17.23.37.46.55.7-.12-.31-.25-.61-.37-.91l-.23-.16C41.87,95,41.89,95.11,41.91,95.24Z"/><path d="M41.65,94.4l0,0h0l0,0Z"/><path d="M41.74,94.78a1.77,1.77,0,0,0,0,.23c.05.08.12.15.18.23,0-.13,0-.25,0-.37Z"/><path d="M41.65,94.4h0l0,0h0Z"/><path d="M41.52,94.63l0,.09.24.29a1.77,1.77,0,0,1,0-.23Z"/><path d="M41.63,94.44h0v0Z"/><path d="M91.92,121.74a6,6,0,0,1,2.82-.73h4.5q-11.05-3.44-21.74-7.94H71.89C78.39,116.3,85.1,119.16,91.92,121.74Z"/><path d="M91.93,121.72c4.57,1.74,9.19,3.36,13.87,4.82a191.59,191.59,0,0,0,35.48,8,190.42,190.42,0,0,0,28.64,1.12v-1.73c-9.41-1-18.76-2-28-3.6-11.76-1.92-23.56-3.88-35.07-7q-3.91-1.07-7.78-2.27H94.68A5.8,5.8,0,0,0,91.93,121.72Z"/><path d="M41.72,94.6a1.19,1.19,0,0,1,.16.08c.34.42.72.82,1.06,1.23a207.12,207.12,0,0,0,29.28,17.82h5.49A214.07,214.07,0,0,1,41.76,94.55Z"/><path d="M41.5,94.61h0a.06.06,0,0,1,0,0Z"/><path d="M41.54,94.6s0,0,0-.08l0,.06a.06.06,0,0,0,0,0h0Z"/><path d="M41.61,94.46l0,.06s0,0,0,.08Z"/><path d="M41.84,94.41c.08.21.17.42.25.62.28.21.57.4.85.6-.34-.42-.72-.82-1.06-1.23a.6.6,0,0,0-.16-.08l0,0Z"/><path d="M41.52,94.63h0l0,0Z"/><path d="M41.86,94.87l.23.16c-.08-.2-.17-.41-.25-.62l-.16,0,0,0,.15,0C41.81,94.58,41.84,94.72,41.86,94.87Z"/><path d="M41.76,94.45c0,.11,0,.22,0,.33l.12.09c0-.15,0-.29-.06-.44l-.15,0,0,0Z"/><path d="M41.76,94.45h-.13l0,0-.07.14,0,0,.22.15C41.75,94.67,41.75,94.56,41.76,94.45Z"/><text class="cls-2" transform="translate(186.45 172.68) scale(0.98 1)">comunidad.</text></g></g></svg>