<svg xmlns="http://www.w3.org/2000/svg" xmlns:xlink="http://www.w3.org/1999/xlink" viewBox="0 0 1332 681"><defs><style>.cls-1{fill:#203c3b;}.cls-2{opacity:0.4;}.cls-3{opacity:0.56;}.cls-4{fill:#526968;}.cls-5{fill:#727171;}.cls-6{fill:#7c7c7b;}.cls-7{fill:#b3b3b3;}.cls-8{fill:#2d2d2d;}.cls-9{fill:#545454;}.cls-10{fill:#930c0c;}.cls-11{fill:#efa437;}.cls-12{fill:#fff;}.cls-13{fill:url(#radial-gradient);}.cls-14{fill:#010101;}.cls-15{fill:#020202;}.cls-16{fill:#101010;}.cls-17{fill:#131313;}</style><radialGradient id="radial-gradient" cx="1164.38" cy="208.47" r="79.25" gradientTransform="translate(976.76 1372.85) rotate(-90) scale(1 0.9)" gradientUnits="userSpaceOnUse"><stop offset="0.01" stop-color="#c6a575"/><stop offset="0.13" stop-color="#c69c6d"/><stop offset="0.34" stop-color="#a67c52"/><stop offset="1" stop-color="#754c24"/></radialGradient></defs><g id="Layer_2" data-name="Layer 2"><g id="Layer_1-2" data-name="Layer 1"><rect class="cls-1" width="1332" height="681"/><g class="cls-2"><g class="cls-3"><line class="cls-4" x1="1295.95" y1="681" x2="1295.95" y2="75"/><polygon class="cls-4" points="1290.47 681 1295.95 75 1301.42 681 1290.47 681"/><line class="cls-4" x1="1242.84" y1="681" x2="1242.84" y2="75"/><polygon class="cls-4" points="1237.37 681 1242.84 75 1248.32 681 1237.37 681"/><line class="cls-4" x1="1189.74" y1="681" x2="1189.74" y2="75"/><polygon class="cls-4" points="1184.27 681 1189.74 75 1195.22 681 1184.27 681"/><line class="cls-4" x1="1136.64" y1="681" x2="1136.64" y2="75"/><polygon class="cls-4" points="1131.16 681 1136.64 75 1142.11 681 1131.16 681"/><line class="cls-4" x1="1083.53" y1="681" x2="1083.53" y2="75"/><polygon class="cls-4" points="1078.06 681 1083.53 75 1089.01 681 1078.06 681"/><line class="cls-4" x1="1030.43" y1="681" x2="1030.43" y2="75"/><polygon class="cls-4" points="1024.95 681 1030.43 75 1035.9 681 1024.95 681"/><line class="cls-4" x1="977.33" y1="681" x2="977.33" y2="75"/><polygon class="cls-4" points="971.85 681 977.33 75 982.8 681 971.85 681"/><line class="cls-4" x1="924.22" y1="681" x2="924.22" y2="75"/><polygon class="cls-4" points="918.75 681 924.22 75 929.7 681 918.75 681"/><line class="cls-4" x1="871.12" y1="681" x2="871.12" y2="75"/><polygon class="cls-4" points="865.64 681 871.12 75 876.59 681 865.64 681"/><line class="cls-4" x1="818.02" y1="681" x2="818.02" y2="75"/><polygon class="cls-4" points="812.54 681 818.02 75 823.49 681 812.54 681"/><line class="cls-4" x1="764.91" y1="681" x2="764.91" y2="75"/><polygon class="cls-4" points="759.44 681 764.91 75 770.39 681 759.44 681"/><line class="cls-4" x1="711.81" y1="681" x2="711.81" y2="75"/><polygon class="cls-4" points="706.33 681 711.81 75 717.28 681 706.33 681"/><line class="cls-4" x1="658.7" y1="681" x2="658.7" y2="75"/><polygon class="cls-4" points="653.23 681 658.71 75 664.18 681 653.23 681"/><line class="cls-4" x1="605.6" y1="681" x2="605.6" y2="75"/><polygon class="cls-4" points="600.13 681 605.6 75 611.08 681 600.13 681"/><line class="cls-4" x1="552.5" y1="681" x2="552.5" y2="75"/><polygon class="cls-4" points="547.02 681 552.5 75 557.97 681 547.02 681"/><line class="cls-4" x1="499.39" y1="681" x2="499.39" y2="75"/><polygon class="cls-4" points="493.92 681 499.39 75 504.87 681 493.92 681"/><line class="cls-4" x1="446.29" y1="681" x2="446.29" y2="75"/><polygon class="cls-4" points="440.82 681 446.29 75 451.77 681 440.82 681"/><line class="cls-4" x1="393.19" y1="681" x2="393.19" y2="75"/><polygon class="cls-4" points="387.71 681 393.19 75 398.66 681 387.71 681"/><line class="cls-4" x1="340.08" y1="681" x2="340.08" y2="75"/><polygon class="cls-4" points="334.61 681 340.08 75 345.56 681 334.61 681"/><line class="cls-4" x1="286.98" y1="681" x2="286.98" y2="75"/><polygon class="cls-4" points="281.5 681 286.98 75 292.45 681 281.5 681"/><line class="cls-4" x1="233.88" y1="681" x2="233.88" y2="75"/><polygon class="cls-4" points="228.4 681 233.88 75 239.35 681 228.4 681"/><line class="cls-4" x1="180.77" y1="681" x2="180.77" y2="75"/><polygon class="cls-4" points="175.3 681 180.77 75 186.25 681 175.3 681"/><line class="cls-4" x1="127.67" y1="681" x2="127.67" y2="75"/><polygon class="cls-4" points="122.19 681 127.67 75 133.14 681 122.19 681"/><line class="cls-4" x1="74.57" y1="681" x2="74.57" y2="75"/><polygon class="cls-4" points="69.09 681 74.57 75 80.04 681 69.09 681"/><line class="cls-4" x1="21.46" y1="681" x2="21.46" y2="75"/><polygon class="cls-4" points="15.99 681 21.46 75 26.94 681 15.99 681"/></g><line class="cls-4" x1="1332" y1="641.08" x2="1" y2="641.08"/><path class="cls-4" d="M1332,641.68c-27.73,1.17-55.46,2-83.19,2.58l-20.79.47-20.8.37c-13.87.23-27.73.49-41.6.61l-41.59.45-41.59.21q-41.6.28-83.19-.3c-55.46-.78-110.92-2.7-166.37-3.06s-110.92.22-166.38,1.34l-41.59.81-20.8.4-20.8.32c-27.73.41-55.46.62-83.19.85l-83.18.59c-27.73.21-55.46.21-83.19.14s-55.46-.27-83.19-.59L209,646.41l-41.59-.62-41.6-.75q-20.79-.37-41.59-.9c-27.73-.65-55.46-1.42-83.19-2.46v-1.19c27.73-1,55.46-1.81,83.19-2.46q20.79-.51,41.59-.9l41.6-.75,41.59-.62,41.59-.46q41.6-.48,83.19-.6c27.73-.06,55.46-.06,83.19.14l83.18.6c27.73.22,55.46.44,83.19.85l20.8.32,20.8.4,41.59.8c55.46,1.13,110.92,1.73,166.38,1.35s110.91-2.28,166.37-3.06q41.6-.57,83.19-.31L1124,636l41.59.44c13.87.12,27.73.39,41.6.62l20.8.36,20.79.47c27.73.63,55.46,1.41,83.19,2.59Z"/><line class="cls-4" x1="1332" y1="594.82" x2="1" y2="594.82"/><path class="cls-4" d="M1332,595.41c-27.73,1.18-55.46,2-83.19,2.59l-20.79.47-20.8.36c-13.87.23-27.73.5-41.6.62l-41.59.44-41.59.22q-41.6.28-83.19-.31c-55.46-.78-110.92-2.7-166.37-3.06S722,597,666.5,598.09l-41.59.8-20.8.4-20.8.32c-27.73.41-55.46.63-83.19.85l-83.18.6c-27.73.2-55.46.2-83.19.14s-55.46-.27-83.19-.59L209,600.15l-41.59-.63-41.6-.75q-20.79-.37-41.59-.9c-27.73-.65-55.46-1.41-83.19-2.46v-1.19c27.73-1,55.46-1.8,83.19-2.46q20.79-.51,41.59-.9l41.6-.75,41.59-.62,41.59-.46q41.6-.48,83.19-.59c27.73-.06,55.46-.07,83.19.14l83.18.59c27.73.23,55.46.44,83.19.85l20.8.32,20.8.4,41.59.81c55.46,1.12,110.92,1.73,166.38,1.34s110.91-2.28,166.37-3q41.6-.57,83.19-.31l41.59.21,41.59.45c13.87.12,27.73.39,41.6.62l20.8.36,20.79.47c27.73.63,55.46,1.41,83.19,2.58Z"/><line class="cls-4" x1="1332" y1="548.55" x2="1" y2="548.55"/><path class="cls-4" d="M1332,549.15c-27.73,1.17-55.46,2-83.19,2.58l-20.79.47-20.8.36c-13.87.23-27.73.5-41.6.62l-41.59.44-41.59.22q-41.6.28-83.19-.31c-55.46-.77-110.92-2.69-166.37-3S722,550.7,666.5,551.82l-41.59.81-20.8.4-20.8.31c-27.73.42-55.46.63-83.19.86l-83.18.59c-27.73.21-55.46.2-83.19.14s-55.46-.27-83.19-.59L209,553.88l-41.59-.63-41.6-.74q-20.79-.37-41.59-.9C56.46,551,28.73,550.19,1,549.15V548c27.73-1,55.46-1.8,83.19-2.45q20.79-.51,41.59-.91l41.6-.74,41.59-.63,41.59-.46q41.6-.48,83.19-.59c27.73-.06,55.46-.06,83.19.14l83.18.6c27.73.22,55.46.43,83.19.85l20.8.32,20.8.39,41.59.81c55.46,1.13,110.92,1.73,166.38,1.34s110.91-2.28,166.37-3q41.6-.57,83.19-.31l41.59.22,41.59.44c13.87.12,27.73.39,41.6.62l20.8.36,20.79.47c27.73.63,55.46,1.41,83.19,2.58Z"/><line class="cls-4" x1="1332" y1="502.28" x2="1" y2="502.28"/><path class="cls-4" d="M1332,502.88c-27.73,1.17-55.46,2-83.19,2.58l-20.79.47-20.8.37c-13.87.23-27.73.49-41.6.61l-41.59.45-41.59.21q-41.6.29-83.19-.3c-55.46-.78-110.92-2.7-166.37-3.06s-110.92.22-166.38,1.34l-41.59.81-20.8.4-20.8.32c-27.73.41-55.46.62-83.19.85l-83.18.6q-41.6.3-83.19.13t-83.19-.59L209,507.61,167.38,507l-41.6-.75q-20.79-.37-41.59-.9c-27.73-.65-55.46-1.42-83.19-2.46v-1.19c27.73-1,55.46-1.81,83.19-2.46q20.79-.51,41.59-.9l41.6-.75L209,497l41.59-.46q41.6-.48,83.19-.59t83.19.13l83.18.6c27.73.22,55.46.44,83.19.85l20.8.32,20.8.4,41.59.8c55.46,1.13,110.92,1.73,166.38,1.35s110.91-2.28,166.37-3.06q41.6-.57,83.19-.3l41.59.21,41.59.45c13.87.11,27.73.38,41.6.61l20.8.37,20.79.47c27.73.62,55.46,1.4,83.19,2.58Z"/><line class="cls-4" x1="1332" y1="456.02" x2="1" y2="456.02"/><path class="cls-4" d="M1332,456.62c-27.73,1.17-55.46,1.95-83.19,2.58l-20.79.47-20.8.36c-13.87.23-27.73.5-41.6.62l-41.59.44-41.59.22q-41.6.29-83.19-.31c-55.46-.78-110.92-2.7-166.37-3.06s-110.92.22-166.38,1.35l-41.59.8-20.8.4-20.8.32c-27.73.41-55.46.63-83.19.85l-83.18.6c-27.73.2-55.46.2-83.19.14s-55.46-.27-83.19-.59L209,461.35l-41.59-.63-41.6-.75q-20.79-.37-41.59-.9c-27.73-.65-55.46-1.41-83.19-2.45v-1.2c27.73-1,55.46-1.8,83.19-2.46q20.79-.49,41.59-.9l41.6-.75,41.59-.62,41.59-.46q41.6-.48,83.19-.59c27.73-.06,55.46-.07,83.19.14l83.18.59c27.73.23,55.46.44,83.19.85l20.8.32,20.8.4,41.59.81c55.46,1.12,110.92,1.73,166.38,1.34s110.91-2.28,166.37-3q41.6-.57,83.19-.31l41.59.21,41.59.45c13.87.12,27.73.39,41.6.62l20.8.36,20.79.47c27.73.63,55.46,1.41,83.19,2.58Z"/><line class="cls-4" x1="1332" y1="409.75" x2="1" y2="409.75"/><path class="cls-4" d="M1332,410.35c-27.73,1.17-55.46,1.95-83.19,2.58l-20.79.47-20.8.36c-13.87.23-27.73.5-41.6.62l-41.59.45-41.59.21q-41.6.29-83.19-.31c-55.46-.77-110.92-2.69-166.37-3.05S722,411.9,666.5,413l-41.59.81-20.8.4-20.8.32c-27.73.41-55.46.62-83.19.85l-83.18.59c-27.73.21-55.46.2-83.19.14s-55.46-.27-83.19-.59L209,415.08l-41.59-.62-41.6-.75q-20.79-.37-41.59-.9c-27.73-.66-55.46-1.42-83.19-2.46v-1.2c27.73-1,55.46-1.8,83.19-2.45q20.79-.51,41.59-.9l41.6-.75,41.59-.63,41.59-.46q41.6-.48,83.19-.59c27.73-.06,55.46-.06,83.19.14l83.18.6c27.73.22,55.46.43,83.19.85l20.8.32,20.8.4,41.59.8c55.46,1.13,110.92,1.73,166.38,1.34s110.91-2.28,166.37-3.05q41.6-.57,83.19-.31l41.59.22,41.59.44c13.87.12,27.73.39,41.6.62l20.8.36,20.79.47c27.73.63,55.46,1.41,83.19,2.58Z"/><line class="cls-4" x1="1332" y1="363.49" x2="1" y2="363.49"/><path class="cls-4" d="M1332,364.08c-27.73,1.17-55.46,2-83.19,2.58l-20.79.47-20.8.37c-13.87.23-27.73.49-41.6.61l-41.59.45-41.59.21q-41.6.3-83.19-.3c-55.46-.78-110.92-2.7-166.37-3.06s-110.92.22-166.38,1.35l-41.59.8-20.8.4-20.8.32c-27.73.41-55.46.63-83.19.85l-83.18.6q-41.6.3-83.19.13t-83.19-.59L209,368.81l-41.59-.62-41.6-.75q-20.79-.37-41.59-.9c-27.73-.65-55.46-1.42-83.19-2.46v-1.19c27.73-1,55.46-1.81,83.19-2.46q20.79-.51,41.59-.9l41.6-.75,41.59-.62,41.59-.46q41.6-.48,83.19-.59t83.19.13l83.18.6c27.73.22,55.46.44,83.19.85l20.8.32,20.8.4,41.59.8c55.46,1.13,110.92,1.73,166.38,1.35s110.91-2.28,166.37-3.06q41.6-.57,83.19-.3l41.59.21,41.59.45c13.87.12,27.73.38,41.6.61l20.8.37,20.79.47c27.73.62,55.46,1.41,83.19,2.58Z"/><line class="cls-4" x1="1332" y1="317.22" x2="1" y2="317.22"/><path class="cls-4" d="M1332,317.82c-27.73,1.17-55.46,1.95-83.19,2.58l-20.79.47-20.8.36c-13.87.23-27.73.5-41.6.62l-41.59.44-41.59.22q-41.6.28-83.19-.31c-55.46-.77-110.92-2.69-166.37-3.05s-110.92.21-166.38,1.34l-41.59.8-20.8.4-20.8.32c-27.73.42-55.46.63-83.19.85l-83.18.6c-27.73.2-55.46.2-83.19.14s-55.46-.27-83.19-.59L209,322.55l-41.59-.63-41.6-.75q-20.79-.36-41.59-.9c-27.73-.65-55.46-1.41-83.19-2.45v-1.2c27.73-1,55.46-1.8,83.19-2.46q20.79-.5,41.59-.9l41.6-.75,41.59-.62,41.59-.46q41.6-.48,83.19-.59c27.73-.06,55.46-.07,83.19.14l83.18.59c27.73.23,55.46.44,83.19.85l20.8.32,20.8.4,41.59.81c55.46,1.12,110.92,1.73,166.38,1.34s110.91-2.28,166.37-3.05q41.6-.57,83.19-.31l41.59.21,41.59.45c13.87.12,27.73.39,41.6.62l20.8.36,20.79.47c27.73.63,55.46,1.41,83.19,2.58Z"/><line class="cls-4" x1="1332" y1="270.95" x2="1" y2="270.95"/><path class="cls-4" d="M1332,271.55c-27.73,1.17-55.46,1.95-83.19,2.58l-20.79.47-20.8.36c-13.87.23-27.73.5-41.6.62L1124,276l-41.59.21q-41.6.28-83.19-.31c-55.46-.77-110.92-2.69-166.37-3.05S722,273.1,666.5,274.22l-41.59.81-20.8.4-20.8.32c-27.73.41-55.46.62-83.19.85l-83.18.59c-27.73.21-55.46.2-83.19.14s-55.46-.27-83.19-.59L209,276.28l-41.59-.62-41.6-.75q-20.79-.37-41.59-.9c-27.73-.66-55.46-1.42-83.19-2.46v-1.2c27.73-1,55.46-1.8,83.19-2.45q20.79-.51,41.59-.9l41.6-.75,41.59-.63,41.59-.46q41.6-.48,83.19-.59c27.73-.06,55.46-.06,83.19.14l83.18.6c27.73.22,55.46.44,83.19.85l20.8.32,20.8.4,41.59.8c55.46,1.13,110.92,1.73,166.38,1.35s110.91-2.28,166.37-3.06q41.6-.57,83.19-.31l41.59.22,41.59.44c13.87.12,27.73.39,41.6.62l20.8.36,20.79.47c27.73.63,55.46,1.41,83.19,2.58Z"/><line class="cls-4" x1="1332" y1="224.69" x2="1" y2="224.69"/><path class="cls-4" d="M1332,225.28c-27.73,1.18-55.46,2-83.19,2.58l-20.79.47-20.8.37c-13.87.23-27.73.5-41.6.61l-41.59.45-41.59.21q-41.6.3-83.19-.3c-55.46-.78-110.92-2.7-166.37-3.06S722,226.83,666.5,228l-41.59.8-20.8.4-20.8.32c-27.73.41-55.46.63-83.19.85l-83.18.6q-41.6.3-83.19.13t-83.19-.59L209,230l-41.59-.62-41.6-.75q-20.79-.37-41.59-.9c-27.73-.65-55.46-1.42-83.19-2.46v-1.19c27.73-1,55.46-1.81,83.19-2.46q20.79-.51,41.59-.9l41.6-.75,41.59-.62,41.59-.46q41.6-.48,83.19-.59c27.73-.07,55.46-.07,83.19.14l83.18.59c27.73.23,55.46.44,83.19.85l20.8.32,20.8.4,41.59.81c55.46,1.12,110.92,1.72,166.38,1.34s110.91-2.28,166.37-3.06q41.6-.57,83.19-.3l41.59.21,41.59.45c13.87.12,27.73.38,41.6.61l20.8.37,20.79.47c27.73.62,55.46,1.41,83.19,2.58Z"/><line class="cls-4" x1="1332" y1="178.42" x2="1" y2="178.42"/><path class="cls-4" d="M1332,179c-27.73,1.17-55.46,1.95-83.19,2.58l-20.79.47-20.8.36c-13.87.23-27.73.5-41.6.62l-41.59.44-41.59.22q-41.6.28-83.19-.31c-55.46-.77-110.92-2.69-166.37-3.05s-110.92.21-166.38,1.34l-41.59.81-20.8.39-20.8.32c-27.73.42-55.46.63-83.19.85l-83.18.6c-27.73.2-55.46.2-83.19.14s-55.46-.27-83.19-.59L209,183.75l-41.59-.63-41.6-.74Q105,182,84.19,181.47C56.46,180.82,28.73,180.06,1,179v-1.2c27.73-1,55.46-1.8,83.19-2.46q20.79-.5,41.59-.9l41.6-.74,41.59-.63,41.59-.46q41.6-.48,83.19-.59c27.73-.06,55.46-.07,83.19.14l83.18.59c27.73.23,55.46.44,83.19.86l20.8.31,20.8.4,41.59.81c55.46,1.12,110.92,1.73,166.38,1.34s110.91-2.28,166.37-3.05q41.6-.57,83.19-.31l41.59.22,41.59.44c13.87.12,27.73.39,41.6.62l20.8.36,20.79.47c27.73.63,55.46,1.41,83.19,2.58Z"/><line class="cls-4" x1="1332" y1="132.15" x2="1" y2="132.15"/><path class="cls-4" d="M1332,132.75c-27.73,1.17-55.46,1.95-83.19,2.58l-20.79.47-20.8.36c-13.87.23-27.73.5-41.6.62l-41.59.45-41.59.21q-41.6.28-83.19-.31c-55.46-.77-110.92-2.69-166.37-3S722,134.3,666.5,135.42l-41.59.81-20.8.4-20.8.32c-27.73.41-55.46.62-83.19.85l-83.18.59c-27.73.21-55.46.2-83.19.14s-55.46-.27-83.19-.59L209,137.48l-41.59-.62-41.6-.75q-20.79-.37-41.59-.9c-27.73-.66-55.46-1.42-83.19-2.46v-1.19c27.73-1.05,55.46-1.81,83.19-2.46q20.79-.51,41.59-.9l41.6-.75,41.59-.63,41.59-.46q41.6-.48,83.19-.59c27.73-.06,55.46-.06,83.19.14l83.18.6c27.73.22,55.46.44,83.19.85l20.8.32,20.8.4,41.59.8c55.46,1.13,110.92,1.73,166.38,1.35s110.91-2.28,166.37-3.06q41.6-.57,83.19-.31l41.59.22,41.59.44c13.87.12,27.73.39,41.6.62l20.8.36,20.79.47c27.73.63,55.46,1.41,83.19,2.59Z"/></g><path d="M351.88,161.58l.91,2.45a3.49,3.49,0,0,0,.56-.14c2.37-1,3.07-.41,4.09,2s1.81,4.83,2.67,7.26a1.53,1.53,0,0,0,1.33,1.2c1.35.26,1.68,1.56,1.93,2.71.37,1.63.6,3.3.88,5,.78,4.47,1.57,8.94,2.32,13.41a6.21,6.21,0,0,1,.09,1.87c-.07.53-.22,1.29-.59,1.49-1.4.79-1,2-1,3.18,0,2.31,0,4.61-.05,6.91a7.17,7.17,0,0,1-.16,1.46,2,2,0,0,1-2.35,1.82c-.37,0-.75,0-1.19,0,0,.92,0,1.75,0,2.7,1.78.11,3.5.22,5.23.29.15,0,.33-.18.47-.31.62-.63,1.28-.53,1.57.3a3.41,3.41,0,0,1,.19,1.34.8.8,0,0,1-1.32.56,2.66,2.66,0,0,0-1.25-.51c-2.7-.11-5.41-.16-8.12-.21-1,0-1.38-.32-1.47-1.47a61,61,0,0,0-1.08-6.23l-.35,0c0,.72-.11,1.44-.11,2.17,0,1.25.06,2.51.08,3.76a13.6,13.6,0,0,1-9.9,13,22.42,22.42,0,0,1-4.95.73,48.87,48.87,0,0,0-10.84,1.61,63.8,63.8,0,0,1-10.54,1.63,1.26,1.26,0,0,0-1.32,1,18.54,18.54,0,0,1-1.55,2.82c.22.21.5.51.79.8.73.73.7,1.52-.28,1.89a29.05,29.05,0,0,1-4,1.08c-2,.44-4,.81-6,1.21-2.49.51-3.07.28-4.47-1.81L291,240.8q-14.42,3-28.82,5.91c-5.75,1.19-11.49,2.4-17.23,3.58l-25.22,5.19c-7.83,1.61-15.65,3.25-23.48,4.87l-31.39,6.43c-7.83,1.61-15.65,3.29-23.49,4.85-3.14.63-6.32,1.47-9.49,1.47a14.43,14.43,0,0,1-14-9.11c-1.15-2.58-1.6-5.48-2.35-8.23-.18-.64-.31-1.3-.47-1.94a2,2,0,0,1,.32-2.09,2.94,2.94,0,0,0,.33-2.28c-1.51-6.64-3.1-13.27-4.7-19.9a4.59,4.59,0,0,0-1.91-2.78,2.09,2.09,0,0,1-.78-1.15c-.75-3.19-1.58-6.38-2.13-9.61a14.35,14.35,0,0,1,3.33-12c2.77-3.34,6.52-4.68,10.63-5.47,5.89-1.12,11.75-2.39,17.63-3.59l24.82-5.1,23-4.74,33.85-7,26.78-5.5,31-6.33c1.66-.34,1.68-.32,1.74-2a1.93,1.93,0,0,1,1.79-1.89c2.6-.47,5.23-.77,7.83-1.23s5.41-1,8.11-1.57c1.33-.26,2.66-.6,4-.76,1.93-.23,2.35.37,1.6,2.15a3.8,3.8,0,0,0-.16.51c.69.52,1.36,1.07,2.08,1.53a1.13,1.13,0,0,0,.87,0c6.22-2.18,12.8-2.86,19.13-4.56,1.6-.43,3.11-1.21,4.68-1.79a13.31,13.31,0,0,1,17,7c.87,1.94,1.43,4,2.15,6a1.21,1.21,0,0,0,.67.69q-.5-2.85-1-5.7c-.06-.38-.14-.76-.21-1.13-.36-1.76-.39-1.83,1.24-2.51,2.34-1,4.74-1.78,7.08-2.73a2.64,2.64,0,0,0,1.08-1.09c.36-.58,1-.77,1.26-.18a6.05,6.05,0,0,1,.23,2.26c0,.11-.53.27-.83.32a7.14,7.14,0,0,0-1.41.11C354.77,160.36,353.4,161,351.88,161.58Zm-146.3,19.94,0-.13c-1.47.35-2.92.73-4.39,1l-26.58,5.46-34,7c-7.19,1.47-14.37,3-21.57,4.38a15.5,15.5,0,0,0-7.22,3.12,14.19,14.19,0,0,0-5.1,14.39c.58,2.91,1.34,5.79,2.06,8.67a2,2,0,0,0,.68,1,5.9,5.9,0,0,1,2.13,3.27c1.55,6.49,3.14,13,4.58,19.49.21,1-.28,2.07-.46,3.11-.07.44-.33.91-.24,1.31.55,2.52,1.1,5,1.79,7.54a19.45,19.45,0,0,0,1.58,4c1.91,3.58,5,5.69,8.78,7,2.8,1,5.59.54,8.37,0,4.42-.88,8.83-1.81,13.24-2.72L170.46,265l13.13-2.7,21-4.34,13.23-2.72,21.55-4.45,12.72-2.61q10.78-2.22,21.55-4.46c3.73-.77,7.44-1.6,11.17-2.38,2.42-.51,4.86-1,7.29-1.49,5.85-1.2,11.71-2.33,17.54-3.62a6.16,6.16,0,0,0,4.56-7.05c-.78-4.43-1.64-8.85-2.48-13.27-.69-3.6-1.4-7.19-2.07-10.8-1.18-6.31-2.32-12.62-3.5-18.93-.73-3.88-1.51-7.75-2.26-11.62a42.34,42.34,0,0,1-.87-4.84,7,7,0,0,0-8.91-6.45c-8.42,1.88-16.89,3.53-25.34,5.27Q253,171.8,237.2,175.05T205.58,181.52Zm148.95,26.64c-2.21-12.39-4.39-24.67-6.59-37l-40.07,3.37c2.91,15.51,5.79,30.86,8.69,46.28Zm-11.06-40.35c-.19-1.07-.32-2-.52-2.91A8.74,8.74,0,0,0,332.48,158c-4.05.73-8.11,1.43-12.16,2.15l-8.22,1.45c.5,2.69,1,5.32,1.47,8Zm-18.24,62.63,4.18-1c5.51-1.31,11.07-2.42,16.5-4,5-1.44,7.57-7,5.45-12.52l-1.38.45L340.15,217c-5.35,1.92-10.7,3.84-16,5.81a1,1,0,0,0-.47.9C324.12,225.87,324.67,228.07,325.23,230.44Zm34.56-15.69c.88,0,1.1-.45,1.09-1.16,0-2.58,0-5.16,0-7.74a36.38,36.38,0,0,0-.2-5.63c-1-6.54-2.22-13.07-3.38-19.59a54.4,54.4,0,0,0-1.45-7c-1.23-3.81-2.74-7.53-4.13-11.28a1.84,1.84,0,0,0-.21-.28l-1,.17Q355.16,188.59,359.79,214.75Zm-52-40.42L347.91,171a7.39,7.39,0,0,0-.22-.9c-.62-1.64-1-2.22-2.76-2-1.48.22-3,.18-4.49.27l-28.81,1.69c-1.48.08-3,.2-4.51.3C307.37,171.72,307.59,173,307.84,174.33Zm9.58,50.37c3.31-1.18,6.51-2.3,9.69-3.44q12.84-4.63,25.7-9.27c1.78-.65,2.23-1.56,1.61-3.57a8,8,0,0,0-.78.19c-3.39,1.15-6.78,2.31-10.18,3.45-2.58.86-5.17,1.67-7.75,2.52L322.64,219c-1.69.56-3.39,1.07-5.05,1.68-.37.13-.9.63-.86.91A28.82,28.82,0,0,0,317.42,224.7ZM315.87,221c-2.91-15.52-5.8-30.92-8.71-46.41l-2.69.22c3,15.73,5.91,31.31,8.87,47Zm41.23-43.85c1.24,7.05,2.44,13.86,3.65,20.72l3.86-.47c-.07-.76-.09-1.42-.2-2.06q-1.19-6.84-2.39-13.7c-.24-1.37-.42-2.75-.73-4.11-.11-.49-.09-1.32-1-1.12S358.24,176.9,357.1,177.17Zm-51.89-13.52c.56,1.64,1.19,3.18,1.58,4.78.25,1,.5,1.56,1.72,1.38,1.53-.22,3.09-.22,4.75-.32-.49-2.64-.95-5.13-1.43-7.76Zm19.41,66.85c-.47-2.49-.91-4.89-1.38-7.39-1.85.68-3.52,1.28-5.17,1.92a.87.87,0,0,0-.48.64c.19,1.81.44,3.61.68,5.45Zm1-71.77c2.13-.37,4.27-.66,6.38-1.12a9.28,9.28,0,0,1,11.53,7.85c.12.75.34,1.48.53,2.28l2.66-.08C344.93,158.36,336.36,153.19,325.58,158.73Zm39.89,39.9.21.1a4.08,4.08,0,0,0,.57-1.22,8.72,8.72,0,0,0-.08-2.28q-1.07-6.34-2.2-12.68c-.36-2-.72-4.06-1.17-6.07-.18-.83-.55-1.64-1.55-1.76C362.67,182.73,364.07,190.68,365.47,198.63ZM352,212.71c.11.66.18,1.28.32,1.88a9.75,9.75,0,0,1-8.1,11.9c-1.74.29-3.44.8-5.16,1.21,7.68.82,17-4.42,15.55-15.92Zm-1.86-31.52a85.76,85.76,0,0,1,3.31,16.87c.39-.26.68-.56.69-.87.08-2.23.16-4.46.12-6.68a8.45,8.45,0,0,0-.51-2.72c-.81-2.22-1.73-4.4-2.63-6.67Zm11.17,18.65c0,3.67,0,7.17.05,10.66,1.7.24,2,.14,2-.9.07-3.31.07-6.61.1-10ZM359,174.7c-1-2.8-2-5.46-3-8.14-.65-1.78-.91-1.88-2.59-.9l3.49,9.54Zm-77.85-9.33c2.12-.4,4.26-.81,6.39-1.25.16,0,.31-.32.39-.52.28-.63.52-1.26.79-1.93a4.65,4.65,0,0,0-.73,0c-1.69.21-3.37.46-5.06.67C280.84,162.62,280.48,163.17,281.13,165.37Zm33.78,66.07a10,10,0,0,1,1.38-.09c.93.06,1.34-.5,1.21-1.26-.26-1.49-.67-2.94-1-4.46-.19.05-.46.1-.72.18-1.48.43-1.51.54-1.25,2C314.71,229,314.77,230.16,314.91,231.44Zm44.78-56.23h.37a4,4,0,0,0,0-1.19c-.38-1.19-.83-2.36-1.27-3.54-.6-1.63-1.17-3.28-1.84-4.89-.33-.79-.77-1.59-1.66-1.75Zm-53.59-5.33c-.11-3.4-.94-5.45-2.39-5.74,0,2,0,3.91,0,5.94Zm58.16,29-.35.14-.19,12.3.29.09a9.14,9.14,0,0,0,.61-2.15c.09-3.1.09-6.2.08-9.3A3.08,3.08,0,0,0,364.26,198.88Zm-57-24.53c-.31-1.27-.54-2.36-.84-3.43a.82.82,0,0,0-.58-.51,18.55,18.55,0,0,0-2.13.18c.21,1.23.38,2.37.63,3.48a.79.79,0,0,0,.61.48A20.23,20.23,0,0,0,307.27,174.35Zm7,51.49a17.75,17.75,0,0,0,1.77-.64.85.85,0,0,0,.44-.65c-.12-1.09-.33-2.18-.53-3.34-.82.28-1.51.49-2.18.75a.54.54,0,0,0-.29.46C313.69,223.54,314,224.64,314.25,225.84ZM303,238.48c.13,1.38,1.27,2,2.8,1.69.93-.18,1.84-.4,2.76-.6,2.39-.5,4.78-1,7.17-1.52.56-.12,1.08-.3,1.18-1.06a13.45,13.45,0,0,1-1.85.71c-3.17.68-6.34,1.37-9.54,1.9-.63.11-1.38-.41-2.06-.68C303.24,238.85,303.11,238.63,303,238.48Zm-.43-79a9.5,9.5,0,0,0-1.79-.18c-.9.09-1.78.29-2.67.47-2.5.5-5,1-7.48,1.54a2.3,2.3,0,0,0-2,2.86,4.83,4.83,0,0,1,.46-.92c.43-.46.86-1.15,1.4-1.27C294.34,161.06,298.26,160.3,302.53,159.44Zm.4,7.16c.22-3.76.21-3.8-1.13-4l-1.17,1.18Zm14.48,65.23c-3.37.1-2.8-.09-3.58,2l1.6.63.32.19Zm-13.81,6.69a1.32,1.32,0,0,0,1.61.79c1.49-.27,3-.68,4.44-1a1.11,1.11,0,0,0-.87-.46c-.72.09-1.42.34-2.14.44C305.66,238.39,304.67,238.43,303.6,238.52Zm7.55-.8.23.34,4.39-1c-.4-.4-.47-1.15-1.34-.77s-1.76.64-2.63,1A2.87,2.87,0,0,0,311.15,237.72Zm-21.71-74c1.35-1.78,3.71-.94,5.49-2C292.69,161.29,289.55,162.49,289.44,163.72Zm7.41-2.55,4,.07m-.66.68-3.07.32C298.24,162.92,299.29,163.17,300.21,161.92Zm13.92,73.68c-1.31-.68-1.85-.48-2.92,1Z"/><path class="cls-5" d="M205.58,181.52q15.81-3.22,31.62-6.47t31.61-6.52c8.45-1.74,16.92-3.39,25.34-5.27a7,7,0,0,1,8.91,6.45,42.34,42.34,0,0,0,.87,4.84c.75,3.87,1.53,7.74,2.26,11.62,1.18,6.31,2.32,12.62,3.5,18.93.67,3.61,1.38,7.2,2.07,10.8.84,4.42,1.7,8.84,2.48,13.27a6.16,6.16,0,0,1-4.56,7.05c-5.83,1.29-11.69,2.42-17.54,3.62-2.43.49-4.87,1-7.29,1.49-3.73.78-7.44,1.61-11.17,2.38q-10.77,2.25-21.55,4.46l-12.72,2.61-21.55,4.45L204.63,258l-21,4.34L170.46,265l-21.24,4.38c-4.41.91-8.82,1.84-13.24,2.72-2.78.55-5.57,1-8.37,0-3.75-1.31-6.87-3.42-8.78-7a19.45,19.45,0,0,1-1.58-4c-.69-2.49-1.24-5-1.79-7.54-.09-.4.17-.87.24-1.31.18-1,.67-2.15.46-3.11-1.44-6.52-3-13-4.58-19.49a5.9,5.9,0,0,0-2.13-3.27,2,2,0,0,1-.68-1c-.72-2.88-1.48-5.76-2.06-8.67a14.19,14.19,0,0,1,5.1-14.39,15.5,15.5,0,0,1,7.22-3.12c7.2-1.42,14.38-2.91,21.57-4.38l34-7,26.58-5.46c1.47-.31,2.92-.69,4.39-1Zm-80.28,84a5,5,0,0,0,.75.64,8.16,8.16,0,0,0,5.88.64L145.37,264l20.71-4.27q10.21-2.1,20.41-4.2l20.62-4.24,20.51-4.23,20.61-4.24,20.51-4.23,20.51-4.22c6.05-1.26,12.1-2.54,18.15-3.78a7.47,7.47,0,0,1,1.49,0c.12,0,.31,0,.35-.09a.63.63,0,0,0,0-.45,17.86,17.86,0,0,1-.79-2.3c-.68-3.43-1.28-6.86-1.93-10.29q-1.67-8.85-3.34-17.7c-1.66-8.67-3.35-17.34-5-26-.27-1.44-.31-2.92-.47-4.38,0-.12-.08-.32-.16-.33a.76.76,0,0,0-.43.09,6.6,6.6,0,0,1-1.18.55c-4.17.87-8.34,1.71-12.51,2.56l-20.62,4.25-20.1,4.12-20.31,4.18L202.25,189l-20.2,4.15c-6,1.25-12,2.52-18.05,3.76L138.66,202c-3.45.71-6.91,1.4-10.36,2.12-3.93.82-7.86,1.63-11.78,2.51a7.57,7.57,0,0,0-1.73,1L113,209a7.94,7.94,0,0,0-.87,1,8.09,8.09,0,0,0-.89,6.53q3.63,15.28,7.25,30.58c1.09,4.62,2.18,9.24,3.33,13.85a8.47,8.47,0,0,0,1,1.82Z"/><path class="cls-6" d="M354.53,208.16l-38,12.64c-2.9-15.42-5.78-30.77-8.69-46.28l40.07-3.37C350.14,183.49,352.32,195.77,354.53,208.16Z"/><path class="cls-7" d="M343.47,167.81l-29.9,1.76c-.49-2.69-1-5.32-1.47-8l8.22-1.45c4.05-.72,8.11-1.42,12.16-2.15A8.74,8.74,0,0,1,343,164.9C343.15,165.81,343.28,166.74,343.47,167.81Z"/><path class="cls-7" d="M325.23,230.44c-.56-2.37-1.11-4.57-1.58-6.78a1,1,0,0,1,.47-.9c5.33-2,10.68-3.89,16-5.81L350,213.4l1.38-.45c2.12,5.49-.4,11.08-5.45,12.52-5.43,1.56-11,2.67-16.5,4Z"/><path class="cls-7" d="M359.79,214.75q-4.64-26.2-9.28-52.47l1-.17a1.84,1.84,0,0,1,.21.28c1.39,3.75,2.9,7.47,4.13,11.28a54.4,54.4,0,0,1,1.45,7c1.16,6.52,2.34,13.05,3.38,19.59a36.38,36.38,0,0,1,.2,5.63c0,2.58,0,5.16,0,7.74C360.89,214.3,360.67,214.71,359.79,214.75Z"/><path class="cls-8" d="M307.84,174.33c-.25-1.38-.47-2.61-.72-4,1.55-.1,3-.22,4.51-.3l28.81-1.69c1.5-.09,3-.05,4.49-.27,1.75-.25,2.14.33,2.76,2a7.39,7.39,0,0,1,.22.9Z"/><path class="cls-8" d="M317.42,224.7a28.82,28.82,0,0,1-.69-3.16c0-.28.49-.78.86-.91,1.66-.61,3.36-1.12,5.05-1.68l13.07-4.37c2.58-.85,5.17-1.66,7.75-2.52,3.4-1.14,6.79-2.3,10.18-3.45a8,8,0,0,1,.78-.19c.62,2,.17,2.92-1.61,3.57q-12.85,4.62-25.7,9.27C323.93,222.4,320.73,223.52,317.42,224.7Z"/><path class="cls-9" d="M315.87,221l-2.53.84c-3-15.72-5.9-31.3-8.87-47l2.69-.22C310.07,190.1,313,205.5,315.87,221Z"/><path class="cls-7" d="M357.1,177.17c1.14-.27,2.15-.53,3.17-.74s.91.63,1,1.12c.31,1.36.49,2.74.73,4.11q1.2,6.85,2.39,13.7c.11.64.13,1.3.2,2.06l-3.86.47C359.54,191,358.34,184.22,357.1,177.17Z"/><path class="cls-9" d="M305.21,163.65l6.62-1.92c.48,2.63.94,5.12,1.43,7.76-1.66.1-3.22.1-4.75.32-1.22.18-1.47-.35-1.72-1.38C306.4,166.83,305.77,165.29,305.21,163.65Z"/><path class="cls-9" d="M324.62,230.5l-6.35.62c-.24-1.84-.49-3.64-.68-5.45a.87.87,0,0,1,.48-.64c1.65-.64,3.32-1.24,5.17-1.92C323.71,225.61,324.15,228,324.62,230.5Z"/><path class="cls-6" d="M325.58,158.73c10.78-5.54,19.35-.37,21.1,8.93l-2.66.08c-.19-.8-.41-1.53-.53-2.28A9.28,9.28,0,0,0,332,157.61C329.85,158.07,327.71,158.36,325.58,158.73Z"/><path class="cls-10" d="M365.47,198.63c-1.4-7.95-2.8-15.9-4.22-23.91,1,.12,1.37.93,1.55,1.76.45,2,.81,4,1.17,6.07q1.13,6.33,2.2,12.68a8.72,8.72,0,0,1,.08,2.28,4.08,4.08,0,0,1-.57,1.22Z"/><path class="cls-6" d="M352,212.71l2.61-.93c1.45,11.5-7.87,16.74-15.55,15.92,1.72-.41,3.42-.92,5.16-1.21a9.75,9.75,0,0,0,8.1-11.9C352.14,214,352.07,213.37,352,212.71Z"/><path class="cls-7" d="M361.27,199.84l2.18-.27c0,3.42,0,6.72-.1,10,0,1-.33,1.14-2,.9C361.3,207,361.29,203.51,361.27,199.84Z"/><path class="cls-7" d="M359,174.7l-2.11.5-3.49-9.54c1.68-1,1.94-.88,2.59.9C357,169.24,357.94,171.9,359,174.7Z"/><path class="cls-11" d="M281.13,165.37c-.65-2.2-.29-2.75,1.78-3,1.69-.21,3.37-.46,5.06-.67a4.65,4.65,0,0,1,.73,0c-.27.67-.51,1.3-.79,1.93-.08.2-.23.49-.39.52C285.39,164.56,283.25,165,281.13,165.37Z"/><path class="cls-8" d="M314.91,231.44c-.14-1.28-.2-2.45-.41-3.6-.26-1.49-.23-1.6,1.25-2,.26-.08.53-.13.72-.18.36,1.52.77,3,1,4.46.13.76-.28,1.32-1.21,1.26A10,10,0,0,0,314.91,231.44Z"/><path class="cls-10" d="M359.69,175.21l-4.38-11.37c.89.16,1.33,1,1.66,1.75.67,1.61,1.24,3.26,1.84,4.89.44,1.18.89,2.35,1.27,3.54a4,4,0,0,1,0,1.19Z"/><path class="cls-9" d="M306.1,169.88l-2.4.2c0-2,0-4,0-5.94C305.16,164.43,306,166.48,306.1,169.88Z"/><path class="cls-10" d="M364.26,198.88a3.08,3.08,0,0,1,.44,1.08c0,3.1,0,6.2-.08,9.3a9.14,9.14,0,0,1-.61,2.15l-.29-.09.19-12.3Z"/><path class="cls-9" d="M307.27,174.35a20.23,20.23,0,0,1-2.31.2.79.79,0,0,1-.61-.48c-.25-1.11-.42-2.25-.63-3.48a18.55,18.55,0,0,1,2.13-.18.82.82,0,0,1,.58.51C306.73,172,307,173.08,307.27,174.35Z"/><path class="cls-9" d="M314.25,225.84c-.28-1.2-.56-2.3-.79-3.42a.54.54,0,0,1,.29-.46c.67-.26,1.36-.47,2.18-.75.2,1.16.41,2.25.53,3.34a.85.85,0,0,1-.44.65A17.75,17.75,0,0,1,314.25,225.84Z"/><path class="cls-7" d="M303,238.48c.15.15.28.37.46.44.68.27,1.43.79,2.06.68,3.2-.53,6.37-1.22,9.54-1.9a13.45,13.45,0,0,0,1.85-.71c-.1.76-.62.94-1.18,1.06-2.39.52-4.78,1-7.17,1.52-.92.2-1.83.42-2.76.6C304.23,240.48,303.09,239.86,303,238.48Z"/><path class="cls-7" d="M302.53,159.44c-4.27.86-8.19,1.62-12.08,2.5-.54.12-1,.81-1.4,1.27a4.83,4.83,0,0,0-.46.92,2.3,2.3,0,0,1,2-2.86c2.49-.54,5-1,7.48-1.54.89-.18,1.77-.38,2.67-.47A9.5,9.5,0,0,1,302.53,159.44Z"/><path class="cls-12" d="M311.38,238.06l-.23-.34a2.87,2.87,0,0,1,.65-.48"/><path class="cls-12" d="M314.43,236.25c.87-.38.94.37,1.34.77"/><path class="cls-12" d="M314.13,235.6l-2.92,1"/><path class="cls-10" d="M113,209l1.75-1.37c1.95-.52,3.87-1.13,5.84-1.55,6.83-1.45,13.67-2.83,20.51-4.24l13.13-2.69,27.38-5.64L195,190.77l27.48-5.66,12.93-2.65L256,178.22l13.13-2.69L290,171.24l7.25-1.5c3.83,20.16,7.63,40.2,11.44,60.25a7.94,7.94,0,0,1-.84.24L290,233.89l-21,4.34L255.61,241l-21.23,4.39-13,2.67-21,4.34-13.13,2.69-20.92,4.31-13.44,2.77c-6.39,1.33-12.78,2.65-19.16,4-2.88.61-5.71,1-8.38-.69l-2.46-2.73c-.39-1.15-.87-2.28-1.15-3.46-3.3-13.85-6.53-27.73-9.89-41.57C111,214.55,111.06,211.67,113,209Z"/><path d="M125.3,265.47c2.67,1.72,5.5,1.3,8.38.69,6.38-1.37,12.77-2.69,19.16-4l13.44-2.77,20.92-4.31,13.13-2.69,21-4.34,13-2.67L255.61,241l13.33-2.74,21-4.34,17.84-3.66a7.94,7.94,0,0,0,.84-.24c-3.81-20.05-7.61-40.09-11.44-60.25l-7.25,1.5-20.82,4.29L256,178.22l-20.61,4.24-12.93,2.65L195,190.77l-13.34,2.73-27.38,5.64-13.13,2.69c-6.84,1.41-13.68,2.79-20.51,4.24-2,.42-3.89,1-5.84,1.55a7.57,7.57,0,0,1,1.73-1c3.92-.88,7.85-1.69,11.78-2.51,3.45-.72,6.91-1.41,10.36-2.12L164,196.87c6-1.24,12-2.51,18.05-3.76l20.2-4.15,20.21-4.15,20.31-4.18,20.1-4.12,20.62-4.25c4.17-.85,8.34-1.69,12.51-2.56a6.6,6.6,0,0,0,1.18-.55.76.76,0,0,1,.43-.09c.08,0,.15.21.16.33.16,1.46.2,2.94.47,4.38,1.62,8.68,3.31,17.35,5,26q1.68,8.85,3.34,17.7c.65,3.43,1.25,6.86,1.93,10.29a17.86,17.86,0,0,0,.79,2.3.63.63,0,0,1,0,.45c0,.07-.23.09-.35.09a7.47,7.47,0,0,0-1.49,0c-6,1.24-12.1,2.52-18.15,3.78l-20.51,4.22-20.51,4.23-20.61,4.24-20.51,4.23-20.62,4.24q-10.2,2.11-20.41,4.2L145.37,264l-13.44,2.76a8.16,8.16,0,0,1-5.88-.64A5,5,0,0,1,125.3,265.47Z"/><path d="M113,209c-2,2.68-2,5.56-1.24,8.72,3.36,13.84,6.59,27.72,9.89,41.57.28,1.18.76,2.31,1.15,3.46a8.47,8.47,0,0,1-1-1.82c-1.15-4.61-2.24-9.23-3.33-13.85q-3.63-15.28-7.25-30.58a8.09,8.09,0,0,1,.89-6.53A7.94,7.94,0,0,1,113,209Z"/><path class="cls-13" d="M1105.65,262.15l-.35-.67a56.43,56.43,0,0,1-3.72-5.24c-2.51-3.55-4.95-7.16-7.45-10.71a11.9,11.9,0,0,1-1.25-2.91c-1.22-3.44-2.47-6.87-3.72-10.3-.67-1.94-1.35-3.86-2.09-5.77a19.54,19.54,0,0,1-.74-5.26c-.33-3.32-.49-6.66-.91-10a39.33,39.33,0,0,1,.7-13.33c1-4.36,1.64-8.77,2.37-13.17a4.57,4.57,0,0,1,.45-1.22q4.18-8.82,8.34-17.66a25.3,25.3,0,0,1,3.12-3.87c3.2-3.81,6.47-7.56,9.64-11.4a22.69,22.69,0,0,1,4.8-3.77c4.28-3,8.63-5.88,12.89-8.89a8.93,8.93,0,0,1,2.2-.95c2.1-.75,4.19-1.49,6.31-2.17,3.87-1.43,7.79-2.73,11.68-4.1a10,10,0,0,1,2.82-.34c3.68-.2,7.36-.54,11-.74,2.29-.12,4.59-.33,6.88-.47a6.72,6.72,0,0,1,1.74.08q9.38,1.91,18.74,3.75a9.81,9.81,0,0,1,2.56.94c5.58,2.87,11.21,5.61,16.8,8.43a11.44,11.44,0,0,1,2.32,1.76c4.06,3.62,8.12,7.25,12.1,11,.24.23.52.41.77.62,1.68,1.41,2.68,3.32,3.86,5.11,2.59,4,5.08,8,7.72,11.93,1.58,2.36,2.18,5.07,3,7.69,1.23,3.77,2.3,7.59,3.64,11.32a24.42,24.42,0,0,1,1,7.44c.15,4.11.2,8.24.57,12.33a29,29,0,0,1-1,9c-1,4.54-2.06,9.08-3,13.63a21.74,21.74,0,0,1-2.34,5.25c-2.27,4.51-4.65,9-7,13.47a12.84,12.84,0,0,1-2.57,3.11c-1.42,1.77-3,3.37-4.51,5.06-1.89,2.12-3.86,4.16-5.69,6.33a22.7,22.7,0,0,1-5.35,4.06c-4.17,2.73-8.34,5.46-12.55,8.14a21.64,21.64,0,0,1-4.95,1.83c-4.77,1.6-9.53,3.26-14.33,4.76a6.5,6.5,0,0,1-1.68.33c-3.25.15-6.48.39-9.72.58-2.87.16-5.75.28-8.61.57a15,15,0,0,1-4.44-.59q-8-1.58-16-3.17a13.61,13.61,0,0,1-3.22-1.34c-4.32-2.09-8.57-4.32-12.95-6.26a27.78,27.78,0,0,1-7-5c-3.39-3-6.83-5.85-10.23-8.79A3,3,0,0,0,1105.65,262.15Z"/><path d="M1105.65,262.15c1.12-.06,1.64.9,2.32,1.48,4.23,3.55,8.35,7.23,12.62,10.72,1.57,1.29,3.59,1.93,5.43,2.81,4,1.93,8.07,3.79,12,5.78a15.22,15.22,0,0,0,4.08,1.18q8.3,1.61,16.6,3.18a22,22,0,0,0,5.25-.16c4.82-.26,9.63-.69,14.45-1,2.2-.13,4.15-1.08,6.18-1.73,4.54-1.46,9-3.05,13.57-4.55a9.14,9.14,0,0,0,2.12-1.12q7.42-4.87,14.85-9.77c1.92-1.27,3.19-3.2,4.72-4.86,2.26-2.44,4.45-4.95,6.68-7.42a8.55,8.55,0,0,1,.93-.76.31.31,0,0,1,.26.26,1.35,1.35,0,0,1-.4,1c-3.78,4.09-7.49,8.23-11.34,12.24a18.28,18.28,0,0,1-3.53,2.4q-6.65,4.26-13.31,8.5a19.48,19.48,0,0,1-4.52,1.61c-4.91,1.63-9.85,3.19-14.77,4.79a16.89,16.89,0,0,1-4.13.41c-5.37.35-10.74.63-16.11.92-1.86.1-3.61-.56-5.4-.91-4.45-.85-8.89-1.82-13.34-2.69a16.6,16.6,0,0,1-4.33-1.5c-4.2-2.11-8.39-4.28-12.68-6.21a31.8,31.8,0,0,1-7.67-5.4q-5.18-4.48-10.38-8.95A2.31,2.31,0,0,1,1105.65,262.15Z"/><path d="M1227.76,256.21l-.26-.26c.06-.16.08-.37.2-.48,2.42-2.13,3.4-5.15,4.86-7.87,2.13-4,4.16-8,6.19-12.07a16.89,16.89,0,0,0,1-4c1.16-5.25,2.26-10.52,3.39-15.78.45-2.08,0-4.15-.08-6.23-.17-4.82-.47-9.65-.7-14.47a7.53,7.53,0,0,0-.4-2c-1.88-5.78-3.81-11.55-5.63-17.36-.67-2.12-2.09-3.75-3.23-5.57-2.47-3.93-5-7.79-7.58-11.69a13.93,13.93,0,0,0-2-2.49c0-.16,0-.28.22-.19a10.92,10.92,0,0,1,3.24,3.65c3.13,4.95,6.25,9.9,9.41,14.82a21.83,21.83,0,0,1,2,5.32c1.57,4.89,3,9.82,4.57,14.73a9.41,9.41,0,0,1,.37,2.58c.22,6.07.48,12.14.67,18.22.07,2.48-.87,4.81-1.37,7.2-.85,4-1.87,8.05-2.73,12.09a15.53,15.53,0,0,1-1.52,4c-2.73,5.12-5.4,10.26-8.11,15.39A4.7,4.7,0,0,1,1227.76,256.21Z"/><path class="cls-14" d="M1223.78,155.68l-.22.19c-2.58-2.27-5.16-4.53-7.72-6.81-2.22-2-4.41-4-6.62-5.93a3.57,3.57,0,0,0-.86-.47c-4.54-2.28-9.14-4.44-13.61-6.85a33.1,33.1,0,0,0-10.09-3.43c-4.68-.83-9.33-1.81-14-2.78a15.2,15.2,0,0,0-4.26,0c-5.69.37-11.38.79-17.07,1.21-2.26.16-4.23,1.3-6.34,1.94-2.3.71-4.55,1.56-6.82,2.35-.2,0-.43.09-.4-.26,4.16-1.46,8.28-3.06,12.49-4.33a26.15,26.15,0,0,1,5.56-.5c5-.35,10-.72,15-1,2.06-.11,4,.63,6,1,4.28.81,8.54,1.74,12.82,2.54a20.22,20.22,0,0,1,5.66,2c3.46,1.8,6.94,3.6,10.46,5.29a34.91,34.91,0,0,1,9.89,6.55C1217,149.6,1220.42,152.59,1223.78,155.68Z"/><path class="cls-15" d="M1097.51,165.79c-1.58,3.41-3.14,6.83-4.73,10.23-1.26,2.71-2.65,5.37-3.79,8.14a20.46,20.46,0,0,0-.88,4.17q-1.42,7.88-2.8,15.77a5.63,5.63,0,0,0-.1,1.42q.84,9.66,1.7,19.34c.15,1.7,1.06,3.17,1.52,4.78.27.94.63,1.85,1,2.78.12.23.2.44-.19.46-1.55-4-3-7.91-3.17-12.29-.15-4.56-.66-9.12-1.15-13.66a20.18,20.18,0,0,1,.49-5.76q1.44-8.14,2.92-16.3a17.57,17.57,0,0,1,1.84-4.19q3.35-7.2,6.75-14.36a6.33,6.33,0,0,1,.47-.72C1097.5,165.57,1097.62,165.58,1097.51,165.79Z"/><path class="cls-16" d="M1097.51,165.79l-.17-.19a28,28,0,0,1,3.6-4.53c2.7-3.27,5.49-6.46,8.23-9.7a16.87,16.87,0,0,1,3.31-3.17c5.12-3.46,10.21-7,15.31-10.48a8.65,8.65,0,0,1,2.11-.88c2-.68,3.93-1.34,5.89-2l.4.26a41,41,0,0,1-4.12,1.43c-3.46.82-6.12,3-9,4.94-3.66,2.48-7.29,5-10.95,7.49-1.61,1.1-2.62,2.74-3.86,4.17C1104.66,157.3,1101.1,161.56,1097.51,165.79Z"/><path class="cls-17" d="M1089.19,232.88l.19-.46c1.07,2.87,2.29,5.69,3.15,8.61.94,3.21,2.77,5.84,4.63,8.5q4,5.67,7.87,11.36a4,4,0,0,1,.27.59c-.47.48-.45-.16-.54-.29q-3.83-5.47-7.62-11-1.56-2.25-3.13-4.49a16.62,16.62,0,0,1-1.71-4.11C1091.24,238.71,1090.22,235.79,1089.19,232.88Z"/></g></g></svg>