<svg xmlns="http://www.w3.org/2000/svg" viewBox="0 0 712.12 167.43"><defs><style>.cls-1{fill:#f69312;stroke:#000;stroke-miterlimit:10;stroke-width:1.45px;}</style></defs><g id="Layer_2" data-name="Layer 2"><g id="Layer_1-2" data-name="Layer 1"><path class="cls-1" d="M412.53,155.37a8.4,8.4,0,0,0-3.09,5,3,3,0,0,1-3.28,2.55q-10.05,0-20.1.11c-1.91,0-2.82-.46-2.83-2.6-.06-9-.28-18-.42-27.08,0-1.51,0-3,0-5.22-2.35,1.81-2.91,3.94-3.88,5.67-4.58,8.2-9.39,16.33-13.21,24.89-1.79,4-3.86,4.8-7.69,4.63-5.43-.26-10.87,0-16.31.1-2.17.05-3.21-.7-3.26-3a44.08,44.08,0,0,0-.79-5.52c-2.27,1.63-3.08,3.95-3.68,6.14-.53,1.89-1.32,2.5-3.19,2.46-4.66-.1-9.33-.11-14,0-2,0-3-.62-3.53-2.58s-.89-4.92-2.16-5.44c-2-.83-2.65,2.34-4.13,3.55-9,7.37-27,8.28-35.87-.3-2-2-3.41-4.41-5.18-7-2.13,3.5-4.54,6.57-5.57,10.34A2.14,2.14,0,0,1,258,164q-10.65,0-21.28.08a3.5,3.5,0,0,1-3-1.47c-1.51-1.89-3.07-3.75-4.65-5.58a4.65,4.65,0,0,1-1.1-3.46c.11-3.24,0-6.48,0-10.37-2.89,4.83-5.52,9.18-8.11,13.55-1.13,1.91-2.49,3.72-2.93,6-.27,1.41-1.33,1.46-2.45,1.47-6.8.06-13.59.12-20.39.24a5.84,5.84,0,0,1-4.66-1.93,15.49,15.49,0,0,0-2.55-2.38c-3.4-2.29-5.57-5.07-4.4-9.47a1.23,1.23,0,0,0-.72-1.48A76.93,76.93,0,0,0,174,162.47c-.63,1.5-1.28,2.15-2.91,2.14-6.89,0-13.79,0-20.68.06a6,6,0,0,1-3.77-1.26c-2.57-1.89-5.26-3.62-7.78-5.57-1.21-.94-2.05-1.11-3.26,0-11.11,9.83-33.23,11.61-47.6,1.76-2.79-1.91-5.84-3.41-8.75-5.15-1.06-.63-1.94-.84-2.55.53-.11.27-.39.47-.46.74-1.83,7.1-8.16,7.94-13.69,9.4A45.19,45.19,0,0,1,37,164.61c-6.54-2.1-12.53-5.6-18.79-8.43C12.81,153.75,8.06,150.67,5,145.32a32.88,32.88,0,0,1-4.23-17c.05-9.7,1.72-19,7.14-27.44A36.87,36.87,0,0,1,28.8,85.32a52.6,52.6,0,0,1,14-2.09A4.79,4.79,0,0,0,47,80.68c8.32-12.52,16.71-25,25.06-37.5,6.38-9.54,15.45-14.29,26.72-15.46a54.43,54.43,0,0,1,24.27,2.93c2.49.89,2.39,1.7,1.48,3.88-5.7,13.62-14.64,25.29-22.4,37.67-.31.49-.64,1-1,1.46-1.37,2-.66,2.52,1.58,2.63,3.28.17,5.31-1,7.08-3.87,6.24-10,12.78-19.89,19.19-29.81s15.56-14.72,27.18-15.44a40.75,40.75,0,0,1,17.65,2.31,25,25,0,0,1,11.61,8.8c2.06,2.88,2.45,2.83,4.34-.2q2.61-4.19,5.16-8.42a3.67,3.67,0,0,1,3.6-1.9c4.07.09,8.16.07,12.23-.07,1.93-.07,2.74.79,3.32,2.49,2.09,6,2,5.92,6.72,1.69A19.55,19.55,0,0,1,231.26,27c6.68-1,13.36-1,19.62,2.19a13.17,13.17,0,0,1,4.17,3.1c2.6,3,3.43,3,6.31.21,8.16-8,25.07-8.67,33.6-1.44,2.14,1.81,3.19,4.32,4.73,6.8,2.63-2.65,3.81-6,5.68-8.86a3.51,3.51,0,0,1,3.23-1.93c5.62-.06,11.25-.13,16.87-.43,2.75-.15,3.72.65,3.66,3.53-.18,8.84-.08,17.68-.06,26.52a4.09,4.09,0,0,0,.66,3.14c1.8-3,3.47-5.81,5.08-8.61C339,44,343.12,36.79,347.15,29.51a4.9,4.9,0,0,1,5.07-2.9c5.24.19,10.49.17,15.73,0,2.73-.11,4,.62,3.66,3.54a65,65,0,0,0,0,6.61c2.79-2.3,3.72-5.19,5.13-7.68a4.22,4.22,0,0,1,4.37-2.47c3.78.13,7.58.09,11.36-.1,2.11-.1,3.3.69,3.84,2.65.05.18.16.36.23.54,2.22,5.7,2.07,5.55,6.35,1.42,5-4.82,11.36-5.92,18-5.81a25,25,0,0,1,12.55,3.09c1.3.76,2.06.45,2.77-.86,3.08-5.71,6.23-11.38,9.36-17.07a41.81,41.81,0,0,0,2.1-3.82C450,1.12,454.86.75,459.82.73a18.21,18.21,0,0,1,4.6.55c6.14,1.58,8.69,8.58,5.4,14.54-1.4,2.55-2.74,5.13-4.11,7.69-.82,1.52-.86,2.46,1.35,2.56,4.11.2,4.06.29,4.25,4.32.34,6.87.74,13.75,1.12,20.62a13.68,13.68,0,0,0,.47,1.77c2.22-4.08,4.16-7.58,6-11.11s3.35-7,5.89-10a18.8,18.8,0,0,1,16.53-6.83c2.25.16,3.5-.46,4.54-2.54,3-6.07,6.35-12,9.43-18A3.56,3.56,0,0,1,519,2.11c5.63.06,11.27.07,16.89-.11,2.4-.08,3.37.9,3.52,3.11.4,6.19.78,12.38,1.22,18.57.55,7.54,1.15,15.08,1.74,22.61a5.69,5.69,0,0,0,.31,1.08c1.27-.31,1.4-1.41,1.82-2.22,1.86-3.62,3.83-7.2,5.45-10.93A10.42,10.42,0,0,1,556.61,28c11.26-3.75,22.76-5.05,34.38-2.69,11.24,2.28,17.73,10.18,19,21.79.08.73-.3,1.83.57,2.07,1.15.31,1.25-1,1.6-1.69,2-4,3.92-8,5.77-12.06,3.7-8.09,10.2-11.74,18.84-11.51,3,.08,4.19-1,5.28-3.56,2.5-5.78,5.36-11.4,8-17.13A3.37,3.37,0,0,1,653.64,1c5.53.09,11.07.16,16.6-.06,2.52-.1,3.5.81,3.75,3.16.77,7.13,1.6,14.25,2.44,21.37q2.22,18.62,4.48,37.23.95,7.94,1.91,15.87a16.77,16.77,0,0,0,.43,1.7c1.82-1.65,2.46-3.7,3.19-5.56,2.93-7.41,7.35-7.85,15.23-7.16,4.87.42,8.86,4.89,9.63,10.3a11,11,0,0,1-.95,6c-6.06,13.94-12.11,27.88-18.26,41.78-.87,2-1.37,3.09,1,4.67,5.28,3.54,6.64,12.48,3.27,17.8-1.55,2.46-4.16,3.42-6.49,4.68-4.52,2.43-9.13,4.73-13.85,6.75s-9.82,2.24-14.56-.29c-2-1-3.52-1.15-5.33.17a9.56,9.56,0,0,1-6,1.81,106.11,106.11,0,0,0-12.23.15c-3.31.29-5.42-.88-6.72-3.75-1.13-2.5-2.38-2.78-4.8-1.18-4.51,3-9.13,5.76-14.86,6.09a23.86,23.86,0,0,1-18.33-6.32c-1.38-1.26-2.24-1.67-3.85-.36-2.24,1.84-4.79,3.3-7.14,5a5.05,5.05,0,0,1-3.28.89c-4.27,0-8.56-.15-12.82.06a4,4,0,0,1-4.11-2.46c-1-1.85-2.22-3.6-3.33-5.39l-4.83,3.67a28,28,0,0,1-35.26-1.16c-.89-.75-1.56-.88-2.14,0-4,6.29-10.19,5.6-16.44,6-6,.37-10.35-.93-12.65-6.82-.79-2-1.73-2-3-.23-4.26,6-10.35,8.28-17.42,8.12-9.45-.21-16.29-4.77-20.73-13.07-.41-.78-.48-2.2-1.69-2-1,.14-1.38,1.41-1.57,2.27a43.71,43.71,0,0,1-3.84,9.68,3.7,3.7,0,0,1-3.8,2.45q-10.05-.09-20.1.08c-2,0-2.87-.64-2.72-2.69C412.62,158.63,412.53,157,412.53,155.37ZM574,153.66c0-.62,0-1.24.07-1.86a3.61,3.61,0,0,0,2.94.87c4,0,8-.13,11.94,0,2.34.1,2.94-.61,2.73-3-1.33-14.58-2.34-29.19-3.78-43.75-1.37-13.94-8.6-21.55-22.4-24.3-5.39-1.08-10.83-.77-16.23-.36a63.6,63.6,0,0,0-20,4.52c-2.21.92-3.74,1.76-1.55,4.3a13.26,13.26,0,0,1,1.58,3.4c-1.64-1-1.74-2.87-2.7-4.26-.75-1.07-1.16-1.32-2-.05-1.73,2.65-3.59,5.22-5.41,7.81a2.35,2.35,0,0,0-.07,2.7c2.07,4,4.1,8,6.36,12.49,2.16-2.66,3.85-5.3,6.11-7.31,1.64-1.47,1.86-2.67,1.06-4.42,1,.59,1.24,2.3,2.88,1.73-3.09,2.51-5.14,5.88-8.09,9.31,3.59-1.15,6.44-2.4,9.42-3a152.24,152.24,0,0,1,21-2.07c4.35-.19,4.35-.19,4.52-4.26,2.08,5.12,1.87,5.48-3.35,5.7-.49,0-1,0-1.46,0-8,.26-16.11.73-23.63,3.72-8.23,3.27-12.73,8.51-12.5,17.49a69.5,69.5,0,0,0,.79,8.66c-2.11-4.74-1.42-9.69-1.12-14.82-2.35,2.07-3.8,4.13-3.42,7.51a178.16,178.16,0,0,1,1.08,21.79c0,1.69-.18,3.26,1.35,4.36,1.26.9,2.52,1.81,3.85,2.58,5.12,3,10.7,2.8,16.36,2.46,6.59-.39,11.75-3.58,16.35-7.9,1.15-1.07-.31-.69-.76-.8,1.57-.83,3.13-1.68,4.71-2.48,2.85-1.45,4.28-4.32,6.48-6.42,1.38-1.33,2.44-1.61,2.91.71-.79-.84-1.41-.55-2.09.2-1.44,1.57-2.85,3.18-4.43,4.59-3.65,3.25-3.69,3.21-1.44,7.39,1.87,3.48,1.87,3.48,5,1.75l-1,1.57c12.12,1.1,18.41-.73,23.8-7.14C584.37,153.49,579.17,152.75,574,153.66Zm63.58,5.13c-.94,1.49.28,1.23,1.05,1.24,3.39,0,6.8,0,10.19,0,6.29,0,10.62-4.31,15.68-7H648c.35-.91-.32-1.59-.53-2.38a4.39,4.39,0,0,0,4,1.76c4.65-.2,9.31-.29,14-.3,1.6,0,2-.61,1.81-2.1-.3-2.2-.45-4.43-.7-6.65q-2.84-25.38-5.69-50.77c-1.3-11.55-2.62-23.1-3.84-34.66-.19-1.81-.77-2.4-2.63-2.36-6.11.15-12.23.29-18.34.07-2.85-.11-3.45.91-3.15,3.42,1,8.63,1.86,17.29,3.54,25.82.35,1.76,1.49,4.63.44,5-1.83.74-2.87-1.91-4.16-3.19-9.54-9.54-28.81-8-35.41,5-3.57,7.07-4.31,14.59-3.9,22.31.17,3.27.71,6.53,1.09,9.79a50.42,50.42,0,0,1-1.59-18,49,49,0,0,1,3.18-14.11c-3,2.68-6,4.56-7.46,7.45-1.06,2.06.61,4.65.67,7.05a5.52,5.52,0,0,0,0,.58c.74,8.21,1.56,16.41,2.18,24.62.55,7.23.92,14.49,1.23,21.74a2.85,2.85,0,0,0,1.2,2.14c9.65,8.89,23.35,7.8,34-1.75-6.78,1.24-13.08.27-18.72-3.45-3.17-2.1-6.13-4.61-7.77-8.25,1.53,1.7,3,3.47,4.57,5.11,7.88,8.07,26.28,10.23,33.78-2.44,1.26-2.12,2.66-2,3.74.28-.89-.42-1.81-1.3-2.61.12-2.16,3.86-5.71,6.18-9.34,8.4-.54.33-1.35.65-.75,1.54a26.35,26.35,0,0,0,3.32,4.73C635.21,160.62,636.27,158.59,637.56,158.79Zm-328.77-11,.59-1.18a8.88,8.88,0,0,1,1.79,4.43c.62,3.15,2.34,4,5.33,3.71a94.05,94.05,0,0,1,11.63-.28c2.65.12,3.23-.81,3.2-3.3-.13-9.42-.2-18.84,0-28.25.29-12.42.06-24.84.14-37.27,0-1.55-.6-2-2.07-2-6.12.06-12.23.13-18.35,0-3-.08-4,1.16-3.93,4,.08,7.57.09,15.14-.1,22.71-.16,6.38-.36,12.73-2.32,19-1.86,5.9-7.77,8-12.89,7.11-2.71-.49-4.29-2.12-5.21-4.81-1.68-4.9-1.39-9.93-1.35-14.93.1-10.09.31-20.18.57-30.26.05-2-.66-2.46-2.51-2.42-6.21.12-12.43.23-18.64.06-2.45-.06-3.08.75-3.11,3.07-.12,9.31-.47,18.61-.62,27.92-.11,6.59-.83,13.18-.19,19.77,1.16,12,7.39,18.82,19,20.79,4.44.76,8.89.06,13.32-.36-9.06,2.34-17.62,1.49-25.87-4.33a21.18,21.18,0,0,0,3.59,6c8.43,9.21,26.63,8.37,35.34,1.15,2.83-2.34,4.95-5.19,2.68-9.18C308.64,148.65,308.79,148.18,308.79,147.79ZM414.38,70.27c-1-.57-.37-2.23-1.79-2.7,0,3.37-1.77,6.45-1.28,9.76.68,4.5.8,4.45,5.16,4.4,5.15,0,10.3,0,15.44-.07.92,0,2.16.41,2.55-.81.72-2.26,1.81-4.44,1.93-7.06l-4,1.1c.36-.29.69-.72,1.1-.84,4.37-1.24,5.31-4.74,5.31-8.53s-1.18-7.2-5.17-8.87a20.34,20.34,0,0,0-13.84-.47C416.06,57.25,414,60,413.61,64,413.41,66.19,414.23,68.17,414.38,70.27ZM172.73,103.73c-3.79,2.74-5.34,6.84-6,11.14-2,12.84-2.11,25.85-3,38.79,0,.86-.22,1.8.56,2.44,2.48,2.05,5,4.07,7.78,6.34.15-1,.25-1.48.28-1.95.84-11,.83-22.07,2.28-33,.61-4.62,1.36-9.23,5.14-12.55,1.22-1.07.77-1.76-.11-2.76-2.4-2.74-5.29-5.09-7-8.42,3,1.85,4.94,4.82,7.26,7.37.86,1,1.68,2.09,3.13,1.4s.88-2.2.66-3.34a18.08,18.08,0,0,0-2.07-5.89,7,7,0,0,1,3.27,4.88,38.08,38.08,0,0,1,.51,9.54c-.62,11.8-1.19,23.59-1.93,35.38-.13,2.13.68,2.36,2.43,2.33,6.68-.1,13.37-.17,20.06-.07,2,0,2.45-.83,2.5-2.56.16-5.71.24-11.43.65-17.12.67-9.22-.28-18.65,3.38-27.49,1.35-3.26,3.5-5.73,7.32-6.07,0,1-2.72.09-1.49,2,1.65,2.52,3.38,5,5.08,7.46,1.3,1.91,2.79.32,4.16.16,1.54-.19,1.29-1.41,1.09-2.49-1-5.43-3-7.07-8.92-7,4.56-1.45,8.45.48,9.77,4.87,1.13,3.76,1.09,7.63.95,11.51-.41,11.24-.79,22.48-1.31,33.71-.11,2.47.71,3.17,3.12,3.08,6.2-.24,12.41-.37,18.62-.28,2.47,0,3.08-.82,3.12-3.16.18-10.37.59-20.74.81-31.12.14-7,1-14.13-.32-21.17-1.2-6.49-4.57-11.52-10.71-14.21-8.85-3.87-24-3.24-31.9,5.43-2.11,2.32-3.29,2.14-5.58-.09a20.29,20.29,0,0,0-3.14-3c-7.74-4.88-16.08-5.12-24.62-3.11A19.84,19.84,0,0,0,166.82,92c-1.72,2.31-2.94,1.9-3.82-.89a47.1,47.1,0,0,1-1.5-4.68c-.27-1.31-.8-1.72-2.12-1.69-4.75.1-9.51.14-14.27.08-1.71,0-2.33.48-2.45,2.29q-2.16,33.09-4.52,66.16c-.15,2.07.41,2.69,2.47,2.63,6.5-.2,13-.34,19.49-.27,2.23,0,2.87-.85,3-2.83.36-7.46.7-14.92,1.23-22.36s.49-15.18,3.69-22.22c1.18-2.59,2.81-5.1,6.17-5.39C173.88,103.44,173.24,103.49,172.73,103.73Zm-133.24-.25c.69-1,1.76-.65,2.66-.65a33.62,33.62,0,0,1,13.5,2.93c1.25.55,2.42,1.08,3.3-.79,2.22-4.71,4.6-9.35,7-14,.66-1.29.29-1.75-1-2.28a54.63,54.63,0,0,0-30.49-3.39C23,87.27,13.82,92.8,7.91,103.15c-4.72,8.27-6.18,17.29-5.9,26.61.49,16.3,10.16,25.69,26.09,27.62a61.11,61.11,0,0,0,20.74-1.51c-7.66,2.92-15.59,2.57-23.87,1.75C39.14,167,58.81,168.1,73,159.43c-3.07-1.67-6-3.33-9-4.82-1.94-1-3.49-2.79-5.9-2.75,1-1.88.68-4,.92-6,.53-4.29.8-8.61,1.19-13-1.89.16-3,1.15-4.34,1.7-6.59,2.73-13.3,4.91-20.55,3.35a9.17,9.17,0,0,1-7-6.18c-2.27-6.44-1.39-12.86.77-19,.84-2.39,1.68-5.45,4.78-6.47-.77,1.08-1.6,2.14-2.3,3.27-3.52,5.7-4.06,12-3.52,18.47.29,3.5,1.58,6.87,5.5,8.1a20.84,20.84,0,0,0,6.85,1c1.93,0,2.86-.71,2.81-2.74a41.41,41.41,0,0,1,.29-5.22c1-9,6.89-18.63,18.47-16,.58.13,1.43.42,1.79-.43s-.38-1.42-1-1.89A32.27,32.27,0,0,0,39.49,103.48Zm67.64,53c-2.12,1.08-4.43,1.05-6.71,1.15a52.91,52.91,0,0,1-15.25-1c2.92,2,5.72,4.22,8.92,5.36,13,4.64,25.83,4.3,37.93-2.89,2.09-1.24,4.76-2.38,4.95-5.86.8-14.8,1.58-29.61,2.94-44.36.43-4.67-2.09-6.49-5-8.84-.75,1.42.05,2.47.36,3.5A46.15,46.15,0,0,1,131,140.9a19,19,0,0,1-7,7.56c1.54-1.83,3.23-3.56,4.59-5.51,8.23-11.76,9.86-24.71,6.26-38.36-3-11.2-11.37-17-21.9-19.51a43.45,43.45,0,0,0-23.53,1c-7.61,2.43-14,6.75-18.28,13.52-6.17,9.78-8.06,20.59-6.43,32a29.32,29.32,0,0,0,28.57,25.45A94.74,94.74,0,0,0,107.13,156.45Zm262.36-54.23c-3.32,4-4.74,8.54-4.75,14.19,2.36-3.78,5.53-6,9.28-5.59,4.24.49,4.46-1.72,4.6-4.64a9,9,0,0,1,.13-1.15c.52-3.38.11-3.9-3.24-4a17.12,17.12,0,0,0-2,.13,6.91,6.91,0,0,1,9.44,4.63c-1.13-.8-1.1-2.75-3.12-2.94-.72,2.89-.3,5.87-.41,8.8,0,.3.36.68.64.91,2.5,2,3.12,4.92,3.89,8.56.13-5,.29-9.33-.48-13.6,1.17,1.9,1.05,4,1.15,6.13.61,12.51.64,25,.55,37.54,0,2.33.81,3.05,3.06,3,6.49-.2,13-.32,19.49-.28,2.22,0,2.53-.94,2.48-2.81-.41-14-.72-27.92-1.11-41.88-.17-6.15-.94-12.18-4.51-17.46-6.32-9.37-18-10.93-28.77-8.63a20.14,20.14,0,0,0-12.54,7.75c-1.55,2.09-2.9,1.73-3.92-.69-.6-1.42-1.15-2.87-1.61-4.34a2.91,2.91,0,0,0-3.35-2.37c-4.26.19-8.54.23-12.81.09-2.08-.06-2.6.62-2.56,2.62.11,6.7,0,13.4,0,20.1q-.07,23-.19,46c0,1.67.56,2.06,2.22,2,6-.13,12-.05,18.05-.06,5.26,0,4.25,0,4.2-4.19-.15-12.11-.74-24.24.71-36.3C364.52,109.45,365,104.76,369.49,102.22Zm77.56,27.45c-1.39-1.11-1.09-2.77-1.35-4.25-1-5.81-.67-11.69-.59-17.58a1,1,0,0,0-.93.83c-.36,1.3-.83,2.58-1.08,3.91A64.26,64.26,0,0,0,445,144.44c2.32,7.24,6.26,13.06,13.47,16.12,8.22,3.47,19.47,2.39,25.49-6.25.31-.45,1.41-1,.26-1.8,2.16-2.34,4.71-4.3,6.45-7.06,1.44-2.29,2.68-1.54,3.6.54-.67-.4-1-1.07-2,0-5.78,5.95-5.88,6.33-1.25,13.08.37.54.78,1,1.19,1.6a18.48,18.48,0,0,0,6-7c.87-1.8-2.31-3.5-2.81-5.69a1.35,1.35,0,0,1,0-.29,18.91,18.91,0,0,1,1.9,2.52,5.16,5.16,0,0,0,5.58,3.06,93.12,93.12,0,0,1,11.93-.18c2.63.13,3-.9,2.86-3.16-.67-9.58-1.21-19.16-1.78-28.75Q514,90,512.18,58.77c-.08-1.43-.44-2.13-2-2.11-6.9.08-13.79.1-20.68.1-1.25,0-1.72.43-1.64,1.7.61,9.48,1,19,2.46,28.37.22,1.45,1.22,3.62-.12,4.2s-2.34-1.65-3.33-2.75c-6.47-7.19-19.95-8.94-28-3.63-7.36,4.88-11,12-12.43,20.42C445,113.3,445.85,121.5,447.05,129.67Zm-7.26-11.27h0c-.38-11.14-.78-22.27-1.09-33.41,0-1.5-.45-2-2-2q-10,.13-20.08.09c-1.79,0-2.2.51-2.14,2.35.5,15.6.87,31.2,1.24,46.8q.23,9.15.29,18.32c0,2.33.68,3.46,3.36,3.34,6.1-.25,12.22-.38,18.32-.17,3,.11,3.46-1,3.33-3.65C440.55,139.51,440.21,129,439.79,118.4ZM217,103.69c-3.67,2.77-4.8,6.51-5.38,10.31-1.9,12.47-1.3,25.13-2.42,37.65-.46,5.12,3.23,6.79,6.26,10,.22-4.71.37-8.67.59-12.63.46-8.4.26-16.85,1.7-25.18.6-3.45,1.48-6.81,4.32-9.23,1-.87,1.34-1.71.42-3C220.6,109.11,218.87,106.44,217,103.69ZM636.41,88.55c-1.89-11.12-3.19-21.38-4.15-31.83-1.69.59-2.43,1.8-3.37,2.7-5.09,4.85-11.41,9.2-8.11,17.88a3.12,3.12,0,0,1,0,.87c0,.61.16,1.11.9,1.28C627.33,80.72,632,83.62,636.41,88.55Zm-377.9,71.81c.17-1.39.32-2.24.37-3.09.83-14.82,0-29.66.67-44.5a15.81,15.81,0,0,0-3.65-11.29c.06,8.66,0,16.8-.39,24.94s-.32,16.49-.81,24.71C254.48,154.78,255.85,157.43,258.51,160.36ZM61.19,133c-.57,5.49-1.1,10.77-1.69,16a2.62,2.62,0,0,0,1.63,3c3.52,1.8,6.94,3.78,10.41,5.67.53.29,1.08.94,1.73.14.86-1.05.66-6.86-.37-7.7-4.68-3.82-7.24-9-8.91-14.58A3.3,3.3,0,0,0,61.19,133ZM414,161.59c5.76,0,11.5-.34,17.17.11,4.51.36,7-1,8.66-5.3.92-2.43.13-2.34-1.62-2.29-5.22.14-10.44-.15-15.67.25-6.67.5-6.68.4-8.6,6.68C413.94,161.12,414,161.23,414,161.59Zm-62.5-6.89h-8.15c-4.51,0-4.27,0-3.87,4.49.23,2.66,1.27,3.13,3.62,3,5-.21,10.08-.19,15.13-.23,4.85,0,4.8,0,5.06-4.93.09-1.68-.25-2.49-2.18-2.4C357.94,154.81,354.74,154.7,351.53,154.7Zm-122,.88c1.72,2.13,2.8,3.58,4,4.92.8.89,1.21,2.34,2.74,2.34,7.29,0,14.59,0,22.53,0-1.64-2.5-2.93-4.37-4.13-6.31a2.27,2.27,0,0,0-2.25-1C245.12,155.57,237.78,155.58,229.57,155.58Zm168-1.17v.19c-2.71,0-5.43,0-8.15,0-5,.11-3.57-.82-4.72,4.08-.53,2.23-.13,3.29,2.57,3.16,5.13-.24,10.28-.14,15.43-.15s5.29,0,6.69-5.13a1.36,1.36,0,0,1,.06-.29c.66-1.47,0-1.89-1.41-1.88C404.52,154.43,401,154.41,397.54,154.41ZM184.6,155.88a11.08,11.08,0,0,0,3.69,3.77c1.58,1.08,2.42,3.39,4.51,3.43,7.22.14,14.43,0,22.48,0-1.94-2.11-3.16-3.57-4.52-4.89-.87-.85-1.35-2.33-2.81-2.34C200.32,155.86,192.7,155.88,184.6,155.88Zm-13.8,7.56.31-.77a40.7,40.7,0,0,1-5.3-4.24c-1.86-2-4-2.38-6.52-2.31-5.9.16-11.8.15-17.7.25-.57,0-1.39-.39-1.7.7,2.34,1.64,4.69,3.31,7.05,5,.84.59,1.47,1.45,2.73,1.44C156.71,163.41,163.75,163.44,170.8,163.44Zm490.26-6.3c7.21,4.7,15.25,1.3,23.6-4.34-4.48-.29-8.34-1.51-11.32-4.76-.66-.72-1.18-1.93-2.6-1.26s-2.38,1.59-2,3.16c.75,2.77-.93,3.86-3,4.84C664.26,155.52,662.73,156.31,661.06,157.14ZM489.78,88.83c-1.49-10.23-1.76-19.91-2.64-29.57-1.68,2.74-3,5.5-4.38,8.23a6.29,6.29,0,0,0-.64,3.35c.21,3.47.38,6.94.57,10.41,0,.76-.16,1.57.55,2.16C485.22,85,487.19,86.68,489.78,88.83ZM332.49,162.27c-.22-1.55-.49-2.87-.56-4.21-.13-2.35-1.07-3.36-3.62-3.13-3.37.3-6.78.15-10.17.26-5.62.17-5.62.19-3.94,5.38.3.93.54,1.75,1.88,1.73C321.5,162.23,326.92,162.27,332.49,162.27Zm161-1.26H506c4.13,0,8.74-3.23,10.37-7.17H500.24a1.81,1.81,0,0,0-1.56.62C497.11,156.61,494.78,158.15,493.46,161ZM63.9,110.29c1.22-.12,1.22-1.17,1.46-1.92a44.17,44.17,0,0,1,4.76-9.83c.85-1.38,3.08-2.43,2.65-3.81s-2.44-2.29-3.72-3.45-1.93-1.08-2.71.58c-1.91,4.11-4.06,8.1-6,12.19-.46,1-1.77,2.06-.82,3A27.43,27.43,0,0,0,63.9,110.29Zm349.73,48.58c1.57-2.48,2.24-4.3,2.13-6.38-.9-16.93-1.13-33.87-1.53-50.81-.09-3.78,0-7.57,0-11.35l-1.47,0C412.12,112.91,413.94,135.46,413.63,158.87ZM287.87,132a3.14,3.14,0,0,0,.51-2.36c.19-10.77.29-21.54.56-32.3.06-2.78-.86-5.19-2-8.44-.17,1.16-.25,1.51-.26,1.86-.56,12-.68,24-.43,36.07A9.76,9.76,0,0,0,287.87,132Zm96.31,17,.3.13V126.29h-.3Z"/><path d="M308.79,147.79c-1.17-.91-1.9-.67-2.91.52-1.25,1.48-2.46,3.25-4.66,3.59a44.19,44.19,0,0,0,5.23-5.19c.62-.81,1.89-2.43,2.93-.1Z"/><path d="M623.64,100.45c-1.08,2.55-3.1,4.58-3.63,7.48-.3,1.65-.36,2.8,1.11,3.73,3.7,2.34,4.79,6.12,5.51,10.08.55,3,1.44,6.05,1.1,9.19-.17,1.55,1.07,1.68,2,1.93,5.8,1.5,10.53-2.33,10.74-8.76.1-3,0-6,0-9,1,5.08,1.3,10.21-.78,15-2,4.56-9.94,5.69-14.3,2.59-5.34-3.81-6.23-9.59-7-15.33A24.64,24.64,0,0,1,619.47,105C620.26,103,621.16,101,623.64,100.45Z"/><path d="M637.08,104c-3.79-4-8.36-5-13.56-3.48C628.77,98.1,633.77,99.39,637.08,104Z"/><path d="M490.12,105.76c3.1,4.59,2.77,9.88,2.95,15a21.22,21.22,0,0,1-1.16,8.56c-2.32,6.09-10.81,8.18-15.79,3.84a14.63,14.63,0,0,1-4.69-8.16c-1.31-6.09-1.83-12.3.51-18.29,1.05-2.68,2.62-5.16,5.91-5.66-3.06,2.4-3.79,6.15-5.86,9.43,8.88-.9,13.1,3.94,14.25,11.35a68.1,68.1,0,0,1,1,10.92c4.15-1.76,4.6-5.22,5.06-8.55A38,38,0,0,0,490.12,105.76Z"/><path d="M479.59,154.12c-10.81,3.49-23.42-2.2-27.94-12.22,3,3.89,5.81,7.85,10.47,10.08a23.09,23.09,0,0,0,14.29,2.3A24,24,0,0,1,479.59,154.12Z"/><path d="M489.61,104.6a14.81,14.81,0,0,0-9.44-4A9.18,9.18,0,0,1,489.61,104.6Z"/><path d="M565.25,125.51c.28,5.45-3,10.59-8.67,11.46-4.73.73-9-1.2-9.87-4.94-1.19-5.28,1.18-9.22,6.46-10.41a65.59,65.59,0,0,1,6.59-.86C565,120.14,565.12,120.28,565.25,125.51Zm-.54-.47c-.51-1.38.86-4.16-2.35-4.07a60.85,60.85,0,0,0-8,1,7.82,7.82,0,0,0-5.64,4.09c-.62,1-1.13,2.29-.61,3.31s1.92.4,2.9.29c2.47-.26,4.36-.1,4.46,3.19.09,2.8,1.07,3.08,3.67,2C563.37,133,564.62,129.49,564.71,125Z"/><path d="M553.62,153.54c-10.16,2.71-21.81,1.18-28.52-8.38a2.21,2.21,0,0,1-.61-1.58c4,5.68,9.15,9.46,16.16,10.39C545,154.55,549.3,153.8,553.62,153.54Z"/><path d="M561.3,100.52A11.2,11.2,0,0,0,551.7,98c-3.3.57-6.6,1.12-9.85,1.93a27,27,0,0,1,15.64-2.2A4.7,4.7,0,0,1,561.3,100.52Z"/><path d="M100.7,101.73a8.09,8.09,0,0,1,10,5.68c1.8,6.22,1.15,12.44,0,18.68-.73,4-1.9,7.91-5.12,10.73-4.49,3.92-13.46,3.69-15.5-4.53a38.58,38.58,0,0,1,2.07-24.66c1.07-2.57,2.87-5.06,6.21-5.39-.13.35-.44.93-.35,1,3.81,3,7.66,5.94,11.66,9C110.29,105.89,107.1,102.3,100.7,101.73Zm8,11.27c-3.76-3-7.45-6-11.08-9-.63-.51-1.12-.82-1.69-.13-.92,1.11-2.15,1.92-2.79,3.29C90,113.84,89.45,121,90,128.12c.19,2.69.68,5.57,2.87,7.71,1.42,1.39,5.79,2.56,7.83,1.78,2.49-1,1.28-3.16,1.39-4.8C102.55,125.64,102.8,118.43,108.73,113Z"/><path d="M432.46,74.81a19,19,0,0,1-15.65-1.34c-1.21-.62-1.91-2-2.52-3.34,4.08,4.81,9.35,5.84,15.28,4.84A25.32,25.32,0,0,1,432.46,74.81Z"/><path d="M696.31,139.87a11.15,11.15,0,0,1-4.07,8.95,11.73,11.73,0,0,1-8.54,2.44c-6.06-.58-13.49-6.1-12.61-13,.72-5.74,6.82-9.85,12.61-9.77C690.13,128.57,696,133.85,696.31,139.87Z"/></g></g></svg>