<svg xmlns="http://www.w3.org/2000/svg" viewBox="0 0 175 175"><defs><style>.cls-1{fill:#f69312;}.cls-2{fill:#2b2b2b;}</style></defs><g id="Layer_2" data-name="Layer 2"><g id="Layer_1-2" data-name="Layer 1"><circle class="cls-1" cx="87.5" cy="87.5" r="87.5"/><path class="cls-2" d="M76.41,112.13h1.43c7.79,0,15.57,0,23.36,0a7.32,7.32,0,0,1,2.35,14.27,9.78,9.78,0,0,1-2.86.39q-10.05,0-20.1,0c-.36,0-.72,0-1.09,0-1.33.09-2.17.88-2.12,2s.84,1.79,2.16,1.81q8.71.12,17.43.2a7.36,7.36,0,1,1,0,14.71c-5.08,0-10.17,0-15.25,0-1.75,0-2.87-.75-3.19-2-.46-1.89.8-3.41,3-3.45s4.44,0,6.66,0h8.59c1.38,0,2.24-.72,2.28-1.82s-.84-2-2.26-2c-5.73-.07-11.46-.08-17.19-.14a7.51,7.51,0,0,1-7.31-5,7.35,7.35,0,0,1,6.81-9.79c2.5-.07,5,0,7.5,0h13.8a6,6,0,0,0,1.2-.1,1.75,1.75,0,0,0,1.48-1.92,1.8,1.8,0,0,0-1.68-1.77,5.63,5.63,0,0,0-1.09,0H76.71c-3.88,0-5.89-2-5.9-5.88,0-.29,0-.57,0-.85a6.79,6.79,0,0,0-3.15-6.38,32.66,32.66,0,0,1-11.23-15,33.09,33.09,0,0,1,54.44-34.78c11.85,11.5,13.07,31.24,2.6,44a54.9,54.9,0,0,1-6.12,6c-1.64,1.46-3.33,1.37-4.36.06s-.75-3,1.1-4.42A27.63,27.63,0,0,0,90.42,50.7c-14.11-1.36-26.59,7.26-29.78,21-2.59,11.21.91,20.63,9.77,27.93,2.63,2.17,5,4.38,5.6,7.87C76.27,109,76.28,110.5,76.41,112.13Z"/><path class="cls-2" d="M129.72,80.5c-1.33,0-2.66,0-4,0-1.57,0-2.61-1-2.6-2.27A2.32,2.32,0,0,1,125.65,76c2.77,0,5.55-.06,8.33,0a2.24,2.24,0,0,1,2.45,2.26c0,1.34-1,2.21-2.61,2.24C132.45,80.52,131.08,80.5,129.72,80.5Z"/><path class="cls-2" d="M89.68,36.07c0,1.33,0,2.66,0,4a2.26,2.26,0,0,1-2.16,2.44,2.17,2.17,0,0,1-2.31-2.26q-.12-4.29,0-8.58a2.16,2.16,0,0,1,2.32-2.26,2.24,2.24,0,0,1,2.15,2.44C89.71,33.25,89.68,34.66,89.68,36.07Z"/><path class="cls-2" d="M45.06,80.5c-1.29,0-2.58,0-3.87,0-1.61,0-2.6-.89-2.62-2.23A2.25,2.25,0,0,1,41,76q4.11-.09,8.21,0a2.25,2.25,0,0,1,2.45,2.27,2.28,2.28,0,0,1-2.51,2.22C47.8,80.53,46.43,80.5,45.06,80.5Z"/><path class="cls-2" d="M120.64,42.68c.64.52,1.56.92,1.78,1.56a3,3,0,0,1-.34,2.41,28.39,28.39,0,0,1-3,3.26c-1,1-1.88,2-2.87,2.93a2.24,2.24,0,1,1-3.22-3.1q2.9-3.08,5.91-6A8.62,8.62,0,0,1,120.64,42.68Z"/><path class="cls-2" d="M62.81,51c0,2.09-1.8,3.16-3.27,2.34a4.78,4.78,0,0,1-.93-.75c-1.81-1.84-3.61-3.68-5.4-5.54-1.15-1.2-1.23-2.59-.24-3.52s2.3-.78,3.43.36c1.84,1.85,3.68,3.72,5.47,5.63A7.51,7.51,0,0,1,62.81,51Z"/></g></g></svg>