<svg xmlns="http://www.w3.org/2000/svg" viewBox="0 0 23.53 22.72"><defs><style>.cls-1{fill:#fff;}.cls-2{fill:#447271;}</style></defs><g id="Layer_2" data-name="Layer 2"><g id="Layer_1-2" data-name="Layer 1"><ellipse class="cls-1" cx="11.28" cy="12.24" rx="9.86" ry="10.41"/><path class="cls-2" d="M0,12V10.7c0-.07,0-.14,0-.21A21.39,21.39,0,0,1,.43,8.37,11.8,11.8,0,0,1,15.24.51a11.25,11.25,0,0,1,.07,21.68c-.67.22-1.39.33-2.1.49V13.73H16l.43-3.17H13V8.36c0-.14,0-.29,0-.43a1.22,1.22,0,0,1,1.33-1.26c.58,0,1.15,0,1.73,0l.25,0c0-.93,0-1.83,0-2.74a.23.23,0,0,0-.15-.15c-.92,0-1.85-.11-2.76-.09A3.75,3.75,0,0,0,11,4.54,3.88,3.88,0,0,0,9.7,7.43c0,.86,0,1.72,0,2.59v.54H6.87v3.17H9.51v9H9.44a11,11,0,0,1-4-1.59,11.28,11.28,0,0,1-2.9-2.61,11.55,11.55,0,0,1-2.31-5.2C.1,12.88.06,12.43,0,12Z"/></g></g></svg>