<svg xmlns="http://www.w3.org/2000/svg" viewBox="0 0 133.89 133.67"><defs><style>.cls-1{fill:#447271;}</style></defs><g id="Layer_2" data-name="Layer 2"><g id="Layer_1-2" data-name="Layer 1"><path class="cls-1" d="M133.89,20.66c-1,2.26-2.84,3-5.27,2.91-4.58-.13-9.15,0-13.73,0-3,0-4.52-1.52-4.54-4.48V15.59H94.44c2.17,1.9,4.39,3.48,6.39,5.3a50.35,50.35,0,0,1,16.84,33.56,1.89,1.89,0,0,0,1.3,1.81,11.58,11.58,0,0,1,6.72,11.64,11.71,11.71,0,0,1-21.93,4.59A11.59,11.59,0,0,1,109,56.27a1.24,1.24,0,0,0,.82-1.49,42.61,42.61,0,0,0-7.59-20.41A43.09,43.09,0,0,0,77.53,17c-2.36,4.1-5.82,6.49-10.6,6.48S58.76,21.15,56.39,17a40.47,40.47,0,0,0-12.8,5.65A43.47,43.47,0,0,0,25.19,48.4c-.56,2.08-.76,4.27-1.15,6.4-.14.77.13,1.13.84,1.48a11.68,11.68,0,0,1,.47,20.91c-5.86,3.2-13,.76-16.13-5.42a11.66,11.66,0,0,1,5.6-15.45,2.13,2.13,0,0,0,1.41-2A50.57,50.57,0,0,1,33,20.85a25,25,0,0,1,6.35-4.33H23.54c0,.27,0,1.33,0,2.4,0,3.13-1.5,4.6-4.66,4.61-4.54,0-9.07-.09-13.6,0C2.84,23.63,1,22.92,0,20.66V2.91C1,.65,2.84-.06,5.27,0,9.84.13,14.41,0,19,0c3,0,4.53,1.52,4.54,4.59,0,1.07,0,2.13,0,3.24,10.65,0,21.1,0,31.55,0,.85,0,.95-.53,1.22-1.06C58.52,2.48,62.08.09,66.94.09A11.21,11.21,0,0,1,77.55,6.84a1.55,1.55,0,0,0,1.64,1q15,0,30.05,0c.33,0,.67,0,1.11,0V4.63c0-3.07,1.5-4.58,4.55-4.59,4.58,0,9.15.09,13.72,0,2.43-.06,4.22.65,5.27,2.91ZM8.37,8.15v7.44h7.44V8.15Zm109.71,7.44h7.44V8.15h-7.44ZM67,7.88a3.91,3.91,0,1,0,3.9,3.92A3.95,3.95,0,0,0,67,7.88ZM19.85,63a3.91,3.91,0,1,0,3.94,3.88A3.95,3.95,0,0,0,19.85,63Zm94.2,7.81a3.91,3.91,0,1,0-4-3.87A3.95,3.95,0,0,0,114.05,70.76Z"/><path class="cls-1" d="M42.36,133.67c-2.93-1.77-3.41-3.12-2.53-7.59A19.2,19.2,0,0,1,46,115.14a2.18,2.18,0,0,0,.78-2.26A49.69,49.69,0,0,0,33.52,86.07c-2.35-2.49-2.45-3.88-.57-6.69L63.17,34.14c2.26-3.38,5.29-3.38,7.55,0l30.15,45.13c2,3,1.88,4.27-.59,6.89a49.79,49.79,0,0,0-13.16,26.72,2.2,2.2,0,0,0,.79,2.26,19.85,19.85,0,0,1,6.45,13c.28,2.52-.44,4.42-2.83,5.52ZM93.54,82.1,71.2,48.67c-.26,1.2-.17-.33.86,4.55a33.28,33.28,0,0,1-.78,16.19c-.59,2,0,2.13.81,2.48a11.7,11.7,0,0,1-6,22.28c-5.5-.67-9.78-4.54-10.53-9.52-.83-5.59,1.71-10.54,6.65-12.76a1.4,1.4,0,0,0,1-1.54c0-6.88,0-13.75,0-20.62V48.9L63,48.84,40.75,82.11a57.55,57.55,0,0,1,13.74,28.17,191,191,0,0,1,25.32,0A57.62,57.62,0,0,1,93.54,82.1Zm-7.79,44.13a11.36,11.36,0,0,0-10-7.92c-5.83-.22-11.68-.22-17.51,0a11.22,11.22,0,0,0-10,7.93ZM70.86,82.48A3.92,3.92,0,1,0,67,86.42,3.95,3.95,0,0,0,70.86,82.48Z"/></g></g></svg>