<svg xmlns="http://www.w3.org/2000/svg" viewBox="0 0 448 448"><defs><style>.cls-1{fill:#fff;}.cls-2{fill:#515151;}.cls-3{fill:#f69312;}.cls-4{fill:none;stroke:#515151;stroke-miterlimit:10;stroke-width:9px;}</style></defs><g id="Layer_2" data-name="Layer 2"><g id="Layer_1-2" data-name="Layer 1"><rect class="cls-1" width="448" height="448"/><path class="cls-2" d="M336.54,280.63c-.32,1.08-.62,2.17-1,3.24a18.69,18.69,0,0,1-17.92,12.91c-23.68.12-47.36.06-71,0-3.06,0-4.92-1.76-5-4.45,0-2.46,1.82-4.23,4.88-4.27,7.15-.08,14.3,0,21.45,0h48.29c7.63,0,11.62-4,11.62-11.64q0-48.83,0-97.64c0-5.07-2.38-8.82-6.55-10.38a13.77,13.77,0,0,0-4-.66q-36,0-72,0c-.49,0-1,.05-1.67.1-.41,5.64-2.71,10.3-7.39,13.58a16.25,16.25,0,0,1-10.31,3c-7-.34-15.2-5.22-16.25-16.59-.74,0-1.5-.09-2.26-.09q-35.41,0-70.82,0c-7.52,0-11.69,4.74-11.07,12.76,2.4,31.49,2.88,63.07,0,94.52-.74,8.18,3.45,13,11.09,13.05q34.13,0,68.24,0a23.09,23.09,0,0,1,3,.13,4.2,4.2,0,0,1,3.83,3.95,4.37,4.37,0,0,1-3.7,4.56,12.69,12.69,0,0,1-2.14.12q-34.55,0-69.09,0c-12,0-20-8.09-20-20.13q0-48.83,0-97.64c0-12.14,7.95-20.05,20.23-20.06q35,0,69.95,0h2.94c0-3.18,0-6.1,0-9a16.76,16.76,0,0,1,15.88-16.81c8.4-.65,16.14,5.7,17.47,14.42a30.58,30.58,0,0,1,.16,4.07c0,2.35,0,4.7,0,7.34h2.89q35,0,70,0c8.75,0,15.11,3.66,18.79,11.67a41.5,41.5,0,0,1,1.48,4.41ZM218.62,158.4c0,2.86,0,5.71,0,8.57a8,8,0,1,0,16.07,0c.05-5.71.06-11.42,0-17.13a7.9,7.9,0,0,0-8-8.18c-4.59,0-8,3.43-8,8.21C218.58,152.69,218.62,155.55,218.62,158.4Z"/><path class="cls-2" d="M137.46,229.72q0-15.66,0-31.32c0-6.9,3.37-10.29,10.27-10.29q28.31,0,56.63,0c6.86,0,10.24,3.42,10.24,10.32q0,31.32,0,62.63c0,6.88-3.39,10.26-10.27,10.26H147.49c-6.58,0-10-3.45-10-10.07Q137.44,245.49,137.46,229.72Zm68.32-32.87H146.47v54.07c2.44-2,4.62-4.09,7.07-5.78s5.26-3.09,7.91-4.61c-7.1-11.41-6.63-21,1.41-28.27A19.81,19.81,0,0,1,191,240.09l14.81,10.39ZM202,262.59c-4.39-9.75-16.83-15.89-29.62-14.9-8.73.68-20.43,8.5-22.13,14.9Zm-26-24.31a11.05,11.05,0,1,0-11.05-11.06A11.1,11.1,0,0,0,176,238.28Z"/><path class="cls-2" d="M276.66,218.23H245.57a23.17,23.17,0,0,1-2.36-.07,4.32,4.32,0,0,1-.75-8.5,7.84,7.84,0,0,1,2.11-.21h64.55c2.84,0,4.63,1.17,5.14,3.28a4.24,4.24,0,0,1-3.93,5.43c-2.49.15-5,.08-7.5.08Z"/><path class="cls-2" d="M276.94,227.79H308c.71,0,1.43,0,2.14,0a4.23,4.23,0,0,1,4.2,4.25,4.3,4.3,0,0,1-4,4.45,17.66,17.66,0,0,1-1.93,0H245.15c-.57,0-1.14,0-1.71,0a4.51,4.51,0,0,1-4.27-4.52,4.39,4.39,0,0,1,4.32-4.2c1.43-.07,2.86,0,4.29,0Z"/><path class="cls-2" d="M277.09,246c6.64,0,13.29,0,19.93,0a9.7,9.7,0,0,1,3,.35,4.31,4.31,0,0,1-.33,8.26,12,12,0,0,1-2.76.26H256.82c-4,0-6.11-1.54-6.14-4.4s2.17-4.48,6.06-4.49Z"/><path class="cls-2" d="M226.67,287.83a4.26,4.26,0,0,1,4.32,4.11,4.33,4.33,0,1,1-8.66,0A4.26,4.26,0,0,1,226.67,287.83Z"/><path class="cls-3" d="M218.62,158.4c0-2.85,0-5.71,0-8.56.07-4.78,3.44-8.21,8-8.21a7.9,7.9,0,0,1,8,8.18c.06,5.71.05,11.42,0,17.13a8,8,0,1,1-16.07,0C218.58,164.11,218.62,161.26,218.62,158.4Z"/><path class="cls-3" d="M205.78,196.85v53.63L191,240.09a19.69,19.69,0,0,0,3.94-19.42,16.52,16.52,0,0,0-1.5-3.42,19.86,19.86,0,0,0-30.53-5c-8.06,7.22-8.53,16.86-1.43,28.28-2.65,1.52-5.4,2.88-7.91,4.61s-4.63,3.76-7.07,5.78V196.85Z"/><path class="cls-1" d="M202,262.59H150.22c1.7-6.4,13.4-14.22,22.13-14.9C185.14,246.7,197.58,252.84,202,262.59Z"/><path class="cls-1" d="M176,238.28a11.05,11.05,0,1,1,11.17-10.93A11.13,11.13,0,0,1,176,238.28Z"/><polyline class="cls-4" points="365.48 187.91 365.48 125.75 307.6 125.75"/><polyline class="cls-4" points="82.52 187.91 82.52 125.75 140.4 125.75"/><polyline class="cls-4" points="365.48 260.08 365.48 322.25 307.6 322.25"/><polyline class="cls-4" points="82.52 260.08 82.52 322.25 140.4 322.25"/></g></g></svg>