<svg xmlns="http://www.w3.org/2000/svg" viewBox="0 0 24 24"><defs><style>.cls-1{fill:#447271;}.cls-2{fill:#fff;}</style></defs><g id="Layer_2" data-name="Layer 2"><g id="Layer_1-2" data-name="Layer 1"><circle class="cls-1" cx="12" cy="12" r="12"/><path class="cls-2" d="M8.42,4.65h7.17c.15,0,.3,0,.45.08a4,4,0,0,1,3.18,3c.06.22.08.44.12.66v7.17c0,.05,0,.1,0,.15A7.2,7.2,0,0,1,19,16.88a3.92,3.92,0,0,1-3.74,2.45c-2.18,0-4.36,0-6.54,0a3.88,3.88,0,0,1-2.31-.72,4,4,0,0,1-1.76-3.41c0-2.14,0-4.29,0-6.43A3.74,3.74,0,0,1,4.74,8a4,4,0,0,1,3-3.19C8,4.71,8.2,4.69,8.42,4.65ZM6,12v3.18a2.8,2.8,0,0,0,.15,1A2.75,2.75,0,0,0,8.79,18h6.42a3.15,3.15,0,0,0,1-.15A2.71,2.71,0,0,0,18,15.2c0-2.14,0-4.27,0-6.41a3.5,3.5,0,0,0-.15-1A2.72,2.72,0,0,0,15.22,6H8.79A2.72,2.72,0,0,0,6.47,7.12,2.76,2.76,0,0,0,6,8.8Z"/><path class="cls-2" d="M12,15.78A3.79,3.79,0,1,1,15.79,12,3.8,3.8,0,0,1,12,15.78ZM14.48,12A2.48,2.48,0,1,0,12,14.47,2.48,2.48,0,0,0,14.48,12Z"/><path class="cls-2" d="M15.94,7.11a1,1,0,0,1,1,1,1,1,0,1,1-1-1Z"/></g></g></svg>