<svg xmlns="http://www.w3.org/2000/svg" viewBox="0 0 582.32 409.01"><defs><style>.cls-1{isolation:isolate;}.cls-2{mix-blend-mode:multiply;opacity:0.5;}.cls-3{fill:#b3b3b3;}.cls-4{fill:#720909;}.cls-5{fill:#353535;}.cls-6{fill:#727171;}.cls-7{fill:#491e1e;}.cls-8{fill:#cc8912;}.cls-9{fill:#2d2d2d;}.cls-10{fill:#603131;}.cls-11{fill:#7c7c7b;}.cls-12{fill:#fff;}</style></defs><g class="cls-1"><g id="Layer_2" data-name="Layer 2"><g id="Layer_1-2" data-name="Layer 1"><g class="cls-2"><path d="M416,176.17l-.8,3.29c-.26.54-.57,1.09-.89,1.63.32-.54.63-1.09.89-1.63Z"/><path d="M292.55,210.23l3.67-.81c15-2.44,19.91.71,25.77,14.36,3.06,7.1,4.7,14.85,11.23,20.58,7.34,6.42,15.09,7.15,23.62,5,8.72-2.15,17.29-4.94,26.5-7.62-.17,5.64.09,10.73-.69,15.63l0-.13c.81-5,.54-10.09.72-15.8-9.22,2.68-17.79,5.47-26.51,7.62-8.53,2.1-16.28,1.38-23.62-5.05-6.53-5.73-8.17-13.48-11.22-20.58-5.85-13.61-10.76-16.78-25.68-14.37a2.29,2.29,0,0,0-.16.31Z"/><path d="M416,176.17l.81-3.39C416.53,173.94,416.25,175.06,416,176.17Z"/><path d="M297.67,206.86c.21-.65,0-1.24-1.48-1.66l-.54.17C297.27,205.74,297.72,206.26,297.67,206.86Z"/><path d="M310.81,147.93c-.4,13-.81,25.94-1.21,38.7.74.39,1.11.76,1.39.7,12.72-2.47,15.48-.64,18.4,12.34,2.57,11.41,4.71,22.93,7.88,34.17,1.4,4.94,4.74,9.33,7.11,13.62l.26.07c-2.37-4.4-5.87-8.9-7.3-14-3.18-11.23-5.31-22.76-7.88-34.17-2.93-13-5.68-14.81-18.41-12.34-.28.06-.64-.31-1.39-.69.4-12.77.81-25.74,1.21-38.7-7.8-.17-10.13,0-10.94,4C300.8,148,303.21,147.77,310.81,147.93Z"/><path d="M85,350a6.26,6.26,0,0,0,2.06-1.88c3-5.1,8-6.49,13.11-7.86q51.15-13.82,102.32-27.61c45.22-12.23,90.49-24.29,135.62-36.84,21.63-6,43-13,64.46-19.55a15.42,15.42,0,0,0,4.69-2c7.58-5.6,13.74-2.89,19.7,2.73l.87-.24c-6.17-6.06-12.52-9.19-20.38-3.38a15.67,15.67,0,0,1-4.69,2C381.33,262,360,268.94,338.34,275c-45.13,12.55-90.4,24.61-135.62,36.84q-51.15,13.84-102.32,27.6c-5.09,1.38-10.14,2.77-13.11,7.87-.74,1.26-2.38,2-3.66,3l0,.09Z"/><path d="M521.67,129.74a5.29,5.29,0,0,1,.54,0A5.29,5.29,0,0,0,521.67,129.74Z"/><path d="M122.77,342.84q65.28-17.77,130.52-35.67c32.43-8.9,64.81-17.94,97.24-26.81,7.58-2.07,15.27-3.71,22.91-5.55l33-9,10.86-2-10.86,2L430.91,258a16,16,0,0,1-.11,5.66,16,16,0,0,0,.18-6l-24.44,7.77-33,9c-7.64,1.84-15.34,3.48-22.92,5.56-32.43,8.86-64.81,17.9-97.23,26.8q-65.25,17.89-130.53,35.67c-15.66,4.27-31.38,8.36-47.07,12.53l-.9.51C90.83,351.34,106.83,347.18,122.77,342.84Z"/><path d="M12.3,368.24c1-.65,2-1.27,3.07-1.92-1,.65-2.06,1.27-3.07,1.92Z"/><path d="M98.59,321.66A56.26,56.26,0,0,1,95.28,332c-.87,2.06-1.5,4.21-2.51,7.07h0c.94-2.7,1.56-4.78,2.39-6.76A55,55,0,0,0,98.59,321.66Z"/><path d="M413.5,274.4l-.29.09Z"/><path d="M224.77,182.4h0a1.77,1.77,0,0,0,0,.23h0A1.77,1.77,0,0,1,224.77,182.4Z"/><path d="M530.82,141.39c-.1,3.34-.09,6.51-.33,9.65-.27,3.36-.78,6.69-1.17,9.94l11.91,7C546.13,150.33,544.55,146.15,530.82,141.39Z"/><path d="M63.44,358.43A8.23,8.23,0,0,0,63,360a7.37,7.37,0,0,1,.5-1.55Z"/><path d="M96.71,321.84c1.55-7.46.45-15-1.64-22.58-.1-.17-.18-.34-.28-.5C97,306.48,98.22,314.21,96.71,321.84Z"/><path d="M284.06,136.37c1.69-.51,3.3-1.41,5-2.1l12.43-2.11L289,134.27c-12.54,2.41-25.13,4.55-37.61,7.26,12.48-2.71,25.07-4.85,37.6-7.26A53.18,53.18,0,0,1,284.06,136.37Z"/><path d="M481.78,196.27c-.23.17-.48.34-.73.5.25-.16.5-.33.73-.5Z"/><path d="M224.92,184.45h0c.24,2.18.65,4.52.09,5.91C225.57,189,225.16,186.63,224.92,184.45Z"/><path d="M43.42,334.46l.84.07c-10.43-5.29-19.62-3.84-28.82-1.63-.06.1-.1.23-.15.32C24.29,331.05,33.28,329.61,43.42,334.46Z"/><path d="M409,275.63l.1,0-.1,0Z"/><path d="M54.19,248.44q27.18-6.45,54.38-12.83c2.46-.58,3.94-1.54,4.42-3.67-.55,1.93-2,2.82-4.36,3.37q-27.21,6.36-54.38,12.83L0,261v.29Q27.09,254.84,54.19,248.44Z"/><path d="M217.75,176.05c2.46,2,4.69,4.21,7,6.35h0C222.45,180.26,220.21,178,217.75,176.05Z"/><path d="M126,220.94c0,1.7.24,3.41.12,5.1-.29,4.29,1.31,5,5.44,4,24.67-6,49.43-11.72,74.14-17.59,29.08-6.91,58.12-14,87.27-20.7,3.54-.81,5-2.19,5.45-4.69-.53,2.31-2,3.61-5.39,4.39-29.14,6.67-58.18,13.79-87.27,20.7-24.71,5.87-49.46,11.57-74.14,17.59-4.13,1-5.73.25-5.44-4,.12-1.69-.1-3.41-.12-5.11-.17-10.7-.32-21.4-.49-32.56l-13.09,3a2.62,2.62,0,0,1,0,.28l13-3C125.69,199.53,125.84,210.24,126,220.94Z"/><path d="M433.34,174.33l-2.45.42,2.45-.42L445.26,171Z"/><path d="M.87,341.48c1.76-1.37,3.5-2.76,5.24-4.15L5,338C3.65,339,2.3,340.12.93,341.19c-.32.24-.62.5-.93.75v.25Z"/><polygon points="224.77 182.4 224.77 182.4 224.77 182.4 224.77 182.41 224.77 182.4"/><path d="M573.17,179.65c1.78-13.59,4.25-27.09,6.11-40.68.26-1.9-1-4.27-2.16-6-.49-.7-3.35-.8-4-.11a8.49,8.49,0,0,0-1.9,4.95c-.63,10.37-1,20.75-1.57,32.31-6.16-4.45-11-7.64-15.43-11.33a9.6,9.6,0,0,1-3-5.88c-.57-5.68-1.76-10.74-7.13-13.9-13.47-7.91-28.27-13.53-40.17-24.21a65.94,65.94,0,0,0-16-10.11c-6.2-2.9-12.83-5.73-19.52-6.53-7.31-.89-10.9-3.21-10-10.25.33-2.59,1.47-5.09,1.63-7.67a7.82,7.82,0,0,0-1.56-5.07c-.64-.78-3.67-.9-4-.31A10.34,10.34,0,0,0,453.3,80c-.08,3.74.09,7.5.14,10.3l-21.68-.68c-1.09-4.46-1.8-9-3.38-13.18-.89-2.39-2.78-5.11-4.95-6.2Q372.84,44.79,322,19.77c-3.29-1.63-6.74-2.93-11-4.77.13,4,.22,6.81.33,10.29-2.3-1.14-4-1.87-5.6-2.79a32.2,32.2,0,0,0-22.86-3.93c-37.51,6.9-75.08,13.51-112.63,20.15Q85.14,53.78,0,68.76v4.17q53.13-9.37,106.26-18.74,81.94-14.47,163.89-29c5-.89,10.1-1.54,15-2.85,7.57-2,13.15,2.64,19,5.53,20.13,9.9,40,20.32,60,30.51C374.75,63.73,385.34,69,397.35,75.1c-28.05,5.75-54.46,11.14-80.86,16.57Q215.83,112.34,115.16,133,57.59,144.85,0,156.58V159q50.73-10.42,101.46-20.86Q194.7,119,287.94,99.93q55-11.25,110-22.37c12.17-2.46,22.2,4.39,24.66,16.63,1.41,7-.26,9.77-7,11.84a14.05,14.05,0,0,0-1.42.5c-1.41.54-2.78,1.22-4.17,1.8l3.69.12c-4.17,2.26-9.79,2-10.4,8.34-8.36.94-3.47,3.86-.75,7.09L0,213.63v2.92l108.56-24.22c-1.42,6.74,3.59,14.44-5.76,18l5.88-.89c.1,2.56.17,4.55.26,6.93L0,241.58V244L108.45,218.8c1.89,12,1.93,12.21-8.31,14.65Q50.08,245.38,0,257.21V261l54.25-12.84q27.18-6.45,54.38-12.83c2.35-.55,3.81-1.44,4.36-3.37a8.46,8.46,0,0,0,.17-2.11c-.45-12.65-.51-25.31-.73-38.47l.07,0a2.62,2.62,0,0,0,0-.28l13.09-3c.17,11.16.32,21.86.49,32.56,0,1.7.24,3.42.12,5.11-.29,4.28,1.31,5,5.44,4,24.68-6,49.43-11.72,74.14-17.59,29.09-6.91,58.13-14,87.27-20.7,3.4-.78,4.86-2.08,5.39-4.39a13.22,13.22,0,0,0,.21-2.57c0-8.91.49-17.81.76-26.71a34.89,34.89,0,0,1,.53-6.17c.81-4,3.14-4.18,10.94-4-.4,13-.81,25.93-1.21,38.7.75.38,1.11.75,1.39.69,12.73-2.47,15.48-.63,18.41,12.34,2.57,11.41,4.7,22.94,7.88,34.17,1.43,5.09,4.93,9.59,7.3,14l-.26-.07.2.37c-5.3-1.36-11.86-2.83-14.87-10.37-2.95-7.37-5.77-14.8-9.13-22-4.58-9.79-14.33-13.68-24.39-10.28,1.44.42,1.69,1,1.48,1.66s-.84,1.49-1.29,2.25c14.92-2.41,19.83.76,25.68,14.37,3.05,7.1,4.69,14.85,11.22,20.58,7.34,6.43,15.09,7.15,23.62,5.05,8.72-2.15,17.29-4.94,26.51-7.62-.18,5.71.09,10.84-.72,15.8l0,.13c0,.06,0,.11,0,.16-.31,1.89-2.84,4.34-4.82,4.89C336.65,273.85,295.42,285,254.2,296.19l-101.31,27.5q-27.48,7.46-55,14.93c-1.25.33-2.57.37-5.21.73l.11-.3h0c1-2.86,1.64-5,2.51-7.07a56.26,56.26,0,0,0,3.31-10.33,30.76,30.76,0,0,0-3.52-22.4c2.09,7.55,3.19,15.12,1.64,22.58a32.76,32.76,0,0,1-2.54,7.74c-3.29,7-7,13.77-10.54,20.64,1.28-1,2.92-1.7,3.66-3,3-5.1,8-6.49,13.11-7.87q51.15-13.81,102.32-27.6c45.22-12.23,90.49-24.29,135.62-36.84,21.63-6,43-13,64.46-19.55a15.67,15.67,0,0,0,4.69-2c7.86-5.81,14.21-2.68,20.38,3.38L427,257l.68.65c-21.56,6-43,12.07-64.42,18-32.61,9-65.25,17.75-97.86,26.67q-83.91,23-167.8,45.95c-4.68,1.28-9.52,2-14.28,3h0c.54-.42,1.15-.8,1.74-1.19l-1.46.28c0,.11-.11.21-.16.31h0l-7.68,4.44c15.69-4.17,31.41-8.26,47.07-12.53q65.28-17.78,130.53-35.67c32.42-8.9,64.8-17.94,97.23-26.8,7.58-2.08,15.28-3.72,22.92-5.56l33-9L431,257.72a16,16,0,0,1-.18,6c-1.15,5.54-5.43,9.77-11.86,11.64-10.85,3.16-21.75,6.19-32.64,9.24q-59.9,16.77-119.79,33.52C206.25,335,146,352,85.71,368.73a38.45,38.45,0,0,1-16,1A8.09,8.09,0,0,1,63,360a8.23,8.23,0,0,1,.46-1.59c-.68-.68-1.79-1.29-1.94-2.08-4.35-23-27.47-31.18-45.93-23.61a.3.3,0,0,0-.13.16c9.2-2.21,18.39-3.66,28.82,1.63l-.84-.07c.26.12.51.23.77.37C25.61,333,11.1,337,0,346.29V364.7l3.84-.27L5,371l-1,1.33L0,369.49v3.62a14.06,14.06,0,0,0,8.09.63c6.92-1.1,13.3-7.6,14.57-14.83s-.75-10.26-9.25-14.72c11.57-3.35,20.3,3.95,18.8,15.72-1.53,11.95-11.7,22-23.59,23.23a19.34,19.34,0,0,1-8.62-.8v4a21.29,21.29,0,0,0,9.69.54c13-2,21.54-9.7,25.48-22,3.21-10.06.26-16.15-11.21-25.61,10.95-.14,16.21,10,16.73,18.5,1.13,18.45-19.41,36.64-37.49,33.45a23.05,23.05,0,0,1-3.2-.82V395a31.11,31.11,0,0,0,4.74.52c23.13.72,44-24.12,38.43-46.24-1-4-4.06-7.52-6.11-11.17,8.88-1.66,18,5.61,18.44,14.82,1,20.95-14.13,40.32-31.56,48.54-7.8,3.68-15.82,5.74-23.94,5v2.48c8.79.56,18-2,27.19-6.91,18-9.56,28.47-24.89,31-46.85,3.6,16.19,10.66,20.61,24.85,16.66q62.9-17.5,125.75-35.15C278.53,317.19,348.26,297.8,417.88,278a24.65,24.65,0,0,0,12.59-8.72c7.13-10.16,17.44-14,28.49-16.92a4.41,4.41,0,0,1,3.06.78c6.13,4,12.15,8.19,18.3,12.16a24.48,24.48,0,0,0,23.87,2c19.05-8.09,29.34-23.3,32.27-43.2,1.07-7.28-.82-15-1.33-22.1,8.06,4.41,17.14,9,25.79,14.26,4.42,2.68,7.42,1.6,11-1.14,3.87-2.95,0-4.23-.83-6.29-.41-.94-.06-2.23,0-3.36C571.77,196.87,572.05,188.21,573.17,179.65ZM288.46,154.32c-4.37,8.85-7.7,9.21-16.72,1.79C283.77,152.33,284.8,152.22,288.46,154.32ZM210.6,207.26q-39,9.31-78,18.49c-1.06.25-2.14.4-4.13.76-.07-4.26-.14-8.08-.21-12.31L219.76,193a7.53,7.53,0,0,1,.61,2C220,207.15,221.76,204.59,210.6,207.26Zm82.63-19.69-71.1,16.88c0-5-1.64-9.19,2.45-13.4a2.18,2.18,0,0,0,.43-.69c.56-1.39.15-3.73-.09-5.91a5.89,5.89,0,0,1-3.91,6,14.53,14.53,0,0,1-2.67.83c-29,6.4-57.86,13.2-86.78,19.84-.88.2-1.78.25-4,.55,1-3.2,1.7-5.69,2.44-8.19-.92-5-1.83-10-2.8-15.21,23.38-5.24,45.8-9.33,67.63-15.54,11.68-3.32,18.74,1.76,26.78,8.14l-4.55,2.31-4.28,2.17,12-2.67a1.77,1.77,0,0,1,0-.23c-2.33-2.14-4.56-4.38-7-6.35s-5.15-3.68-8.58-6.08c14-3.17,27.31-5.5,40.17-9.31,9.28-2.74,16.89-1.84,24.41,4.18a85.87,85.87,0,0,0,14.3,9C293.88,176.82,295.65,181,293.23,187.57Zm.39-11.88-27.4-17.32.94-1.49,27.43,17.27C294.26,174.66,293.94,175.17,293.62,175.69Zm.88-4.87-10.77-6.48,11.42-14.49C294.92,157.31,294.73,163.44,294.5,170.82ZM3,363.42C3,360.34,2,357,3,356.26c1.83-1.33,4.78-1.12,8.15-1.71Zm15.27.82a30.52,30.52,0,0,1-2.94,2.08c-1,.65-2.06,1.27-3.07,1.92h0l.87-2.77c.28-.93.57-1.86.84-2.79.35-1.21.63-2.45,1-4L19.68,361C19.16,362.3,19,363.65,18.31,364.24Zm1.47-14-7.73,3.33-2.23-5.69c.23-.47.46-.93.68-1.4ZM530.78,135c4.47,2.16,9.12,4,13.38,6.55,4.66,2.78,5.49,7.7,4.62,12.51-.6,3.29.66,4.8,3,6.36,4.23,2.8,8.63,5.44,12.44,8.75,2,1.71,2.86,4.7,4.23,7.11l-1.56.94c-2.18-9.87-11.58-12.27-18.1-17.57-2.09-1.7-3.47-2.89-3.15-5.69.71-6.34-2.41-10.29-8.06-12.8a72.46,72.46,0,0,1-7.71-4.55Zm14.28,39.51c1.42,2.07,3.84,4,3.62,5.65-.33,2.48-1.93,6-3.93,6.83a62.82,62.82,0,0,1-16.62,4.57c-4.7.57-9.61-.56-15.55-1C523.67,184.79,537.39,187.14,545.06,174.49Zm0-2.66.32-10.33,1.59-.18-.33,10.49ZM530.49,151c.24-3.14.23-6.31.33-9.65,13.73,4.76,15.31,8.94,10.41,26.63l-11.91-7C529.71,157.73,530.22,154.4,530.49,151ZM476,100.91l17.33,8.71-.87,1.75-17.38-8.49Zm-43.37,4.28,2.2,1.2c-.82,2-1.34,4.22-2.62,5.84-.17.21-.6.21-1.16.12-.37-.07-.79-.17-1.22-.29l-.66-.17c-.43-.12-.86-.22-1.23-.29Q430.31,108.41,432.65,105.19ZM410.93,75.51q-39.65-19.92-79.21-40C327,33.13,322,31.06,317.81,28c-2.26-1.64-3.21-5.1-4.76-7.73l1.47-1.05c8.93,4.36,17.89,8.67,26.79,13.09,25.33,12.54,50.54,25.3,76,37.57,6,2.91,9.55,6.35,9.9,13.35.32,6.14,1.84,12.21,2.83,18.32l-2.12,1c-.74-1.54-2-3-2.15-4.62C425.05,87.58,420.21,80.18,410.93,75.51Zm7.37,37.34-10.95,5.75C407.75,113.61,407.75,113.61,418.3,112.85Zm-16.17,8,35.73-6.59C426.06,116.76,414.7,121.78,402.13,120.82Zm16.53,8.11,2-1c1.6,2,4.36,3.77,4.6,5.87,1.16,10.51,1.65,21.08,2.38,31.63l-3.24.4C415.51,154.62,420.55,141.23,418.66,128.93Zm.87-7.2,20.52-5.31c-2.25,8.63-4.21,16.11-6.17,23.6C427.11,124.71,427.11,124.71,419.53,121.73Zm-3.72,39.07c-3.77-4.7-4-34.67-.6-37C415.41,136.14,415.6,148.09,415.81,160.8Zm-8-34.52c.21,5.82.4,11,.62,17.23-7.49-4-14.44-7.82-22.95-12.41Zm-38.08,6.59c3.63,1.08,7.51,1.65,10.83,3.33,8.21,4.15,16.11,8.9,24.26,13.19,2,1,4.4,1.21,7.08,1.89-.07,2-.15,4.81-.27,8.47l-42.8-24.35ZM321.07,184c-.35-.11-.61-.5-.95-.6-2.47-.71-6.43-.72-7.09-2.21-1.19-2.69-.53-6.26-.43-9.46.21-6.81.71-13.62.79-20.44,0-3.32.86-5,4.51-5.72,13.3-2.7,26.5-6,39.8-8.69a11.74,11.74,0,0,1,7.36,1.23q18.35,10.08,36.39,20.71c7,4.12,9.09,11,9.64,20.28l-78.94,21.24C331,192.52,328.57,186.35,321.07,184Zm85.83-1.19c-.82,11-1.64,21.68-2.42,32.37-.91,12.39-6.42,19-17.86,22.1.46-14.54,1-29,1.33-43.53.09-3.51,1.51-5.31,5-6.24C397.74,186.24,402.41,184.38,406.9,182.84Zm-28.71,57.87c-6.63,1.37-13.13,3.41-19.71,5-9.74,2.36-16.77-2-19.06-11.81-2.35-10.06-4.48-20.18-6.87-31l54.19-13.28c-.09,2.91-.11,5.25-.25,7.59-.73,11.88-1.61,23.76-2.2,35.65C384.08,237.15,382.78,239.76,378.19,240.71Zm23.9,13.19c-5.88,1.88-11.57,4.33-18.07,6.82.19-6.14.05-11.46.7-16.68a6.91,6.91,0,0,1,3.89-4.62c13.61-4.8,18.56-14.83,18.67-28.54a139.83,139.83,0,0,1,2.79-25.15c-.23,7.29-.23,14.6-.73,21.87-.93,13.56-2.26,27.1-3.17,40.66C406,251.32,405.18,252.9,402.09,253.9Zm5.13-2.46c.31-3.6.57-6.31.77-9,1.36-18.81,2.62-37.62,4.18-56.41.14-1.69,1.18-3.3,2.13-4.92.32-.54.63-1.09.89-1.63l.8-3.29c.26-1.11.54-2.23.81-3.39.56-2.3,1.15-4.72,1.79-7.38,4.53,7.18,4.22,10.14-.51,13.51,2.7-.8,3.76,0,3.51,3q-2.61,31.28-5.06,62.56C416.1,250,411.41,249.38,407.22,251.44Zm11.17-3.7c13.13-20.17,26.08-40.05,39.17-60.14l18.42,10L431.85,256Zm34.46,4.1c-6.89,2-13.2,6-20.34,9.41.53-1.89.57-4.27,1.73-5.81q20.76-27.66,41.9-55.05c1.19-1.55,3.16-2.5,4.91-3.62.25-.16.5-.33.73-.5l-20.65-7.57c.11-.64.23-1.28.35-1.91l16.23-7.7c-6.49,1.85-13.41,2.87-19.31,5.86-3.41,1.73-5.32,6.57-7.68,10.16q-15.32,23.29-30.47,46.68a6.12,6.12,0,0,0-.48,1.64l-1.71-.89c1.64-21.53,3.28-43.06,4.9-64.28l10.38-3.93-2.45.42L423.38,176q-.53-3.19-1.05-6.5c8.56-.2,10.48-2.27,10.05-11.45-.15-3.26-.53-6.26,3.22-7.73l-5-1.41c12.12-6.91,11-19,14.1-29.1.66-2.09-1.13-6.84-2.79-7.4-3.82-1.28-4.14-3.8-4.69-6.75-.79-4.22-1.64-8.43-2.47-12.66,7.19-2.8,14-.42,20.85,3.11,19.92,10.24,40,20.16,60,30.32a4.86,4.86,0,0,1,.54.33,6.36,6.36,0,0,1,1,.85c.76.79,1.44,1.75,2.21,2.53.76-.08,1.6-.34,2.36-.44a5.29,5.29,0,0,1,.54,0,2,2,0,0,1,.82.16c5.82,2.59,7,14.48,2,18.06,1.09.31,3.16.84,3.15.89-1.09,4.61,1.1,10.15-3.72,13.71,4.71,2.28,9.74,4.08,14,7,4.82,3.25,3.75,8.41-2.38,10.52-8.86,3-18,5.21-27,7.93a44,44,0,0,0-6.31,3l4.57-.84c-16,13.66-22.46,33.82-35.56,49.05A38.88,38.88,0,0,1,452.85,251.84Zm52.09-37.55c5.18-3,9.32-1.73,11.34,3.58,4.23,11.14-6.57,28.49-18.53,29.49-5.45.46-7.45-3.22-8.62-8.41,8.62,1.77,14.24-.66,17.83-7.17S509.92,219.48,504.94,214.29Zm15.42,6.07c-.56-4.16-3.8-8-5.47-11.23,6.1.93,9.8,6.25,9.53,15.42-.34,11.28-9.61,24.35-20.22,28.5-7,2.72-12.71.68-16.65-6.54,7.28,6.86,14.54,5,21.22-.06C517.3,240,521.81,231.09,520.36,220.36Zm2.89,30c-6,7.73-13.41,13.83-23.32,16-13.65,3-24.68-4.1-27.33-17.74a7.49,7.49,0,0,1,1-5.22c2.59-3.63,5.65-6.92,8.68-10.53-.09,2.81-.29,5.39-.23,8,.37,14.33,10,20.55,23.34,15,12.71-5.29,23.52-23.56,22.09-37.35-1.3-12.51-11.37-18.32-22.86-13.18-1.84.83-3.62,1.77-5.63,2.75,2.18-6.52,12-14.73,17.08-14.54,8.23.32,16.06,7.13,18.06,16.22C537.48,225.09,532.57,238.41,523.25,250.34ZM563,205.82c-.2,2.41-.74,4.79-1.23,7.85l-32.9-17.75c6.56-2.82,13.39-5.84,20.31-8.65a6.33,6.33,0,0,1,4.4-.22C564.13,191.64,564.13,191.7,563,205.82Zm-12.62-41.63c14.57,8.41,16,10.59,13.51,20.7C551.34,180.53,547.79,175.23,550.34,164.19Zm18.07,49.06c-.19,1.2-2,2.15-3.07,3.21-.47-.37-.94-.74-1.42-1.1.7-6.12,1.25-12.26,2.22-18.33.18-1.14,2-2,3.09-3l1.31,1.38C569.87,201.35,569.36,207.34,568.41,213.25Zm1.33-21.51h-2q3.1-23.13,6.2-46.24l1.56.2Q572.62,168.71,569.74,191.74Z"/><path d="M110.84,174c2-.4,4.66-1.88,5.06,2.05,0,.38.71.83,1.18,1,3.15,1.31,14.17-3.38,16.29-6.2,1.12-1.51,3.47-2.5,5.44-2.93q53.13-11.65,106.3-23.09c12.74-2.75,25.5-5.41,38.22-8.24.25-.05.49-.12.73-.19a53.18,53.18,0,0,0,4.95-2.1c-12.53,2.41-25.12,4.55-37.6,7.26Q125.7,168.8,0,196.19v1.86l84.82-18.46C93.49,177.7,102.15,175.75,110.84,174Z"/><path d="M5,338a53.15,53.15,0,0,0-5,3.17v.8c.31-.25.61-.51.93-.75C2.3,340.12,3.65,339,5,338Z"/><path d="M115.16,133Q215.84,112.4,316.49,91.67c26.4-5.43,52.81-10.82,80.86-16.57-12-6.06-22.6-11.37-33.15-16.75-20-10.19-39.87-20.61-60-30.51-5.89-2.89-11.47-7.56-19-5.53-4.91,1.31-10,2-15,2.85q-81.94,14.54-163.89,29Q53.13,63.58,0,72.93v83.65Q57.59,144.83,115.16,133Z"/><path d="M251.41,141.53c12.48-2.71,25.07-4.85,37.61-7.26l12.43-2.11,19.05-4.64L410,108.33h0c1.39-.58,2.76-1.26,4.17-1.8a14.05,14.05,0,0,1,1.42-.5c6.77-2.07,8.44-4.81,7-11.84C420.11,82,410.08,75.1,397.91,77.56q-55,11.11-110,22.37Q194.7,119,101.46,138.17,50.73,148.58,0,159v37.16Q125.7,168.82,251.41,141.53Z"/><path d="M410,108.33h0c1.39-.58,2.76-1.26,4.17-1.8-1.41.54-2.78,1.22-4.17,1.8Z"/><path d="M356.84,249.41c-8.53,2.1-16.28,1.37-23.62-5-6.53-5.73-8.17-13.48-11.23-20.58-5.86-13.65-10.77-16.8-25.77-14.36l-3.67.81-8.41,1.84c-4,.89-8.05,1.79-12.06,2.76-19,4.62-38,9.4-57.07,14.06q-32.67,8-65.37,15.9c-23.07,5.6-46.14,11.16-69.19,16.83-18.11,4.46-36.17,9.15-54.29,13.58Q13.1,278.38,0,281.51v9.83q10.94-4.59,21.89-9.14a55.31,55.31,0,0,1,7.59-2c19.07-5.71,37.13-3.29,54,7.13,3.14,1.94,5.5,5.15,8.22,7.77l3.09,3.65c.1.16.18.33.28.5-.08-.27-.15-.53-.22-.8,4.67,7.69,5.34,15.43,3.74,23.2a55,55,0,0,1-3.38,10.63c-.83,2-1.45,4.06-2.39,6.76,2.61-.36,3.92-.4,5.16-.73q27.49-7.44,55-14.93l101.3-27.49q61.83-16.78,123.62-33.73c1.92-.54,4.37-2.88,4.77-4.75.78-4.9.52-10,.69-15.63C374.13,244.47,365.56,247.26,356.84,249.41Z"/><path d="M377.88,262.17q-61.75,17.07-123.62,33.73L153,323.39q-27.5,7.46-55,14.93c-1.24.33-2.55.37-5.16.73l-.11.3c2.64-.36,4-.4,5.21-.73q27.49-7.44,55-14.93l101.31-27.5c41.22-11.19,82.45-22.34,123.61-33.72,2-.55,4.51-3,4.82-4.89,0-.05,0-.1,0-.16C382.25,259.29,379.8,261.63,377.88,262.17Z"/><path d="M94.85,298.46c.07.27.14.53.22.8a30.76,30.76,0,0,1,3.52,22.4C100.19,313.89,99.52,306.15,94.85,298.46Z"/><path d="M94.79,298.76l-3.09-3.65c-12.58-11.88-27.81-16.88-44.82-16.71-5.8.06-11.6,1.17-17.4,1.81a55.31,55.31,0,0,0-7.59,2q-11,4.53-21.89,9.14v49.55A55.71,55.71,0,0,1,6.18,337L5,338l1.11-.64,9.18-4.11c.05-.09.09-.22.15-.32l-.09,0c.09-.16.15-.42.29-.48,18.45-7.57,41.57.6,45.92,23.61.15.81,1.3,1.42,2,2.12,0,.09-.06.18-.1.26l0,0,11.38-2.89.9-.51-.83.22,8.58-5,.07,0,0-.09-.15.1c3.6-7,7.4-13.92,10.76-21a32.65,32.65,0,0,0,2.47-7.44C98.22,314.21,97,306.48,94.79,298.76Z"/><path d="M6.18,337A55.71,55.71,0,0,0,0,340.89v.25A53.15,53.15,0,0,1,5,338Z"/><path d="M61.56,356.05c-4.35-23-27.47-31.18-45.92-23.61-.14.06-.2.32-.29.48l.09,0a.3.3,0,0,1,.13-.16c18.46-7.57,41.58.6,45.93,23.61.15.79,1.26,1.4,1.94,2.08,0-.08.06-.17.1-.26C62.86,357.47,61.71,356.86,61.56,356.05Z"/><path d="M74.93,355.29l.83-.22,7.68-4.44h0c0-.1.11-.2.16-.31l-.07,0Z"/><path d="M83.48,350.32l.15-.1c3.54-6.87,7.25-13.66,10.54-20.64a32.76,32.76,0,0,0,2.54-7.74,32.65,32.65,0,0,1-2.47,7.44C90.88,336.4,87.08,343.32,83.48,350.32Z"/><path d="M108.57,235.61Q81.36,242,54.19,248.44T0,261.27v15.82L12.58,274q40-9.76,80-19.51,59.88-14.5,119.76-28.93c25.39-6.11,50.81-12.08,76.2-18.15,2.39-.57,4.73-1.36,7.09-2l.54-.17-.48-.13c10.25-3.72,20.27.15,24.94,10.11,3.36,7.18,6.18,14.62,9.12,22s9.35,9,14.61,10.3c-2.37-4.29-5.71-8.68-7.11-13.62-3.17-11.24-5.31-22.76-7.88-34.17-2.92-13-5.68-14.81-18.4-12.34-.28.06-.65-.31-1.39-.7.4-12.76.81-25.73,1.21-38.7-7.6-.16-10,0-10.88,3.72a38.11,38.11,0,0,0-.46,5.87c-.28,8.9-.74,17.81-.76,26.71a12.8,12.8,0,0,1-.28,2.87c-.48,2.5-1.91,3.88-5.45,4.69-29.15,6.66-58.19,13.79-87.27,20.7-24.71,5.87-49.47,11.57-74.14,17.59-4.13,1-5.73.25-5.44-4,.12-1.69-.1-3.4-.12-5.1-.17-10.7-.32-21.41-.49-32.56l-13,3c.21,13.06.28,25.64.72,38.19a8,8,0,0,1-.23,2.41C112.51,234.07,111,235,108.57,235.61Z"/><path d="M112.5,191.34l-.07,0c.22,13.16.28,25.82.73,38.47a8.46,8.46,0,0,1-.17,2.11,8,8,0,0,0,.23-2.41C112.78,217,112.71,204.4,112.5,191.34Z"/><path d="M299.47,157.52a38.11,38.11,0,0,1,.46-5.87,34.89,34.89,0,0,0-.53,6.17c-.27,8.9-.73,17.8-.76,26.71a13.22,13.22,0,0,1-.21,2.57,12.8,12.8,0,0,0,.28-2.87C298.73,175.33,299.19,166.42,299.47,157.52Z"/><path d="M329.77,237.16c-2.94-7.36-5.76-14.8-9.12-22-4.67-10-14.69-13.83-24.94-10.11l.48.13c10.06-3.4,19.81.49,24.39,10.28,3.36,7.18,6.18,14.61,9.13,22,3,7.54,9.57,9,14.87,10.37l-.2-.37C339.12,246.12,332.73,244.57,329.77,237.16Z"/><path d="M320.5,127.52c-.93,4.8-10.42,10.16-14.57,8.08a28.11,28.11,0,0,1-4.48-3.44L289,134.27c-1.66.69-3.27,1.59-5,2.1-.24.07-.48.14-.73.19-12.72,2.83-25.48,5.49-38.22,8.24Q192,156.29,138.81,167.89c-2,.43-4.32,1.42-5.44,2.93-2.12,2.82-13.14,7.51-16.29,6.2-.47-.19-1.14-.64-1.18-1-.4-3.93-3.11-2.45-5.06-2.05-8.69,1.8-17.35,3.75-26,5.64L0,198.05v15.58l402.49-89.75c-2.72-3.23-7.61-6.15.75-7.09.61-6.35,6.23-6.08,10.4-8.34l-3.69-.12Z"/><path d="M413.64,108.45l-3.69-.12h0Z"/><path d="M430.91,258l-24.43,7.77,10.86-2c.8,3.11,1.17,5.24.82,6.8-.41,1.82-1.81,2.88-4.66,3.84l-.29.09c-1.15.37-2.5.73-4.12,1.12l-.1,0L373.19,285l-5.9,2.48c-2-8-1.28-9.32,6.15-12.68-7.64,1.84-15.33,3.48-22.91,5.55-32.43,8.87-64.81,17.91-97.24,26.81q-65.23,17.9-130.52,35.67c-15.94,4.34-31.94,8.5-47.91,12.74l-11.38,2.89A7.37,7.37,0,0,0,63,360a8.09,8.09,0,0,0,6.8,9.45,38.44,38.44,0,0,0,16-1c60.31-16.72,120.54-33.74,180.8-50.65q59.9-16.82,119.8-33.53c10.88-3.05,21.78-6.08,32.63-9.24,6.32-1.84,10.56-5.95,11.8-11.34A16,16,0,0,0,430.91,258Z"/><path d="M419,275c-10.85,3.16-21.75,6.19-32.63,9.24Q326.48,301,266.57,317.79c-60.26,16.91-120.49,33.93-180.8,50.65a38.44,38.44,0,0,1-16,1A8.09,8.09,0,0,1,63,360a8.09,8.09,0,0,0,6.74,9.75,38.45,38.45,0,0,0,16-1C146,352,206.25,335,266.51,318.08q59.88-16.8,119.79-33.52c10.89-3.05,21.79-6.08,32.64-9.24,6.43-1.87,10.71-6.1,11.86-11.64C429.56,269.07,425.32,273.18,419,275Z"/><path d="M401.45,158.85q-18-10.65-36.39-20.71a11.74,11.74,0,0,0-7.36-1.23c-13.3,2.72-26.5,6-39.8,8.69-3.65.74-4.47,2.4-4.51,5.72-.08,6.82-.58,13.63-.79,20.44-.1,3.2-.76,6.77.43,9.46.66,1.49,4.62,1.5,7.09,2.21.34.1.6.49.95.6,7.5,2.32,9.93,8.49,11.08,16.34l78.94-21.24C410.54,169.86,408.41,163,401.45,158.85Z"/><path d="M86.18,213.86c5.52-1.26,11.08-2.38,16.62-3.57,9.35-3.52,4.34-11.22,5.76-18L0,216.55v17Q43.1,223.75,86.18,213.86Z"/><path d="M528.13,148.81c0-.05-2.06-.58-3.15-.89q-33.9,9.83-67.8,19.63-6,1.72-11.92,3.4l-11.92,3.38L423,178.26c-1.62,21.22-3.26,42.75-4.9,64.28l1.71.89a6.12,6.12,0,0,1,.48-1.64q15.19-23.35,30.47-46.68c2.36-3.59,4.27-8.43,7.68-10.16,5.9-3,12.82-4,19.31-5.86l46.7-16.57C529.23,159,527,153.42,528.13,148.81Z"/><path d="M407.3,254.31a15.42,15.42,0,0,1-4.69,2c-21.47,6.57-42.83,13.54-64.46,19.55-45.13,12.55-90.4,24.61-135.62,36.84q-51.15,13.85-102.32,27.61c-5.09,1.37-10.14,2.76-13.11,7.86A6.26,6.26,0,0,1,85,350c4.27-.82,8.57-1.51,12.75-2.65q83.91-22.9,167.8-45.95c32.61-8.92,65.25-17.72,97.85-26.67C384.61,269,405.73,263,427,257,421,251.42,414.88,248.71,407.3,254.31Z"/><path d="M265.59,301.43q-83.91,22.95-167.8,45.95c-4.18,1.14-8.48,1.83-12.75,2.65-.59.39-1.2.77-1.74,1.19h0c4.76-1,9.6-1.67,14.28-3q83.93-22.9,167.8-45.95c32.61-8.92,65.25-17.72,97.86-26.67,21.45-5.89,42.86-11.94,64.42-18L427,257C405.73,263,384.61,269,363.44,274.76,330.84,283.71,298.2,292.51,265.59,301.43Z"/><path d="M519.31,130.18c-.77-.78-1.45-1.74-2.21-2.53a6.36,6.36,0,0,0-1-.85,4.86,4.86,0,0,0-.54-.33c-20-10.16-40-20.08-60-30.32C448.77,92.62,442,90.24,434.8,93c.83,4.23,1.68,8.44,2.47,12.66.55,3,.87,5.47,4.69,6.75,1.66.56,3.45,5.31,2.79,7.4-3.15,10.09-2,22.19-14.1,29.1l5,1.41q39.64-9.86,79.3-19.68A33.81,33.81,0,0,1,519.31,130.18Z"/><path d="M519.31,130.18c-.77-.78-1.45-1.74-2.21-2.53.76.79,1.44,1.75,2.21,2.53Z"/><path d="M516.14,126.8a6.36,6.36,0,0,1,1,.85A6.36,6.36,0,0,0,516.14,126.8Z"/><path d="M100.14,233.45c10.24-2.44,10.2-2.63,8.31-14.65L0,244v13.25Q50.09,245.36,100.14,233.45Z"/><path d="M224.77,182.41h0a1.77,1.77,0,0,0,0,.23h0Z"/><path d="M225,182.58l-.15-.16.14.15Z"/><polygon points="224.77 182.41 224.77 182.4 224.77 182.4 224.77 182.41 224.77 182.41"/><path d="M224.77,182.4v0h0v0Z"/><path d="M288.05,173.81a85.87,85.87,0,0,1-14.3-9c-7.52-6-15.13-6.92-24.41-4.18-12.86,3.81-26.15,6.14-40.17,9.31,3.43,2.4,6.12,4.09,8.58,6.08s4.7,4.21,7,6.35v0h0l0,0,.15.16h0l-.17,0a14.74,14.74,0,0,1,.12,1.82c.24,2.18.65,4.51.09,5.91a2.18,2.18,0,0,1-.43.69c-4.09,4.21-2.46,8.41-2.45,13.4l71.1-16.88C295.65,181,293.88,176.82,288.05,173.81Z"/><polygon points="224.77 182.4 224.77 182.4 224.77 182.41 224.77 182.41 224.77 182.4"/><path d="M224.8,182.63l.17,0h0l-.16,0Z"/><path d="M224.77,182.38h0v0h0Z"/><path d="M224.77,182.4v0Z"/><path d="M224.8,182.62h0l0-.21h0Z"/><path d="M386.49,197.22c.14-2.34.16-4.68.25-7.59l-54.19,13.28c2.39,10.82,4.52,20.94,6.87,31,2.29,9.85,9.32,14.17,19.06,11.81,6.58-1.6,13.08-3.64,19.71-5,4.59-1,5.89-3.56,6.1-7.84C384.88,221,385.76,209.1,386.49,197.22Z"/><path d="M445.26,171q6-1.68,11.92-3.4,33.9-9.8,67.8-19.63c5.08-3.58,3.87-15.47-2-18.06a2,2,0,0,0-.82-.16,5.29,5.29,0,0,0-.54,0c-.76.1-1.6.36-2.36.44h0a33.81,33.81,0,0,0-4.41.5q-39.66,9.81-79.3,19.68c-3.75,1.47-3.37,4.47-3.22,7.73.43,9.18-1.49,11.25-10.05,11.45q.53,3.3,1.05,6.5l7.51-1.29,2.45-.42Z"/><path d="M519.31,130.18c.76-.08,1.6-.34,2.36-.44-.76.1-1.6.36-2.36.44Z"/><path d="M295.65,205.37c-2.36.69-4.7,1.48-7.09,2-25.39,6.07-50.81,12-76.2,18.15Q152.47,240,92.6,254.5q-40,9.71-80,19.51L0,277.09v4.42q13.08-3.13,26.16-6.31c18.12-4.43,36.18-9.12,54.29-13.58,23-5.67,46.12-11.23,69.19-16.83q32.69-7.95,65.37-15.9c19-4.66,38-9.44,57.07-14.06,4-1,8-1.87,12.06-2.76l8.41-1.84,3.67-.81a2.29,2.29,0,0,1,.16-.31h-.1c.34-.73,1.14-1.54,1.39-2.26C297.72,206.26,297.27,205.74,295.65,205.37Z"/><path d="M296.38,209.11c.45-.76,1.22-1.55,1.29-2.25-.25.72-1.05,1.53-1.39,2.26Z"/><path d="M284.14,212.07l8.41-1.84Z"/><path d="M212.8,185.3l4.28-2.17,4.55-2.31c-8-6.38-15.1-11.46-26.78-8.14C173,178.89,150.6,183,127.22,188.22c1,5.25,1.88,10.23,2.8,15.21q26.22-5.81,52.43-11.6C192.56,189.61,202.68,187.48,212.8,185.3Z"/><path d="M212.8,185.3l4.28-2.17-4.28,2.17Z"/><path d="M507.35,190.13l-4.57.84-21,5.3c-.23.17-.48.34-.73.5-1.75,1.12-3.72,2.07-4.91,3.62q-21.13,27.39-41.9,55.05c-1.16,1.54-1.2,3.92-1.73,5.81,7.14-3.39,13.45-7.37,20.34-9.41a38.88,38.88,0,0,0,18.94-12.66C484.89,224,491.32,203.79,507.35,190.13Z"/><path d="M0,233.57v8l108.94-25.25c-.09-2.38-.16-4.37-.26-6.93l-5.88.89c-5.54,1.19-11.1,2.31-16.62,3.57Q43.09,223.7,0,233.57Z"/><path d="M457.56,187.6c-13.09,20.09-26,40-39.17,60.14l13.46,8.3L476,197.57Z"/><path d="M502.78,191a44,44,0,0,1,6.31-3c9-2.72,18.12-4.89,27-7.93,6.13-2.11,7.2-7.27,2.38-10.52-4.3-2.89-9.33-4.69-14-7l-46.7,16.57-16.23,7.7c-.12.63-.24,1.27-.35,1.91l20.65,7.57h0Z"/><path d="M461.13,188.7l20.65,7.57h0Z"/><path d="M23.94,401.43c17.43-8.22,32.54-27.59,31.56-48.54-.43-9.21-9.56-16.48-18.44-14.82,2,3.65,5.1,7.15,6.11,11.17,5.55,22.12-15.3,47-38.43,46.24A31.11,31.11,0,0,1,0,395v11.49C8.12,407.17,16.14,405.11,23.94,401.43Z"/><path d="M516.06,193.53c-5.09-.19-14.9,8-17.08,14.54,2-1,3.79-1.92,5.63-2.75,11.49-5.14,21.56.67,22.86,13.18,1.43,13.79-9.38,32.06-22.09,37.35-13.29,5.54-23-.68-23.34-15-.06-2.58.14-5.16.23-8-3,3.61-6.09,6.9-8.68,10.53a7.49,7.49,0,0,0-1,5.22c2.65,13.64,13.68,20.75,27.33,17.74,9.91-2.19,17.29-8.29,23.32-16,9.32-11.93,14.23-25.25,10.87-40.59C532.12,200.66,524.29,193.85,516.06,193.53Z"/><path d="M128.25,214.2c.07,4.23.14,8.05.21,12.31,2-.36,3.07-.51,4.13-.76q39-9.23,78-18.49c11.16-2.67,9.42-.11,9.77-12.24a7.53,7.53,0,0,0-.61-2Z"/><path d="M427.92,102.54l2.12-1c-1-6.11-2.51-12.18-2.83-18.32-.35-7-3.87-10.44-9.9-13.35-25.46-12.27-50.67-25-76-37.57-8.9-4.42-17.86-8.73-26.79-13.09l-1.47,1.05c1.55,2.63,2.5,6.09,4.76,7.73,4.23,3.07,9.2,5.14,13.91,7.53q39.58,20,79.21,40c9.28,4.67,14.12,12.07,14.84,22.41C425.89,99.5,427.18,101,427.92,102.54Z"/><path d="M388,193.78c-.37,14.5-.87,29-1.33,43.53,11.44-3.11,16.95-9.71,17.86-22.1.78-10.69,1.6-21.38,2.42-32.37-4.49,1.54-9.16,3.4-14,4.7C389.46,188.47,388,190.27,388,193.78Z"/><polygon points="224.92 184.45 224.92 184.45 224.92 184.45 224.92 184.45 224.92 184.45"/><path d="M224.92,184.45c-.07-.63-.13-1.24-.14-1.82l-12,2.67h0c-10.12,2.18-20.24,4.31-30.35,6.53q-26.22,5.76-52.43,11.6c-.74,2.5-1.48,5-2.44,8.19,2.2-.3,3.1-.35,4-.55,28.92-6.64,57.81-13.44,86.78-19.84a14.53,14.53,0,0,0,2.67-.83A5.9,5.9,0,0,0,224.92,184.45Z"/><polygon points="224.78 182.63 224.78 182.63 224.78 182.63 224.78 182.63 224.78 182.63"/><path d="M212.79,185.3l12-2.67h0l-12,2.67h0Z"/><path d="M224.78,182.63c0,.58.07,1.19.14,1.82h0c-.07-.63-.13-1.24-.14-1.82Z"/><path d="M221,190.4a5.89,5.89,0,0,0,3.91-6h0A5.9,5.9,0,0,1,221,190.4Z"/><path d="M224.92,184.45h0a14.74,14.74,0,0,0-.12-1.82h0A14.74,14.74,0,0,1,224.92,184.45Z"/><path d="M224.8,182.62h0Z"/><path d="M224.77,182.37l0,0Z"/><path d="M224.77,182.41l.19.18h0l-.18-.17Z"/><path d="M225,182.57l-.14-.15,0,0v0Z"/><path d="M224.8,182.62l.16,0-.19-.18Z"/><path d="M224.8,182.63h0c0,.58.07,1.19.14,1.82A14.74,14.74,0,0,0,224.8,182.63Z"/><polygon points="224.8 182.62 224.8 182.63 224.8 182.63 224.8 182.62 224.8 182.62"/><path d="M418.08,178.91l-2.89.55c-.26.54-.57,1.09-.89,1.63-.95,1.62-2,3.23-2.13,4.92-1.56,18.79-2.82,37.6-4.18,56.41-.2,2.71-.46,5.42-.77,9,4.19-2.06,8.88-1.48,9.31-7q2.49-31.29,5.06-62.56C421.84,179,420.78,178.11,418.08,178.91Z"/><path d="M8.62,383.14c11.89-1.27,22.06-11.28,23.59-23.23,1.5-11.77-7.23-19.07-18.8-15.72,8.5,4.46,10.49,7.64,9.25,14.72S15,372.64,8.09,373.74A14.06,14.06,0,0,1,0,373.11v9.23A19.34,19.34,0,0,0,8.62,383.14Z"/><path d="M410.07,185.73a139.83,139.83,0,0,0-2.79,25.15c-.11,13.71-5.06,23.74-18.67,28.54a6.91,6.91,0,0,0-3.89,4.62c-.65,5.22-.51,10.54-.7,16.68,6.5-2.49,12.19-4.94,18.07-6.82,3.09-1,3.88-2.58,4.08-5.64.91-13.56,2.24-27.1,3.17-40.66C409.84,200.33,409.84,193,410.07,185.73Z"/><path d="M553.54,187.05a6.33,6.33,0,0,0-4.4.22c-6.92,2.81-13.75,5.83-20.31,8.65l32.9,17.75c.49-3.06,1-5.44,1.23-7.85C564.13,191.7,564.13,191.64,553.54,187.05Z"/><path d="M3.2,391.18c18.08,3.19,38.62-15,37.49-33.45-.52-8.54-5.78-18.64-16.73-18.5,11.47,9.46,14.42,15.55,11.21,25.61-3.94,12.34-12.49,20-25.48,22A21.29,21.29,0,0,1,0,386.34v4A23.05,23.05,0,0,0,3.2,391.18Z"/><path d="M489.13,239c1.17,5.19,3.17,8.87,8.62,8.41,12-1,22.76-18.35,18.53-29.49-2-5.31-6.16-6.61-11.34-3.58,5,5.19,5.64,10.92,2,17.49S497.75,240.72,489.13,239Z"/><path d="M411.93,151.28c-2.68-.68-5.11-.85-7.08-1.89-8.15-4.29-16.05-9-24.26-13.19-3.32-1.68-7.2-2.25-10.83-3.33l-.9,2.53,42.8,24.35C411.78,156.09,411.86,153.31,411.93,151.28Z"/><path d="M424.4,165.81l3.24-.4c-.73-10.55-1.22-21.12-2.38-31.63-.24-2.1-3-3.92-4.6-5.87l-2,1C420.55,141.23,415.51,154.62,424.4,165.81Z"/><path d="M512.58,190.53c5.94.45,10.85,1.58,15.55,1A62.82,62.82,0,0,0,544.75,187c2-.85,3.6-4.35,3.93-6.83.22-1.62-2.2-3.58-3.62-5.65C537.39,187.14,523.67,184.79,512.58,190.53Z"/><path d="M15.29,333.22l-9.18,4.11c-1.74,1.39-3.48,2.78-5.24,4.15l-.87.71v3.86c10.94-9.15,25.21-13.2,43.42-11.59C33.28,329.61,24.29,331.05,15.29,333.22Z"/><path d="M0,346.05v.24C11.1,337,25.61,333,44.19,334.83c-.26-.14-.51-.25-.77-.37C25.21,332.85,10.94,336.9,0,346.05Z"/><path d="M508.77,246.45c-6.68,5.06-13.94,6.92-21.22.06,3.94,7.22,9.68,9.26,16.65,6.54,10.61-4.15,19.88-17.22,20.22-28.5.27-9.17-3.43-14.49-9.53-15.42,1.67,3.28,4.91,7.07,5.47,11.23C521.81,231.09,517.3,240,508.77,246.45Z"/><path d="M407.84,126.28l-22.33,4.82c8.51,4.59,15.46,8.36,22.95,12.41C408.24,137.25,408.05,132.1,407.84,126.28Z"/><path d="M367.29,287.49l5.9-2.48-4.26-2.21c1.28-1.5,2.29-3.85,3.88-4.35,10.19-3.18,20.44-6.2,30.81-8.7,3.21-.77,6.85.29,10.29.51l.12,1.86-5,3.51.1,0c1.62-.39,3-.75,4.12-1.12l.29-.09c2.85-1,4.25-2,4.66-3.84.35-1.56,0-3.69-.82-6.8l-10.86,2-33,9C366,278.17,365.34,279.46,367.29,287.49Z"/><path d="M413.21,274.49c-1.15.37-2.5.73-4.12,1.12C410.71,275.22,412.06,274.86,413.21,274.49Z"/><path d="M413.5,274.4c2.85-1,4.25-2,4.66-3.84C417.75,272.38,416.35,273.44,413.5,274.4Z"/><path d="M440.05,116.42l-20.52,5.31c7.58,3,7.58,3,14.35,18.29C435.84,132.53,437.8,125.05,440.05,116.42Z"/><path d="M550.34,164.19c-2.55,11,1,16.34,13.51,20.7C566.31,174.78,564.91,172.6,550.34,164.19Z"/><path d="M545.64,153.94c-.32,2.8,1.06,4,3.15,5.69,6.52,5.3,15.92,7.7,18.1,17.57l1.56-.94c-1.37-2.41-2.25-5.4-4.23-7.11-3.81-3.31-8.21-6-12.44-8.75-2.34-1.56-3.6-3.07-3-6.36.87-4.81,0-9.73-4.62-12.51-4.26-2.53-8.91-4.39-13.38-6.55l-.91,1.61a72.46,72.46,0,0,0,7.71,4.55C543.23,143.65,546.35,147.6,545.64,153.94Z"/><path d="M294.5,170.82c.23-7.38.42-13.51.65-21l-11.42,14.49Z"/><path d="M566.14,197c-1,6.07-1.52,12.21-2.22,18.33.48.36,1,.73,1.42,1.1,1.07-1.06,2.88-2,3.07-3.21,1-5.91,1.46-11.9,2.13-17.85L569.23,194C568.15,195,566.32,195.89,566.14,197Z"/><path d="M415.81,160.8c-.21-12.71-.4-24.66-.6-37C411.84,126.13,412,156.1,415.81,160.8Z"/><path d="M288.46,154.32c-3.66-2.1-4.69-2-16.72,1.79C280.76,163.53,284.09,163.17,288.46,154.32Z"/><path d="M573.92,145.49q-3.1,23.12-6.2,46.24h2q2.87-23,5.74-46.05Z"/><path d="M266.22,158.37l27.4,17.32c.32-.52.64-1,1-1.54l-27.43-17.27Z"/><path d="M437.86,114.23l-35.73,6.59C414.7,121.78,426.06,116.76,437.86,114.23Z"/><path d="M418.08,178.91c4.73-3.37,5-6.33.51-13.51-.64,2.66-1.23,5.08-1.79,7.38l-.81,3.39-.8,3.29Z"/><path d="M407.35,118.6l10.95-5.75C407.75,113.61,407.75,113.61,407.35,118.6Z"/><path d="M3.93,372.33,5,371l-1.13-6.57L0,364.7v4.79Z"/><path d="M493.35,109.62,476,100.91l-.92,2,17.38,8.49Z"/><path d="M429.19,111.89l.66.17c.43.12.85.22,1.22.29.56.09,1,.09,1.16-.12,1.28-1.62,1.8-3.85,2.62-5.84l-2.2-1.2q-2.34,3.21-4.69,6.41C428.33,111.67,428.76,111.77,429.19,111.89Z"/><path d="M429.19,111.89c-.43-.12-.86-.22-1.23-.29q2.35-3.19,4.69-6.41-2.34,3.21-4.69,6.41C428.33,111.67,428.76,111.77,429.19,111.89Z"/><path d="M431.07,112.35c-.37-.07-.79-.17-1.22-.29C430.28,112.18,430.7,112.28,431.07,112.35Z"/><path d="M14,362.68c-.27.93-.56,1.86-.84,2.79l-.87,2.77c1-.65,2-1.27,3.07-1.92a30.52,30.52,0,0,0,2.94-2.08c.73-.59.85-1.94,1.37-3.25L15,358.64C14.64,360.23,14.36,361.47,14,362.68Z"/><path d="M12.3,368.24h0l.87-2.77Z"/><path d="M546.92,161.32l-1.59.18L545,171.83l1.58,0Z"/><path d="M9.82,347.85l2.23,5.69,7.73-3.33-9.28-3.76C10.28,346.92,10.05,347.38,9.82,347.85Z"/><path d="M3,363.42l8.12-8.87c-3.37.59-6.32.38-8.15,1.71C2,357,3,360.34,3,363.42Z"/><path d="M320.5,127.52l-19.05,4.64a28.11,28.11,0,0,0,4.48,3.44C310.08,137.68,319.57,132.32,320.5,127.52Z"/><path d="M91.7,295.11c-2.72-2.62-5.08-5.83-8.22-7.77-16.87-10.42-34.93-12.84-54-7.13,5.8-.64,11.6-1.75,17.4-1.81C63.89,278.23,79.12,283.23,91.7,295.11Z"/><path d="M414,272.12l-.12-1.86c-3.44-.22-7.08-1.28-10.29-.51-10.37,2.5-20.62,5.52-30.81,8.7-1.59.5-2.6,2.85-3.88,4.35l4.26,2.21,35.8-9.38h0Z"/><path d="M373.19,285l35.8-9.38h0Z"/></g><path class="cls-3" d="M419,161.17l-.8,3.29c-.26.54-.57,1.09-.89,1.63.32-.54.63-1.09.89-1.63Z"/><path class="cls-3" d="M295.55,195.23l3.67-.81c15-2.44,19.91.71,25.77,14.36,3.06,7.1,4.7,14.85,11.23,20.58,7.34,6.42,15.09,7.15,23.62,5,8.72-2.15,17.29-4.94,26.5-7.62-.17,5.64.09,10.73-.69,15.63l0-.13c.81-5,.54-10.09.72-15.8-9.22,2.68-17.79,5.47-26.51,7.62-8.53,2.1-16.28,1.38-23.62-5.05-6.53-5.73-8.17-13.48-11.22-20.58-5.85-13.61-10.76-16.78-25.68-14.37a2.29,2.29,0,0,0-.16.31Z"/><path class="cls-3" d="M419,161.17l.81-3.39C419.53,158.94,419.25,160.06,419,161.17Z"/><path class="cls-3" d="M300.67,191.86c.21-.65,0-1.24-1.48-1.66l-.54.17C300.27,190.74,300.72,191.26,300.67,191.86Z"/><path class="cls-3" d="M313.81,132.93c-.4,13-.81,25.94-1.21,38.7.74.39,1.11.76,1.39.7,12.72-2.47,15.48-.64,18.4,12.34,2.57,11.41,4.71,22.93,7.88,34.17,1.4,4.94,4.74,9.33,7.11,13.62l.26.07c-2.37-4.4-5.87-8.9-7.3-14-3.18-11.23-5.31-22.76-7.88-34.17-2.93-13-5.68-14.81-18.41-12.34-.28.06-.64-.31-1.39-.69.4-12.77.81-25.74,1.21-38.7-7.8-.17-10.13,0-10.94,4C303.8,133,306.21,132.77,313.81,132.93Z"/><path class="cls-3" d="M88,335a6.26,6.26,0,0,0,2.06-1.88c3-5.1,8-6.49,13.11-7.86q51.15-13.82,102.32-27.61c45.22-12.23,90.49-24.29,135.62-36.84,21.63-6,43-13,64.46-19.55a15.42,15.42,0,0,0,4.69-2c7.58-5.6,13.74-2.89,19.7,2.73l.87-.24c-6.17-6.06-12.52-9.19-20.38-3.38a15.67,15.67,0,0,1-4.69,2C384.33,247,363,253.94,341.34,260c-45.13,12.55-90.4,24.61-135.62,36.84q-51.15,13.84-102.32,27.6c-5.09,1.38-10.14,2.77-13.11,7.87-.74,1.26-2.38,2-3.66,3l0,.09Z"/><path class="cls-3" d="M524.67,114.74a5.29,5.29,0,0,1,.54,0A5.29,5.29,0,0,0,524.67,114.74Z"/><path class="cls-3" d="M125.77,327.84q65.28-17.77,130.52-35.67c32.43-8.9,64.81-17.94,97.24-26.81,7.58-2.07,15.27-3.71,22.91-5.55l33-9,10.86-2-10.86,2L433.91,243a16,16,0,0,1-.11,5.66,16,16,0,0,0,.18-6l-24.44,7.77-33,9c-7.64,1.84-15.34,3.48-22.92,5.56-32.43,8.86-64.81,17.9-97.23,26.8q-65.25,17.89-130.53,35.67c-15.66,4.27-31.38,8.36-47.07,12.53l-.9.51C93.83,336.34,109.83,332.18,125.77,327.84Z"/><path class="cls-3" d="M15.3,353.24c1-.65,2.05-1.27,3.07-1.92-1,.65-2.06,1.27-3.07,1.92Z"/><path class="cls-3" d="M101.59,306.66A56.26,56.26,0,0,1,98.28,317c-.87,2.06-1.5,4.21-2.51,7.07h0c.94-2.7,1.56-4.78,2.39-6.76A55,55,0,0,0,101.59,306.66Z"/><path class="cls-3" d="M416.5,259.4l-.29.09Z"/><path class="cls-3" d="M227.77,167.4h0a1.77,1.77,0,0,0,0,.23h0A1.77,1.77,0,0,1,227.77,167.4Z"/><path class="cls-3" d="M533.82,126.39c-.1,3.34-.09,6.51-.33,9.65-.27,3.36-.78,6.69-1.17,9.94l11.91,7C549.13,135.33,547.55,131.15,533.82,126.39Z"/><path class="cls-3" d="M66.44,343.43A8.23,8.23,0,0,0,66,345a7.37,7.37,0,0,1,.5-1.55Z"/><path class="cls-3" d="M99.71,306.84c1.55-7.46.45-15-1.64-22.58-.1-.17-.18-.34-.28-.5C100,291.48,101.22,299.21,99.71,306.84Z"/><path class="cls-3" d="M287.06,121.37c1.69-.51,3.3-1.41,5-2.1l12.43-2.11L292,119.27c-12.54,2.41-25.13,4.55-37.61,7.26,12.48-2.71,25.07-4.85,37.6-7.26A53.18,53.18,0,0,1,287.06,121.37Z"/><path class="cls-3" d="M484.78,181.27c-.23.17-.48.34-.73.5.25-.16.5-.33.73-.5Z"/><path class="cls-3" d="M227.92,169.45h0c.24,2.18.65,4.52.09,5.91C228.57,174,228.16,171.63,227.92,169.45Z"/><path class="cls-3" d="M46.42,319.46l.84.07c-10.43-5.29-19.62-3.84-28.82-1.63-.06.1-.1.23-.15.32C27.29,316.05,36.28,314.61,46.42,319.46Z"/><path class="cls-3" d="M412,260.63l.1,0-.1,0Z"/><path class="cls-3" d="M57.19,233.44q27.18-6.45,54.38-12.83c2.46-.58,3.94-1.54,4.42-3.67-.55,1.93-2,2.82-4.36,3.37q-27.21,6.36-54.38,12.83L3,246v.29Q30.09,239.83,57.19,233.44Z"/><path class="cls-3" d="M220.75,161.05c2.46,2,4.69,4.21,7,6.35h0C225.45,165.26,223.21,163,220.75,161.05Z"/><path class="cls-3" d="M129,205.94c0,1.7.24,3.41.12,5.1-.29,4.29,1.31,5,5.44,4,24.67-6,49.43-11.72,74.14-17.59,29.08-6.91,58.12-14,87.27-20.7,3.54-.81,5-2.19,5.45-4.69-.53,2.31-2,3.61-5.39,4.39-29.14,6.67-58.18,13.79-87.27,20.7-24.71,5.87-49.46,11.57-74.14,17.59-4.13,1-5.73.25-5.44-4,.12-1.69-.1-3.41-.12-5.11-.17-10.7-.32-21.4-.49-32.56l-13.09,3a2.62,2.62,0,0,1,0,.28l13-3C128.69,184.53,128.84,195.24,129,205.94Z"/><path class="cls-3" d="M436.34,159.33l-2.45.42,2.45-.42L448.26,156Z"/><path class="cls-3" d="M3.87,326.48c1.76-1.37,3.5-2.76,5.24-4.15L8,323c-1.35,1.07-2.7,2.15-4.07,3.22-.32.24-.62.5-.93.75v.25Z"/><polygon points="227.77 167.4 227.77 167.4 227.77 167.4 227.77 167.41 227.77 167.4"/><path d="M576.17,164.65c1.78-13.59,4.25-27.09,6.11-40.68.26-1.9-1-4.27-2.16-6-.49-.7-3.35-.8-4-.11a8.49,8.49,0,0,0-1.9,4.95c-.63,10.37-1,20.75-1.57,32.31-6.16-4.45-11-7.64-15.43-11.33a9.6,9.6,0,0,1-3-5.88c-.57-5.68-1.76-10.74-7.13-13.9-13.47-7.91-28.27-13.53-40.17-24.21a65.94,65.94,0,0,0-16-10.11c-6.2-2.9-12.83-5.73-19.52-6.53-7.31-.89-10.9-3.21-10-10.25.33-2.59,1.47-5.09,1.63-7.67a7.82,7.82,0,0,0-1.56-5.07c-.64-.78-3.67-.9-4-.31A10.34,10.34,0,0,0,456.3,65c-.08,3.74.09,7.5.14,10.3l-21.68-.68c-1.09-4.46-1.8-9-3.38-13.18-.89-2.39-2.78-5.11-4.95-6.2Q375.84,29.79,325,4.77C321.75,3.14,318.3,1.84,314,0c.13,4,.22,6.81.33,10.29-2.3-1.14-4-1.87-5.6-2.79A32.2,32.2,0,0,0,285.9,3.57c-37.51,6.9-75.08,13.51-112.63,20.15Q88.14,38.78,3,53.76v4.17q53.13-9.37,106.26-18.74,81.94-14.47,163.89-29c5-.89,10.1-1.54,15-2.85,7.57-2,13.15,2.64,19,5.53,20.13,9.9,40,20.32,60,30.51C377.75,48.73,388.34,54,400.35,60.1c-28.05,5.75-54.46,11.14-80.86,16.57Q218.83,97.34,118.16,118,60.59,129.85,3,141.58V144q50.73-10.42,101.46-20.86Q197.7,104,290.94,84.93q55-11.25,110-22.37c12.17-2.46,22.2,4.39,24.66,16.63,1.41,7-.26,9.77-7,11.84a14.05,14.05,0,0,0-1.42.5c-1.41.54-2.78,1.22-4.17,1.8l3.69.12c-4.17,2.26-9.79,2-10.4,8.34-8.36.94-3.47,3.86-.75,7.09L3,198.63v2.92l108.56-24.22c-1.42,6.74,3.59,14.44-5.76,18l5.88-.89c.1,2.56.17,4.55.26,6.93L3,226.58V229L111.45,203.8c1.89,12,1.93,12.21-8.31,14.65Q53.08,230.38,3,242.21V246l54.25-12.84q27.18-6.45,54.38-12.83c2.35-.55,3.81-1.44,4.36-3.37a8.46,8.46,0,0,0,.17-2.11c-.45-12.65-.51-25.31-.73-38.47l.07,0a2.62,2.62,0,0,0,0-.28l13.09-3c.17,11.16.32,21.86.49,32.56,0,1.7.24,3.42.12,5.11-.29,4.28,1.31,5,5.44,4,24.68-6,49.43-11.72,74.14-17.59,29.09-6.91,58.13-14,87.27-20.7,3.4-.78,4.86-2.08,5.39-4.39a13.22,13.22,0,0,0,.21-2.57c0-8.91.49-17.81.76-26.71a34.89,34.89,0,0,1,.53-6.17c.81-4,3.14-4.18,10.94-4-.4,13-.81,25.93-1.21,38.7.75.38,1.11.75,1.39.69,12.73-2.47,15.48-.63,18.41,12.34,2.57,11.41,4.7,22.94,7.88,34.17,1.43,5.09,4.93,9.59,7.3,14l-.26-.07.2.37c-5.3-1.36-11.86-2.83-14.87-10.37-2.95-7.37-5.77-14.8-9.13-22-4.58-9.79-14.33-13.68-24.39-10.28,1.44.42,1.69,1,1.48,1.66s-.84,1.49-1.29,2.25c14.92-2.41,19.83.76,25.68,14.37,3.05,7.1,4.69,14.85,11.22,20.58,7.34,6.43,15.09,7.15,23.62,5.05,8.72-2.15,17.29-4.94,26.51-7.62-.18,5.71.09,10.84-.72,15.8l0,.13c0,.06,0,.11,0,.16-.31,1.89-2.84,4.34-4.82,4.89C339.65,258.85,298.42,270,257.2,281.19l-101.31,27.5q-27.48,7.46-55,14.93c-1.25.33-2.57.37-5.21.73l.11-.3h0c1-2.86,1.64-5,2.51-7.07a56.26,56.26,0,0,0,3.31-10.33,30.76,30.76,0,0,0-3.52-22.4c2.09,7.55,3.19,15.12,1.64,22.58a32.76,32.76,0,0,1-2.54,7.74c-3.29,7-7,13.77-10.54,20.64,1.28-1,2.92-1.7,3.66-3,3-5.1,8-6.49,13.11-7.87q51.15-13.81,102.32-27.6c45.22-12.23,90.49-24.29,135.62-36.84,21.63-6,43-13,64.46-19.55a15.67,15.67,0,0,0,4.69-2c7.86-5.81,14.21-2.68,20.38,3.38L430,242l.68.65c-21.56,6-43,12.07-64.42,18-32.61,9-65.25,17.75-97.86,26.67q-83.91,23-167.8,45.95c-4.68,1.28-9.52,2-14.28,3h0c.54-.42,1.15-.8,1.74-1.19l-1.46.28c0,.11-.11.21-.16.31h0l-7.68,4.44c15.69-4.17,31.41-8.26,47.07-12.53q65.28-17.78,130.53-35.67c32.42-8.9,64.8-17.94,97.23-26.8,7.58-2.08,15.28-3.72,22.92-5.56l33-9L434,242.72a16,16,0,0,1-.18,6c-1.15,5.54-5.43,9.77-11.86,11.64-10.85,3.16-21.75,6.19-32.64,9.24q-59.9,16.77-119.79,33.52C209.25,320,149,337,88.71,353.73a38.45,38.45,0,0,1-16,1A8.09,8.09,0,0,1,66,345a8.23,8.23,0,0,1,.46-1.59c-.68-.68-1.79-1.29-1.94-2.08-4.35-23-27.47-31.18-45.93-23.61a.3.3,0,0,0-.13.16c9.2-2.21,18.39-3.66,28.82,1.63l-.84-.07c.26.12.51.23.77.37C28.61,318,14.1,322,3,331.29V349.7l3.84-.27L8,356l-1,1.33L3,354.49v3.62a14.06,14.06,0,0,0,8.09.63c6.92-1.1,13.3-7.6,14.57-14.83s-.75-10.26-9.25-14.72c11.57-3.35,20.3,3.95,18.8,15.72-1.53,11.95-11.7,22-23.59,23.23a19.34,19.34,0,0,1-8.62-.8v4a21.29,21.29,0,0,0,9.69.54c13-2,21.54-9.7,25.48-22,3.21-10.06.26-16.15-11.21-25.61,10.95-.14,16.21,10,16.73,18.5,1.13,18.45-19.41,36.64-37.49,33.45a23.05,23.05,0,0,1-3.2-.82V380a31.11,31.11,0,0,0,4.74.52c23.13.72,44-24.12,38.43-46.24-1-4-4.06-7.52-6.11-11.17,8.88-1.66,18,5.61,18.44,14.82,1,20.95-14.13,40.32-31.56,48.54-7.8,3.68-15.82,5.74-23.94,5v2.48c8.79.56,18-2,27.19-6.91,18-9.56,28.47-24.89,31-46.85,3.6,16.19,10.66,20.61,24.85,16.66q62.9-17.5,125.75-35.15C281.53,302.19,351.26,282.8,420.88,263a24.65,24.65,0,0,0,12.59-8.72c7.13-10.16,17.44-14,28.49-16.92a4.41,4.41,0,0,1,3.06.78c6.13,4,12.15,8.19,18.3,12.16a24.48,24.48,0,0,0,23.87,2c19.05-8.09,29.34-23.3,32.27-43.2,1.07-7.28-.82-15-1.33-22.1,8.06,4.41,17.14,9,25.79,14.26,4.42,2.68,7.42,1.6,11-1.14,3.87-2.95,0-4.23-.83-6.29-.41-.94-.06-2.23,0-3.36C574.77,181.87,575.05,173.21,576.17,164.65ZM291.46,139.32c-4.37,8.85-7.7,9.21-16.72,1.79C286.77,137.33,287.8,137.22,291.46,139.32ZM213.6,192.26q-39,9.31-78,18.49c-1.06.25-2.14.4-4.13.76-.07-4.26-.14-8.08-.21-12.31L222.76,178a7.53,7.53,0,0,1,.61,2C223,192.15,224.76,189.59,213.6,192.26Zm82.63-19.69-71.1,16.88c0-5-1.64-9.19,2.45-13.4a2.18,2.18,0,0,0,.43-.69c.56-1.39.15-3.73-.09-5.91a5.89,5.89,0,0,1-3.91,6,14.53,14.53,0,0,1-2.67.83c-29,6.4-57.86,13.2-86.78,19.84-.88.2-1.78.25-4,.55,1-3.2,1.7-5.69,2.44-8.19-.92-5-1.83-10-2.8-15.21,23.38-5.24,45.8-9.33,67.63-15.54,11.68-3.32,18.74,1.76,26.78,8.14l-4.55,2.31-4.28,2.17,12-2.67a1.77,1.77,0,0,1,0-.23c-2.33-2.14-4.56-4.38-7-6.35s-5.15-3.68-8.58-6.08c14-3.17,27.31-5.5,40.17-9.31,9.28-2.74,16.89-1.84,24.41,4.18a85.87,85.87,0,0,0,14.3,9C296.88,161.82,298.65,166,296.23,172.57Zm.39-11.88-27.4-17.32.94-1.49,27.43,17.27C297.26,159.66,296.94,160.17,296.62,160.69Zm.88-4.87-10.77-6.48,11.42-14.49C297.92,142.31,297.73,148.44,297.5,155.82ZM6,348.42C6,345.34,5,342,6,341.26c1.83-1.33,4.78-1.12,8.15-1.71Zm15.27.82a30.52,30.52,0,0,1-2.94,2.08c-1,.65-2.06,1.27-3.07,1.92h0l.87-2.77c.28-.93.57-1.86.84-2.79.35-1.21.63-2.45,1-4L22.68,346C22.16,347.3,22,348.65,21.31,349.24Zm1.47-14-7.73,3.33-2.23-5.69c.23-.47.46-.93.68-1.4ZM533.78,120c4.47,2.16,9.12,4,13.38,6.55,4.66,2.78,5.49,7.7,4.62,12.51-.6,3.29.66,4.8,3,6.36,4.23,2.8,8.63,5.44,12.44,8.75,2,1.71,2.86,4.7,4.23,7.11l-1.56.94c-2.18-9.87-11.58-12.27-18.1-17.57-2.09-1.7-3.47-2.89-3.15-5.69.71-6.34-2.41-10.29-8.06-12.8a72.46,72.46,0,0,1-7.71-4.55Zm14.28,39.51c1.42,2.07,3.84,4,3.62,5.65-.33,2.48-1.93,6-3.93,6.83a62.82,62.82,0,0,1-16.62,4.57c-4.7.57-9.61-.56-15.55-1C526.67,169.79,540.39,172.14,548.06,159.49Zm0-2.66.32-10.33,1.59-.18-.33,10.49ZM533.49,136c.24-3.14.23-6.31.33-9.65,13.73,4.76,15.31,8.94,10.41,26.63l-11.91-7C532.71,142.73,533.22,139.4,533.49,136ZM479,85.91l17.33,8.71-.87,1.75L478.1,87.88Zm-43.37,4.28,2.2,1.2c-.82,2-1.34,4.22-2.62,5.84-.17.21-.6.21-1.16.12-.37-.07-.79-.17-1.22-.29l-.66-.17c-.43-.12-.86-.22-1.23-.29Q433.31,93.41,435.65,90.19ZM413.93,60.51q-39.65-19.92-79.21-40C330,18.13,325,16.06,320.81,13c-2.26-1.64-3.21-5.1-4.76-7.73l1.47-1c8.93,4.36,17.89,8.67,26.79,13.09,25.33,12.54,50.54,25.3,76,37.57,6,2.91,9.55,6.35,9.9,13.35.32,6.14,1.84,12.21,2.83,18.32l-2.12,1c-.74-1.54-2-3-2.15-4.62C428.05,72.58,423.21,65.18,413.93,60.51Zm7.37,37.34-10.95,5.75C410.75,98.61,410.75,98.61,421.3,97.85Zm-16.17,8,35.73-6.59C429.06,101.76,417.7,106.78,405.13,105.82Zm16.53,8.11,2-1c1.6,2,4.36,3.77,4.6,5.87,1.16,10.51,1.65,21.08,2.38,31.63l-3.24.4C418.51,139.62,423.55,126.23,421.66,113.93Zm.87-7.2,20.52-5.31c-2.25,8.63-4.21,16.11-6.17,23.6C430.11,109.71,430.11,109.71,422.53,106.73Zm-3.72,39.07c-3.77-4.7-4-34.67-.6-37C418.41,121.14,418.6,133.09,418.81,145.8Zm-8-34.52c.21,5.82.4,11,.62,17.23-7.49-4-14.44-7.82-22.95-12.41Zm-38.08,6.59c3.63,1.08,7.51,1.65,10.83,3.33,8.21,4.15,16.11,8.9,24.26,13.19,2,1,4.4,1.21,7.08,1.89-.07,2-.15,4.81-.27,8.47l-42.8-24.35ZM324.07,169c-.35-.11-.61-.5-.95-.6-2.47-.71-6.43-.72-7.09-2.21-1.19-2.69-.53-6.26-.43-9.46.21-6.81.71-13.62.79-20.44,0-3.32.86-5,4.51-5.72,13.3-2.7,26.5-6,39.8-8.69a11.74,11.74,0,0,1,7.36,1.23q18.35,10.08,36.39,20.71c7,4.12,9.09,11,9.64,20.28l-78.94,21.24C334,177.52,331.57,171.35,324.07,169Zm85.83-1.19c-.82,11-1.64,21.68-2.42,32.37-.91,12.39-6.42,19-17.86,22.1.46-14.54,1-29,1.33-43.53.09-3.51,1.51-5.31,5-6.24C400.74,171.24,405.41,169.38,409.9,167.84Zm-28.71,57.87c-6.63,1.37-13.13,3.41-19.71,5-9.74,2.36-16.77-2-19.06-11.81-2.35-10.06-4.48-20.18-6.87-31l54.19-13.28c-.09,2.91-.11,5.25-.25,7.59-.73,11.88-1.61,23.76-2.2,35.65C387.08,222.15,385.78,224.76,381.19,225.71Zm23.9,13.19c-5.88,1.88-11.57,4.33-18.07,6.82.19-6.14.05-11.46.7-16.68a6.91,6.91,0,0,1,3.89-4.62c13.61-4.8,18.56-14.83,18.67-28.54a139.83,139.83,0,0,1,2.79-25.15c-.23,7.29-.23,14.6-.73,21.87-.93,13.56-2.26,27.1-3.17,40.66C409,236.32,408.18,237.9,405.09,238.9Zm5.13-2.46c.31-3.6.57-6.31.77-9,1.36-18.81,2.62-37.62,4.18-56.41.14-1.69,1.18-3.3,2.13-4.92.32-.54.63-1.09.89-1.63l.8-3.29c.26-1.11.54-2.23.81-3.39.56-2.3,1.15-4.72,1.79-7.38,4.53,7.18,4.22,10.14-.51,13.51,2.7-.8,3.76,0,3.51,3q-2.61,31.28-5.06,62.56C419.1,235,414.41,234.38,410.22,236.44Zm11.17-3.7c13.13-20.17,26.08-40.05,39.17-60.14l18.42,10L434.85,241Zm34.46,4.1c-6.89,2-13.2,6-20.34,9.41.53-1.89.57-4.27,1.73-5.81q20.76-27.66,41.9-55.05c1.19-1.55,3.16-2.5,4.91-3.62.25-.16.5-.33.73-.5l-20.65-7.57c.11-.64.23-1.28.35-1.91l16.23-7.7c-6.49,1.85-13.41,2.87-19.31,5.86-3.41,1.73-5.32,6.57-7.68,10.16q-15.32,23.29-30.47,46.68a6.12,6.12,0,0,0-.48,1.64l-1.71-.89c1.64-21.53,3.28-43.06,4.9-64.28l10.38-3.93-2.45.42L426.38,161q-.53-3.19-1.05-6.5c8.56-.2,10.48-2.27,10.05-11.45-.15-3.26-.53-6.26,3.22-7.73l-5-1.41c12.12-6.91,11-19,14.1-29.1.66-2.09-1.13-6.84-2.79-7.4-3.82-1.28-4.14-3.8-4.69-6.75-.79-4.22-1.64-8.43-2.47-12.66,7.19-2.8,14-.42,20.85,3.11,19.92,10.24,40,20.16,60,30.32a4.86,4.86,0,0,1,.54.33,6.36,6.36,0,0,1,1,.85c.76.79,1.44,1.75,2.21,2.53.76-.08,1.6-.34,2.36-.44a5.29,5.29,0,0,1,.54,0,2,2,0,0,1,.82.16c5.82,2.59,7,14.48,2,18.06,1.09.31,3.16.84,3.15.89-1.09,4.61,1.1,10.15-3.72,13.71,4.71,2.28,9.74,4.08,14,7,4.82,3.25,3.75,8.41-2.38,10.52-8.86,3-18,5.21-27,7.93a44,44,0,0,0-6.31,3l4.57-.84c-16,13.66-22.46,33.82-35.56,49.05A38.88,38.88,0,0,1,455.85,236.84Zm52.09-37.55c5.18-3,9.32-1.73,11.34,3.58,4.23,11.14-6.57,28.49-18.53,29.49-5.45.46-7.45-3.22-8.62-8.41,8.62,1.77,14.24-.66,17.83-7.17S512.92,204.48,507.94,199.29Zm15.42,6.07c-.56-4.16-3.8-8-5.47-11.23,6.1.93,9.8,6.25,9.53,15.42-.34,11.28-9.61,24.35-20.22,28.5-7,2.72-12.71.68-16.65-6.54,7.28,6.86,14.54,5,21.22-.06C520.3,225,524.81,216.09,523.36,205.36Zm2.89,30c-6,7.73-13.41,13.83-23.32,16-13.65,3-24.68-4.1-27.33-17.74a7.49,7.49,0,0,1,1-5.22c2.59-3.63,5.65-6.92,8.68-10.53-.09,2.81-.29,5.39-.23,8,.37,14.33,10,20.55,23.34,15,12.71-5.29,23.52-23.56,22.09-37.35-1.3-12.51-11.37-18.32-22.86-13.18-1.84.83-3.62,1.77-5.63,2.75,2.18-6.52,12-14.73,17.08-14.54,8.23.32,16.06,7.13,18.06,16.22C540.48,210.09,535.57,223.41,526.25,235.34ZM566,190.82c-.2,2.41-.74,4.79-1.23,7.85l-32.9-17.75c6.56-2.82,13.39-5.84,20.31-8.65a6.33,6.33,0,0,1,4.4-.22C567.13,176.64,567.13,176.7,566,190.82Zm-12.62-41.63c14.57,8.41,16,10.59,13.51,20.7C554.34,165.53,550.79,160.23,553.34,149.19Zm18.07,49.06c-.19,1.2-2,2.15-3.07,3.21-.47-.37-.94-.74-1.42-1.1.7-6.12,1.25-12.26,2.22-18.33.18-1.14,2-2,3.09-3l1.31,1.38C572.87,186.35,572.36,192.34,571.41,198.25Zm1.33-21.51h-2q3.1-23.13,6.2-46.24l1.56.2Q575.62,153.71,572.74,176.74Z"/><path d="M113.84,159c2-.4,4.66-1.88,5.06,2.05,0,.38.71.83,1.18,1,3.15,1.31,14.17-3.38,16.29-6.2,1.12-1.51,3.47-2.5,5.44-2.93q53.13-11.65,106.3-23.09c12.74-2.75,25.5-5.41,38.22-8.24.25,0,.49-.12.73-.19a53.18,53.18,0,0,0,4.95-2.1c-12.53,2.41-25.12,4.55-37.6,7.26Q128.7,153.8,3,181.19v1.86l84.82-18.46C96.49,162.7,105.15,160.75,113.84,159Z"/><path d="M8,323a53.15,53.15,0,0,0-5,3.17v.8c.31-.25.61-.51.93-.75C5.3,325.12,6.65,324,8,323Z"/><path class="cls-4" d="M118.16,118Q218.84,97.4,319.49,76.67c26.4-5.43,52.81-10.82,80.86-16.57-12-6.06-22.6-11.37-33.15-16.75-20-10.19-39.87-20.61-60-30.51-5.89-2.89-11.47-7.56-19-5.53-4.91,1.31-10,2-15,2.85q-81.94,14.54-163.89,29Q56.13,48.58,3,57.93v83.65Q60.59,129.83,118.16,118Z"/><path class="cls-5" d="M254.41,126.53c12.48-2.71,25.07-4.85,37.61-7.26l12.43-2.11,19.05-4.64L413,93.33h0c1.39-.58,2.76-1.26,4.17-1.8a14.05,14.05,0,0,1,1.42-.5c6.77-2.07,8.44-4.81,7-11.84C423.11,67,413.08,60.1,400.91,62.56q-55,11.11-110,22.37Q197.7,104,104.46,123.17,53.73,133.58,3,144v37.16Q128.7,153.82,254.41,126.53Z"/><path class="cls-5" d="M413,93.33h0c1.39-.58,2.76-1.26,4.17-1.8-1.41.54-2.78,1.22-4.17,1.8Z"/><path class="cls-3" d="M359.84,234.41c-8.53,2.1-16.28,1.37-23.62-5-6.53-5.73-8.17-13.48-11.23-20.58-5.86-13.65-10.77-16.8-25.77-14.36l-3.67.81-8.41,1.84c-4,.89-8.05,1.79-12.06,2.76-19,4.62-38,9.4-57.07,14.06q-32.67,8-65.37,15.9c-23.07,5.6-46.14,11.16-69.19,16.83-18.11,4.46-36.17,9.15-54.29,13.58Q16.1,263.38,3,266.51v9.83q10.93-4.59,21.89-9.14a55.31,55.31,0,0,1,7.59-2c19.07-5.71,37.13-3.29,54,7.13,3.14,1.94,5.5,5.15,8.22,7.77l3.09,3.65c.1.16.18.33.28.5-.08-.27-.15-.53-.22-.8,4.67,7.69,5.34,15.43,3.74,23.2a55,55,0,0,1-3.38,10.63c-.83,2-1.45,4.06-2.39,6.76,2.61-.36,3.92-.4,5.16-.73q27.49-7.44,55-14.93l101.3-27.49q61.83-16.78,123.62-33.73c1.92-.54,4.37-2.88,4.77-4.75.78-4.9.52-10,.69-15.63C377.13,229.47,368.56,232.26,359.84,234.41Z"/><path class="cls-3" d="M380.88,247.17q-61.75,17.07-123.62,33.73L156,308.39q-27.5,7.46-55,14.93c-1.24.33-2.55.37-5.16.73l-.11.3c2.64-.36,4-.4,5.21-.73q27.49-7.44,55-14.93l101.31-27.5c41.22-11.19,82.45-22.34,123.61-33.72,2-.55,4.51-3,4.82-4.89,0-.05,0-.1,0-.16C385.25,244.29,382.8,246.63,380.88,247.17Z"/><path class="cls-3" d="M97.85,283.46c.07.27.14.53.22.8a30.76,30.76,0,0,1,3.52,22.4C103.19,298.89,102.52,291.15,97.85,283.46Z"/><path class="cls-6" d="M97.79,283.76l-3.09-3.65c-12.58-11.88-27.81-16.88-44.82-16.71-5.8.06-11.6,1.17-17.4,1.81a55.31,55.31,0,0,0-7.59,2q-11,4.53-21.89,9.14v49.55A55.71,55.71,0,0,1,9.18,322L8,323l1.11-.64,9.18-4.11c.05-.09.09-.22.15-.32l-.09,0c.09-.16.15-.42.29-.48,18.45-7.57,41.57.6,45.92,23.61.15.81,1.3,1.42,2,2.12,0,.09-.06.18-.1.26l0,0,11.38-2.89.9-.51-.83.22,8.58-5,.07,0,0-.09-.15.1c3.6-7,7.4-13.92,10.76-21a32.65,32.65,0,0,0,2.47-7.44C101.22,299.21,100,291.48,97.79,283.76Z"/><path class="cls-6" d="M9.18,322A55.71,55.71,0,0,0,3,325.89v.25A53.15,53.15,0,0,1,8,323Z"/><path class="cls-6" d="M64.56,341.05c-4.35-23-27.47-31.18-45.92-23.61-.14.06-.2.32-.29.48l.09,0a.3.3,0,0,1,.13-.16c18.46-7.57,41.58.6,45.93,23.61.15.79,1.26,1.4,1.94,2.08,0-.08.06-.17.1-.26C65.86,342.47,64.71,341.86,64.56,341.05Z"/><path class="cls-6" d="M77.93,340.29l.83-.22,7.68-4.44h0c0-.1.11-.2.16-.31l-.07,0Z"/><path class="cls-6" d="M86.48,335.32l.15-.1c3.54-6.87,7.25-13.66,10.54-20.64a32.76,32.76,0,0,0,2.54-7.74,32.65,32.65,0,0,1-2.47,7.44C93.88,321.4,90.08,328.32,86.48,335.32Z"/><path class="cls-7" d="M111.57,220.61Q84.36,227,57.19,233.44T3,246.27v15.82L15.58,259q40-9.76,80-19.51,59.88-14.5,119.76-28.93c25.39-6.11,50.81-12.08,76.2-18.15,2.39-.57,4.73-1.36,7.09-2l.54-.17-.48-.13c10.25-3.72,20.27.15,24.94,10.11,3.36,7.18,6.18,14.62,9.12,22s9.35,9,14.61,10.3c-2.37-4.29-5.71-8.68-7.11-13.62-3.17-11.24-5.31-22.76-7.88-34.17-2.92-13-5.68-14.81-18.4-12.34-.28.06-.65-.31-1.39-.7.4-12.76.81-25.73,1.21-38.7-7.6-.16-10,0-10.88,3.72a38.11,38.11,0,0,0-.46,5.87c-.28,8.9-.74,17.81-.76,26.71a12.8,12.8,0,0,1-.28,2.87c-.48,2.5-1.91,3.88-5.45,4.69-29.15,6.66-58.19,13.79-87.27,20.7-24.71,5.87-49.47,11.57-74.14,17.59-4.13,1-5.73.25-5.44-4,.12-1.69-.1-3.4-.12-5.1-.17-10.7-.32-21.41-.49-32.56l-13,3c.21,13.06.28,25.64.72,38.19a8,8,0,0,1-.23,2.41C115.51,219.07,114,220,111.57,220.61Z"/><path class="cls-7" d="M115.5,176.34l-.07,0c.22,13.16.28,25.82.73,38.47a8.46,8.46,0,0,1-.17,2.11,8,8,0,0,0,.23-2.41C115.78,202,115.71,189.4,115.5,176.34Z"/><path class="cls-7" d="M302.47,142.52a38.11,38.11,0,0,1,.46-5.87,34.89,34.89,0,0,0-.53,6.17c-.27,8.9-.73,17.8-.76,26.71a13.22,13.22,0,0,1-.21,2.57,12.8,12.8,0,0,0,.28-2.87C301.73,160.33,302.19,151.42,302.47,142.52Z"/><path class="cls-7" d="M332.77,222.16c-2.94-7.36-5.76-14.8-9.12-22-4.67-10-14.69-13.83-24.94-10.11l.48.13c10.06-3.4,19.81.49,24.39,10.28,3.36,7.18,6.18,14.61,9.13,22,3,7.54,9.57,9,14.87,10.37l-.2-.37C342.12,231.12,335.73,229.57,332.77,222.16Z"/><path class="cls-8" d="M323.5,112.52c-.93,4.8-10.42,10.16-14.57,8.08a28.11,28.11,0,0,1-4.48-3.44L292,119.27c-1.66.69-3.27,1.59-5,2.1-.24.07-.48.14-.73.19-12.72,2.83-25.48,5.49-38.22,8.24Q195,141.29,141.81,152.89c-2,.43-4.32,1.42-5.44,2.93-2.12,2.82-13.14,7.51-16.29,6.2-.47-.19-1.14-.64-1.18-1-.4-3.93-3.11-2.45-5.06-2.05-8.69,1.8-17.35,3.75-26,5.64L3,183.05v15.58l402.49-89.75c-2.72-3.23-7.61-6.15.75-7.09.61-6.35,6.23-6.08,10.4-8.34L413,93.33Z"/><path class="cls-8" d="M416.64,93.45,413,93.33h0Z"/><path class="cls-7" d="M433.91,243l-24.43,7.77,10.86-2c.8,3.11,1.17,5.24.82,6.8-.41,1.82-1.81,2.88-4.66,3.84l-.29.09c-1.15.37-2.5.73-4.12,1.12l-.1,0L376.19,270l-5.9,2.48c-2-8-1.28-9.32,6.15-12.68-7.64,1.84-15.33,3.48-22.91,5.55-32.43,8.87-64.81,17.91-97.24,26.81q-65.24,17.9-130.52,35.67c-15.94,4.34-31.94,8.5-47.91,12.74l-11.38,2.89A7.37,7.37,0,0,0,66,345a8.09,8.09,0,0,0,6.8,9.45,38.44,38.44,0,0,0,16-1c60.31-16.72,120.54-33.74,180.8-50.65q59.9-16.82,119.8-33.53c10.88-3.05,21.78-6.08,32.63-9.24,6.32-1.84,10.56-5.95,11.8-11.34A16,16,0,0,0,433.91,243Z"/><path class="cls-7" d="M422,260c-10.85,3.16-21.75,6.19-32.63,9.24Q329.48,286,269.57,302.79c-60.26,16.91-120.49,33.93-180.8,50.65a38.44,38.44,0,0,1-16,1A8.09,8.09,0,0,1,66,345a8.09,8.09,0,0,0,6.74,9.75,38.45,38.45,0,0,0,16-1C149,337,209.25,320,269.51,303.08q59.88-16.8,119.79-33.52c10.89-3.05,21.79-6.08,32.64-9.24,6.43-1.87,10.71-6.1,11.86-11.64C432.56,254.07,428.32,258.18,422,260Z"/><path class="cls-9" d="M404.45,143.85q-18-10.65-36.39-20.71a11.74,11.74,0,0,0-7.36-1.23c-13.3,2.72-26.5,6-39.8,8.69-3.65.74-4.47,2.4-4.51,5.72-.08,6.82-.58,13.63-.79,20.44-.1,3.2-.76,6.77.43,9.46.66,1.49,4.62,1.5,7.09,2.21.34.1.6.49.95.6,7.5,2.32,9.93,8.49,11.08,16.34l78.94-21.24C413.54,154.86,411.41,148,404.45,143.85Z"/><path class="cls-10" d="M89.18,198.86c5.52-1.26,11.08-2.38,16.62-3.57,9.35-3.52,4.34-11.22,5.76-18L3,201.55v17Q46.1,208.75,89.18,198.86Z"/><path class="cls-3" d="M531.13,133.81c0-.05-2.06-.58-3.15-.89q-33.9,9.83-67.8,19.63-6,1.72-11.92,3.4l-11.92,3.38L426,163.26c-1.62,21.22-3.26,42.75-4.9,64.28l1.71.89a6.12,6.12,0,0,1,.48-1.64q15.19-23.35,30.47-46.68c2.36-3.59,4.27-8.43,7.68-10.16,5.9-3,12.82-4,19.31-5.86l46.7-16.57C532.23,144,530,138.42,531.13,133.81Z"/><path class="cls-8" d="M410.3,239.31a15.42,15.42,0,0,1-4.69,2c-21.47,6.57-42.83,13.54-64.46,19.55-45.13,12.55-90.4,24.61-135.62,36.84q-51.15,13.85-102.32,27.61c-5.09,1.37-10.14,2.76-13.11,7.86A6.26,6.26,0,0,1,88,335c4.27-.82,8.57-1.51,12.75-2.65q83.91-22.9,167.8-45.95c32.61-8.92,65.25-17.72,97.85-26.67C387.61,254,408.73,248,430,242,424,236.42,417.88,233.71,410.3,239.31Z"/><path class="cls-8" d="M268.59,286.43q-83.91,22.95-167.8,45.95c-4.18,1.14-8.48,1.83-12.75,2.65-.59.39-1.2.77-1.74,1.19h0c4.76-1,9.6-1.67,14.28-3q83.93-22.9,167.8-45.95c32.61-8.92,65.25-17.72,97.86-26.67,21.45-5.89,42.86-11.94,64.42-18L430,242C408.73,248,387.61,254,366.44,259.76,333.84,268.71,301.2,277.51,268.59,286.43Z"/><path class="cls-9" d="M522.31,115.18c-.77-.78-1.45-1.74-2.21-2.53a6.36,6.36,0,0,0-1-.85,4.86,4.86,0,0,0-.54-.33c-20-10.16-40-20.08-60-30.32C451.77,77.62,445,75.24,437.8,78c.83,4.23,1.68,8.44,2.47,12.66.55,3,.87,5.47,4.69,6.75,1.66.56,3.45,5.31,2.79,7.4-3.15,10.09-2,22.19-14.1,29.1l5,1.41q39.64-9.86,79.3-19.68A33.81,33.81,0,0,1,522.31,115.18Z"/><path class="cls-9" d="M522.31,115.18c-.77-.78-1.45-1.74-2.21-2.53.76.79,1.44,1.75,2.21,2.53Z"/><path class="cls-9" d="M519.14,111.8a6.36,6.36,0,0,1,1,.85A6.36,6.36,0,0,0,519.14,111.8Z"/><path class="cls-3" d="M103.14,218.45c10.24-2.44,10.2-2.63,8.31-14.65L3,229v13.25Q53.09,230.36,103.14,218.45Z"/><path class="cls-10" d="M227.77,167.41h0a1.77,1.77,0,0,0,0,.23h0Z"/><path class="cls-10" d="M228,167.58l-.15-.16.14.15Z"/><polygon class="cls-10" points="227.77 167.41 227.77 167.4 227.77 167.4 227.77 167.41 227.77 167.41"/><path class="cls-10" d="M227.77,167.4v0h0v0Z"/><path class="cls-10" d="M291.05,158.81a85.87,85.87,0,0,1-14.3-9c-7.52-6-15.13-6.92-24.41-4.18-12.86,3.81-26.15,6.14-40.17,9.31,3.43,2.4,6.12,4.09,8.58,6.08s4.7,4.21,7,6.35v0h0l0,0,.15.16h0l-.17,0a14.74,14.74,0,0,1,.12,1.82c.24,2.18.65,4.51.09,5.91a2.18,2.18,0,0,1-.43.69c-4.09,4.21-2.46,8.41-2.45,13.4l71.1-16.88C298.65,166,296.88,161.82,291.05,158.81Z"/><polygon class="cls-10" points="227.77 167.4 227.77 167.4 227.77 167.41 227.77 167.41 227.77 167.4"/><path class="cls-10" d="M227.8,167.63l.17,0h0l-.16,0Z"/><path class="cls-10" d="M227.77,167.38h0v0h0Z"/><path class="cls-10" d="M227.77,167.4v0Z"/><path class="cls-10" d="M227.8,167.62h0l0-.21h0Z"/><path class="cls-3" d="M389.49,182.22c.14-2.34.16-4.68.25-7.59l-54.19,13.28c2.39,10.82,4.52,20.94,6.87,31,2.29,9.85,9.32,14.17,19.06,11.81,6.58-1.6,13.08-3.64,19.71-5,4.59-1,5.89-3.56,6.1-7.84C387.88,206,388.76,194.1,389.49,182.22Z"/><path class="cls-11" d="M448.26,156q6-1.68,11.92-3.4,33.9-9.8,67.8-19.63c5.08-3.58,3.87-15.47-2-18.06a2,2,0,0,0-.82-.16,5.29,5.29,0,0,0-.54,0c-.76.1-1.6.36-2.36.44h0a33.81,33.81,0,0,0-4.41.5q-39.66,9.81-79.3,19.68c-3.75,1.47-3.37,4.47-3.22,7.73.43,9.18-1.49,11.25-10.05,11.45q.53,3.3,1.05,6.5l7.51-1.29,2.45-.42Z"/><path class="cls-11" d="M522.31,115.18c.76-.08,1.6-.34,2.36-.44-.76.1-1.6.36-2.36.44Z"/><path class="cls-5" d="M298.65,190.37c-2.36.69-4.7,1.48-7.09,2-25.39,6.07-50.81,12-76.2,18.15Q155.47,225,95.6,239.5q-40,9.7-80,19.51L3,262.09v4.42q13.08-3.13,26.16-6.31c18.12-4.43,36.18-9.12,54.29-13.58,23-5.67,46.12-11.23,69.19-16.83q32.69-7.95,65.37-15.9c19-4.66,38-9.44,57.07-14.06,4-1,8-1.87,12.06-2.76l8.41-1.84,3.67-.81a2.29,2.29,0,0,1,.16-.31h-.1c.34-.73,1.14-1.54,1.39-2.26C300.72,191.26,300.27,190.74,298.65,190.37Z"/><path class="cls-5" d="M299.38,194.11c.45-.76,1.22-1.55,1.29-2.25-.25.72-1.05,1.53-1.39,2.26Z"/><path class="cls-5" d="M287.14,197.07l8.41-1.84Z"/><path class="cls-10" d="M215.8,170.3l4.28-2.17,4.55-2.31c-8-6.38-15.1-11.46-26.78-8.14C176,163.89,153.6,168,130.22,173.22c1,5.25,1.88,10.23,2.8,15.21q26.22-5.81,52.43-11.6C195.56,174.61,205.68,172.48,215.8,170.3Z"/><path class="cls-10" d="M215.8,170.3l4.28-2.17-4.28,2.17Z"/><path class="cls-3" d="M510.35,175.13l-4.57.84-21,5.3c-.23.17-.48.34-.73.5-1.75,1.12-3.72,2.07-4.91,3.62q-21.13,27.39-41.9,55.05c-1.16,1.54-1.2,3.92-1.73,5.81,7.14-3.39,13.45-7.37,20.34-9.41a38.88,38.88,0,0,0,18.94-12.66C487.89,209,494.32,188.79,510.35,175.13Z"/><path class="cls-10" d="M3,218.57v8l108.94-25.25c-.09-2.38-.16-4.37-.26-6.93l-5.88.89c-5.54,1.19-11.1,2.31-16.62,3.57Q46.09,208.7,3,218.57Z"/><path class="cls-3" d="M460.56,172.6c-13.09,20.09-26,40-39.17,60.14l13.46,8.3L479,182.57Z"/><path class="cls-3" d="M505.78,176a44,44,0,0,1,6.31-3c9-2.72,18.12-4.89,27-7.93,6.13-2.11,7.2-7.27,2.38-10.52-4.3-2.89-9.33-4.69-14-7l-46.7,16.57-16.23,7.7c-.12.63-.24,1.27-.35,1.91l20.65,7.57h0Z"/><path class="cls-3" d="M464.13,173.7l20.65,7.57h0Z"/><path class="cls-9" d="M26.94,386.43c17.43-8.22,32.54-27.59,31.56-48.54-.43-9.21-9.56-16.48-18.44-14.82,2,3.65,5.1,7.15,6.11,11.17,5.55,22.12-15.3,47-38.43,46.24A31.11,31.11,0,0,1,3,380v11.49C11.12,392.17,19.14,390.11,26.94,386.43Z"/><path class="cls-9" d="M519.06,178.53c-5.09-.19-14.9,8-17.08,14.54,2-1,3.79-1.92,5.63-2.75,11.49-5.14,21.56.67,22.86,13.18,1.43,13.79-9.38,32.06-22.09,37.35-13.29,5.54-23-.68-23.34-15-.06-2.58.14-5.16.23-8-3,3.61-6.09,6.9-8.68,10.53a7.49,7.49,0,0,0-1,5.22c2.65,13.64,13.68,20.75,27.33,17.74,9.91-2.19,17.29-8.29,23.32-16,9.32-11.93,14.23-25.25,10.87-40.59C535.12,185.66,527.29,178.85,519.06,178.53Z"/><path class="cls-3" d="M131.25,199.2c.07,4.23.14,8.05.21,12.31,2-.36,3.07-.51,4.13-.76q39-9.23,78-18.49c11.16-2.67,9.42-.11,9.77-12.24a7.53,7.53,0,0,0-.61-2Z"/><path class="cls-3" d="M430.92,87.54l2.12-1c-1-6.11-2.51-12.18-2.83-18.32-.35-7-3.87-10.44-9.9-13.35-25.46-12.27-50.67-25-76-37.57-8.9-4.42-17.86-8.73-26.79-13.09l-1.47,1c1.55,2.63,2.5,6.09,4.76,7.73,4.23,3.07,9.2,5.14,13.91,7.53q39.58,20,79.21,40c9.28,4.67,14.12,12.07,14.84,22.41C428.89,84.5,430.18,86,430.92,87.54Z"/><path class="cls-5" d="M391,178.78c-.37,14.5-.87,29-1.33,43.53,11.44-3.11,16.95-9.71,17.86-22.1.78-10.69,1.6-21.38,2.42-32.37-4.49,1.54-9.16,3.4-14,4.7C392.46,173.47,391,175.27,391,178.78Z"/><polygon class="cls-10" points="227.92 169.45 227.92 169.45 227.92 169.45 227.92 169.45 227.92 169.45"/><path class="cls-10" d="M227.92,169.45c-.07-.63-.13-1.24-.14-1.82l-12,2.67h0c-10.12,2.18-20.24,4.31-30.35,6.53q-26.22,5.76-52.43,11.6c-.74,2.5-1.48,5-2.44,8.19,2.2-.3,3.1-.35,4-.55,28.92-6.64,57.81-13.44,86.78-19.84a14.53,14.53,0,0,0,2.67-.83A5.9,5.9,0,0,0,227.92,169.45Z"/><polygon class="cls-10" points="227.78 167.63 227.78 167.63 227.78 167.63 227.78 167.63 227.78 167.63"/><path class="cls-10" d="M215.79,170.3l12-2.67h0l-12,2.67h0Z"/><path class="cls-10" d="M227.78,167.63c0,.58.07,1.19.14,1.82h0c-.07-.63-.13-1.24-.14-1.82Z"/><path class="cls-10" d="M224,175.4a5.89,5.89,0,0,0,3.91-6h0A5.9,5.9,0,0,1,224,175.4Z"/><path class="cls-10" d="M227.92,169.45h0a14.74,14.74,0,0,0-.12-1.82h0A14.74,14.74,0,0,1,227.92,169.45Z"/><path class="cls-10" d="M227.8,167.62h0Z"/><path class="cls-10" d="M227.77,167.37l0,0Z"/><path class="cls-10" d="M227.77,167.41l.19.18h0l-.18-.17Z"/><path class="cls-10" d="M228,167.57l-.14-.15,0,0v0Z"/><path class="cls-10" d="M227.8,167.62l.16,0-.19-.18Z"/><path class="cls-10" d="M227.8,167.63h0c0,.58.07,1.19.14,1.82A14.74,14.74,0,0,0,227.8,167.63Z"/><polygon class="cls-10" points="227.8 167.62 227.8 167.63 227.8 167.63 227.8 167.62 227.8 167.62"/><path class="cls-3" d="M421.08,163.91l-2.89.55c-.26.54-.57,1.09-.89,1.63-.95,1.62-2,3.23-2.13,4.92-1.56,18.79-2.82,37.6-4.18,56.41-.2,2.71-.46,5.42-.77,9,4.19-2.06,8.88-1.48,9.31-7q2.49-31.29,5.06-62.56C424.84,164,423.78,163.11,421.08,163.91Z"/><path class="cls-9" d="M11.62,368.14c11.89-1.27,22.06-11.28,23.59-23.23,1.5-11.77-7.23-19.07-18.8-15.72,8.5,4.46,10.49,7.64,9.25,14.72S18,357.64,11.09,358.74A14.06,14.06,0,0,1,3,358.11v9.23A19.34,19.34,0,0,0,11.62,368.14Z"/><path class="cls-3" d="M413.07,170.73a139.83,139.83,0,0,0-2.79,25.15c-.11,13.71-5.06,23.74-18.67,28.54a6.91,6.91,0,0,0-3.89,4.62c-.65,5.22-.51,10.54-.7,16.68,6.5-2.49,12.19-4.94,18.07-6.82,3.09-1,3.88-2.58,4.08-5.64.91-13.56,2.24-27.1,3.17-40.66C412.84,185.33,412.84,178,413.07,170.73Z"/><path class="cls-11" d="M556.54,172.05a6.33,6.33,0,0,0-4.4.22c-6.92,2.81-13.75,5.83-20.31,8.65l32.9,17.75c.49-3.06,1-5.44,1.23-7.85C567.13,176.7,567.13,176.64,556.54,172.05Z"/><path class="cls-3" d="M6.2,376.18c18.08,3.19,38.62-15,37.49-33.45-.52-8.54-5.78-18.64-16.73-18.5,11.47,9.46,14.42,15.55,11.21,25.61-3.94,12.34-12.49,20-25.48,22A21.29,21.29,0,0,1,3,371.34v4A23.05,23.05,0,0,0,6.2,376.18Z"/><path class="cls-9" d="M492.13,224c1.17,5.19,3.17,8.87,8.62,8.41,12-1,22.76-18.35,18.53-29.49-2-5.31-6.16-6.61-11.34-3.58,5,5.19,5.64,10.92,2,17.49S500.75,225.72,492.13,224Z"/><path class="cls-11" d="M414.93,136.28c-2.68-.68-5.11-.85-7.08-1.89-8.15-4.29-16.05-9-24.26-13.19-3.32-1.68-7.2-2.25-10.83-3.33l-.9,2.53,42.8,24.35C414.78,141.09,414.86,138.31,414.93,136.28Z"/><path class="cls-3" d="M427.4,150.81l3.24-.4c-.73-10.55-1.22-21.12-2.38-31.63-.24-2.1-3-3.92-4.6-5.87l-2,1C423.55,126.23,418.51,139.62,427.4,150.81Z"/><path class="cls-11" d="M515.58,175.53c5.94.45,10.85,1.58,15.55,1A62.82,62.82,0,0,0,547.75,172c2-.85,3.6-4.35,3.93-6.83.22-1.62-2.2-3.58-3.62-5.65C540.39,172.14,526.67,169.79,515.58,175.53Z"/><path class="cls-5" d="M18.29,318.22l-9.18,4.11c-1.74,1.39-3.48,2.78-5.24,4.15l-.87.71v3.86c10.94-9.15,25.21-13.2,43.42-11.59C36.28,314.61,27.29,316.05,18.29,318.22Z"/><path class="cls-5" d="M3,331.05v.24C14.1,322,28.61,318,47.19,319.83c-.26-.14-.51-.25-.77-.37C28.21,317.85,13.94,321.9,3,331.05Z"/><path class="cls-3" d="M511.77,231.45c-6.68,5.06-13.94,6.92-21.22.06,3.94,7.22,9.68,9.26,16.65,6.54,10.61-4.15,19.88-17.22,20.22-28.5.27-9.17-3.43-14.49-9.53-15.42,1.67,3.28,4.91,7.07,5.47,11.23C524.81,216.09,520.3,225,511.77,231.45Z"/><path class="cls-9" d="M410.84,111.28l-22.33,4.82c8.51,4.59,15.46,8.36,22.95,12.41C411.24,122.25,411.05,117.1,410.84,111.28Z"/><path d="M370.29,272.49l5.9-2.48-4.26-2.21c1.28-1.5,2.29-3.85,3.88-4.35,10.19-3.18,20.44-6.2,30.81-8.7,3.21-.77,6.85.29,10.29.51l.12,1.86-5,3.51.1,0c1.62-.39,3-.75,4.12-1.12l.29-.09c2.85-1,4.25-2,4.66-3.84.35-1.56,0-3.69-.82-6.8l-10.86,2-33,9C369,263.17,368.34,264.46,370.29,272.49Z"/><path d="M416.21,259.49c-1.15.37-2.5.73-4.12,1.12C413.71,260.22,415.06,259.86,416.21,259.49Z"/><path d="M416.5,259.4c2.85-1,4.25-2,4.66-3.84C420.75,257.38,419.35,258.44,416.5,259.4Z"/><path class="cls-11" d="M443.05,101.42l-20.52,5.31c7.58,3,7.58,3,14.35,18.29C438.84,117.53,440.8,110.05,443.05,101.42Z"/><path class="cls-11" d="M553.34,149.19c-2.55,11,1,16.34,13.51,20.7C569.31,159.78,567.91,157.6,553.34,149.19Z"/><path class="cls-4" d="M548.64,138.94c-.32,2.8,1.06,4,3.15,5.69,6.52,5.3,15.92,7.7,18.1,17.57l1.56-.94c-1.37-2.41-2.25-5.4-4.23-7.11-3.81-3.31-8.21-6-12.44-8.75-2.34-1.56-3.6-3.07-3-6.36.87-4.81,0-9.73-4.62-12.51-4.26-2.53-8.91-4.39-13.38-6.55l-.91,1.61a72.46,72.46,0,0,0,7.71,4.55C546.23,128.65,549.35,132.6,548.64,138.94Z"/><path class="cls-9" d="M297.5,155.82c.23-7.38.42-13.51.65-21l-11.42,14.49Z"/><path class="cls-3" d="M569.14,182c-1,6.07-1.52,12.21-2.22,18.33.48.36,1,.73,1.42,1.1,1.07-1.06,2.88-2,3.07-3.21,1-5.91,1.46-11.9,2.13-17.85L572.23,179C571.15,180,569.32,180.89,569.14,182Z"/><path class="cls-3" d="M418.81,145.8c-.21-12.71-.4-24.66-.6-37C414.84,111.13,415,141.1,418.81,145.8Z"/><path d="M291.46,139.32c-3.66-2.1-4.69-2-16.72,1.79C283.76,148.53,287.09,148.17,291.46,139.32Z"/><path class="cls-3" d="M576.92,130.49q-3.1,23.12-6.2,46.24h2q2.87-23,5.74-46.05Z"/><path class="cls-9" d="M269.22,143.37l27.4,17.32c.32-.52.64-1,1-1.54l-27.43-17.27Z"/><path class="cls-12" d="M440.86,99.23l-35.73,6.59C417.7,106.78,429.06,101.76,440.86,99.23Z"/><path class="cls-9" d="M421.08,163.91c4.73-3.37,5-6.33.51-13.51-.64,2.66-1.23,5.08-1.79,7.38l-.81,3.39-.8,3.29Z"/><path class="cls-11" d="M410.35,103.6l10.95-5.75C410.75,98.61,410.75,98.61,410.35,103.6Z"/><path class="cls-9" d="M6.93,357.33,8,356l-1.13-6.57L3,349.7v4.79Z"/><path class="cls-11" d="M496.35,94.62,479,85.91l-.92,2,17.38,8.49Z"/><path class="cls-11" d="M432.19,96.89l.66.17c.43.12.85.22,1.22.29.56.09,1,.09,1.16-.12,1.28-1.62,1.8-3.85,2.62-5.84l-2.2-1.2Q433.31,93.4,431,96.6C431.33,96.67,431.76,96.77,432.19,96.89Z"/><path class="cls-11" d="M432.19,96.89c-.43-.12-.86-.22-1.23-.29q2.35-3.19,4.69-6.41Q433.31,93.4,431,96.6C431.33,96.67,431.76,96.77,432.19,96.89Z"/><path class="cls-11" d="M434.07,97.35c-.37-.07-.79-.17-1.22-.29C433.28,97.18,433.7,97.28,434.07,97.35Z"/><path class="cls-9" d="M17,347.68c-.27.93-.56,1.86-.84,2.79l-.87,2.77c1-.65,2.05-1.27,3.07-1.92a30.52,30.52,0,0,0,2.94-2.08c.73-.59.85-1.94,1.37-3.25L18,343.64C17.64,345.23,17.36,346.47,17,347.68Z"/><path class="cls-9" d="M15.3,353.24h0l.87-2.77Z"/><path class="cls-3" d="M549.92,146.32l-1.59.18L548,156.83l1.58,0Z"/><path class="cls-9" d="M12.82,332.85l2.23,5.69,7.73-3.33-9.28-3.76C13.28,331.92,13.05,332.38,12.82,332.85Z"/><path class="cls-9" d="M6,348.42l8.12-8.87c-3.37.59-6.32.38-8.15,1.71C5,342,6,345.34,6,348.42Z"/><path d="M323.5,112.52l-19.05,4.64a28.11,28.11,0,0,0,4.48,3.44C313.08,122.68,322.57,117.32,323.5,112.52Z"/><path d="M94.7,280.11c-2.72-2.62-5.08-5.83-8.22-7.77-16.87-10.42-34.93-12.84-54-7.13,5.8-.64,11.6-1.75,17.4-1.81C66.89,263.23,82.12,268.23,94.7,280.11Z"/><path class="cls-5" d="M417,257.12l-.12-1.86c-3.44-.22-7.08-1.28-10.29-.51-10.37,2.5-20.62,5.52-30.81,8.7-1.59.5-2.6,2.85-3.88,4.35l4.26,2.21,35.8-9.38h0Z"/><path class="cls-5" d="M376.19,270l35.8-9.38h0Z"/></g></g></g></svg>