<svg xmlns="http://www.w3.org/2000/svg" viewBox="0 0 36.02 36"><defs><style>.cls-1{fill:#777;}</style></defs><g id="Layer_2" data-name="Layer 2"><g id="Layer_1-2" data-name="Layer 1"><path class="cls-1" d="M0,26.43A15.44,15.44,0,0,1,.52,24.8,7.52,7.52,0,0,1,2.7,22.13a16.74,16.74,0,0,1,3.94-2.32L8.39,23c-.89.47-1.83.91-2.69,1.46a7.89,7.89,0,0,0-1.64,1.41,1.59,1.59,0,0,0,0,2.27,7.92,7.92,0,0,0,3,2.16,23,23,0,0,0,6.71,1.83,31.75,31.75,0,0,0,7.16.13,21.76,21.76,0,0,0,9-2.54,8.58,8.58,0,0,0,1.83-1.46,1.67,1.67,0,0,0,0-2.56,8.13,8.13,0,0,0-2.9-1.94c-.44-.19-.88-.36-1.33-.54L29.39,20c.6.28,1.22.54,1.82.85a10.8,10.8,0,0,1,3.36,2.56,5.41,5.41,0,0,1-.2,7.57A12.28,12.28,0,0,1,30,33.81a27.76,27.76,0,0,1-7.71,1.91c-.9.1-1.8.15-2.7.23a1.57,1.57,0,0,0-.3,0H16.11l-.35,0c-1.21-.13-2.43-.2-3.63-.38a22.5,22.5,0,0,1-7.49-2.4A10.13,10.13,0,0,1,.85,29.84,6.69,6.69,0,0,1,0,27.56Z"/><path class="cls-1" d="M18,30.6c-.54-.73-1.07-1.42-1.57-2.12a82.65,82.65,0,0,1-7-11.09,36.61,36.61,0,0,1-1.71-4A8.93,8.93,0,0,1,8.34,6,10.51,10.51,0,0,1,18.47,0,10.86,10.86,0,0,1,28.65,8.87,10.6,10.6,0,0,1,27.76,15a47.34,47.34,0,0,1-4.39,8c-1.64,2.47-3.39,4.86-5.09,7.29C18.21,30.34,18.12,30.44,18,30.6Zm3.6-19.82A3.6,3.6,0,1,0,18,14.39,3.62,3.62,0,0,0,21.6,10.78Z"/></g></g></svg>