<svg xmlns="http://www.w3.org/2000/svg" viewBox="0 0 373 373"><defs><style>.cls-1{fill:#1a1a1a;}.cls-2{fill:none;}.cls-3{fill:#fff;}</style></defs><g id="Layer_2" data-name="Layer 2"><g id="Layer_1-2" data-name="Layer 1"><rect class="cls-1" width="373" height="373" rx="74.63"/><path class="cls-2" d="M124.83,156.23a110.07,110.07,0,0,0,6.12,24.7h6.37A128.53,128.53,0,0,1,124.83,156.23Z"/><path class="cls-2" d="M124.23,156.44a112.72,112.72,0,0,0,1,24.49h4.47A112,112,0,0,1,124.23,156.44Z"/><path class="cls-2" d="M192.07,231.46v7.9a8.47,8.47,0,0,0,8.47,8.46h35.13c-6.75-1.74-13.45-3.65-20-5.92A191.1,191.1,0,0,1,192.07,231.46Z"/><path class="cls-2" d="M144.13,209.36a114,114,0,0,1-9.92-17.29h-.57a8.43,8.43,0,0,0-5.61,2.17,108.06,108.06,0,0,0,9.79,23.81c10.06,18.24,25.38,33.41,43.11,44.95V245.55C166.22,235.86,153.35,223.64,144.13,209.36Z"/><path class="cls-2" d="M148.77,180.93a179.81,179.81,0,0,1-23.35-25.29,125.37,125.37,0,0,0,13.74,25.29Z"/><path class="cls-2" d="M267.33,232.63c-5.82-.66-11.61-1.56-17.35-2.66a286.65,286.65,0,0,1-33.87-9,214.81,214.81,0,0,1-20.33-8.14c-1.25-.59-2.46-1.25-3.71-1.87v14.79c3.14,1.63,6.26,3.29,9.5,4.75C219.7,238.64,239.19,244,259,247.62c.41.08.83.12,1.23.2a328.75,328.75,0,0,0,48.92,5.1v-19A260.81,260.81,0,0,1,267.33,232.63Z"/><path class="cls-2" d="M147.93,192.07c1.75,2,3.56,4,5.45,5.85a151.4,151.4,0,0,0,27.55,21.45V204.94a148.62,148.62,0,0,1-18.58-12.87Z"/><path class="cls-2" d="M172.46,192.07h-4.81q6.4,4.13,13.21,7.8A8.44,8.44,0,0,0,172.46,192.07Z"/><path class="cls-2" d="M152.12,199.83c-2.37-2.51-4.58-5.11-6.72-7.76h-9.51A111.63,111.63,0,0,0,145.6,208c9.36,12.79,21.57,23.79,35.33,32.76V224.92A126.43,126.43,0,0,1,152.12,199.83Z"/><path class="cls-2" d="M152.05,180.93h16.36c-.1-.06-.21-.1-.31-.15a298.71,298.71,0,0,1-42-25.58A177.41,177.41,0,0,0,152.05,180.93Z"/><path class="cls-2" d="M180.93,245.55V263c1.37.89,2.73,1.81,4.13,2.67,2.31,1.37,4.65,2.68,7,3.95v-7.77a8.42,8.42,0,0,1,4.49-7.42c-3-1.54-6.09-3-9-4.75Q184.18,247.7,180.93,245.55Z"/><path class="cls-2" d="M192.07,225.76V211q-5.72-2.82-11.14-6v14.43C184.56,221.62,188.26,223.76,192.07,225.76Z"/><path class="cls-2" d="M134.21,192.07a115.47,115.47,0,0,1-4.52-11.14h-4.47A111.62,111.62,0,0,0,128,194.24a8.43,8.43,0,0,1,5.61-2.17Z"/><path class="cls-2" d="M152.05,180.93c2.95,2.37,6,4.71,9.11,6.93,2.1,1.47,4.32,2.82,6.49,4.21h4.81a8.44,8.44,0,0,1,8.4,7.8c3.66,2,7.41,3.84,11.21,5.61v-4.94a8.42,8.42,0,0,1,4.49-7.43c-9.58-3.63-19-7.65-28.15-12.18Z"/><path class="cls-2" d="M235.67,247.82H200.54a8.47,8.47,0,0,1-8.47-8.46v-7.9l-.41-.2c-3.67-2-7.25-4.1-10.73-6.34v15.83c4,2.61,8.14,5.08,12.39,7.34,3.66,1.93,7.46,3.62,11.26,5.3h60.13c-5.1-.61-10.18-1.37-15.22-2.32C244.85,250.14,240.26,249,235.67,247.82Z"/><path class="cls-2" d="M131,180.93a111.13,111.13,0,0,0,4.94,11.14h9.51a132.76,132.76,0,0,1-8.08-11.14Z"/><path class="cls-2" d="M160.11,190.3c-4-3-7.72-6.14-11.34-9.37h-9.61a131.07,131.07,0,0,0,8.77,11.14h14.42C161.62,191.47,160.83,190.92,160.11,190.3Z"/><rect class="cls-3" x="63.86" y="192.07" width="55.74" height="117.06" rx="8.46"/><path class="cls-3" d="M136.14,218.89a109.73,109.73,0,0,1-9.17-23.5,8.35,8.35,0,0,0-1.79,5.15V300.68a8.46,8.46,0,0,0,8.46,8.46h38.82a8.47,8.47,0,0,0,8.47-8.46V266.43C162.35,254.26,146.36,238.16,136.14,218.89Z"/><path class="cls-3" d="M268.71,205.5c13.36,2.33,26.84,3.8,40.43,5.21V200.54a8.47,8.47,0,0,0-8.46-8.47H206.86q5.58,1.74,11.22,3.29C234.71,199.9,251.73,202.73,268.71,205.5Z"/><path class="cls-3" d="M248.51,293.27a224.31,224.31,0,0,1-33.82-9.54,197.39,197.39,0,0,1-22.62-10.6v27.55a8.47,8.47,0,0,0,8.47,8.46H300.68a8.46,8.46,0,0,0,8.46-8.46v-4.61A225.84,225.84,0,0,1,248.51,293.27Z"/><rect class="cls-3" x="253.39" y="63.86" width="55.74" height="117.06" rx="8.46"/><rect class="cls-3" x="192.07" y="63.86" width="55.74" height="117.06" rx="8.46"/><path class="cls-3" d="M124,154.2a.19.19,0,0,1,0-.08.36.36,0,0,1,0-.1v0h0c0-.17,0-.35,0-.52h.08s0-.05,0-.07l.07,0a.64.64,0,0,1,0-.07h.06a.57.57,0,0,0,0-.07l0,0,.05-.08a309.79,309.79,0,0,0,51.9,27.7h1.54a8.66,8.66,0,0,0,8.66-8.66V133.84a8.66,8.66,0,0,0-8.66-8.66H72.52a8.66,8.66,0,0,0-8.66,8.66v38.43a8.66,8.66,0,0,0,8.66,8.66h51.69A112.76,112.76,0,0,1,124,154.2Z"/><rect class="cls-3" x="63.86" y="63.86" width="122.64" height="55.74" rx="8.66"/><path class="cls-3" d="M125.22,180.93h-1A111.7,111.7,0,0,0,127,195.39a8.26,8.26,0,0,1,1.06-1.15A111.62,111.62,0,0,1,125.22,180.93Z"/><path class="cls-3" d="M180.93,263v3.43c.83.55,1.65,1.14,2.5,1.67,2.82,1.77,5.72,3.43,8.64,5v-3.51c-2.36-1.27-4.7-2.58-7-3.95C183.66,264.81,182.3,263.89,180.93,263Z"/><path class="cls-3" d="M137.82,218.05A108.06,108.06,0,0,1,128,194.24a8.26,8.26,0,0,0-1.06,1.15,109.73,109.73,0,0,0,9.17,23.5c10.22,19.27,26.21,35.37,44.79,47.54V263C163.2,251.46,147.88,236.29,137.82,218.05Z"/><path class="cls-3" d="M214.69,283.73a224.31,224.31,0,0,0,33.82,9.54,225.84,225.84,0,0,0,60.63,2.8V295a266.36,266.36,0,0,1-59.87-5.22,207.64,207.64,0,0,1-57.2-20.11v3.51A197.39,197.39,0,0,0,214.69,283.73Z"/><path class="cls-3" d="M124,153.87h0a.13.13,0,0,1,0-.05s0,0,0-.07h0l0,0c0-.07,0-.15,0-.21H124c0,.17,0,.35,0,.52l0,0S124,153.9,124,153.87Z"/><path class="cls-3" d="M124.23,156.44c-.08-.75-.2-1.49-.26-2.24a112.76,112.76,0,0,0,.24,26.73h1A112.72,112.72,0,0,1,124.23,156.44Z"/><path class="cls-3" d="M124,154v0Z"/><path class="cls-3" d="M129.69,180.93a115.47,115.47,0,0,0,4.52,11.14h1.68A111.13,111.13,0,0,1,131,180.93Z"/><path class="cls-3" d="M180.93,240.75v4.8q3.24,2.14,6.62,4.13c2.92,1.71,6,3.21,9,4.75a8.36,8.36,0,0,1,4-1h4c-3.8-1.68-7.6-3.37-11.26-5.3C189.07,245.83,184.94,243.36,180.93,240.75Z"/><path class="cls-3" d="M145.6,208a111.63,111.63,0,0,1-9.71-15.92h-1.68a114,114,0,0,0,9.92,17.29c9.22,14.28,22.09,26.5,36.8,36.19v-4.8C167.17,231.78,155,220.78,145.6,208Z"/><path class="cls-3" d="M196.56,254.43a194.17,194.17,0,0,0,18.6,8.38A240.44,240.44,0,0,0,249,272.17q8.64,1.6,17.39,2.55a234.88,234.88,0,0,0,42.75.59v-1.39c-18.53-.17-37-1.57-55-5.25a229.86,229.86,0,0,1-49.55-15.28h-4A8.36,8.36,0,0,0,196.56,254.43Z"/><path class="cls-3" d="M124.19,153.42l-.07,0s0,0,0,.07h.06A.11.11,0,0,1,124.19,153.42Z"/><path class="cls-3" d="M124,154.12a.19.19,0,0,0,0,.08,1.09,1.09,0,0,1,0-.18A.36.36,0,0,0,124,154.12Z"/><path class="cls-3" d="M131,180.93a110.07,110.07,0,0,1-6.12-24.7c-.16-.45-.35-.9-.51-1.35,0,.52,0,1-.09,1.56a112,112,0,0,0,5.46,24.49Z"/><path class="cls-3" d="M124,153.74s0,0,0,.07l0-.06Z"/><path class="cls-3" d="M124,154v0a1.09,1.09,0,0,0,0,.18c.06.75.18,1.49.26,2.24,0-.52,0-1,.09-1.56C124.21,154.59,124.09,154.3,124,154Z"/><path class="cls-3" d="M124,153.87s0,0,0,.07a.14.14,0,0,1,0-.06Z"/><path class="cls-3" d="M124.12,153.6l0-.13h-.06c0,.06,0,.14,0,.21Z"/><path class="cls-3" d="M137.32,180.93a132.76,132.76,0,0,0,8.08,11.14h2.53a131.07,131.07,0,0,1-8.77-11.14Z"/><path class="cls-3" d="M260.22,247.82H235.67c4.59,1.18,9.18,2.32,13.82,3.25,5,1,10.12,1.71,15.22,2.32h36a8.42,8.42,0,0,1,4.77,1.48c1.23-.06,2.46-.22,3.69-.29v-1.66A328.75,328.75,0,0,1,260.22,247.82Z"/><path class="cls-3" d="M180.93,219.37v5.55c3.48,2.24,7.06,4.37,10.73,6.34l.41.2v-5.7C188.26,223.76,184.56,221.62,180.93,219.37Z"/><path class="cls-3" d="M153.38,197.92c-1.89-1.9-3.7-3.86-5.45-5.85H145.4c2.14,2.65,4.35,5.25,6.72,7.76a126.43,126.43,0,0,0,28.81,25.09v-5.55A151.4,151.4,0,0,1,153.38,197.92Z"/><path class="cls-3" d="M201.57,230.51c-3.24-1.46-6.36-3.12-9.5-4.75v5.7a191.1,191.1,0,0,0,23.57,10.44c6.58,2.27,13.28,4.18,20,5.92h24.55c-.4-.08-.82-.12-1.23-.2C239.19,244,219.7,238.64,201.57,230.51Z"/><path class="cls-3" d="M264.71,253.39c.72.09,1.43.2,2.15.28a250.06,250.06,0,0,0,38.59,1.2,8.42,8.42,0,0,0-4.77-1.48Z"/><path class="cls-3" d="M124,154h0v0Z"/><path class="cls-3" d="M124.27,153.36h-.06a.64.64,0,0,0,0,.07h0Z"/><path class="cls-3" d="M139.16,180.93a125.37,125.37,0,0,1-13.74-25.29c-.26-.34-.55-.67-.8-1,.06.53.15,1.07.21,1.6a128.53,128.53,0,0,0,12.49,24.7Z"/><path class="cls-3" d="M124,153.94l0,0v0h0Z"/><path class="cls-3" d="M124.21,153.48s0,0,0,0h0a.11.11,0,0,0,0,.05Z"/><path class="cls-3" d="M124.35,154.3c0,.2,0,.39,0,.58.16.45.35.9.51,1.35-.06-.53-.15-1.07-.21-1.6Z"/><path class="cls-3" d="M124.21,153.48h0l0,.13.07-.09Z"/><path class="cls-3" d="M124,153.88a.14.14,0,0,0,0,.06l0,.06c.11.3.23.59.34.88,0-.19,0-.38,0-.58S124.12,154,124,153.88Z"/><path class="cls-3" d="M180.93,200.54v4.4q5.43,3.21,11.14,6v-5.49c-3.8-1.77-7.55-3.63-11.21-5.61C180.88,200.09,180.93,200.31,180.93,200.54Z"/><path class="cls-3" d="M160.11,190.3c.72.62,1.51,1.17,2.24,1.77h5.3c-2.17-1.39-4.39-2.74-6.49-4.21-3.15-2.22-6.16-4.56-9.11-6.93h-3.28C152.39,184.16,156.15,187.31,160.11,190.3Z"/><path class="cls-3" d="M180.93,204.94v-4.4c0-.23-.05-.45-.07-.67q-6.81-3.66-13.21-7.8h-5.3A148.62,148.62,0,0,0,180.93,204.94Z"/><path class="cls-3" d="M195.78,212.84A214.81,214.81,0,0,0,216.11,221,286.65,286.65,0,0,0,250,230c5.74,1.1,11.53,2,17.35,2.66a260.81,260.81,0,0,0,41.81,1.28v-2a399.66,399.66,0,0,1-45.29-5.3c-18.39-3.22-36.65-7.29-54-13.62-6.06-2.22-12-4.77-17.76-7.46V211C193.32,211.59,194.53,212.25,195.78,212.84Z"/><path class="cls-3" d="M125.42,155.64a179.81,179.81,0,0,0,23.35,25.29h3.28a177.41,177.41,0,0,1-25.94-25.73l-1.22-.86C125.05,154.77,125.24,155.2,125.42,155.64Z"/><path class="cls-3" d="M124.35,153.31l0,0a.57.57,0,0,1,0,.07h0Z"/><path class="cls-3" d="M124,153.86h0s0,0,0-.06A.13.13,0,0,0,124,153.86Z"/><path class="cls-3" d="M124.06,153.76h0l0,.06s0,0,0,.06h0A.56.56,0,0,1,124.06,153.76Z"/><path class="cls-3" d="M124.62,154.63c.25.34.54.67.8,1-.18-.44-.37-.87-.53-1.3l-.34-.24C124.56,154.28,124.6,154.45,124.62,154.63Z"/><path class="cls-3" d="M124.25,153.43l0-.06h0l0,.07Z"/><path class="cls-3" d="M124.37,154c0,.11,0,.22,0,.33l.27.33c0-.18-.06-.35-.07-.53Z"/><path class="cls-3" d="M124.25,153.43h0s0,0,0,0h0Z"/><path class="cls-3" d="M124.06,153.76a.56.56,0,0,0,0,.12c.1.14.23.28.33.42,0-.11,0-.22,0-.33Z"/><path class="cls-3" d="M124.21,153.48h0l0,0Z"/><path class="cls-3" d="M196.56,193.11a8.36,8.36,0,0,1,4-1h6.32c-10.37-3.2-20.56-6.94-30.56-11.14h-7.89C177.56,185.46,187,189.48,196.56,193.11Z"/><path class="cls-3" d="M196.56,193.11c6.61,2.5,13.27,4.85,20,6.95,16.65,5.25,33.76,9.5,51.21,11.53a276,276,0,0,0,41.34,1.6v-2.48c-13.59-1.41-27.07-2.88-40.43-5.21-17-2.77-34-5.6-50.63-10.14q-5.64-1.55-11.22-3.29h-6.32A8.36,8.36,0,0,0,196.56,193.11Z"/><path class="cls-3" d="M124.35,153.31a1.23,1.23,0,0,1,.23.11c.48.6,1,1.18,1.53,1.78a298.71,298.71,0,0,0,42,25.58c.1.05.21.09.31.15h7.89a309.79,309.79,0,0,1-51.9-27.7Z"/><path class="cls-3" d="M124,153.73h0s0,0,0-.06Z"/><path class="cls-3" d="M124.08,153.71s0-.07,0-.11l-.06.08s0,0,0,.06h0Z"/><path class="cls-3" d="M124.19,153.51l-.07.09s0,.07,0,.11Z"/><path class="cls-3" d="M124.52,153.44c.11.3.25.6.37.9l1.22.86c-.49-.6-1-1.18-1.53-1.78a1.23,1.23,0,0,0-.23-.11l0,.06C124.38,153.4,124.49,153.42,124.52,153.44Z"/><path class="cls-3" d="M124.06,153.75h0l0,0Z"/><path class="cls-3" d="M124.55,154.1l.34.24c-.12-.3-.26-.6-.37-.9,0,0-.14,0-.22-.07l0,.06.21,0C124.48,153.68,124.52,153.89,124.55,154.1Z"/><path class="cls-3" d="M124.4,153.5c0,.16,0,.32,0,.47l.18.13c0-.21-.07-.42-.09-.63l-.21,0,0,0Z"/><path class="cls-3" d="M124.4,153.5l-.19,0,0,0-.11.2,0,0,.31.21C124.39,153.82,124.39,153.66,124.4,153.5Z"/></g></g></svg>