<svg xmlns="http://www.w3.org/2000/svg" viewBox="0 0 59.48 60.49"><defs><style>.cls-1{fill:#203c3b;}.cls-2{fill:#f69312;}.cls-3{fill:#6b9492;}.cls-4{fill:#447271;}.cls-5{fill:#fff;}</style></defs><g id="Layer_2" data-name="Layer 2"><g id="Layer_1-2" data-name="Layer 1"><rect class="cls-1" x="-8.02" y="39.43" width="29.08" height="13.04" rx="2.04" transform="translate(-39.43 52.47) rotate(-90)"/><rect class="cls-1" x="7.35" y="39.43" width="29.08" height="13.04" rx="2.04" transform="translate(-24.06 67.84) rotate(-90)"/><rect class="cls-2" x="30.4" y="31.74" width="29.08" height="13.04" rx="2.04"/><rect class="cls-2" x="30.4" y="47.11" width="29.08" height="13.04" rx="2.04"/><rect class="cls-3" x="38.42" y="8.02" width="29.08" height="13.04" rx="2.04" transform="translate(67.5 -38.42) rotate(90)"/><rect class="cls-3" x="23.05" y="8.02" width="29.08" height="13.04" rx="2.04" transform="translate(52.13 -23.05) rotate(90)"/><rect class="cls-4" y="15.71" width="29.08" height="13.04" rx="2.04" transform="translate(29.08 44.45) rotate(-180)"/><rect class="cls-4" y="0.34" width="29.08" height="13.04" rx="2.04" transform="translate(29.08 13.71) rotate(-180)"/><path class="cls-1" d="M14.29,22.45a77.45,77.45,0,0,0,18.25,9.41,81.21,81.21,0,0,0,26.91,4.69l0,20.07A48.13,48.13,0,0,1,43.8,56.2c-4.44-.86-14.16-2.87-21.69-10.82a28.56,28.56,0,0,1-7.42-13.31A26.65,26.65,0,0,1,14.29,22.45Z"/><path class="cls-5" d="M14.34,22.46A27.54,27.54,0,0,0,17.43,38,30.78,30.78,0,0,0,28.31,49.4a43,43,0,0,0,7.13,3.53,54,54,0,0,0,7.65,2.24A57,57,0,0,0,51,56.3c1.33.07,2.66.16,4,.14s2.68,0,4-.08v.09A51.67,51.67,0,0,1,51,56.9,52,52,0,0,1,42.92,56a45.19,45.19,0,0,1-7.79-2.3A43.17,43.17,0,0,1,27.93,50,31.4,31.4,0,0,1,17,38.16a27.84,27.84,0,0,1-2.79-15.71Z"/><path class="cls-5" d="M14.34,22.44a47.51,47.51,0,0,0,1.89,7.12,27.64,27.64,0,0,0,8.46,11.76,35.93,35.93,0,0,0,6.06,4.08,44.84,44.84,0,0,0,6.71,2.9,63.26,63.26,0,0,0,7.06,1.88,62.94,62.94,0,0,0,7.25,1c2.45.18,4.9.23,7.37.18v.1a49.34,49.34,0,0,1-7.4.43,57.56,57.56,0,0,1-7.41-.73,47.37,47.37,0,0,1-7.21-1.94,46.65,46.65,0,0,1-6.77-3.13,37.54,37.54,0,0,1-6.09-4.29,28.2,28.2,0,0,1-5-5.52A27.85,27.85,0,0,1,16,29.67a47.38,47.38,0,0,1-1.71-7.2Z"/><path class="cls-5" d="M14.34,22.42c1.14,2,2.07,4.06,3.29,6a31.1,31.1,0,0,0,4.16,5.32A30,30,0,0,0,27,38a40.42,40.42,0,0,0,5.9,3.27,57.13,57.13,0,0,0,12.87,3.91,72.84,72.84,0,0,0,13.47,1.27v.11a47.6,47.6,0,0,1-13.69-.23,46.36,46.36,0,0,1-13.07-4.21,42.37,42.37,0,0,1-5.92-3.49,30.07,30.07,0,0,1-5.2-4.49,31.17,31.17,0,0,1-4-5.54c-1.17-2-2-4.09-3.09-6.09Z"/><path class="cls-5" d="M14.34,22.41c1.49,1.51,2.89,3.11,4.4,4.58a43.39,43.39,0,0,0,4.8,4.09,37.65,37.65,0,0,0,5.35,3.29,50.79,50.79,0,0,0,5.75,2.55,72.11,72.11,0,0,0,12.15,3.16,93.71,93.71,0,0,0,12.55,1.37v.13a49.65,49.65,0,0,1-12.77-.19,51.72,51.72,0,0,1-12.32-3.48,50.2,50.2,0,0,1-5.77-2.78,38.88,38.88,0,0,1-5.35-3.52,43.84,43.84,0,0,1-4.69-4.34c-1.46-1.55-2.79-3.2-4.2-4.77Z"/><path class="cls-5" d="M14.34,22.4a68.08,68.08,0,0,0,10.39,6,73.27,73.27,0,0,0,11.18,4.16A110.74,110.74,0,0,0,47.57,35c3.92.68,7.88,1.11,11.88,1.52v.15a48.79,48.79,0,0,1-6,.22,58.38,58.38,0,0,1-6-.43,61.8,61.8,0,0,1-11.79-2.77A73.62,73.62,0,0,1,24.4,29a67.8,67.8,0,0,1-10.15-6.5Z"/></g></g></svg>