<svg xmlns="http://www.w3.org/2000/svg" viewBox="0 0 257 257"><defs><style>.cls-1{fill:none;}.cls-2{fill:#203c3b;}.cls-3{fill:#f69312;}.cls-4{fill:#6b9492;}.cls-5{fill:#447271;}.cls-6{fill:#fff;}</style></defs><g id="Layer_2" data-name="Layer 2"><g id="Layer_1-2" data-name="Layer 1"><path class="cls-1" d="M63.89,96.78a115.27,115.27,0,0,0,6.4,25.88H77A133.87,133.87,0,0,1,63.89,96.78Z"/><path class="cls-1" d="M63.25,97a117.78,117.78,0,0,0,1,25.66H69A117.46,117.46,0,0,1,63.25,97Z"/><path class="cls-1" d="M134.34,175.61v8.27a8.87,8.87,0,0,0,8.87,8.87H180c-7.08-1.82-14.11-3.83-21-6.21A200.37,200.37,0,0,1,134.34,175.61Z"/><path class="cls-1" d="M84.11,152.45a119.13,119.13,0,0,1-10.4-18.11h-.59a8.84,8.84,0,0,0-5.88,2.27,113.39,113.39,0,0,0,10.25,24.95c10.54,19.11,26.6,35,45.17,47.09V190.37C107.25,180.22,93.77,167.42,84.11,152.45Z"/><path class="cls-1" d="M89,122.66A187.67,187.67,0,0,1,64.5,96.16a130.33,130.33,0,0,0,14.4,26.5Z"/><path class="cls-1" d="M213.19,176.83Q204,175.79,195,174a297.37,297.37,0,0,1-35.48-9.41,225.14,225.14,0,0,1-21.3-8.53c-1.32-.62-2.59-1.31-3.89-2v15.49c3.28,1.72,6.56,3.45,9.95,5,19,8.51,39.42,14.09,60.17,17.92.43.08.86.13,1.29.21A345.3,345.3,0,0,0,257,198.1V178.17A271.84,271.84,0,0,1,213.19,176.83Z"/><path class="cls-1" d="M88.09,134.34c1.83,2.08,3.72,4.14,5.71,6.13a158.35,158.35,0,0,0,28.86,22.47V147.83a155.88,155.88,0,0,1-19.46-13.49Z"/><path class="cls-1" d="M113.79,134.34h-5c4.48,2.88,9.08,5.61,13.84,8.17A8.84,8.84,0,0,0,113.79,134.34Z"/><path class="cls-1" d="M92.48,142.47c-2.49-2.63-4.81-5.36-7-8.13h-10A116.57,116.57,0,0,0,85.64,151c9.82,13.4,22.61,24.92,37,34.32V168.75A132.24,132.24,0,0,1,92.48,142.47Z"/><path class="cls-1" d="M92.4,122.66h17.15l-.33-.16a311.93,311.93,0,0,1-44-26.8A185.41,185.41,0,0,0,92.4,122.66Z"/><path class="cls-1" d="M122.66,190.37v18.28c1.44.94,2.86,1.91,4.33,2.8,2.42,1.44,4.87,2.81,7.35,4.14v-8.13a8.82,8.82,0,0,1,4.7-7.78c-3.17-1.62-6.38-3.19-9.44-5C127.24,193.32,124.93,191.87,122.66,190.37Z"/><path class="cls-1" d="M134.34,169.63V154.14q-6-3-11.68-6.31v15.11C126.46,165.3,130.34,167.54,134.34,169.63Z"/><path class="cls-1" d="M73.71,134.34A120.51,120.51,0,0,1,69,122.66H64.29a116.45,116.45,0,0,0,2.95,14,8.84,8.84,0,0,1,5.88-2.27Z"/><path class="cls-1" d="M92.4,122.66c3.1,2.49,6.25,4.94,9.55,7.26,2.2,1.55,4.52,3,6.8,4.42h5a8.84,8.84,0,0,1,8.8,8.17c3.84,2.07,7.76,4,11.75,5.88v-5.18a8.84,8.84,0,0,1,4.71-7.79c-10.05-3.8-19.92-8-29.5-12.76Z"/><path class="cls-1" d="M180,192.75H143.21a8.87,8.87,0,0,1-8.87-8.87v-8.27c-.14-.08-.29-.14-.43-.21-3.85-2.06-7.6-4.29-11.25-6.65v16.59c4.2,2.74,8.53,5.33,13,7.69,3.85,2,7.82,3.8,11.8,5.56h63c-5.34-.64-10.67-1.44-15.95-2.44C189.64,195.18,184.82,194,180,192.75Z"/><path class="cls-1" d="M70.29,122.66a117.35,117.35,0,0,0,5.18,11.68h10A137.22,137.22,0,0,1,77,122.66Z"/><path class="cls-1" d="M100.85,132.49c-4.15-3.14-8.09-6.44-11.88-9.83H78.9a134.15,134.15,0,0,0,9.19,11.68H103.2C102.43,133.71,101.6,133.13,100.85,132.49Z"/><rect class="cls-2" y="134.34" width="58.41" height="122.66" rx="8.87"/><path class="cls-2" d="M75.74,162.44a114.23,114.23,0,0,1-9.62-24.63,8.85,8.85,0,0,0-1.87,5.4V248.13A8.87,8.87,0,0,0,73.12,257h40.67a8.87,8.87,0,0,0,8.87-8.87V212.25C103.2,199.5,86.44,182.63,75.74,162.44Z"/><path class="cls-3" d="M214.64,148.41c14,2.44,28.12,4,42.36,5.45V143.21a8.87,8.87,0,0,0-8.87-8.87h-98.3c3.9,1.21,7.82,2.37,11.76,3.44C179,142.54,196.85,145.5,214.64,148.41Z"/><path class="cls-3" d="M193.47,240.38a236.08,236.08,0,0,1-35.44-10,209.41,209.41,0,0,1-23.69-11.1v28.85a8.87,8.87,0,0,0,8.87,8.87H248.13a8.87,8.87,0,0,0,8.87-8.87V243.3A236.31,236.31,0,0,1,193.47,240.38Z"/><rect class="cls-4" x="198.59" width="58.41" height="122.66" rx="8.87"/><rect class="cls-4" x="134.34" width="58.41" height="122.66" rx="8.87"/><path class="cls-5" d="M63,94.66a.25.25,0,0,1,0-.08s0-.08,0-.12h0v0c0-.18,0-.36,0-.54h.08a.19.19,0,0,0,0-.07l.07,0,0-.08,0,0,.05-.08,0,0,.06-.08a324.24,324.24,0,0,0,54.39,29h1.61a9.07,9.07,0,0,0,9.07-9.07V73.32a9.07,9.07,0,0,0-9.07-9.07H9.07A9.07,9.07,0,0,0,0,73.32v40.27a9.07,9.07,0,0,0,9.07,9.07H63.24A117.63,117.63,0,0,1,63,94.66Z"/><rect class="cls-5" width="128.5" height="58.41" rx="9.07"/><path class="cls-6" d="M64.29,122.66H63.24a116.6,116.6,0,0,0,2.88,15.15,9.77,9.77,0,0,1,1.12-1.2A116.45,116.45,0,0,1,64.29,122.66Z"/><path class="cls-6" d="M122.66,208.65v3.6c.88.58,1.73,1.19,2.62,1.75,3,1.85,6,3.59,9.06,5.28v-3.69c-2.48-1.33-4.93-2.7-7.35-4.14C125.52,210.56,124.1,209.59,122.66,208.65Z"/><path class="cls-6" d="M77.49,161.56a113.39,113.39,0,0,1-10.25-24.95,9.77,9.77,0,0,0-1.12,1.2,114.23,114.23,0,0,0,9.62,24.63c10.7,20.19,27.46,37.06,46.92,49.81v-3.6C104.09,196.56,88,180.67,77.49,161.56Z"/><path class="cls-6" d="M158,230.38a236.08,236.08,0,0,0,35.44,10A236.31,236.31,0,0,0,257,243.3v-1.16c-21.13.37-42.21-1.14-62.73-5.48a217,217,0,0,1-59.93-21.07v3.69A209.41,209.41,0,0,0,158,230.38Z"/><path class="cls-6" d="M63,94.31h0s0,0,0,0a.64.64,0,0,1,0-.07l0,0,0,0c0-.09,0-.16,0-.23H63c0,.18,0,.36,0,.54,0,0,0,0,0,0A.64.64,0,0,0,63,94.31Z"/><path class="cls-6" d="M63.25,97c-.08-.78-.21-1.56-.27-2.34a117.63,117.63,0,0,0,.26,28h1.05A117.78,117.78,0,0,1,63.25,97Z"/><path class="cls-6" d="M63,94.45h0Z"/><path class="cls-6" d="M69,122.66a120.51,120.51,0,0,0,4.74,11.68h1.76a117.35,117.35,0,0,1-5.18-11.68Z"/><path class="cls-6" d="M122.66,185.34v5c2.27,1.5,4.58,2.95,6.94,4.33,3.06,1.79,6.27,3.36,9.44,5a8.77,8.77,0,0,1,4.17-1.09h4.23c-4-1.76-7.95-3.54-11.8-5.56C131.19,190.67,126.86,188.08,122.66,185.34Z"/><path class="cls-6" d="M85.64,151a116.57,116.57,0,0,1-10.17-16.68H73.71a119.13,119.13,0,0,0,10.4,18.11c9.66,15,23.14,27.77,38.55,37.92v-5C108.25,175.94,95.46,164.42,85.64,151Z"/><path class="cls-6" d="M139,199.68a203.09,203.09,0,0,0,19.49,8.78A254.87,254.87,0,0,0,194,218.27q9.06,1.68,18.23,2.66a245.56,245.56,0,0,0,44.79.63V220.1c-19.41-.18-38.75-1.65-57.64-5.5a241.26,241.26,0,0,1-51.92-16h-4.23A8.77,8.77,0,0,0,139,199.68Z"/><path class="cls-6" d="M63.21,93.84l-.07,0a.19.19,0,0,1,0,.07h.07A.11.11,0,0,1,63.21,93.84Z"/><path class="cls-6" d="M63,94.58a.25.25,0,0,0,0,.08c0-.07,0-.13,0-.2S63,94.54,63,94.58Z"/><path class="cls-6" d="M70.29,122.66a115.27,115.27,0,0,1-6.4-25.88c-.18-.47-.37-.94-.54-1.41-.05.55-.06,1.09-.1,1.63A117.46,117.46,0,0,0,69,122.66Z"/><path class="cls-6" d="M63.06,94.18a.64.64,0,0,0,0,.07l0-.06Z"/><path class="cls-6" d="M63,94.45h0c0,.07,0,.13,0,.2.06.78.19,1.56.27,2.34,0-.54,0-1.08.1-1.63C63.24,95.07,63.1,94.76,63,94.45Z"/><path class="cls-6" d="M63,94.31a.64.64,0,0,1,0,.07.14.14,0,0,0,0-.06Z"/><path class="cls-6" d="M63.14,94s0-.09,0-.13h-.07c0,.07,0,.14,0,.23Z"/><path class="cls-6" d="M77,122.66a137.22,137.22,0,0,0,8.47,11.68h2.65a134.15,134.15,0,0,1-9.19-11.68Z"/><path class="cls-6" d="M205.75,192.75H180c4.79,1.23,9.61,2.43,14.47,3.4,5.28,1,10.61,1.8,15.95,2.44h37.68a8.84,8.84,0,0,1,5,1.55c1.3-.06,2.58-.23,3.87-.31V198.1A345.3,345.3,0,0,1,205.75,192.75Z"/><path class="cls-6" d="M122.66,162.94v5.81c3.65,2.36,7.4,4.59,11.25,6.65.14.07.29.13.43.21v-6C130.34,167.54,126.46,165.3,122.66,162.94Z"/><path class="cls-6" d="M93.8,140.47c-2-2-3.88-4.05-5.71-6.13H85.44c2.23,2.77,4.55,5.5,7,8.13a132.24,132.24,0,0,0,30.18,26.28v-5.81A158.35,158.35,0,0,1,93.8,140.47Z"/><path class="cls-6" d="M144.29,174.62c-3.39-1.54-6.67-3.27-9.95-5v6A200.37,200.37,0,0,0,159,186.54c6.89,2.38,13.92,4.39,21,6.21h25.72c-.43-.08-.86-.13-1.29-.21C183.71,188.71,163.29,183.13,144.29,174.62Z"/><path class="cls-6" d="M210.45,198.59c.75.09,1.5.21,2.25.29a261.43,261.43,0,0,0,40.43,1.26,8.84,8.84,0,0,0-5-1.55Z"/><path class="cls-6" d="M63,94.44h0v0Z"/><path class="cls-6" d="M63.29,93.78l0,0,0,.08h0S63.29,93.8,63.29,93.78Z"/><path class="cls-6" d="M78.9,122.66a130.33,130.33,0,0,1-14.4-26.5c-.27-.35-.57-.69-.84-1,.06.56.16,1.11.23,1.67A133.87,133.87,0,0,0,77,122.66Z"/><path class="cls-6" d="M63,94.38s0,0,0,0v0h0S63,94.4,63,94.38Z"/><path class="cls-6" d="M63.23,93.9l0-.06h0a.11.11,0,0,0,0,.06Z"/><path class="cls-6" d="M63.38,94.76c0,.21,0,.41,0,.61.17.47.36.94.54,1.41-.07-.56-.17-1.11-.23-1.67Z"/><path class="cls-6" d="M63.23,93.9h0s0,.08,0,.13l.07-.1Z"/><path class="cls-6" d="M63,94.32a.14.14,0,0,1,0,.06s0,.05,0,.07c.1.31.24.62.35.92,0-.2,0-.4,0-.61S63.14,94.47,63,94.32Z"/><path class="cls-6" d="M122.66,143.21v4.62q5.69,3.34,11.68,6.31v-5.75c-4-1.86-7.91-3.81-11.75-5.88C122.61,142.74,122.66,143,122.66,143.21Z"/><path class="cls-6" d="M100.85,132.49c.75.64,1.58,1.22,2.35,1.85h5.55c-2.28-1.46-4.6-2.87-6.8-4.42-3.3-2.32-6.45-4.77-9.55-7.26H89C92.76,126.05,96.7,129.35,100.85,132.49Z"/><path class="cls-6" d="M122.66,147.83v-4.62c0-.24,0-.47-.07-.7-4.76-2.56-9.36-5.29-13.84-8.17H103.2A155.88,155.88,0,0,0,122.66,147.83Z"/><path class="cls-6" d="M138.23,156.1a225.14,225.14,0,0,0,21.3,8.53A297.37,297.37,0,0,0,195,174q9,1.74,18.18,2.79A271.84,271.84,0,0,0,257,178.17V176a417,417,0,0,1-47.45-5.56c-19.27-3.36-38.4-7.63-56.61-14.27-6.35-2.32-12.52-5-18.6-7.81v5.75C135.64,154.79,136.91,155.48,138.23,156.1Z"/><path class="cls-6" d="M64.5,96.16A187.67,187.67,0,0,0,89,122.66H92.4a185.41,185.41,0,0,1-27.18-27c-.42-.3-.86-.59-1.28-.9C64.12,95.26,64.32,95.71,64.5,96.16Z"/><path class="cls-6" d="M63.37,93.72l0,0-.05.08h0Z"/><path class="cls-6" d="M63,94.3h0s0,0,0-.06S63,94.29,63,94.3Z"/><path class="cls-6" d="M63.08,94.19h0l0,.06s0,0,0,.06h0S63.06,94.24,63.08,94.19Z"/><path class="cls-6" d="M63.66,95.11c.27.36.57.7.84,1-.18-.45-.38-.9-.56-1.36l-.36-.25C63.6,94.74,63.64,94.92,63.66,95.11Z"/><path class="cls-6" d="M63.28,93.85l0-.06h0s0,0,0,.06Z"/><path class="cls-6" d="M63.4,94.42c0,.11,0,.23,0,.34l.28.35c0-.19-.06-.37-.08-.56Z"/><path class="cls-6" d="M63.28,93.85h0l0,.06h0Z"/><path class="cls-6" d="M63.08,94.19s0,.09,0,.13.24.29.35.44c0-.11,0-.23,0-.34Z"/><path class="cls-6" d="M63.24,93.9h0l0,0Z"/><path class="cls-6" d="M139.05,135.42a8.7,8.7,0,0,1,4.16-1.08h6.62c-10.86-3.36-21.54-7.28-32-11.68h-8.27C119.13,127.41,129,131.62,139.05,135.42Z"/><path class="cls-6" d="M139.05,135.42c6.91,2.62,13.9,5.09,21,7.29,17.45,5.5,35.37,9.95,53.65,12.07A287.8,287.8,0,0,0,257,156.47v-2.61c-14.24-1.47-28.36-3-42.36-5.45-17.79-2.91-35.63-5.87-53-10.63-3.94-1.07-7.86-2.23-11.76-3.44h-6.62A8.7,8.7,0,0,0,139.05,135.42Z"/><path class="cls-6" d="M63.37,93.72a2,2,0,0,1,.25.12c.51.63,1.08,1.23,1.6,1.86a311.93,311.93,0,0,0,44,26.8l.33.16h8.27a324.24,324.24,0,0,1-54.39-29Z"/><path class="cls-6" d="M63,94.16l0,0s0,0,0-.06Z"/><path class="cls-6" d="M63.1,94.15c0-.05,0-.08,0-.12l-.07.09s0,0,0,.06h0Z"/><path class="cls-6" d="M63.21,93.93l-.07.1s0,.07,0,.12S63.16,94,63.21,93.93Z"/><path class="cls-6" d="M63.56,93.86c.12.32.26.63.38.94.42.31.86.6,1.28.9-.52-.63-1.09-1.23-1.6-1.86a2,2,0,0,0-.25-.12l0,.07A1.21,1.21,0,0,1,63.56,93.86Z"/><path class="cls-6" d="M63.07,94.19h0l0,0Z"/><path class="cls-6" d="M63.58,94.55l.36.25c-.12-.31-.26-.62-.38-.94a1.21,1.21,0,0,0-.24-.07l0,.06.22,0C63.52,94.11,63.56,94.33,63.58,94.55Z"/><path class="cls-6" d="M63.43,93.92c0,.17,0,.33,0,.5l.18.13c0-.22-.06-.44-.08-.66l-.22,0,0,.05Z"/><path class="cls-6" d="M63.43,93.92l-.19,0,0,0c-.05.09-.07.14-.11.22l0,0,.32.23C63.42,94.25,63.42,94.09,63.43,93.92Z"/></g></g></svg>