<svg xmlns="http://www.w3.org/2000/svg" viewBox="0 0 169.92 169.92"><defs><style>.cls-1{fill:none;}</style></defs><g id="Layer_2" data-name="Layer 2"><g id="Layer_1-2" data-name="Layer 1"><path class="cls-1" d="M42.06,64.21a75.79,75.79,0,0,0,4.23,17.11h4.42A89,89,0,0,1,42.06,64.21Z"/><path class="cls-1" d="M41.64,64.36a77.6,77.6,0,0,0,.69,17h3.09A77.51,77.51,0,0,1,41.64,64.36Z"/><path class="cls-1" d="M88.6,116.27v5.47a5.86,5.86,0,0,0,5.86,5.86H118.8c-4.68-1.2-9.32-2.53-13.88-4.1A131.74,131.74,0,0,1,88.6,116.27Z"/><path class="cls-1" d="M55.17,100.57a79.53,79.53,0,0,1-6.87-12h-.39A5.8,5.8,0,0,0,44,90.1a74.48,74.48,0,0,0,6.78,16.49c7,12.64,17.58,23.15,29.86,31.14V125.64A87.31,87.31,0,0,1,55.17,100.57Z"/><path class="cls-1" d="M58.64,81.32A124.38,124.38,0,0,1,42.46,63.81,86.79,86.79,0,0,0,52,81.32Z"/><path class="cls-1" d="M140.87,116.86q-6.06-.69-12.05-1.85a197.12,197.12,0,0,1-23.52-6.24,149.69,149.69,0,0,1-14.13-5.66c-.87-.41-1.71-.87-2.57-1.29v10.26c2.17,1.14,4.34,2.29,6.59,3.31,12.6,5.64,26.14,9.34,39.89,11.88.29.06.57.09.86.14a228,228,0,0,0,34,3.55V117.75A180.8,180.8,0,0,1,140.87,116.86Z"/><path class="cls-1" d="M57.81,88.6C59,90,60.27,91.33,61.58,92.65A105,105,0,0,0,80.66,107.5v-10A103.78,103.78,0,0,1,67.79,88.6Z"/><path class="cls-1" d="M75.05,88.6H71.72c3,1.9,6,3.7,9.15,5.4A5.85,5.85,0,0,0,75.05,88.6Z"/><path class="cls-1" d="M60.71,94c-1.65-1.74-3.18-3.55-4.66-5.37H49.46a77.36,77.36,0,0,0,6.73,11,93.31,93.31,0,0,0,24.47,22.69v-11A87.86,87.86,0,0,1,60.71,94Z"/><path class="cls-1" d="M60.91,81.32H72.25l-.22-.1A206.39,206.39,0,0,1,42.94,63.5,122.69,122.69,0,0,0,60.91,81.32Z"/><path class="cls-1" d="M80.66,125.58V138c1,.64,2,1.29,2.94,1.9,1.64,1,3.31,1.91,5,2.81v-5.52a6,6,0,0,1,3.19-5.29c-2.16-1.1-4.33-2.16-6.42-3.38Q83,127.11,80.66,125.58Z"/><path class="cls-1" d="M88.6,112.29V101.77q-4.08-2-7.94-4.29v10.27Q84.53,110.15,88.6,112.29Z"/><path class="cls-1" d="M48.64,88.6a80.47,80.47,0,0,1-3.22-7.94H42.24a78.27,78.27,0,0,0,2,9.48,6,6,0,0,1,4-1.54Z"/><path class="cls-1" d="M60.11,80.66c2.1,1.69,4.25,3.35,6.49,4.94,1.49,1,3.07,2,4.61,3h3.43a6,6,0,0,1,6,5.54c2.61,1.41,5.27,2.73,8,4V94.62a6,6,0,0,1,3.19-5.29c-6.82-2.58-13.52-5.44-20-8.67Z"/><path class="cls-1" d="M119.62,127.6H94.46a5.86,5.86,0,0,1-5.86-5.86V116l-.3-.14c-2.61-1.4-5.16-2.92-7.64-4.51v11.26c2.86,1.86,5.79,3.62,8.82,5.23,2.61,1.37,5.31,2.57,8,3.77h42.8q-5.44-.65-10.84-1.65C126.15,129.25,122.88,128.44,119.62,127.6Z"/><path class="cls-1" d="M46.16,80.66a80.89,80.89,0,0,0,3.51,7.94h6.77a97.93,97.93,0,0,1-5.75-7.94Z"/><path class="cls-1" d="M66.67,87.34C63.85,85.2,61.18,83,58.6,80.66H51.76A93,93,0,0,0,58,88.6H68.27C67.74,88.17,67.18,87.77,66.67,87.34Z"/><rect y="88.6" width="38.35" height="81.32" rx="5.86"/><path d="M49.86,107.4a76.14,76.14,0,0,1-6.32-16.28,5.81,5.81,0,0,0-1.23,3.56v69.38a5.87,5.87,0,0,0,5.87,5.86H74.8a5.86,5.86,0,0,0,5.86-5.86V140.33C67.89,131.9,56.88,120.75,49.86,107.4Z"/><path d="M141.91,97.9c9.25,1.61,18.6,2.63,28,3.6v-7a5.86,5.86,0,0,0-5.86-5.86h-65c2.58.8,5.17,1.57,7.78,2.28C118.35,94,130.15,96,141.91,97.9Z"/><path d="M127.8,158.93a157.27,157.27,0,0,1-23.5-6.61A139.28,139.28,0,0,1,88.6,145v19.08a5.86,5.86,0,0,0,5.86,5.86h69.6a5.87,5.87,0,0,0,5.86-5.86v-3.2A157,157,0,0,1,127.8,158.93Z"/><rect x="131.57" width="38.35" height="81.32" rx="5.86"/><rect x="88.6" width="38.35" height="81.32" rx="5.86"/><path d="M41.48,62.28a.13.13,0,0,1,0-.06.19.19,0,0,1,0-.07h0c0-.12,0-.23,0-.35h0s0,0,0,0h.05s0,0,0-.05h0l0-.05h0l0,0a214,214,0,0,0,35.81,19h1a6,6,0,0,0,6-6V48.31a6,6,0,0,0-6-6H6a6,6,0,0,0-6,6V74.66a6,6,0,0,0,6,6H41.65A76.89,76.89,0,0,1,41.48,62.28Z"/><rect width="84.63" height="38.35" rx="6"/><path d="M42.33,81.32h-.7a77.64,77.64,0,0,0,1.91,10,6.05,6.05,0,0,1,.73-.79A78.4,78.4,0,0,1,42.33,81.32Z"/><path d="M80.66,137.8v2.44c.6.39,1.18.81,1.78,1.19,2,1.26,4.07,2.44,6.16,3.58v-2.5c-1.69-.9-3.36-1.83-5-2.81C82.61,139.09,81.64,138.44,80.66,137.8Z"/><path d="M50.8,106.76A74.48,74.48,0,0,1,44,90.27a5.54,5.54,0,0,0-.74.79,75.75,75.75,0,0,0,6.36,16.28c7.07,13.35,18.16,24.5,31,32.93V137.9C68.38,129.9,57.77,119.4,50.8,106.76Z"/><path d="M104.3,152.26a156.16,156.16,0,0,0,23.5,6.63,157,157,0,0,0,42.12,1.94v-.77a185.38,185.38,0,0,1-41.59-3.63,144.26,144.26,0,0,1-39.73-14v2.44A137.69,137.69,0,0,0,104.3,152.26Z"/><path d="M41.49,62.3h0l0,0a.07.07,0,0,1,0,0h0l0,0q0-.09,0-.15h0c0,.12,0,.24,0,.36v0A.06.06,0,0,1,41.49,62.3Z"/><path d="M41.64,64.36c-.06-.52-.14-1-.18-1.55a78,78,0,0,0,.17,18.51h.7A77.6,77.6,0,0,1,41.64,64.36Z"/><polygon points="41.47 62.39 41.47 62.4 41.47 62.39 41.47 62.39"/><path d="M45.36,80.66a80.47,80.47,0,0,0,3.22,7.94h1.19a80.89,80.89,0,0,1-3.51-7.94Z"/><path d="M80.66,122.81v3.33q2.25,1.48,4.59,2.86c2,1.18,4.14,2.22,6.24,3.29a5.73,5.73,0,0,1,2.76-.72H97c-2.63-1.16-5.25-2.34-7.8-3.67C86.3,126.33,83.44,124.62,80.66,122.81Z"/><path d="M56.19,99.62a77.36,77.36,0,0,1-6.73-11H48.3a79.53,79.53,0,0,0,6.87,12,87.31,87.31,0,0,0,25.49,25.07v-3.33A93.31,93.31,0,0,1,56.19,99.62Z"/><path d="M91.93,132.29a134.54,134.54,0,0,0,12.89,5.81,168.57,168.57,0,0,0,23.43,6.48q6,1.11,12.05,1.76a162,162,0,0,0,29.62.41v-1a199.68,199.68,0,0,1-38.11-3.64,159.36,159.36,0,0,1-34.33-10.58h-2.8A5.69,5.69,0,0,0,91.93,132.29Z"/><path d="M41.61,62h0a.43.43,0,0,1,0,.05h.05S41.61,62,41.61,62Z"/><path d="M41.45,62.47a.13.13,0,0,0,0,.06.53.53,0,0,1,0-.13A.19.19,0,0,0,41.45,62.47Z"/><path d="M46.29,81.32a75.79,75.79,0,0,1-4.23-17.11c-.12-.31-.25-.62-.36-.93,0,.36,0,.72-.06,1.08a77.51,77.51,0,0,0,3.78,17Z"/><path d="M41.51,62.21a.07.07,0,0,0,0,0,.08.08,0,0,1,0,0Z"/><path d="M41.47,62.39h0a.53.53,0,0,0,0,.13c0,.51.12,1,.18,1.55,0-.36,0-.72.06-1.08C41.63,62.8,41.54,62.59,41.47,62.39Z"/><path d="M41.49,62.3a.06.06,0,0,0,0,0s0,0,0,0Z"/><path d="M41.56,62.11a.36.36,0,0,0,0-.09h-.05s0,.09,0,.15Z"/><path d="M50.61,80.66a93.32,93.32,0,0,0,5.75,7.94h1.8a92.9,92.9,0,0,1-6.24-7.94Z"/><path d="M135.11,127.6H117.64c3.26.84,6.53,1.65,9.83,2.32,3.59.67,7.21,1.21,10.83,1.65h25.6a6,6,0,0,1,3.39,1.05c.88,0,1.75-.15,2.63-.21v-1.17A233.83,233.83,0,0,1,135.11,127.6Z"/><path d="M80.66,107.56v4c2.57,1.65,5.21,3.22,7.92,4.66h0V112.1Q84.52,110,80.66,107.56Z"/><path d="M61.58,92.65C60.27,91.33,59,90,57.81,88.6H56.05c1.48,1.82,3,3.63,4.66,5.37a87.86,87.86,0,0,0,19.95,17.38V107.5A105,105,0,0,1,61.58,92.65Z"/><path d="M95.17,115.61c-2.24-1-4.4-2.16-6.57-3.29v4a131.74,131.74,0,0,0,16.32,7.23c4.56,1.57,9.2,2.9,13.88,4.1h17c-.29,0-.57-.08-.86-.14C121.24,124.93,107.73,121.24,95.17,115.61Z"/><path d="M139,131.57c.5.06,1,.14,1.49.19a171.77,171.77,0,0,0,26.73.83,5.87,5.87,0,0,0-3.31-1Z"/><path d="M41.47,62.38h0v0Z"/><path d="M41.67,62l0,0,0,0h0Z"/><path d="M52,81.32a86.79,86.79,0,0,1-9.52-17.51c-.18-.24-.38-.47-.55-.7,0,.37.1.73.15,1.1a89,89,0,0,0,8.65,17.11Z"/><path d="M41.48,62.34v0h0Z"/><path d="M41.62,62l0,0h0s0,0,0,0Z"/><path d="M41.73,62.6c0,.13,0,.27,0,.4.11.31.24.62.36.93-.05-.37-.11-.74-.15-1.1Z"/><path d="M41.62,62h0a.36.36,0,0,1,0,.09l0-.06Z"/><path d="M41.49,62.3s0,0,0,0v0c.07.2.16.41.23.61,0-.13,0-.27,0-.4Z"/><path d="M80.66,94.53v3.14q3.87,2.28,7.94,4.29V98.05c-2.72-1.26-5.38-2.58-8-4A3.75,3.75,0,0,1,80.66,94.53Z"/><path d="M66.53,87.34c.51.43,1.07.83,1.6,1.26H71.9c-1.55-1-3.13-2-4.62-3C65,84,62.9,82.35,60.8,80.66H58.46C61,83,63.71,85.2,66.53,87.34Z"/><path d="M80.66,97.51V94.46c0-.16,0-.31,0-.46-3.15-1.7-6.19-3.5-9.16-5.4H67.79A103.78,103.78,0,0,0,80.66,97.51Z"/><path d="M91.17,103.13a147.05,147.05,0,0,0,14.13,5.66A197.12,197.12,0,0,0,128.82,115c4,.77,8,1.4,12.05,1.85a180.8,180.8,0,0,0,29,.89v-1.42a276.92,276.92,0,0,1-31.46-3.68c-12.78-2.24-25.46-5.07-37.53-9.47-4.21-1.54-8.31-3.31-12.33-5.18v3.82C89.46,102.26,90.3,102.73,91.17,103.13Z"/><path d="M42.46,63.81A124.38,124.38,0,0,0,58.64,81.32h2.27a122.69,122.69,0,0,1-18-17.82c-.28-.2-.57-.39-.85-.6C42.21,63.2,42.34,63.5,42.46,63.81Z"/><path d="M41.72,61.91l0,0s0,0,0,.06h0Z"/><path d="M41.48,62.29h0s0,0,0,0Z"/><path d="M41.52,62.22h0a.08.08,0,0,0,0,0s0,0,0,0h0Z"/><path d="M41.91,62.83c.17.23.37.46.55.69l-.37-.9-.23-.17C41.87,62.58,41.89,62.7,41.91,62.83Z"/><path d="M41.65,62l0,0h0l0,0Z"/><path d="M41.74,62.37a1.77,1.77,0,0,0,0,.23l.18.23c0-.13,0-.25,0-.38Z"/><path d="M41.65,62h0l0,0h0Z"/><path d="M41.52,62.22l0,.08.24.3a1.77,1.77,0,0,1,0-.23Z"/><path d="M41.63,62h0v0Z"/><path d="M91.92,89.33a6,6,0,0,1,2.82-.73h4.5Q88.19,85.17,77.5,80.66H71.89C78.39,83.89,85.1,86.75,91.92,89.33Z"/><path d="M91.93,89.31c4.57,1.73,9.19,3.36,13.87,4.82a191.59,191.59,0,0,0,35.48,8,190.42,190.42,0,0,0,28.64,1.12V101.5c-9.41-1-18.76-2-28-3.6-11.76-1.93-23.56-3.88-35.07-7-2.61-.71-5.2-1.48-7.78-2.27H94.68A5.8,5.8,0,0,0,91.93,89.31Z"/><path d="M41.72,62.19a.6.6,0,0,1,.16.08c.34.41.72.81,1.06,1.23A207.12,207.12,0,0,0,72.22,81.32h5.49A214.07,214.07,0,0,1,41.76,62.14Z"/><path d="M41.5,62.2h0s0,0,0,0Z"/><path d="M41.54,62.19s0,0,0-.08l0,.06s0,0,0,0h0Z"/><path d="M41.61,62.05l0,.06s0,0,0,.08Z"/><path d="M41.84,62c.08.21.17.41.25.62.28.21.57.4.85.6-.34-.42-.72-.82-1.06-1.24l-.16-.07,0,0Z"/><path d="M41.52,62.22h0l0,0Z"/><path d="M41.86,62.45l.23.17c-.08-.21-.17-.41-.25-.62l-.16,0,0,0,.15,0C41.81,62.17,41.84,62.31,41.86,62.45Z"/><path d="M41.76,62c0,.11,0,.22,0,.33l.12.08c0-.14,0-.28-.06-.43l-.15,0,0,0Z"/><path d="M41.76,62h-.13l0,0-.07.14,0,0,.22.15C41.75,62.26,41.75,62.15,41.76,62Z"/></g></g></svg>