<svg xmlns="http://www.w3.org/2000/svg" viewBox="0 0 44 44"><defs><style>.cls-1{fill:none;}.cls-2{fill:#fff;}</style></defs><g id="Layer_2" data-name="Layer 2"><g id="Layer_1-2" data-name="Layer 1"><path class="cls-1" d="M10.94,16.57A19.92,19.92,0,0,0,12,21h1.15A22.49,22.49,0,0,1,10.94,16.57Z"/><path class="cls-1" d="M10.83,16.61A20.16,20.16,0,0,0,11,21h.8A20,20,0,0,1,10.83,16.61Z"/><path class="cls-1" d="M23,30.06v1.42A1.52,1.52,0,0,0,24.52,33h6.3c-1.21-.31-2.41-.66-3.59-1.06A33.38,33.38,0,0,1,23,30.06Z"/><path class="cls-1" d="M14.4,26.1A20.86,20.86,0,0,1,12.62,23h-.1a1.51,1.51,0,0,0-1,.39,19.61,19.61,0,0,0,1.76,4.27A23.1,23.1,0,0,0,21,35.72V32.59A22.57,22.57,0,0,1,14.4,26.1Z"/><path class="cls-1" d="M15.23,21A32.36,32.36,0,0,1,11,16.46,22.12,22.12,0,0,0,13.51,21Z"/><path class="cls-1" d="M36.5,30.28c-1-.12-2.08-.28-3.11-.48a52.81,52.81,0,0,1-6.08-1.61,38.43,38.43,0,0,1-3.64-1.47c-.23-.1-.45-.22-.67-.33V29c.56.3,1.12.59,1.7.86A45.46,45.46,0,0,0,35,33l.23,0a59.67,59.67,0,0,0,8.77.92V30.5A47,47,0,0,1,36.5,30.28Z"/><path class="cls-1" d="M15.08,23c.32.36.64.71,1,1.05A27.69,27.69,0,0,0,21,27.9V25.31A27.34,27.34,0,0,1,17.67,23Z"/><path class="cls-1" d="M19.48,23h-.86c.77.49,1.55,1,2.37,1.4A1.52,1.52,0,0,0,19.48,23Z"/><path class="cls-1" d="M15.83,24.39c-.42-.45-.82-.92-1.2-1.39H12.92a20,20,0,0,0,1.74,2.86A24.22,24.22,0,0,0,21,31.73V28.89A22.69,22.69,0,0,1,15.83,24.39Z"/><path class="cls-1" d="M15.82,21h2.94l-.06,0a52.67,52.67,0,0,1-7.53-4.58A32.2,32.2,0,0,0,15.82,21Z"/><path class="cls-1" d="M21,32.59v3.13c.25.16.49.33.74.48.42.25.84.48,1.26.71V35.52a1.51,1.51,0,0,1,.8-1.33c-.54-.28-1.09-.55-1.61-.86S21.39,32.85,21,32.59Z"/><path class="cls-1" d="M23,29V26.39c-.68-.34-1.35-.7-2-1.08V27.9C21.65,28.3,22.31,28.68,23,29Z"/><path class="cls-1" d="M12.62,23a19,19,0,0,1-.81-2H11a19.51,19.51,0,0,0,.5,2.39,1.51,1.51,0,0,1,1-.39Z"/><path class="cls-1" d="M15.82,21c.53.43,1.07.85,1.63,1.24.38.27.78.51,1.17.76h.86A1.52,1.52,0,0,1,21,24.4c.66.35,1.33.69,2,1v-.88a1.5,1.5,0,0,1,.81-1.33c-1.72-.66-3.41-1.38-5-2.19Z"/><path class="cls-1" d="M30.82,33h-6.3A1.52,1.52,0,0,1,23,31.48V30.06l-.07,0c-.66-.35-1.31-.74-1.93-1.14v2.84q1.08.71,2.22,1.32c.66.34,1.34.65,2,1H36c-.91-.11-1.83-.25-2.73-.42S31.64,33.21,30.82,33Z"/><path class="cls-1" d="M12,21c.26.68.56,1.34.89,2h1.71a22.5,22.5,0,0,1-1.45-2Z"/><path class="cls-1" d="M17.27,22.68c-.72-.53-1.39-1.1-2-1.68H13.51a22.58,22.58,0,0,0,1.57,2h2.59C17.54,22.89,17.39,22.79,17.27,22.68Z"/><rect class="cls-2" y="23" width="10" height="21" rx="1.52"/><path class="cls-2" d="M13,27.81a19.06,19.06,0,0,1-1.65-4.22,1.52,1.52,0,0,0-.32.93v18A1.52,1.52,0,0,0,12.52,44h7A1.52,1.52,0,0,0,21,42.48V36.34A23.6,23.6,0,0,1,13,27.81Z"/><path class="cls-2" d="M36.75,25.41c2.39.42,4.81.68,7.25.93V24.52A1.52,1.52,0,0,0,42.48,23H25.65c.67.21,1.34.41,2,.59A90,90,0,0,0,36.75,25.41Z"/><path class="cls-2" d="M33.12,41.15a39.5,39.5,0,0,1-6.06-1.71A34.9,34.9,0,0,1,23,37.54v4.94A1.52,1.52,0,0,0,24.52,44h18A1.52,1.52,0,0,0,44,42.48v-.82A40.52,40.52,0,0,1,33.12,41.15Z"/><rect class="cls-2" x="34" width="10" height="21" rx="1.52"/><rect class="cls-2" x="23" width="10" height="21" rx="1.52"/><path class="cls-2" d="M10.78,16.21v0h0v-.1h0v0h0v0h0v0a56.18,56.18,0,0,0,9.31,5h.28A1.56,1.56,0,0,0,22,19.45v-6.9A1.56,1.56,0,0,0,20.45,11H1.55A1.56,1.56,0,0,0,0,12.55v6.9A1.56,1.56,0,0,0,1.55,21h9.28A19.69,19.69,0,0,1,10.78,16.21Z"/><rect class="cls-2" width="22" height="10" rx="1.55"/><path class="cls-2" d="M11,21h-.18a20.74,20.74,0,0,0,.49,2.59,1.8,1.8,0,0,1,.19-.2A19.51,19.51,0,0,1,11,21Z"/><path class="cls-2" d="M21,35.72v.62l.45.3c.51.31,1,.61,1.55.9v-.63c-.42-.23-.84-.46-1.26-.71C21.49,36.05,21.25,35.88,21,35.72Z"/><path class="cls-2" d="M13.27,27.66a19.61,19.61,0,0,1-1.76-4.27,1.8,1.8,0,0,0-.19.2A19.06,19.06,0,0,0,13,27.81a23.6,23.6,0,0,0,8,8.53v-.62A23.1,23.1,0,0,1,13.27,27.66Z"/><path class="cls-2" d="M27.06,39.44a39.5,39.5,0,0,0,6.06,1.71A40.52,40.52,0,0,0,44,41.66v-.2a48.19,48.19,0,0,1-10.74-.94A37.28,37.28,0,0,1,23,36.91v.63A34.9,34.9,0,0,0,27.06,39.44Z"/><path class="cls-2" d="M10.79,16.15h0v0h0a.08.08,0,0,1,0,0h0v.1h0Z"/><path class="cls-2" d="M10.83,16.61c0-.14,0-.27-.05-.4A19.69,19.69,0,0,0,10.83,21H11A20.16,20.16,0,0,1,10.83,16.61Z"/><polygon class="cls-2" points="10.79 16.17 10.79 16.17 10.79 16.17 10.79 16.17"/><path class="cls-2" d="M11.81,21a19,19,0,0,0,.81,2h.3c-.33-.66-.63-1.32-.89-2Z"/><path class="cls-2" d="M21,31.73v.86c.39.26.79.51,1.19.74s1.07.58,1.61.86a1.49,1.49,0,0,1,.72-.19h.72c-.68-.3-1.36-.61-2-1S21.72,32.2,21,31.73Z"/><path class="cls-2" d="M14.66,25.86A20,20,0,0,1,12.92,23h-.3a20.86,20.86,0,0,0,1.78,3.1A22.57,22.57,0,0,0,21,32.59v-.86A24.22,24.22,0,0,1,14.66,25.86Z"/><path class="cls-2" d="M23.8,34.19c1.09.55,2.2,1.06,3.34,1.5a44,44,0,0,0,6.07,1.68c1,.19,2.08.34,3.12.46a42.73,42.73,0,0,0,7.67.1v-.25a51.74,51.74,0,0,1-9.87-.94A41.43,41.43,0,0,1,25.24,34h-.72A1.49,1.49,0,0,0,23.8,34.19Z"/><path class="cls-2" d="M10.82,16.07h0Z"/><path class="cls-2" d="M10.78,16.19v0Z"/><path class="cls-2" d="M12,21a19.92,19.92,0,0,1-1.09-4.43,2.34,2.34,0,0,1-.09-.24c0,.09,0,.18,0,.28a20,20,0,0,0,1,4.39Z"/><path class="cls-2" d="M10.8,16.12v0h0Z"/><path class="cls-2" d="M10.79,16.17h0v0c0,.13,0,.26.05.4,0-.1,0-.19,0-.28A1,1,0,0,1,10.79,16.17Z"/><polygon class="cls-2" points="10.79 16.15 10.79 16.16 10.79 16.15 10.79 16.15"/><path class="cls-2" d="M10.81,16.1v0h0a.08.08,0,0,0,0,0Z"/><path class="cls-2" d="M13.18,21a22.5,22.5,0,0,0,1.45,2h.45a22.58,22.58,0,0,1-1.57-2Z"/><path class="cls-2" d="M35.23,33H30.82c.82.21,1.65.42,2.48.58s1.82.31,2.73.42h6.45a1.51,1.51,0,0,1,.86.27l.66-.06v-.29A59.67,59.67,0,0,1,35.23,33Z"/><path class="cls-2" d="M21,27.9v1c.62.4,1.27.79,1.93,1.14l.07,0V29C22.31,28.68,21.65,28.3,21,27.9Z"/><path class="cls-2" d="M16.06,24.05c-.34-.34-.66-.69-1-1.05h-.45c.38.47.78.94,1.2,1.39A22.69,22.69,0,0,0,21,28.89v-1A27.69,27.69,0,0,1,16.06,24.05Z"/><path class="cls-2" d="M24.7,29.9c-.58-.27-1.14-.56-1.7-.86v1a33.38,33.38,0,0,0,4.23,1.88c1.18.4,2.38.75,3.59,1.06h4.41L35,33A45.46,45.46,0,0,1,24.7,29.9Z"/><path class="cls-2" d="M36,34l.39,0a45.7,45.7,0,0,0,6.92.22,1.51,1.51,0,0,0-.86-.27Z"/><polygon class="cls-2" points="10.78 16.17 10.79 16.17 10.79 16.17 10.78 16.17"/><path class="cls-2" d="M10.84,16.06h0v0h0Z"/><path class="cls-2" d="M13.51,21A22.12,22.12,0,0,1,11,16.46l-.14-.18c0,.1,0,.19,0,.29A22.49,22.49,0,0,0,13.18,21Z"/><path class="cls-2" d="M10.79,16.16h0Z"/><polygon class="cls-2" points="10.82 16.08 10.83 16.07 10.82 16.07 10.82 16.08 10.82 16.08"/><path class="cls-2" d="M10.85,16.22v.11a2.34,2.34,0,0,0,.09.24c0-.1,0-.19,0-.29Z"/><path class="cls-2" d="M10.83,16.08h0v0Z"/><path class="cls-2" d="M10.79,16.15h0a1,1,0,0,0,.06.16v-.11Z"/><path class="cls-2" d="M21,24.52v.79c.65.38,1.32.74,2,1.08v-1c-.68-.31-1.35-.65-2-1C21,24.44,21,24.48,21,24.52Z"/><path class="cls-2" d="M17.27,22.68c.12.11.27.21.4.32h.95c-.39-.25-.79-.49-1.17-.76-.56-.39-1.1-.81-1.63-1.24h-.59C15.88,21.58,16.55,22.15,17.27,22.68Z"/><path class="cls-2" d="M21,25.31v-.79s0-.08,0-.12c-.82-.44-1.6-.91-2.37-1.4h-.95A27.34,27.34,0,0,0,21,25.31Z"/><path class="cls-2" d="M23.67,26.72a38.43,38.43,0,0,0,3.64,1.47,52.81,52.81,0,0,0,6.08,1.61c1,.2,2.07.36,3.11.48a47,47,0,0,0,7.5.22v-.36a73.12,73.12,0,0,1-8.12-.95,57,57,0,0,1-9.7-2.45C25.1,26.35,24,25.89,23,25.4v1C23.22,26.5,23.44,26.62,23.67,26.72Z"/><path class="cls-2" d="M11,16.46A32.36,32.36,0,0,0,15.23,21h.59a32.2,32.2,0,0,1-4.65-4.61L11,16.23Z"/><polygon class="cls-2" points="10.85 16.05 10.84 16.04 10.84 16.06 10.84 16.06 10.85 16.05"/><path class="cls-2" d="M10.79,16.14h0Z"/><path class="cls-2" d="M10.8,16.13h0Z"/><path class="cls-2" d="M10.9,16.28l.14.18L11,16.23l-.06,0S10.9,16.25,10.9,16.28Z"/><path class="cls-2" d="M10.83,16.07h0Z"/><path class="cls-2" d="M10.86,16.17a.07.07,0,0,0,0,0l.05.06s0-.06,0-.09Z"/><polygon class="cls-2" points="10.83 16.07 10.83 16.07 10.82 16.08 10.83 16.08 10.83 16.07"/><path class="cls-2" d="M10.8,16.13v0l.06.07a.07.07,0,0,1,0,0Z"/><polygon class="cls-2" points="10.83 16.08 10.82 16.08 10.82 16.08 10.83 16.08"/><path class="cls-2" d="M23.81,23.19a1.42,1.42,0,0,1,.71-.19h1.13q-2.79-.87-5.48-2H18.76C20.4,21.81,22.09,22.53,23.81,23.19Z"/><path class="cls-2" d="M23.81,23.19c1.18.44,2.38.87,3.59,1.24a49.59,49.59,0,0,0,9.18,2.07,49.78,49.78,0,0,0,7.42.29v-.45c-2.44-.25-4.86-.51-7.25-.93a90,90,0,0,1-9.08-1.82c-.68-.18-1.35-.38-2-.59H24.52A1.42,1.42,0,0,0,23.81,23.19Z"/><path class="cls-2" d="M10.85,16.05l0,0,.28.32A52.67,52.67,0,0,0,18.7,21l.06,0h1.41a56.18,56.18,0,0,1-9.31-5Z"/><polygon class="cls-2" points="10.79 16.12 10.8 16.12 10.8 16.11 10.79 16.12"/><path class="cls-2" d="M10.8,16.12v0h0Z"/><path class="cls-2" d="M10.82,16.08v0Z"/><path class="cls-2" d="M10.88,16.07l.07.16.22.16-.28-.32,0,0h0Z"/><polygon class="cls-2" points="10.8 16.13 10.8 16.13 10.8 16.12 10.8 16.13"/><path class="cls-2" d="M10.89,16.19l.06,0-.07-.16h0A.5.5,0,0,0,10.89,16.19Z"/><path class="cls-2" d="M10.86,16.08v.09l0,0a.5.5,0,0,1,0-.12h0Z"/><path class="cls-2" d="M10.86,16.08h0l0,0h0l.06,0Z"/></g></g></svg>