<svg xmlns="http://www.w3.org/2000/svg" viewBox="0 0 89.02 90.52"><defs><style>.cls-1{fill:#fff;}</style></defs><g id="Layer_2" data-name="Layer 2"><g id="Layer_1-2" data-name="Layer 1"><rect x="-12" y="59" width="43.52" height="19.51" rx="3.05" transform="translate(-59 78.52) rotate(-90)"/><rect x="11" y="59" width="43.52" height="19.51" rx="3.05" transform="translate(-36 101.52) rotate(-90)"/><rect x="45.5" y="47.5" width="43.52" height="19.51" rx="3.05"/><rect x="45.5" y="70.5" width="43.52" height="19.51" rx="3.05"/><rect x="57.5" y="12" width="43.52" height="19.51" rx="3.05" transform="translate(101.02 -57.5) rotate(90)"/><rect x="34.5" y="12" width="43.52" height="19.51" rx="3.05" transform="translate(78.02 -34.5) rotate(90)"/><rect y="23.5" width="43.52" height="19.51" rx="3.05" transform="translate(43.52 66.52) rotate(-180)"/><rect y="0.5" width="43.52" height="19.51" rx="3.05" transform="translate(43.52 20.52) rotate(-180)"/><path d="M21.39,33.6a115.94,115.94,0,0,0,27.3,14.07,121.07,121.07,0,0,0,40.28,7q0,15,0,30a72.41,72.41,0,0,1-23.47-.62c-6.65-1.29-21.2-4.3-32.46-16.2A42.71,42.71,0,0,1,22,48,39.52,39.52,0,0,1,21.39,33.6Z"/><path class="cls-1" d="M21.45,33.61a41.33,41.33,0,0,0,4.63,23.2A46.16,46.16,0,0,0,42.36,73.92,63.54,63.54,0,0,0,53,79.21l2.81,1c.94.34,1.91.57,2.85.87l1.43.44,1.45.35c1,.23,1.93.51,2.91.69a84.17,84.17,0,0,0,11.84,1.68l3,.16c1,.07,2,0,3,0,2,.08,4-.09,6-.12l0,.13a76,76,0,0,1-12.07.68,77.64,77.64,0,0,1-12.06-1.31,67.78,67.78,0,0,1-11.66-3.43A64.47,64.47,0,0,1,41.8,74.79,46.94,46.94,0,0,1,25.5,57.11,41.71,41.71,0,0,1,21.33,33.6Z"/><path class="cls-1" d="M21.46,33.59A70.19,70.19,0,0,0,24.3,44.24,41.06,41.06,0,0,0,37,61.84,54.91,54.91,0,0,0,46,68a69.08,69.08,0,0,0,10,4.33c1.74.54,3.47,1.13,5.24,1.55s3.55.87,5.33,1.27a94.27,94.27,0,0,0,10.86,1.53c3.65.28,7.33.34,11,.27v.16a74.55,74.55,0,0,1-11.09.64,84.48,84.48,0,0,1-11.09-1.1,71.76,71.76,0,0,1-10.78-2.9A69.38,69.38,0,0,1,45.42,69a56.37,56.37,0,0,1-9.12-6.43,42.14,42.14,0,0,1-7.47-8.25,41.47,41.47,0,0,1-5-9.94,70.6,70.6,0,0,1-2.54-10.78Z"/><path class="cls-1" d="M21.47,33.56c1.69,3,3.08,6.07,4.92,8.92a45.71,45.71,0,0,0,6.22,8,44.58,44.58,0,0,0,7.79,6.38,59.87,59.87,0,0,0,8.83,4.89,67.9,67.9,0,0,0,9.46,3.49,93.8,93.8,0,0,0,9.8,2.36,107.59,107.59,0,0,0,20.16,1.9v.18a71,71,0,0,1-20.48-.35c-1.69-.27-3.37-.63-5.05-1-.84-.18-1.66-.45-2.49-.67s-1.65-.47-2.47-.75A69.84,69.84,0,0,1,48.63,63a62.06,62.06,0,0,1-8.87-5.21,44.88,44.88,0,0,1-13.82-15c-1.75-2.94-3-6.11-4.63-9.1Z"/><path class="cls-1" d="M21.46,33.53c2.23,2.27,4.32,4.65,6.58,6.86a64.39,64.39,0,0,0,7.19,6.12,56.65,56.65,0,0,0,8,4.93,75.71,75.71,0,0,0,8.6,3.81A107.85,107.85,0,0,0,70,60a141,141,0,0,0,18.78,2v.2c-1.58.21-3.17.32-4.77.42s-3.18.09-4.78.06a74.67,74.67,0,0,1-9.56-.77,76.7,76.7,0,0,1-18.44-5.2,78,78,0,0,1-8.64-4.16,57.55,57.55,0,0,1-8-5.27,64.5,64.5,0,0,1-7-6.5c-2.18-2.31-4.17-4.78-6.29-7.13Z"/><path class="cls-1" d="M21.46,33.51A101.06,101.06,0,0,0,37,42.42a108.35,108.35,0,0,0,16.74,6.23c1.43.43,2.88.76,4.32,1.13s2.9.67,4.36.93c2.91.61,5.84,1.08,8.77,1.59C77.06,53.31,83,54,89,54.58v.22a82.29,82.29,0,0,1-18.09-.32,92,92,0,0,1-17.65-4.14,109.47,109.47,0,0,1-16.72-6.93,103.06,103.06,0,0,1-15.19-9.72Z"/></g></g></svg>