<svg xmlns="http://www.w3.org/2000/svg" viewBox="0 0 137.75 19.3"><g id="Layer_2" data-name="Layer 2"><g id="Layer_1-2" data-name="Layer 1"><path d="M0,12.15C0,7.8,2.81,5,6.91,5c3.62,0,6.37,1.84,6.67,5.73h-3.3A3.2,3.2,0,0,0,6.91,7.64c-2,0-3.67,1.48-3.67,4.51s1.62,4.48,3.67,4.48a3.16,3.16,0,0,0,3.35-3h3.29c-.3,3.88-3,5.72-6.64,5.72C2.81,19.3,0,16.49,0,12.15Z"/><path d="M14.88,12.15C14.88,7.8,17.68,5,21.81,5s7,2.81,7,7.16-2.84,7.15-7,7.15S14.88,16.49,14.88,12.15Zm6.93,4.48c2.06,0,3.73-1.43,3.73-4.48s-1.67-4.51-3.73-4.51-3.69,1.48-3.69,4.51S19.76,16.63,21.81,16.63Z"/><path d="M30.72,5.4h3.16l-.05,3.18H34C34.48,6.8,35.72,5,38.23,5c2.29,0,3.53,1.57,3.81,3.7h.16A4.47,4.47,0,0,1,46.35,5c3,0,4.21,2.16,4.21,5.65V18.9H47.41V11.09c0-2.21-.73-3.45-2.33-3.45s-2.83,1.54-2.83,3.75V18.9H39V11.09c0-2.21-.73-3.45-2.27-3.45-1.81,0-2.89,1.65-2.89,3.86v7.4H30.72Z"/><path d="M52.89,13.66V5.4h3.19v7.85c0,2.3.94,3.43,2.7,3.43,2.07,0,3.18-2.18,3.18-4.32v-7h3.16V18.9H62L62,15.47h-.17a4.45,4.45,0,0,1-4.48,3.83C54.24,19.3,52.89,17.36,52.89,13.66Z"/><path d="M67.71,5.4h3.16l-.05,3.45H71A4.68,4.68,0,0,1,75.49,5c3.24,0,4.67,2,4.67,5.73V18.9H77V11.12c0-2.29-1-3.51-2.86-3.51-2,0-3.24,2.08-3.24,4.21V18.9H67.71Z"/><path d="M82.46,0h3.18V3.51H82.46Zm0,5.4h3.18V18.9H82.46Z"/><path d="M87.45,12.23C87.45,8,89.83,5,93.34,5a4.94,4.94,0,0,1,4.72,3.35h.14V0h3.18V18.9H98.2l0-3h-.14a4.52,4.52,0,0,1-4.64,3.4C90,19.3,87.45,16.44,87.45,12.23Zm7.07,4.42c2.16,0,3.78-1.51,3.78-4.48s-1.62-4.5-3.78-4.5-3.8,1.51-3.8,4.5S92.39,16.65,94.52,16.65Z"/><path d="M103.49,15.31c0-2.68,1.94-3.84,4.72-4l4.32-.29v-.54c0-1.84-.92-3-2.86-3s-3,.92-3,2.38h-3.32c0-2.92,2.43-4.86,6.45-4.86,3.67,0,5.94,1.72,5.94,5.1V15c0,.92.35,1.32,1.27,1.32h.59V18.9h-1.67c-2.08,0-3.19-.92-3.19-2.68V16h-.14a4.71,4.71,0,0,1-4.8,3.21C105.05,19.22,103.49,17.65,103.49,15.31ZM109.16,17c1.86,0,3.4-1.3,3.42-4.1l-3.15.24c-1.84.13-2.68.73-2.68,1.94C106.75,16.09,107.43,17,109.16,17Z"/><path d="M118.15,12.23C118.15,8,120.53,5,124,5a5,5,0,0,1,4.73,3.35h.13V0h3.19V18.9h-3.19l.06-3h-.14a4.52,4.52,0,0,1-4.64,3.4C120.66,19.3,118.15,16.44,118.15,12.23Zm7.07,4.42c2.16,0,3.78-1.51,3.78-4.48s-1.62-4.5-3.78-4.5-3.8,1.51-3.8,4.5S123.09,16.65,125.22,16.65Z"/><path d="M134.48,15.47h3.27V18.9h-3.27Z"/></g></g></svg>