<svg xmlns="http://www.w3.org/2000/svg" viewBox="0 0 24 24"><defs><style>.cls-1{fill:#447271;}.cls-2{fill:#fff;}</style></defs><g id="Layer_2" data-name="Layer 2"><g id="Layer_1-2" data-name="Layer 1"><circle class="cls-1" cx="12" cy="12" r="12"/><path class="cls-2" d="M15.74,4.16a3,3,0,0,1,.59.23,1.47,1.47,0,0,1,.76,1.26.71.71,0,0,1,0,.14V18.2a1.58,1.58,0,0,1-.8,1.44,1.67,1.67,0,0,1-.85.2H8.55l-.38,0a1.57,1.57,0,0,1-1.26-1.43c0-.07,0-.14,0-.21V5.82A1.57,1.57,0,0,1,7.83,4.3a2.16,2.16,0,0,1,.43-.14Zm-.23,11V5.73h-7v9.4ZM12,18.29h.43a.72.72,0,0,0,.74-.78.76.76,0,0,0-.76-.78q-.42,0-.84,0a.84.84,0,0,0-.74.72.76.76,0,0,0,.62.82A5.09,5.09,0,0,0,12,18.29Z"/></g></g></svg>