<svg xmlns="http://www.w3.org/2000/svg" viewBox="0 0 24.3 24.28"><defs><style>.cls-1{fill:#fff;}.cls-2{fill:#447271;}</style></defs><g id="Layer_2" data-name="Layer 2"><g id="Layer_1-2" data-name="Layer 1"><circle class="cls-1" cx="12.8" cy="12.68" r="9.5"/><path class="cls-2" d="M24.3,11.35V12.9c0,.3-.07.59-.11.89a11.91,11.91,0,0,1-3,6.39,11.92,11.92,0,0,1-7,3.91c-.45.08-.91.13-1.36.19H11.4l-.23,0c-.5-.07-1-.12-1.52-.23a12,12,0,0,1-8.34-6.42A11,11,0,0,1,0,11.9,12.13,12.13,0,0,1,6.82,1.22,10.38,10.38,0,0,1,10.9,0a12.11,12.11,0,0,1,9.3,3,12,12,0,0,1,3.92,7C24.19,10.48,24.24,10.91,24.3,11.35Zm-12,6.5h6.18a1.53,1.53,0,0,0,1.65-1.66V8.49a1.53,1.53,0,0,0-1.66-1.67H6.2A1.53,1.53,0,0,0,4.53,8.49c0,2.55,0,5.1,0,7.66a1.62,1.62,0,0,0,1.71,1.71C8.27,17.83,10.31,17.85,12.35,17.85Z"/><path class="cls-2" d="M19.17,8.69V16.1c0,.43-.05.48-.48.48H6.3c-.43,0-.48,0-.48-.48V8.69l.24.18L12,13.51a.67.67,0,0,0,1,0l5.85-4.57Z"/><path class="cls-2" d="M12.49,12.47l5.65-4.62H6.69Z"/></g></g></svg>