<svg xmlns="http://www.w3.org/2000/svg" viewBox="0 0 139.11 112.7"><defs><style>.cls-1{fill:#447271;}</style></defs><g id="Layer_2" data-name="Layer 2"><g id="Layer_1-2" data-name="Layer 1"><path class="cls-1" d="M0,28.36a3.46,3.46,0,0,0,.25-.6,12.78,12.78,0,0,1,12.57-10.5c4.44-.06,8.88-.05,13.31,0a5.54,5.54,0,0,0,4.24-1.75C34.13,11.72,37.94,8,41.69,4.16A13.3,13.3,0,0,1,51.65,0Q69.58,0,87.5,0a13.31,13.31,0,0,1,10,4.17c3.68,3.75,7.45,7.41,11.12,11.16a6,6,0,0,0,4.71,1.94c4.12-.08,8.24,0,12.36,0,8,0,13.45,5.48,13.46,13.5V99.21c0,8-5.41,13.48-13.46,13.48q-56.09,0-112.18,0c-7,0-11.69-3.79-13.27-10.62a1.51,1.51,0,0,0-.2-.34Zm69.56,76h56.09c4.37,0,6.11-2.81,5-8.12-4.41-20.51-5.49-41.75-.19-62,1.52-5.8-.23-9-4.72-9-4.23,0-8.46,0-12.69,0a13.73,13.73,0,0,1-9.93-4.08c-3.73-3.76-7.51-7.47-11.22-11.25-2.06-2.1-4.5-2.43-8.41-1.26-9.21,2.74-19,2.28-28.29-.16-3.53-.92-5.85-.64-7.8,1.35-3.74,3.81-7.55,7.55-11.31,11.35a13.74,13.74,0,0,1-9.93,4.05c-4.05,0-8.11,0-12.16,0-5.4,0-6.62,2.9-5.32,10.32C12,55,11.56,74.76,8.56,94.21c-1.15,7.44,0,10.18,5.32,10.18Z"/><path class="cls-1" d="M17.14,0c1.49,0,3,0,4.47,0a4,4,0,0,1,4,3.81,3.88,3.88,0,0,1-3.68,4.24c-3.15.15-6.33.15-9.48,0A4,4,0,0,1,8.75,4,4,4,0,0,1,12.8,0C14.24,0,15.69,0,17.14,0Z"/><path class="cls-1" d="M99.81,60.6A30.24,30.24,0,1,1,69.58,30.34,30.25,30.25,0,0,1,99.81,60.6Zm-8.16.09a22.08,22.08,0,1,0-22.29,22A22.13,22.13,0,0,0,91.65,60.69Z"/></g></g></svg>