<svg xmlns="http://www.w3.org/2000/svg" viewBox="0 0 24 24"><defs><style>.cls-1{fill:#447271;}.cls-2{fill:#fff;}</style></defs><g id="Layer_2" data-name="Layer 2"><g id="Layer_1-2" data-name="Layer 1"><circle class="cls-1" cx="12" cy="12" r="12"/><path class="cls-2" d="M4.68,16.62a6.13,6.13,0,0,0,4.41-1.24,3.06,3.06,0,0,1-2.2-1.05,2.94,2.94,0,0,1-.6-1.05,3.27,3.27,0,0,0,1.32,0,3,3,0,0,1-2.36-3,3.09,3.09,0,0,0,1.33.35,3,3,0,0,1-1.3-2.13,3,3,0,0,1,.39-1.88,8.53,8.53,0,0,0,6.18,3.14c0-.3,0-.58,0-.87a3,3,0,0,1,5.11-1.95.19.19,0,0,0,.2,0,6.18,6.18,0,0,0,1.66-.63l.12-.06a2.45,2.45,0,0,1-.48.92c-.23.25-.49.48-.74.73.27-.06.55-.11.82-.18s.52-.18.81-.24c-.24.28-.47.58-.73.85s-.45.39-.68.59a.3.3,0,0,0-.08.18,8.64,8.64,0,0,1-3.75,7.41,7.77,7.77,0,0,1-3.59,1.36,9,9,0,0,1-3.64-.27,8,8,0,0,1-2.11-.95Z"/></g></g></svg>