<svg xmlns="http://www.w3.org/2000/svg" viewBox="0 0 127 127"><defs><style>.cls-1{fill:#fff;}</style></defs><g id="Layer_2" data-name="Layer 2"><g id="Layer_1-2" data-name="Layer 1"><circle cx="63.5" cy="63.5" r="63.5"/><path class="cls-1" d="M58.82,96.16V30.84a4.68,4.68,0,1,1,9.36-.09v65.5a4.68,4.68,0,1,1-9.36-.09Z"/><path class="cls-1" d="M57.48,96V31a6.17,6.17,0,0,1,4.76-6.12,6,6,0,0,1,7.28,5.89v65.5a6,6,0,0,1-7.28,5.89A6.17,6.17,0,0,1,57.48,96Zm2.68-65.11V96.09a3.45,3.45,0,0,0,2.5,3.4,3.35,3.35,0,0,0,4.18-3.24V30.75a3.35,3.35,0,0,0-4.18-3.24A3.45,3.45,0,0,0,60.16,30.91Z"/><path class="cls-1" d="M95.92,68.18H30.41a4.68,4.68,0,1,1,0-9.36H95.92a4.68,4.68,0,0,1,0,9.36Z"/><path class="cls-1" d="M95.92,69.52H30.41a6,6,0,0,1,0-12H95.92a6,6,0,0,1,0,12ZM30.41,60.16a3.34,3.34,0,1,0,0,6.68H95.92a3.34,3.34,0,1,0,0-6.68Z"/></g></g></svg>