<svg xmlns="http://www.w3.org/2000/svg" viewBox="0 0 113.24 137.83"><defs><style>.cls-1{fill:#447271;}</style></defs><g id="Layer_2" data-name="Layer 2"><g id="Layer_1-2" data-name="Layer 1"><path class="cls-1" d="M33,0a54.2,54.2,0,0,1,5.81,1.45A26.09,26.09,0,0,1,54.29,16.12c.14.32.31.63.48,1,9.19-9,21.6-7.42,28.75-.67A22.49,22.49,0,0,1,86,45.91h5.86V59.54l10.76-3.37,10.66-3.36v50.71L91.82,97v13.14h-32l19.32,27.63c-3.29,0-6.33,0-9.36-.05-.38,0-.82-.6-1.11-1q-8.55-12.18-17.07-24.37l-1-1.46v26.8H41.32V111.26l-.24-.13c-.27.37-.55.72-.81,1.1q-8.58,12.26-17.13,24.53A2.49,2.49,0,0,1,21,137.83c-2.7-.06-5.4,0-8.4,0l19.31-27.63H0V45.91H9.08c-.34-.44-.48-.64-.64-.83C1.49,36.93-.5,27.67,3.22,17.65S14.45,1.89,25,.23A2.82,2.82,0,0,0,25.65,0ZM9.18,53.56v49h75v-49ZM28.51,45.8A18.84,18.84,0,1,0,9.67,27,18.84,18.84,0,0,0,28.51,45.8ZM82.35,32.42A13.44,13.44,0,1,0,68.77,45.79,13.39,13.39,0,0,0,82.35,32.42Zm23.24,31.32a.91.91,0,0,0-.32-.06c-4.35,1.31-8.71,2.62-13,4a.9.9,0,0,0-.6.81c0,6.67,0,13.34,0,20.11l14,4.24Z"/><path class="cls-1" d="M62.74,75v7.65H29.08V75Z"/></g></g></svg>