<svg xmlns="http://www.w3.org/2000/svg" viewBox="0 0 24 24"><defs><style>.cls-1{fill:#447271;}.cls-2{fill:#fff;}</style></defs><g id="Layer_2" data-name="Layer 2"><g id="Layer_1-2" data-name="Layer 1"><circle class="cls-1" cx="12" cy="12" r="12"/><path class="cls-2" d="M22.15,12A10.15,10.15,0,1,1,12,1.85,10.18,10.18,0,0,1,22.15,12ZM4.86,16.79c.61-.25,1.19-.5,1.79-.72.18-.07.18-.15.16-.31-.09-.46-.18-.92-.24-1.39s-.09-1-.14-1.54h-3A8.48,8.48,0,0,0,4.86,16.79Zm15.69-5.3a8.59,8.59,0,0,0-1.42-4L17,8.39l.62,3.1ZM6.8,8.34,4.86,7.52a8.74,8.74,0,0,0-1.41,4H6.39ZM19.14,16.8a8.7,8.7,0,0,0,1.41-4H17.64L17.21,16Zm-6.31-4v2.4l2.9.37.37-2.77ZM15.7,8.72l-2.87.37.15,2.4h3.11Zm-7.09,0-.35,2.72h3.23V9.11Zm2.88,4.06H8.26l.34,2.72,2.89-.34Zm0-5.58V3.58A5.9,5.9,0,0,0,9.07,7Zm0,13.15V16.77a15,15,0,0,0-2.41.29A5.79,5.79,0,0,0,11.49,20.4Zm1.34,0a5.34,5.34,0,0,0,2.36-3.32l-2.36-.29Zm0-16.8V7.22l2.4-.3A6,6,0,0,0,12.83,3.58ZM18.12,6A8.26,8.26,0,0,0,15.7,4.24l1.06,2.27Zm-1.36,11.5-1.05,2.26A8.21,8.21,0,0,0,18.12,18ZM8.31,4.24A8.51,8.51,0,0,0,5.87,6l1.39.57c.16-.41.3-.79.47-1.15S8.09,4.66,8.31,4.24ZM8.26,19.73l-1-2.27L5.88,18A8.59,8.59,0,0,0,8.26,19.73Z"/></g></g></svg>